<?xml version="1.0" encoding="UTF-8"?>
<svg width="24px" height="24px" viewBox="0 0 24 24" version="1.1" xmlns="http://www.w3.org/2000/svg" xmlns:xlink="http://www.w3.org/1999/xlink">
    <title>Iconly/Light-Outline/2 User</title>
    <defs>
        <polygon id="path-1" points="0 0.9004 15.1838 0.9004 15.1838 8 0 8"></polygon>
        <polygon id="path-3" points="0.845229384 0.426771387 4.979 0.426771387 4.979 5.4043 0.845229384 5.4043"></polygon>
    </defs>
    <g id="Iconly/Light-Outline/2-User" stroke="none" stroke-width="1" fill="none" fill-rule="evenodd">
        <g id="2-User" transform="translate(2.000000, 2.000000)">
            <g id="Group-3" transform="translate(0.000000, 11.056600)">
                <mask id="mask-2" fill="white">
                    <use xlink:href="#path-1"></use>
                </mask>
                <g id="Clip-2"></g>
                <path d="M7.5918,2.4004 C4.8128,2.4004 1.4998,2.7574 1.4998,4.4624 C1.4998,5.8144 3.5498,6.5004 7.5918,6.5004 C11.6338,6.5004 13.6838,5.8074 13.6838,4.4424 C13.6838,3.0874 11.6338,2.4004 7.5918,2.4004 M7.5918,8.0004 C5.5158,8.0004 -0.0002,8.0004 -0.0002,4.4624 C-0.0002,0.9004 5.7138,0.9004 7.5918,0.9004 C10.8508,0.9004 15.1838,1.2674 15.1838,4.4424 C15.1838,8.0004 9.4698,8.0004 7.5918,8.0004" id="Fill-1" fill="#000000" mask="url(#mask-2)"></path>
            </g>
            <path d="M7.5918,1.5 C5.5868,1.5 3.9558,3.131 3.9558,5.135 C3.9558,7.139 5.5868,8.77 7.5918,8.77 L7.6228,8.77 C8.5868,8.766 9.4948,8.387 10.1758,7.7 C10.8578,7.015 11.2308,6.104 11.2268318,5.138 C11.2268318,3.131 9.5958,1.5 7.5918,1.5 L7.5918,1.5 Z M7.5918,10.27 C4.7598,10.27 2.4558,7.966 2.4558,5.135 C2.4558,2.304 4.7598,0 7.5918,0 C10.4228,0 12.7268505,2.304 12.7268505,5.135 C12.7328,6.499 12.2038,7.787 11.2398,8.757 C10.2778,9.728 8.9928,10.265 7.6258,10.27 L7.5918,10.27 Z" id="Fill-4" fill="#000000"></path>
            <path d="M14.4824,9.1318 C14.1144,9.1318 13.7934,8.8608 13.7404,8.4858 C13.6834,8.0758 13.9684,7.6958 14.3784,7.6388 C15.6264,7.4638 16.5684,6.3808 16.5704,5.1188 C16.5704,3.8648 15.6724,2.8068 14.4374,2.6048 C14.0284,2.5368 13.7514,2.1518 13.8184,1.7428 C13.8854,1.3338 14.2724,1.0588 14.6794,1.1238 C16.6444,1.4458 18.0704,3.1268 18.0704,5.1198 C18.0664,7.1248 16.5694,8.8468 14.5874,9.1248 C14.5524,9.1298 14.5174,9.1318 14.4824,9.1318" id="Fill-6" fill="#000000"></path>
            <g id="Group-10" transform="translate(15.000000, 11.056600)">
                <mask id="mask-4" fill="white">
                    <use xlink:href="#path-3"></use>
                </mask>
                <g id="Clip-9"></g>
                <path d="M2.8955,5.4043 C2.5925,5.4043 2.3075,5.2193 2.1945,4.9203 C2.0475,4.5333 2.2425,4.0993 2.6295,3.9533 C3.4795,3.6313 3.4795,3.2383 3.4795,3.0703 C3.4795,2.5033 2.8085,2.1153 1.4855,1.9183 C1.0755,1.8563 0.7925,1.4743 0.8535,1.0653 C0.9155,0.6553 1.3045,0.3803 1.7065,0.4333 C4.4125,0.8383 4.9795,2.0913 4.9795,3.0703 C4.9795,3.7993 4.6645,4.7863 3.1615,5.3553 C3.0745,5.3883 2.9845,5.4043 2.8955,5.4043" id="Fill-8" fill="#000000" mask="url(#mask-4)"></path>
            </g>
        </g>
    </g>
</svg>