<?xml version="1.0" encoding="UTF-8"?>
<svg width="24px" height="24px" viewBox="0 0 24 24" version="1.1" xmlns="http://www.w3.org/2000/svg" xmlns:xlink="http://www.w3.org/1999/xlink">
    <title>Iconly/Broken/2 User</title>
    <g id="Iconly/Broken/2-User" stroke="none" stroke-width="1" fill="none" fill-rule="evenodd">
        <g id="2-User" transform="translate(2.000000, 2.500000)" fill="#000000" fill-rule="nonzero">
            <path d="M7.59148757,11.9178493 C10.8502676,11.9178493 15.1819752,12.283669 15.1819752,15.4494552 C15.1819752,18.7869673 10.1334256,18.987218 7.9686987,18.9992331 L7.59148757,19 C7.17751552,19 6.8415382,18.6660773 6.8415382,18.252412 C6.8415382,17.8397434 7.17751552,17.5048239 7.59148757,17.5048239 C10.3703,17.5048239 13.6820765,17.148972 13.6820765,15.4494552 C13.6820765,14.0988128 11.6332148,13.4130253 7.59148757,13.4130253 C4.81267514,13.4130253 1.49989876,13.7688773 1.49989876,15.4693909 C1.49989876,15.8501624 1.6118912,16.3415769 2.48383234,16.7682005 C2.83780845,16.9416409 3.28477828,17.0861746 3.81174271,17.1978144 C4.21671537,17.2835378 4.47569789,17.6802579 4.38870376,18.0849522 C4.30270957,18.4886498 3.90473643,18.7488104 3.49976377,18.6600966 C2.85280744,18.5225404 2.2888455,18.3381354 1.82387689,18.1118654 C0.316978604,17.3742452 -3.55271368e-15,16.2668181 -3.55271368e-15,15.4693909 C-3.55271368e-15,11.9178493 5.71361433,11.9178493 7.59148757,11.9178493 Z M15.5865479,11.2126245 C16.1655088,11.2524959 16.7464696,11.3362258 17.3144313,11.4618205 C18.5793459,11.7100198 19.4122897,12.2203732 19.7742652,12.9779291 C20.0752449,13.6088934 20.0752449,14.3305651 19.7742652,14.9615294 C19.4172893,15.7121078 18.5853455,16.2254516 17.3024321,16.4876058 C17.2514355,16.4975736 17.2014389,16.5025575 17.1504423,16.5025575 C16.8024658,16.5025575 16.489487,16.2593422 16.4174918,15.9054839 C16.3344974,15.5007896 16.5954798,15.1060631 17.0014524,15.02333 C17.7644009,14.8678317 18.281366,14.6116582 18.4193567,14.3205972 C18.5253495,14.0973176 18.5253495,13.8421409 18.4203566,13.6208548 C18.2793661,13.3278003 17.7644009,13.0736204 17.0064521,12.9250995 C16.4944866,12.8114662 15.9885208,12.7387009 15.4835549,12.7048103 C15.0705827,12.6759035 14.7586038,12.3200516 14.7876018,11.9083798 C14.8155999,11.4947144 15.1805753,11.1916921 15.5865479,11.2126245 Z M7.59168756,-9.76996262e-15 C10.4224965,-9.76996262e-15 12.725341,2.29659047 12.725341,5.11848615 C12.725341,7.94038182 10.4224965,10.2369723 7.59168756,10.2369723 C6.43176586,10.2369723 5.33883963,9.86517184 4.43290078,9.16144229 C4.10592285,8.90726236 4.04692683,8.43777707 4.30190962,8.11182868 C4.55689241,7.78687708 5.02686069,7.72806682 5.35383862,7.98124997 C5.99479535,8.47864521 6.76874311,8.7417962 7.59168756,8.7417962 C9.5955523,8.7417962 11.2254423,7.1160414 11.2254423,5.11848615 C11.2254423,3.12093089 9.5955523,1.49517609 7.59168756,1.49517609 C5.58682289,1.49517609 3.95693291,3.12093089 3.95693291,5.11848615 C3.95693291,5.53115475 3.62095559,5.86607419 3.20698353,5.86607419 C2.79301147,5.86607419 2.45703415,5.53115475 2.45703415,5.11848615 C2.45703415,2.29659047 4.75987871,-9.76996262e-15 7.59168756,-9.76996262e-15 Z M14.0192537,1.06685798 C16.2511031,1.06685798 18.0659805,2.87701783 18.0659805,5.10084307 C18.0659805,7.32566509 16.2511031,9.13482816 14.0192537,9.13482816 C13.6052816,9.13482816 13.2693043,8.79990872 13.2693043,8.38724011 C13.2693043,7.97457151 13.6052816,7.63965207 14.0192537,7.63965207 C15.4241589,7.63965207 16.5660818,6.50032789 16.5660818,5.10084307 C16.5660818,3.70135825 15.4241589,2.56203407 14.0192537,2.56203407 C13.6052816,2.56203407 13.2693043,2.22711462 13.2693043,1.81444602 C13.2693043,1.40177742 13.6052816,1.06685798 14.0192537,1.06685798 Z"></path>
        </g>
    </g>
</svg>