<?xml version="1.0" encoding="UTF-8"?>
<svg width="24px" height="24px" viewBox="0 0 24 24" version="1.1" xmlns="http://www.w3.org/2000/svg" xmlns:xlink="http://www.w3.org/1999/xlink">
    <title>Iconly/Broken/3 User</title>
    <g id="Iconly/Broken/3-User" stroke="none" stroke-width="1" fill="none" fill-rule="evenodd">
        <g id="3-User" transform="translate(1.000000, 3.500000)" fill="#000000" fill-rule="nonzero">
            <path d="M11.3976682,10.6269261 C13.4615789,10.6395659 17.7401056,10.8333761 17.7401056,13.8051324 C17.7401056,16.7916391 13.3075068,16.9864112 11.3675236,16.9991138 L11.0002308,17 C10.6180491,17 10.3078727,16.6881245 10.3078727,16.3038493 C10.3078727,15.9195741 10.6180491,15.6076986 11.0002308,15.6076986 C13.44287,15.6076986 16.3553895,15.2948949 16.3553895,13.8051324 C16.3553895,12.6188916 14.5543354,12.0183456 11.0002308,12.0183456 C8.5575916,12.0183456 5.64507209,12.3311493 5.64507209,13.82184 C5.64507209,14.154136 5.74200222,14.5820366 6.4980572,14.9542452 C6.80823361,15.1073983 7.20149298,15.23549 7.66491129,15.3348075 C8.03878464,15.4146328 8.27787895,15.784985 8.19756542,16.1609064 C8.11817503,16.5368277 7.7489174,16.7800164 7.37689035,16.6964783 C6.80269474,16.5730276 6.30235066,16.4078078 5.88878212,16.20546 C4.54283808,15.5417963 4.260356,14.5430521 4.260356,13.82184 C4.260356,10.8344657 8.6929548,10.6396369 10.6329379,10.6269307 Z M18.0694834,9.99774502 C18.5818283,10.0320885 19.0969427,10.1072727 19.6028257,10.219585 C20.7299846,10.4442097 21.4731155,10.9055255 21.7971391,11.5877532 C22.0676203,12.1585968 22.0676203,12.8120502 21.7971391,13.3828938 C21.4768081,14.0595523 20.7355234,14.5227245 19.5917479,14.7594158 C19.5455907,14.769626 19.4985104,14.774267 19.45143,14.774267 C19.1301759,14.774267 18.842155,14.5468578 18.7747654,14.2182746 C18.6981445,13.8414251 18.9390851,13.4729293 19.3138816,13.3958886 C20.2582579,13.2000382 20.4908902,12.9030139 20.547202,12.7842042 C20.636747,12.5948512 20.636747,12.376724 20.547202,12.187371 C20.4290396,11.937685 19.970237,11.7121321 19.3184973,11.582184 C18.8652336,11.4819383 18.4184318,11.416036 17.977169,11.3863336 C17.5949873,11.3612722 17.3069664,11.028048 17.3328144,10.6447011 C17.3577393,10.2613541 17.6909943,9.9773246 18.0694834,9.99774502 Z M3.93790178,9.98345072 C4.3071594,9.95467649 4.64964585,10.2470598 4.67549388,10.6304068 C4.70134192,11.014682 4.41332097,11.3469779 4.03113933,11.3720393 C3.58618389,11.4017417 3.13938216,11.467644 2.70273502,11.5660333 C2.03253244,11.698766 1.57188355,11.9252471 1.45279797,12.1758613 C1.36325299,12.3661425 1.36325299,12.5861261 1.45279797,12.7764073 C1.5100329,12.8961452 1.7426652,13.1940977 2.69073415,13.3899481 C3.06553064,13.4669888 3.30647124,13.8345564 3.22985028,14.211406 C3.16338391,14.5409173 2.87443982,14.7673983 2.55226254,14.7673983 C2.50610534,14.7673983 2.45994814,14.7627573 2.41286779,14.7534753 C1.26724601,14.5177123 0.524115041,14.0536118 0.202860907,13.3741687 C-0.0676203025,12.8033251 -0.0676203025,12.1489435 0.202860907,11.5780999 C0.527807617,10.8921594 1.27278487,10.4289872 2.41748351,10.2025061 C2.90582672,10.0929784 3.42371054,10.0177942 3.93790178,9.98345072 Z M11.0005077,-1.25233157e-13 C13.5188447,-1.25233157e-13 15.5682245,2.05967786 15.5682245,4.59273819 C15.5682245,7.12579853 13.5188447,9.18547639 11.0005077,9.18547639 C9.96935581,9.18547639 8.99728512,8.85225225 8.19045721,8.22107562 C7.8885891,7.98531259 7.8341236,7.54812995 8.06860219,7.24460824 C8.30215764,6.94015834 8.73880478,6.88632269 9.04067289,7.12301392 C9.60194448,7.56112476 10.2795322,7.79317499 11.0005077,7.79317499 C12.7563277,7.79317499 14.1835085,6.35724816 14.1835085,4.59273819 C14.1835085,2.82822823 12.7563277,1.39230139 11.0005077,1.39230139 C9.24468773,1.39230139 7.81658386,2.82822823 7.81658386,4.59273819 C7.81658386,4.97701338 7.50640746,5.28888889 7.12422582,5.28888889 C6.74204418,5.28888889 6.43186777,4.97701338 6.43186777,4.59273819 C6.43186777,2.05967786 8.48124759,-1.25233157e-13 11.0005077,-1.25233157e-13 Z M16.6832903,0.951034671 C18.6717426,0.951034671 20.2900141,2.5772427 20.2900141,4.5775157 C20.2900141,6.5768605 18.6717426,8.20399672 16.6832903,8.20399672 C16.3011086,8.20399672 15.9909322,7.89212121 15.9909322,7.50784603 C15.9909322,7.12357084 16.3011086,6.81169533 16.6832903,6.81169533 C17.9083024,6.81169533 18.905298,5.80923833 18.905298,4.5775157 C18.905298,3.34579307 17.9083024,2.34333606 16.6832903,2.34333606 C16.3011086,2.34333606 15.9909322,2.03146055 15.9909322,1.64718537 C15.9909322,1.26198198 16.3011086,0.951034671 16.6832903,0.951034671 Z M5.32834136,0.912607153 C5.710523,0.912607153 6.02069941,1.22448266 6.02069941,1.60875785 C6.02069941,1.99303303 5.710523,2.30490854 5.32834136,2.30490854 C4.09871347,2.30490854 3.09802531,3.31107835 3.09802531,4.54744199 C3.09802531,5.78380562 4.09871347,6.78904723 5.32834136,6.78904723 C5.710523,6.78904723 6.02069941,7.10092274 6.02069941,7.48519793 C6.02069941,7.86947311 5.710523,8.18134862 5.32834136,8.18134862 C3.33527333,8.18134862 1.71330922,6.55142779 1.71330922,4.54744199 C1.71330922,2.54345618 3.33527333,0.912607153 5.32834136,0.912607153 Z"></path>
        </g>
    </g>
</svg>