<?xml version="1.0" encoding="UTF-8"?>
<svg width="24px" height="24px" viewBox="0 0 24 24" version="1.1" xmlns="http://www.w3.org/2000/svg" xmlns:xlink="http://www.w3.org/1999/xlink">
    <title>Iconly/Light-Outline/Activity</title>
    <defs>
        <polygon id="path-1" points="0.2953 0.297 5.6393 0.297 5.6393 5.6419 0.2953 5.6419"></polygon>
        <polygon id="path-3" points="0 0.139 19.8619 0.139 19.8619 20 0 20"></polygon>
    </defs>
    <g id="Iconly/Light-Outline/Activity" stroke="none" stroke-width="1" fill="none" fill-rule="evenodd">
        <g id="Activity" transform="translate(2.000000, 1.000000)">
            <path d="M5.2163,15.0029 C5.0563,15.0029 4.8953,14.9519 4.7593,14.8479 C4.4313,14.5949 4.3693,14.1239 4.6223,13.7959 L7.6153,9.9059 C7.7373,9.7469 7.9183,9.6439 8.1163,9.6189 C8.3183,9.5929 8.5163,9.6489 8.6733,9.7739 L11.4933,11.9889 L13.9603,8.8059 C14.2143,8.4769 14.6843,8.4159 15.0123,8.6719 C15.3403,8.9259 15.4003,9.3969 15.1463,9.7239 L12.2163,13.5039 C12.0943,13.6619 11.9143,13.7649 11.7163,13.7889 C11.5163,13.8159 11.3183,13.7579 11.1603,13.6349 L8.3423,11.4209 L5.8113,14.7099 C5.6633,14.9019 5.4413,15.0029 5.2163,15.0029" id="Fill-1" fill="#000000"></path>
            <g id="Group-5" transform="translate(15.000000, 0.703100)">
                <mask id="mask-2" fill="white">
                    <use xlink:href="#path-1"></use>
                </mask>
                <g id="Clip-4"></g>
                <path d="M2.9673,1.7969 C2.3213,1.7969 1.7953,2.3219 1.7953,2.9689 C1.7953,3.6149 2.3213,4.1419 2.9673,4.1419 C3.6133,4.1419 4.1393,3.6149 4.1393,2.9689 C4.1393,2.3219 3.6133,1.7969 2.9673,1.7969 M2.9673,5.6419 C1.4943,5.6419 0.2953,4.4429 0.2953,2.9689 C0.2953,1.4949 1.4943,0.2969 2.9673,0.2969 C4.4413,0.2969 5.6393,1.4949 5.6393,2.9689 C5.6393,4.4429 4.4413,5.6419 2.9673,5.6419" id="Fill-3" fill="#000000" mask="url(#mask-2)"></path>
            </g>
            <g id="Group-8" transform="translate(0.000000, 1.703100)">
                <mask id="mask-4" fill="white">
                    <use xlink:href="#path-3"></use>
                </mask>
                <g id="Clip-7"></g>
                <path d="M14.2329,20 L5.6289,20 C2.2619,20 -0.0001,17.635 -0.0001,14.115 L-0.0001,6.033 C-0.0001,2.508 2.2619,0.139 5.6289,0.139 L12.8969,0.139 C13.3109,0.139 13.6469,0.475 13.6469,0.889 C13.6469,1.303 13.3109,1.639 12.8969,1.639 L5.6289,1.639 C3.1209,1.639 1.4999,3.363 1.4999,6.033 L1.4999,14.115 C1.4999,16.82 3.0819,18.5 5.6289,18.5 L14.2329,18.5 C16.7409,18.5 18.3619,16.779 18.3619,14.115 L18.3619,7.076 C18.3619,6.662 18.6979,6.326 19.1119,6.326 C19.5259,6.326 19.8619,6.662 19.8619,7.076 L19.8619,14.115 C19.8619,17.635 17.5999,20 14.2329,20" id="Fill-6" fill="#000000" mask="url(#mask-4)"></path>
            </g>
        </g>
    </g>
</svg>