<?xml version="1.0" encoding="UTF-8"?>
<svg width="24px" height="24px" viewBox="0 0 24 24" version="1.1" xmlns="http://www.w3.org/2000/svg" xmlns:xlink="http://www.w3.org/1999/xlink">
    <title>Iconly/Broken/Add User</title>
    <g id="Iconly/Broken/Add-User" stroke="none" stroke-width="1" fill="none" fill-rule="evenodd">
        <g id="Add-User" transform="translate(2.000000, 2.000000)" fill="#000000" fill-rule="nonzero">
            <path d="M8.30666915,12.6407879 C10.5612209,12.6528049 15.8428864,12.8570945 15.8428864,16.3300183 C15.8428864,19.6190019 11.3221835,20 7.9214432,20 C7.57867886,20 7.24089657,19.995 6.90909272,19.9870001 C6.51451517,19.9750001 6.20363589,19.6440018 6.21559279,19.2470038 C6.22655328,18.8510057 6.5683212,18.5530072 6.95094185,18.5500072 C7.26879599,18.5600072 7.59262857,18.5640072 7.9214432,18.5640072 C12.2279184,18.5640072 14.4120446,17.8130109 14.4120446,16.3300183 C14.4120446,14.8340258 12.2279184,14.0760296 7.9214432,14.0760296 C3.61496804,14.0760296 1.43084182,14.8280259 1.43084182,16.3100184 C1.43084182,16.795016 1.60222398,17.4980125 3.08986105,18.00401 C3.46451044,18.1310093 3.66478844,18.5390073 3.53824463,18.9140054 C3.41070441,19.2880036 3.00616278,19.4940025 2.63051699,19.3640032 C0.456354841,18.6250069 -6.92779167e-14,17.2950135 -6.92779167e-14,16.3100184 C-6.92779167e-14,13.0200349 4.52070287,12.6400368 7.9214432,12.6400368 Z M17.2140434,6.03446983 C17.6265563,6.03446983 17.9613493,6.37046815 17.9613493,6.78446608 L17.9613493,6.78446608 L17.9613493,8.03845981 L19.252694,8.03845981 C19.6652069,8.03845981 20,8.37445813 20,8.78845606 C20,9.20245399 19.6652069,9.53845231 19.252694,9.53845231 L19.252694,9.53845231 L17.9613493,9.53845231 L17.9613493,10.793446 C17.9613493,11.207444 17.6265563,11.5434423 17.2140434,11.5434423 C16.8015305,11.5434423 16.4667374,11.207444 16.4667374,10.793446 L16.4667374,10.793446 L16.4667374,9.53845231 L15.1773855,9.53845231 C14.7648726,9.53845231 14.4300796,9.20245399 14.4300796,8.78845606 C14.4300796,8.37445813 14.7648726,8.03845981 15.1773855,8.03845981 L15.1773855,8.03845981 L16.4667374,8.03845981 L16.4667374,6.78446608 C16.4667374,6.37046815 16.8015305,6.03446983 17.2140434,6.03446983 Z M7.9214432,4.08562073e-14 C10.8628395,4.08562073e-14 13.255215,2.40198799 13.255215,5.35397323 C13.255215,8.30595847 10.8628395,10.7079465 7.9214432,10.7079465 C4.98004693,10.7079465 2.58767144,8.30595847 2.58767144,5.35397323 C2.58767144,2.40198799 4.98004693,4.08562073e-14 7.9214432,4.08562073e-14 Z M7.9214432,1.43699282 C5.76920203,1.43699282 4.01851326,3.19398403 4.01851326,5.35397323 C4.01851326,7.51396243 5.76920203,9.27095365 7.9214432,9.27095365 C10.0736844,9.27095365 11.8243731,7.51396243 11.8243731,5.35397323 C11.8243731,3.19398403 10.0736844,1.43699282 7.9214432,1.43699282 Z"></path>
        </g>
    </g>
</svg>