<?xml version="1.0" encoding="UTF-8"?>
<svg width="24px" height="24px" viewBox="0 0 24 24" version="1.1" xmlns="http://www.w3.org/2000/svg" xmlns:xlink="http://www.w3.org/1999/xlink">
    <title>Iconly/Light-Outline/Add User</title>
    <defs>
        <polygon id="path-1" points="0 0.6611 15.754 0.6611 15.754 8 0 8"></polygon>
    </defs>
    <g id="Iconly/Light-Outline/Add-User" stroke="none" stroke-width="1" fill="none" fill-rule="evenodd">
        <g id="Add-User" transform="translate(2.000000, 2.000000)">
            <g id="Group-3" transform="translate(0.000000, 11.794900)">
                <mask id="mask-2" fill="white">
                    <use xlink:href="#path-1"></use>
                </mask>
                <g id="Clip-2"></g>
                <path d="M7.877,2.1611 C3.646,2.1611 1.5,2.8881 1.5,4.3201 C1.5,5.7661 3.646,6.5001 7.877,6.5001 C12.108,6.5001 14.254,5.7731 14.254,4.3421 C14.254,2.8941 12.108,2.1611 7.877,2.1611 M7.877,8.0001 C5.929,8.0001 0,8.0001 0,4.3201 C0,1.0401 4.495,0.6611 7.877,0.6611 C9.825,0.6611 15.754,0.6611 15.754,4.3421 C15.754,7.6211 11.259,8.0001 7.877,8.0001" id="Fill-1" fill="#000000" mask="url(#mask-2)"></path>
            </g>
            <path d="M7.877,1.5 C5.773,1.5 4.05996969,3.213 4.05996969,5.318 C4.056,6.337 4.448,7.292 5.163,8.013 C5.879,8.733 6.833,9.132 7.849,9.136 L7.877,9.886 L7.877,9.136 C9.982,9.136 11.695,7.423 11.695,5.318 C11.695,3.213 9.982,1.5 7.877,1.5 M7.877,10.636 L7.846,10.636 C6.427,10.631 5.097,10.074 4.1,9.07 C3.102,8.065 2.555,6.731 2.55996602,5.315 C2.55996602,2.386 4.945,-3.55271368e-15 7.877,-3.55271368e-15 C10.81,-3.55271368e-15 13.195,2.386 13.195,5.318 C13.195,8.25 10.81,10.636 7.877,10.636" id="Fill-4" fill="#000000"></path>
            <path d="M17.2041,11.4297 C16.7901,11.4297 16.4541,11.0937 16.4541,10.6797 L16.4541,6.6687 C16.4541,6.2547 16.7901,5.9187 17.2041,5.9187 C17.6181,5.9187 17.9541,6.2547 17.9541,6.6687 L17.9541,10.6797 C17.9541,11.0937 17.6181,11.4297 17.2041,11.4297" id="Fill-6" fill="#000000"></path>
            <path d="M19.25,9.4238 L15.16,9.4238 C14.746,9.4238 14.41,9.0878 14.41,8.6738 C14.41,8.2598 14.746,7.9238 15.16,7.9238 L19.25,7.9238 C19.664,7.9238 20,8.2598 20,8.6738 C20,9.0878 19.664,9.4238 19.25,9.4238" id="Fill-8" fill="#000000"></path>
        </g>
    </g>
</svg>