<?xml version="1.0" encoding="UTF-8"?>
<svg width="24px" height="24px" viewBox="0 0 24 24" version="1.1" xmlns="http://www.w3.org/2000/svg" xmlns:xlink="http://www.w3.org/1999/xlink">
    <title>Iconly/Broken/Arrow - Up</title>
    <g id="Iconly/Broken/Arrow---Up" stroke="none" stroke-width="1" fill="none" fill-rule="evenodd">
        <g id="Arrow---Up" transform="translate(4.500000, 3.000000)" fill="#000000" fill-rule="nonzero">
            <path d="M7.49983393,18 C7.07673708,18 6.7272223,17.6876772 6.67595432,17.2844034 L6.66948082,17.1818182 L6.66948082,0.818181818 C6.66948082,0.486545455 6.87208698,0.188727273 7.18319261,0.0621818182 C7.28504926,0.0207272727 7.39244159,0 7.49983393,0 C7.67974377,0 7.85811592,0.0575757576 8.00419656,0.168308081 L8.08772393,0.241090909 L14.7582273,6.84109091 C15.0815114,7.16072727 15.0804043,7.67890909 14.756013,7.99745455 C14.4576394,8.28945455 13.990881,8.31378788 13.6661489,8.06877399 L13.5813401,7.99527273 L8.33018704,2.79927273 L8.33018704,17.1818182 C8.33018704,17.6334545 7.95818885,18 7.49983393,18 Z M1.41865989,7.99538182 C1.09537574,8.31610909 0.569485439,8.31610909 0.243987019,7.99756364 C-0.0533716559,7.70556364 -0.0790818485,7.24581364 0.167709219,6.92417475 L0.241772744,6.84010909 L3.92079059,3.20083636 C4.0835398,3.03938182 4.2961102,2.95974545 4.50978773,2.95974545 C4.72125099,2.95974545 4.93271425,3.03938182 5.09546346,3.19865455 C5.39383701,3.49065455 5.41963178,3.94948788 5.17199498,4.27097399 L5.09767774,4.35501818 L1.41865989,7.99538182 Z"></path>
        </g>
    </g>
</svg>