<?xml version="1.0" encoding="UTF-8"?>
<svg width="24px" height="24px" viewBox="0 0 24 24" version="1.1" xmlns="http://www.w3.org/2000/svg" xmlns:xlink="http://www.w3.org/1999/xlink">
    <title>Iconly/Light-Outline/Arrow - Up Square</title>
    <g id="Iconly/Light-Outline/Arrow---Up-Square" stroke="none" stroke-width="1" fill="none" fill-rule="evenodd">
        <g id="Arrow---Up-Square" transform="translate(12.000000, 12.000000) scale(1, -1) translate(-12.000000, -12.000000) translate(2.000000, 2.000000)" fill="#000000">
            <path d="M5.666,1.5 C3.136,1.5 1.5,3.233 1.5,5.916 L1.5,14.084 C1.5,16.767 3.136,18.5 5.666,18.5 L14.335,18.5 C16.865,18.5 18.5,16.767 18.5,14.084 L18.5,5.916 C18.5,3.233 16.865,1.5 14.335,1.5 L5.666,1.5 Z M14.335,20 L5.666,20 C2.277,20 0,17.622 0,14.084 L0,5.916 C0,2.378 2.277,0 5.666,0 L14.335,0 C17.724,0 20,2.378 20,5.916 L20,14.084 C20,17.622 17.724,20 14.335,20 L14.335,20 Z" id="Fill-1"></path>
            <path d="M10,14.8359 C9.586,14.8359 9.25,14.4999 9.25,14.0859 L9.25,5.9139 C9.25,5.4999 9.586,5.1639 10,5.1639 C10.414,5.1639 10.75,5.4999 10.75,5.9139 L10.75,14.0859 C10.75,14.4999 10.414,14.8359 10,14.8359" id="Fill-3"></path>
            <path d="M10,14.8369 C9.801,14.8369 9.609,14.7579 9.469,14.6159 L5.721,10.8519 C5.428,10.5579 5.43,10.0829 5.723,9.7909 C6.017,9.4999 6.491,9.4979 6.783,9.7929 L10,13.0239 L13.217,9.7929 C13.51,9.4979 13.984,9.4999 14.277,9.7909 C14.57,10.0829 14.572,10.5579 14.279,10.8519 L10.531,14.6159 C10.391,14.7579 10.199,14.8369 10,14.8369" id="Fill-5"></path>
        </g>
    </g>
</svg>