<?xml version="1.0" encoding="UTF-8"?>
<svg width="24px" height="24px" viewBox="0 0 24 24" version="1.1" xmlns="http://www.w3.org/2000/svg" xmlns:xlink="http://www.w3.org/1999/xlink">
    <title>Iconly/Broken/Arrow - Right 2</title>
    <g id="Iconly/Broken/Arrow---Right-2" stroke="none" stroke-width="1" fill="none" fill-rule="evenodd">
        <g id="Arrow---Right-2" transform="translate(7.500000, 4.000000)" fill="#000000" fill-rule="nonzero">
            <path d="M0.243996902,15.75831 C-0.0535398916,15.4635826 -0.0802091402,15.0010382 0.170862381,14.6783413 L0.24622773,14.5940314 L7.57226956,7.41742284 C7.90020139,7.095902 8.43002324,7.09699934 8.75572424,7.41961752 C8.91745933,7.57982927 9,7.7905187 9,8.00011079 C9,8.17659976 8.94268009,8.35232669 8.82868577,8.498715 L8.75349342,8.58279873 L1.42745159,15.7594073 C1.09951975,16.0809282 0.569697909,16.0798308 0.243996902,15.75831 Z M0.246339272,1.407068 C-0.0827079783,1.08554716 -0.0804771495,0.564310297 0.244108443,0.242789453 C0.542667699,-0.052943883 1.01274516,-0.0785103987 1.34160909,0.166089906 L1.42756313,0.239497431 L6.29300077,5.00524837 C6.45696669,5.16546012 6.53950736,5.37724689 6.53950736,5.58793632 C6.53950736,5.7975284 6.45696669,6.00821783 6.2952316,6.16842958 C5.99667235,6.46416292 5.52659489,6.48972943 5.19773096,6.24512913 L5.11177692,6.17172161 L0.246339272,1.407068 Z"></path>
        </g>
    </g>
</svg>