<?xml version="1.0" encoding="UTF-8"?>
<svg width="24px" height="24px" viewBox="0 0 24 24" version="1.1" xmlns="http://www.w3.org/2000/svg" xmlns:xlink="http://www.w3.org/1999/xlink">
    <title>Iconly/Light-Outline/Arrow - Right Circle</title>
    <g id="Iconly/Light-Outline/Arrow---Right-Circle" stroke="none" stroke-width="1" fill="none" fill-rule="evenodd">
        <g id="Arrow---Right-Circle" transform="translate(2.000000, 2.000000)" fill="#000000">
            <path d="M10,1.5 C5.313,1.5 1.5,5.313 1.5,10 C1.5,14.687 5.313,18.5 10,18.5 C14.687,18.5 18.5,14.687 18.5,10 C18.5,5.313 14.687,1.5 10,1.5 M10,20 C4.486,20 0,15.514 0,10 C0,4.486 4.486,0 10,0 C15.514,0 20,4.486 20,10 C20,15.514 15.514,20 10,20" id="Fill-1"></path>
            <path d="M8.5586,14.2207 C8.3666,14.2207 8.1736,14.1477 8.0276,13.9997 C7.7356,13.7057 7.7366,13.2317 8.0296,12.9397 L10.9816,9.9997 L8.0296,7.0607 C7.7366,6.7687 7.7356,6.2937 8.0276,5.9997 C8.3196,5.7047 8.7936,5.7067 9.0876,5.9977 L12.5736,9.4687 C12.7146,9.6097 12.7936,9.8007 12.7936,9.9997 C12.7936,10.1997 12.7146,10.3907 12.5736,10.5317 L9.0876,14.0017 C8.9416,14.1477 8.7496,14.2207 8.5586,14.2207" id="Fill-3"></path>
        </g>
    </g>
</svg>