<?xml version="1.0" encoding="UTF-8"?>
<svg width="24px" height="24px" viewBox="0 0 24 24" version="1.1" xmlns="http://www.w3.org/2000/svg" xmlns:xlink="http://www.w3.org/1999/xlink">
    <title>Iconly/Light-Outline/Arrow - Right Square</title>
    <g id="Iconly/Light-Outline/Arrow---Right-Square" stroke="none" stroke-width="1" fill="none" fill-rule="evenodd">
        <g id="Arrow---Right-Square" transform="translate(2.000000, 2.000000)" fill="#000000">
            <path d="M5.916,1.5 C3.233,1.5 1.5,3.135 1.5,5.665 L1.5,14.334 C1.5,16.864 3.233,18.5 5.916,18.5 L14.084,18.5 C16.767,18.5 18.5,16.864 18.5,14.334 L18.5,5.665 C18.5,3.135 16.767,1.5 14.084,1.5 L5.916,1.5 Z M14.084,20 L5.916,20 C2.378,20 0,17.723 0,14.334 L0,5.665 C0,2.276 2.378,0 5.916,0 L14.084,0 C17.622,0 20,2.276 20,5.665 L20,14.334 C20,17.723 17.622,20 14.084,20 L14.084,20 Z" id="Fill-1"></path>
            <path d="M14.0859,10.75 L5.9139,10.75 C5.4999,10.75 5.1639,10.414 5.1639,10 C5.1639,9.586 5.4999,9.25 5.9139,9.25 L14.0859,9.25 C14.4999,9.25 14.8359,9.586 14.8359,10 C14.8359,10.414 14.4999,10.75 14.0859,10.75" id="Fill-3"></path>
            <path d="M10.3223,14.498 C10.1303,14.498 9.9373,14.425 9.7913,14.277 C9.4993,13.983 9.5003,13.509 9.7933,13.217 L13.0233,10 L9.7933,6.783 C9.5003,6.491 9.4993,6.017 9.7913,5.723 C10.0833,5.429 10.5573,5.429 10.8513,5.721 L14.6153,9.469 C14.7573,9.609 14.8363,9.801 14.8363,10 C14.8363,10.199 14.7573,10.391 14.6153,10.531 L10.8513,14.279 C10.7053,14.425 10.5133,14.498 10.3223,14.498" id="Fill-5"></path>
        </g>
    </g>
</svg>