<?xml version="1.0" encoding="UTF-8"?>
<svg width="24px" height="24px" viewBox="0 0 24 24" version="1.1" xmlns="http://www.w3.org/2000/svg" xmlns:xlink="http://www.w3.org/1999/xlink">
    <title>Iconly/Light-Outline/Arrow - Left Circle</title>
    <g id="Iconly/Light-Outline/Arrow---Left-Circle" stroke="none" stroke-width="1" fill="none" fill-rule="evenodd">
        <g id="Arrow---Left-Circle" transform="translate(2.000000, 2.000000)" fill="#000000">
            <path d="M10,1.5 C5.313,1.5 1.5,5.313 1.5,10 C1.5,14.687 5.313,18.5 10,18.5 C14.687,18.5 18.5,14.687 18.5,10 C18.5,5.313 14.687,1.5 10,1.5 M10,20 C4.486,20 0,15.514 0,10 C0,4.486 4.486,0 10,0 C15.514,0 20,4.486 20,10 C20,15.514 15.514,20 10,20" id="Fill-1"></path>
            <path d="M11.4424,14.2207 C11.2514,14.2207 11.0594,14.1477 10.9134,14.0017 L7.4264,10.5317 C7.2854,10.3907 7.2064,10.1997 7.2064,9.9997 C7.2064,9.8007 7.2854,9.6097 7.4264,9.4687 L10.9134,5.9977 C11.2064,5.7057 11.6804,5.7057 11.9734,5.9997 C12.2664,6.2937 12.2644,6.7687 11.9714,7.0607 L9.0194,9.9997 L11.9714,12.9397 C12.2644,13.2317 12.2664,13.7057 11.9734,13.9997 C11.8274,14.1477 11.6344,14.2207 11.4424,14.2207" id="Fill-3"></path>
        </g>
    </g>
</svg>