<?xml version="1.0" encoding="UTF-8"?>
<svg width="24px" height="24px" viewBox="0 0 24 24" version="1.1" xmlns="http://www.w3.org/2000/svg" xmlns:xlink="http://www.w3.org/1999/xlink">
    <title>Iconly/Broken/Arrow - Down</title>
    <g id="Iconly/Broken/Arrow---Down" stroke="none" stroke-width="1" fill="none" fill-rule="evenodd">
        <g id="Arrow---Down" transform="translate(4.000000, 3.000000)" fill="#000000" fill-rule="nonzero">
            <path d="M7.50016607,0 C7.95852099,0 8.33051918,0.366545455 8.33051918,0.818181818 L8.33051918,0.818181818 L8.33051918,17.1818182 C8.33051918,17.5134545 8.12791302,17.8112727 7.81680739,17.9378182 C7.71495074,17.9792727 7.60755841,18 7.50016607,18 C7.28427426,18 7.07059673,17.9170909 6.91227607,17.7589091 L6.91227607,17.7589091 L0.241772744,11.1589091 C-0.0815114002,10.8392727 -0.0804042627,10.3210909 0.243987019,10.0025455 C0.569485439,9.684 1.09537574,9.684 1.41865989,10.0047273 L1.41865989,10.0047273 L6.66981296,15.2007273 L6.66981296,0.818181818 C6.66981296,0.366545455 7.04181115,0 7.50016607,0 Z M13.5813401,10.0046182 C13.9046243,9.68389091 14.4305146,9.68389091 14.756013,10.0024364 C15.0804043,10.3209818 15.0815114,10.8391636 14.7582273,11.1598909 L14.7582273,11.1598909 L11.0792094,14.7991636 C10.9164602,14.9606182 10.7038898,15.0402545 10.4902123,15.0402545 C10.278749,15.0402545 10.0672857,14.9606182 9.90453654,14.8013455 C9.57903812,14.4828 9.57793098,13.9657091 9.90232226,13.6449818 L9.90232226,13.6449818 Z"></path>
        </g>
    </g>
</svg>