<?xml version="1.0" encoding="UTF-8"?>
<svg width="24px" height="24px" viewBox="0 0 24 24" version="1.1" xmlns="http://www.w3.org/2000/svg" xmlns:xlink="http://www.w3.org/1999/xlink">
    <title>Iconly/Light-Outline/Arrow - Down</title>
    <g id="Iconly/Light-Outline/Arrow---Down" stroke="none" stroke-width="1" fill="none" fill-rule="evenodd">
        <g id="Arrow---Down" transform="translate(5.500000, 4.000000)" fill="#000000" fill-rule="nonzero">
            <path d="M6.7743,0 C7.15399577,0 7.46779096,0.282153882 7.51745338,0.648229443 L7.5243,0.75 L7.5243,15.75 C7.5243,16.1642136 7.18851356,16.5 6.7743,16.5 C6.39460423,16.5 6.08080904,16.2178461 6.03114662,15.8517706 L6.0243,15.75 L6.0243,0.75 C6.0243,0.335786438 6.36008644,0 6.7743,0 Z" id="Stroke-1"></path>
            <path d="M12.2672291,9.17101315 C12.559491,8.8774899 13.0343636,8.87646731 13.3278869,9.16872914 C13.5947262,9.43442171 13.6198294,9.8510323 13.4026077,10.1451122 L13.3301709,10.2293869 L7.30617086,16.2793869 C7.03968441,16.5470235 6.62157145,16.5713704 6.32749818,16.3524163 L6.24327306,16.279431 L0.218273061,10.229431 C-0.074013127,9.93593197 -0.0730299537,9.46105925 0.22046904,9.16877306 C0.487286308,8.90305834 0.903999213,8.879715 1.19715903,9.09817688 L1.28112694,9.17096904 L6.775,14.687 L12.2672291,9.17101315 Z" id="Stroke-3"></path>
        </g>
    </g>
</svg>