<?xml version="1.0" encoding="UTF-8"?>
<svg width="24px" height="24px" viewBox="0 0 24 24" version="1.1" xmlns="http://www.w3.org/2000/svg" xmlns:xlink="http://www.w3.org/1999/xlink">
    <title>Iconly/Broken/Arrow - Left 3</title>
    <g id="Iconly/Broken/Arrow---Left-3" stroke="none" stroke-width="1" fill="none" fill-rule="evenodd">
        <g id="Arrow---Left-3" transform="translate(2.500000, 6.000000)" fill="#000000" fill-rule="nonzero">
            <path d="M14.2827459,5.76162506 L10.2173498,5.76162506 L10.2173498,-2.26578561 C10.2173498,-2.67107195 9.89601995,-3 9.5000957,-3 C9.10417145,-3 8.78284162,-2.67107195 8.78284162,-2.26578561 L8.78284162,5.76162506 L4.71744548,5.76162506 C4.456365,5.76162506 4.21536763,5.90651003 4.08913091,6.14145864 C3.96289419,6.37542829 3.97150124,6.66128243 4.11017036,6.88644151 L8.89282058,14.6563877 C9.02479533,14.8707783 9.2533603,15 9.5000957,15 C9.7468311,15 9.97539607,14.8707783 10.1073708,14.6563877 L13.0825408,9.82134116 C13.2938916,9.47968674 13.1934761,9.02545277 12.8587575,8.80910426 C12.5230826,8.5937347 12.0802977,8.69652472 11.8689468,9.04013705 L9.5000957,12.8874205 L6.01615354,7.23005384 L14.2827459,7.23005384 C14.6786702,7.23005384 15,6.9011258 15,6.49583945 C15,6.09055311 14.6786702,5.76162506 14.2827459,5.76162506" transform="translate(9.500000, 6.000000) rotate(-270.000000) translate(-9.500000, -6.000000) "></path>
        </g>
    </g>
</svg>