<?xml version="1.0" encoding="UTF-8"?>
<svg width="24px" height="24px" viewBox="0 0 24 24" version="1.1" xmlns="http://www.w3.org/2000/svg" xmlns:xlink="http://www.w3.org/1999/xlink">
    <title>Iconly/Broken/Arrow - Up 2</title>
    <g id="Iconly/Broken/Arrow---Up-2" stroke="none" stroke-width="1" fill="none" fill-rule="evenodd">
        <g id="Arrow---Up-2" transform="translate(4.000000, 7.500000)" fill="#000000" fill-rule="nonzero">
            <path d="M0.241690006,8.7560031 C0.536417446,9.05353989 0.998961819,9.08020914 1.32165875,8.82913762 L1.40596856,8.75377227 L8.58257716,1.42773044 C8.904098,1.09979861 8.90300066,0.569976762 8.58038248,0.244275755 C8.42017073,0.0825406662 8.2094813,0 7.99988921,0 C7.82340024,0 7.64767331,0.057319907 7.501285,0.171314227 L7.41720127,0.246506584 L0.240592665,7.57254841 C-0.0809281792,7.90048025 -0.0798308384,8.43030209 0.241690006,8.7560031 Z M14.592932,8.75366073 C14.9144528,9.08270798 15.4356897,9.08047715 15.7572105,8.75589156 C16.0529439,8.4573323 16.0785104,7.98725484 15.8339101,7.65839091 L15.7605026,7.57243687 L10.9947516,2.70699923 C10.8345399,2.54303331 10.6227531,2.46049264 10.4120637,2.46049264 C10.2024716,2.46049264 9.99178217,2.54303331 9.83157042,2.7047684 C9.53583708,3.00332765 9.51027057,3.47340511 9.75487087,3.80226904 L9.82827839,3.88822308 L14.592932,8.75366073 Z"></path>
        </g>
    </g>
</svg>