<?xml version="1.0" encoding="UTF-8"?>
<svg width="24px" height="24px" viewBox="0 0 24 24" version="1.1" xmlns="http://www.w3.org/2000/svg" xmlns:xlink="http://www.w3.org/1999/xlink">
    <title>Iconly/Broken/Arrow - Left 2</title>
    <g id="Iconly/Broken/Arrow---Left-2" stroke="none" stroke-width="1" fill="none" fill-rule="evenodd">
        <g id="Arrow---Left-2" transform="translate(7.500000, 4.000000)" fill="#000000" fill-rule="nonzero">
            <path d="M8.7560031,15.75831 C9.05353989,15.4635826 9.08020914,15.0010382 8.82913762,14.6783413 L8.75377227,14.5940314 L1.42773044,7.41742284 C1.09979861,7.095902 0.569976762,7.09699934 0.244275755,7.41961752 C0.0825406662,7.57982927 0,7.7905187 0,8.00011079 C0,8.17659976 0.057319907,8.35232669 0.171314227,8.498715 L0.246506584,8.58279873 L7.57254841,15.7594073 C7.90048025,16.0809282 8.43030209,16.0798308 8.7560031,15.75831 Z M8.75366073,1.407068 C9.08270798,1.08554716 9.08047715,0.564310297 8.75589156,0.242789453 C8.4573323,-0.052943883 7.98725484,-0.0785103987 7.65839091,0.166089906 L7.57243687,0.239497431 L2.70699923,5.00524837 C2.54303331,5.16546012 2.46049264,5.37724689 2.46049264,5.58793632 C2.46049264,5.7975284 2.54303331,6.00821783 2.7047684,6.16842958 C3.00332765,6.46416292 3.47340511,6.48972943 3.80226904,6.24512913 L3.88822308,6.17172161 L8.75366073,1.407068 Z"></path>
        </g>
    </g>
</svg>