<?xml version="1.0" encoding="UTF-8"?>
<svg width="24px" height="24px" viewBox="0 0 24 24" version="1.1" xmlns="http://www.w3.org/2000/svg" xmlns:xlink="http://www.w3.org/1999/xlink">
    <title>Iconly/Broken/Arrow - Down 3</title>
    <g id="Iconly/Broken/Arrow---Down-3" stroke="none" stroke-width="1" fill="none" fill-rule="evenodd">
        <g id="Arrow---Down-3" transform="translate(6.500000, 3.000000)" fill="#000000" fill-rule="nonzero">
            <path d="M10.2827459,8.76162506 L6.21734978,8.76162506 L6.21734978,0.734214391 C6.21734978,0.328928047 5.89601995,0 5.5000957,0 C5.10417145,0 4.78284162,0.328928047 4.78284162,0.734214391 L4.78284162,8.76162506 L0.717445482,8.76162506 C0.456364997,8.76162506 0.215367625,8.90651003 0.0891309066,9.14145864 C-0.0371058118,9.37542829 -0.0284987628,9.66128243 0.11017036,9.88644151 L4.89282058,17.6563877 C5.02479533,17.8707783 5.2533603,18 5.5000957,18 C5.7468311,18 5.97539607,17.8707783 6.10737082,17.6563877 L9.08254075,12.8213412 C9.29389162,12.4796867 9.19347605,12.0254528 8.85875748,11.8091043 C8.52308257,11.5937347 8.08029772,11.6965247 7.86894685,12.0401371 L5.5000957,15.8874205 L2.01615354,10.2300538 L10.2827459,10.2300538 C10.6786702,10.2300538 11,9.9011258 11,9.49583945 C11,9.09055311 10.6786702,8.76162506 10.2827459,8.76162506"></path>
        </g>
    </g>
</svg>