<?xml version="1.0" encoding="UTF-8"?>
<svg width="24px" height="24px" viewBox="0 0 24 24" version="1.1" xmlns="http://www.w3.org/2000/svg" xmlns:xlink="http://www.w3.org/1999/xlink">
    <title>Iconly/Broken/Arrow - Up Square</title>
    <g id="Iconly/Broken/Arrow---Up-Square" stroke="none" stroke-width="1" fill="none" fill-rule="evenodd">
        <g id="Arrow---Up-Square" transform="translate(11.999800, 12.000000) rotate(-180.000000) translate(-11.999800, -12.000000) translate(1.999800, 2.000000)" fill="#000000" fill-rule="nonzero">
            <path d="M8.822,0 C9.239,0 9.578,0.339 9.578,0.756 L9.578,0.756 L9.578,0.765 L9.561,0.765 C9.561,1.187 9.219,1.529 8.797,1.53 L8.797,1.53 L6.253,1.53 C3.2,1.53 1.53,3.2 1.53,6.244 L1.53,6.244 L1.53,13.744 C1.53,16.79 3.21,18.47 6.253,18.47 L6.253,18.47 L13.753,18.47 C16.787,18.47 18.467,16.79 18.467,13.747 L18.467,13.747 L18.467,6.247 C18.467,3.204 16.787,1.533 13.753,1.533 C13.331,1.533 12.988,1.19 12.988,0.768 C12.988,0.346 13.331,0.003 13.753,0.003 C17.608,0 20,2.392 20,6.244 L20,6.244 L20,13.747 C20,17.608 17.608,20 13.756,20 L13.756,20 L6.256,20 C2.393,20 0,17.608 0,13.747 L0,13.747 L0,6.247 C0,2.41 2.393,0 6.253,0 L6.253,0 Z M10.0001,5.1641 C10.4141,5.1641 10.7501,5.5001 10.7501,5.9141 L10.7501,5.9141 L10.7501,14.0861 C10.7501,14.1851 10.7301,14.2811 10.6921,14.3741 C10.6541,14.4651 10.5991,14.5481 10.5291,14.6171 C10.5221,14.6251 10.5131,14.6271 10.5061,14.6341 C10.4401,14.6931 10.3681,14.7441 10.2861,14.7781 C10.2051,14.8111 10.1201,14.8251 10.0351,14.8291 C10.0221,14.8301 10.0131,14.8361 10.0001,14.8361 L10.0001,14.8361 C9.9011,14.8361 9.8041,14.8161 9.7131,14.7781 C9.6211,14.7401 9.5381,14.6851 9.4701,14.6161 C9.4691,14.6161 9.4691,14.6161 9.4691,14.6151 L5.7211,10.8511 C5.4301,10.5581 5.4281,10.0831 5.7231,9.7911 C6.0171,9.4981 6.4911,9.4991 6.7831,9.7931 L6.7831,9.7931 L9.2501,12.2701 L9.2501,5.9141 C9.2501,5.5001 9.5861,5.1641 10.0001,5.1641 Z M13.2171,9.7928 C13.5091,9.4988 13.9831,9.4978 14.2771,9.7898 C14.4251,9.9378 14.4981,10.1298 14.4981,10.3228 C14.4981,10.5138 14.4251,10.7048 14.2791,10.8518 L14.2791,10.8518 L13.0011,12.1358 C12.7091,12.4288 12.2341,12.4298 11.9401,12.1378 C11.6471,11.8448 11.6471,11.3708 11.9391,11.0768 L11.9391,11.0768 Z"></path>
        </g>
    </g>
</svg>