<?xml version="1.0" encoding="UTF-8"?>
<svg width="24px" height="24px" viewBox="0 0 24 24" version="1.1" xmlns="http://www.w3.org/2000/svg" xmlns:xlink="http://www.w3.org/1999/xlink">
    <title>Iconly/Broken/Bag 2</title>
    <g id="Iconly/Broken/Bag-2" stroke="none" stroke-width="1" fill="none" fill-rule="evenodd">
        <g id="Bag-2" transform="translate(2.500000, 2.000000)" fill="#000000" fill-rule="nonzero">
            <path d="M14.1203038,4.474 L13.9135701,4.474 C13.8872408,2.003 11.9242455,0 9.51170191,0 C8.29665366,0.017 7.22300349,0.46 6.38729214,1.311 C5.56230753,2.149 5.10398276,3.265 5.08642989,4.474 L4.87969616,4.474 C2.18923219,4.474 0,6.719 0,9.479 L0,14.995 C0,17.755 2.18923219,20 4.87969616,20 C5.28341203,20 5.61106549,19.664 5.61106549,19.25 C5.61106549,18.836 5.28341203,18.5 4.87969616,18.5 C2.99568877,18.5 1.46273866,16.928 1.46273866,14.995 L1.46273866,9.479 C1.46273866,7.546 2.99568877,5.974 4.87969616,5.974 L5.0815541,5.974 L5.0815541,7.555 C5.0815541,7.969 5.40920755,8.305 5.81292342,8.305 C6.21663929,8.305 6.54429275,7.969 6.54429275,7.555 L6.54429275,4.509 C6.54721823,3.702 6.85731883,2.944 7.41608499,2.375 C7.97680148,1.808 8.72474851,1.545 9.50877643,1.5 C11.1168138,1.5 12.4245022,2.83 12.4508315,4.474 L9.25133443,4.474 C8.84761856,4.474 8.5199651,4.81 8.5199651,5.224 C8.5199651,5.638 8.84761856,5.974 9.25133443,5.974 L12.4557072,5.974 L12.4557072,7.555 C12.4557072,7.969 12.7833607,8.305 13.1870766,8.305 C13.5907924,8.305 13.9184459,7.969 13.9184459,7.555 L13.9184459,5.974 L14.1203038,5.974 C16.0043112,5.974 17.5372613,7.546 17.5372613,9.479 L17.5372613,14.995 C17.5372613,16.928 16.0043112,18.5 14.1203038,18.5 L8.8632211,18.5 C8.45950524,18.5 8.13185178,18.836 8.13185178,19.25 C8.13185178,19.664 8.45950524,20 8.8632211,20 L14.1203038,20 C16.8107678,20 19,17.755 19,14.995 L19,9.479 C19,6.719 16.8107678,4.474 14.1203038,4.474"></path>
        </g>
    </g>
</svg>