<?xml version="1.0" encoding="UTF-8"?>
<svg width="24px" height="24px" viewBox="0 0 24 24" version="1.1" xmlns="http://www.w3.org/2000/svg" xmlns:xlink="http://www.w3.org/1999/xlink">
    <title>Iconly/Light-Outline/Bag 2</title>
    <defs>
        <polygon id="path-1" points="0.2109 0 9.2729 0 9.2729 8.3057 0.2109 8.3057"></polygon>
        <polygon id="path-3" points="0 0.4746 19.4998 0.4746 19.4998 15.9996 0 15.9996"></polygon>
    </defs>
    <g id="Iconly/Light-Outline/Bag-2" stroke="none" stroke-width="1" fill="none" fill-rule="evenodd">
        <g id="Bag-2" transform="translate(2.000000, 2.000000)">
            <g id="Group-3" transform="translate(5.000000, 0.000000)">
                <mask id="mask-2" fill="white">
                    <use xlink:href="#path-1"></use>
                </mask>
                <g id="Clip-2"></g>
                <path d="M8.5229,8.3057 C8.1089,8.3057 7.7729,7.9697 7.7729,7.5557 L7.7729,4.5237 C7.7729,2.8567 6.4179,1.4997 4.7509,1.4997 C3.9399,1.5277 3.1799,1.8077 2.6059,2.3757 C2.0319,2.9447 1.7139,3.7017 1.7109,4.5087 L1.7109,7.5557 C1.7109,7.9697 1.3749,8.3057 0.9609,8.3057 C0.5469,8.3057 0.2109,7.9697 0.2109,7.5557 L0.2109,4.5237 C0.2159,3.2947 0.6909,2.1607 1.5499,1.3107 C2.4079,0.4597 3.5599,0.0347 4.7539,-0.0003 C7.2449,-0.0003 9.2729,2.0297 9.2729,4.5237 L9.2729,7.5557 C9.2729,7.9697 8.9369,8.3057 8.5229,8.3057" id="Fill-1" fill="#000000" mask="url(#mask-2)"></path>
            </g>
            <g id="Group-6" transform="translate(0.000000, 4.000000)">
                <mask id="mask-4" fill="white">
                    <use xlink:href="#path-3"></use>
                </mask>
                <g id="Clip-5"></g>
                <path d="M5.0078,1.9746 C3.0738,1.9746 1.4998,3.5466 1.4998,5.4796 L1.4998,10.9956 C1.4998,12.9276 3.0738,14.4996 5.0078,14.4996 L14.4918,14.4996 C16.4258,14.4996 17.9998,12.9276 17.9998,10.9956 L17.9998,5.4796 C17.9998,3.5466 16.4258,1.9746 14.4918,1.9746 L5.0078,1.9746 Z M14.4918,15.9996 L5.0078,15.9996 C2.2468,15.9996 -0.0002,13.7546 -0.0002,10.9956 L-0.0002,5.4796 C-0.0002,2.7196 2.2468,0.4746 5.0078,0.4746 L14.4918,0.4746 C17.2538,0.4746 19.4998,2.7196 19.4998,5.4796 L19.4998,10.9956 C19.4998,13.7546 17.2538,15.9996 14.4918,15.9996 L14.4918,15.9996 Z" id="Fill-4" fill="#000000" mask="url(#mask-4)"></path>
            </g>
        </g>
    </g>
</svg>