<?xml version="1.0" encoding="UTF-8"?>
<svg width="24px" height="24px" viewBox="0 0 24 24" version="1.1" xmlns="http://www.w3.org/2000/svg" xmlns:xlink="http://www.w3.org/1999/xlink">
    <title>Iconly/Light-Outline/Bag</title>
    <defs>
        <polygon id="path-1" points="0 0.8184 19.5858842 0.8184 19.5858842 17 0 17"></polygon>
    </defs>
    <g id="Iconly/Light-Outline/Bag" stroke="none" stroke-width="1" fill="none" fill-rule="evenodd">
        <g id="Bag" transform="translate(2.000000, 2.000000)">
            <g id="Group-3" transform="translate(0.000000, 3.721700)">
                <mask id="mask-2" fill="white">
                    <use xlink:href="#path-1"></use>
                </mask>
                <g id="Clip-2"></g>
                <path d="M4.7155,2.3184 C4.2745,2.3184 2.8005,2.4964 2.3775,4.7804 L1.6055,10.7804 C1.3545,12.4634 1.5485,13.6814 2.1835,14.4184 C2.8105,15.1464 3.9325,15.5004 5.6125,15.5004 L13.9605,15.5004 C15.0085,15.5004 16.4395,15.2914 17.3035,14.2934 C17.9895,13.5024 18.2255,12.3244 18.0055,10.7914 L17.2265,4.7394 C16.8945,3.2484 16.0185,2.3184 14.8945,2.3184 L4.7155,2.3184 Z M13.9605,17.0004 L5.6125,17.0004 C3.4695,17.0004 1.9765,16.4754 1.0475,15.3964 C0.1145,14.3144 -0.1975,12.6914 0.1205,10.5734 L0.8965,4.5474 C1.4065,1.7844 3.2715,0.8184 4.7155,0.8184 L14.8945,0.8184 C16.3445,0.8184 18.1075,1.7814 18.7025,4.4824 L19.4915,10.5894 C19.7745,12.5604 19.4205,14.1414 18.4375,15.2754 C17.4595,16.4034 15.9115,17.0004 13.9605,17.0004 L13.9605,17.0004 Z" id="Fill-1" fill="#000000" mask="url(#mask-2)"></path>
            </g>
            <path d="M14.0978,5.8203 C13.6838,5.8203 13.3478,5.4843 13.3478,5.0703 C13.3478,3.1013 11.7458,1.5003 9.7778,1.5003 L9.7628,1.5003 C8.8218,1.5003 7.9048,1.8793 7.2398,2.5403 C6.5718,3.2053 6.1888,4.1283 6.1888,5.0703 C6.1888,5.4843 5.8528,5.8203 5.4388,5.8203 C5.0248,5.8203 4.6888,5.4843 4.6888,5.0703 C4.6888,3.7313 5.2328,2.4223 6.1808,1.4773 C7.1258,0.5383 8.4288,0.0003 9.7598,0.0003 L9.7808,0.0003 C12.5738,0.0003 14.8478,2.2743 14.8478,5.0703 C14.8478,5.4843 14.5118,5.8203 14.0978,5.8203" id="Fill-4" fill="#000000"></path>
            <path d="M12.7433,10.3242 L12.6973,10.3242 C12.2833,10.3242 11.9473,9.9882 11.9473,9.5742 C11.9473,9.1602 12.2833,8.8242 12.6973,8.8242 C13.1113,8.8242 13.4703,9.1602 13.4703,9.5742 C13.4703,9.9882 13.1573,10.3242 12.7433,10.3242" id="Fill-6" fill="#000000"></path>
            <path d="M6.9122,10.3242 L6.8672,10.3242 C6.4532,10.3242 6.1172,9.9882 6.1172,9.5742 C6.1172,9.1602 6.4532,8.8242 6.8672,8.8242 C7.2812,8.8242 7.6402,9.1602 7.6402,9.5742 C7.6402,9.9882 7.3262,10.3242 6.9122,10.3242" id="Fill-8" fill="#000000"></path>
        </g>
    </g>
</svg>