<?xml version="1.0" encoding="UTF-8"?>
<svg width="24px" height="24px" viewBox="0 0 24 24" version="1.1" xmlns="http://www.w3.org/2000/svg" xmlns:xlink="http://www.w3.org/1999/xlink">
    <title>Iconly/Light-Outline/Bookmark</title>
    <defs>
        <polygon id="path-1" points="0 0.1533 17.0388 0.1533 17.0388 21 0 21"></polygon>
    </defs>
    <g id="Iconly/Light-Outline/Bookmark" stroke="none" stroke-width="1" fill="none" fill-rule="evenodd">
        <g id="Bookmark" transform="translate(3.000000, 1.000000)">
            <g id="Group-3" transform="translate(0.000000, 0.846700)">
                <mask id="mask-2" fill="white">
                    <use xlink:href="#path-1"></use>
                </mask>
                <g id="Clip-2"></g>
                <path d="M5.3418,1.6533 C2.7928,1.6533 1.4998,2.6353 1.4998,4.5743 L1.4998,19.2983 C1.4998,19.3923 1.5538,19.4433 1.5988,19.4693 C1.6438,19.4973 1.7148,19.5173 1.7968,19.4713 L8.1788,15.8913 C8.4068,15.7643 8.6858,15.7633 8.9148,15.8923 L15.2418,19.4663 C15.3248,19.5143 15.3958,19.4923 15.4408,19.4653 C15.4858,19.4383 15.5388,19.3873 15.5388,19.2933 L15.5388,4.7573 C15.5388,3.9903 15.5388,1.6533 11.7008,1.6533 L5.3418,1.6533 Z M1.6988,21.0003 C1.4038,21.0003 1.1088,20.9213 0.8408,20.7633 C0.3138,20.4563 -0.0002,19.9073 -0.0002,19.2983 L-0.0002,4.5743 C-0.0002,1.7643 1.9468,0.1533 5.3418,0.1533 L11.7008,0.1533 C15.0928,0.1533 17.0388,1.8323 17.0388,4.7573 L17.0388,19.2933 C17.0388,19.9033 16.7248,20.4523 16.1968,20.7593 C15.6708,21.0673 15.0368,21.0733 14.5048,20.7733 L8.5448,17.4063 L2.5298,20.7803 C2.2698,20.9263 1.9848,21.0003 1.6988,21.0003 L1.6988,21.0003 Z" id="Fill-1" fill="#000000" mask="url(#mask-2)"></path>
            </g>
            <path d="M12.1396,9.2285 L4.8216,9.2285 C4.4076,9.2285 4.0716,8.8925 4.0716,8.4785 C4.0716,8.0645 4.4076,7.7285 4.8216,7.7285 L12.1396,7.7285 C12.5536,7.7285 12.8896,8.0645 12.8896,8.4785 C12.8896,8.8925 12.5536,9.2285 12.1396,9.2285" id="Fill-4" fill="#000000"></path>
        </g>
    </g>
</svg>