<?xml version="1.0" encoding="UTF-8"?>
<svg width="24px" height="24px" viewBox="0 0 24 24" version="1.1" xmlns="http://www.w3.org/2000/svg" xmlns:xlink="http://www.w3.org/1999/xlink">
    <title>Iconly/Light-Outline/Buy</title>
    <defs>
        <path d="M-0.001,1.455 C-0.001,1.757 0.242,2.001 0.545,2.001 L0.545,2.001 C0.846,2.001 1.089,1.757 1.089,1.455 L1.089,1.455 C1.089,1.154 0.846,0.911 0.545,0.911 L0.545,0.911 C0.242,0.911 -0.001,1.154 -0.001,1.455 L-0.001,1.455 Z" id="path-1"></path>
        <path d="M0.28,1.455 C0.28,1.757 0.523,2.001 0.825,2.001 L0.825,2.001 C1.125,2.001 1.37,1.757 1.37,1.455 L1.37,1.455 C1.37,1.154 1.125,0.911 0.825,0.911 L0.825,0.911 C0.523,0.911 0.28,1.154 0.28,1.455 L0.28,1.455 Z" id="path-3"></path>
    </defs>
    <g id="Iconly/Light-Outline/Buy" stroke="none" stroke-width="1" fill="none" fill-rule="evenodd">
        <g id="Buy" transform="translate(2.000000, 2.000000)">
            <g id="Group-7" transform="translate(0.000000, 0.790500)" fill="#000000">
                <path d="M4.3277,5.5569 L4.9307,12.7289 C4.9747,13.2809 5.4257,13.6949 5.9767,13.6949 L5.9807,13.6949 L16.8917,13.6949 L16.8937,13.6949 C17.4147,13.6949 17.8597,13.3069 17.9337,12.7919 L18.8837,6.2329 C18.9057,6.0769 18.8667,5.9209 18.7717,5.7949 C18.6777,5.6679 18.5397,5.5859 18.3837,5.5639 C18.1747,5.5719 9.5017,5.5599 4.3277,5.5569 L4.3277,5.5569 Z M5.9747,15.1949 C4.6577,15.1949 3.5427,14.1669 3.4357,12.8519 L2.5197,1.9579 L1.0127,1.6979 C0.6037,1.6259 0.3307,1.2389 0.4007,0.8299 C0.4727,0.4209 0.8677,0.1549 1.2677,0.2189 L3.3477,0.5789 C3.6827,0.6379 3.9377,0.9159 3.9667,1.2559 L4.2017,4.0569 C18.4777,4.0629 18.5237,4.0699 18.5927,4.0779 C19.1497,4.1589 19.6397,4.4499 19.9737,4.8979 C20.3077,5.3449 20.4477,5.8959 20.3677,6.4479 L19.4187,13.0059 C19.2397,14.2539 18.1557,15.1949 16.8957,15.1949 L16.8907,15.1949 L5.9827,15.1949 L5.9747,15.1949 Z" id="Fill-1"></path>
                <path d="M15.2876,9.2532 L12.5156,9.2532 C12.1006,9.2532 11.7656,8.9172 11.7656,8.5032 C11.7656,8.0892 12.1006,7.7532 12.5156,7.7532 L15.2876,7.7532 C15.7016,7.7532 16.0376,8.0892 16.0376,8.5032 C16.0376,8.9172 15.7016,9.2532 15.2876,9.2532" id="Fill-3"></path>
                <path d="M5.5445,17.9114 C5.8455,17.9114 6.0885,18.1544 6.0885,18.4554 C6.0885,18.7564 5.8455,19.0004 5.5445,19.0004 C5.2425,19.0004 4.9995,18.7564 4.9995,18.4554 C4.9995,18.1544 5.2425,17.9114 5.5445,17.9114" id="Fill-5"></path>
            </g>
            <g id="Group-10" transform="translate(5.000000, 17.790500)">
                <mask id="mask-2" fill="white">
                    <use xlink:href="#path-1"></use>
                </mask>
                <g id="Clip-9"></g>
                <polygon id="Fill-8" fill="#000000" mask="url(#mask-2)" points="-5 7 6.089 7 6.089 -4.089 -5 -4.089"></polygon>
            </g>
            <g id="Group-15" transform="translate(4.000000, 17.790500)" fill="#000000">
                <path d="M1.5435,1.2503 C1.4305,1.2503 1.3385,1.3423 1.3385,1.4553 C1.3385,1.6823 1.7495,1.6823 1.7495,1.4553 C1.7495,1.3423 1.6565,1.2503 1.5435,1.2503 M1.5435,2.7503 C0.8295,2.7503 0.2495,2.1693 0.2495,1.4553 C0.2495,0.7413 0.8295,0.1613 1.5435,0.1613 C2.2575,0.1613 2.8385,0.7413 2.8385,1.4553 C2.8385,2.1693 2.2575,2.7503 1.5435,2.7503" id="Fill-11"></path>
                <path d="M12.8248,0.9114 C13.1258,0.9114 13.3698,1.1544 13.3698,1.4554 C13.3698,1.7564 13.1258,2.0004 12.8248,2.0004 C12.5228,2.0004 12.2798,1.7564 12.2798,1.4554 C12.2798,1.1544 12.5228,0.9114 12.8248,0.9114" id="Fill-13"></path>
            </g>
            <g id="Group-18" transform="translate(16.000000, 17.790500)">
                <mask id="mask-4" fill="white">
                    <use xlink:href="#path-3"></use>
                </mask>
                <g id="Clip-17"></g>
                <polygon id="Fill-16" fill="#000000" mask="url(#mask-4)" points="-4.72 7 6.37 7 6.37 -4.089 -4.72 -4.089"></polygon>
            </g>
            <path d="M16.8238,19.0408 C16.7118,19.0408 16.6198,19.1328 16.6198,19.2458 C16.6208,19.4748 17.0308,19.4728 17.0298,19.2458 C17.0298,19.1328 16.9368,19.0408 16.8238,19.0408 M16.8238,20.5408 C16.1098,20.5408 15.5298,19.9598 15.5298,19.2458 C15.5298,18.5318 16.1098,17.9518 16.8238,17.9518 C17.5388,17.9518 18.1198,18.5318 18.1198,19.2458 C18.1198,19.9598 17.5388,20.5408 16.8238,20.5408" id="Fill-19" fill="#000000"></path>
        </g>
    </g>
</svg>