<?xml version="1.0" encoding="UTF-8"?>
<svg width="24px" height="24px" viewBox="0 0 24 24" version="1.1" xmlns="http://www.w3.org/2000/svg" xmlns:xlink="http://www.w3.org/1999/xlink">
    <title>Iconly/Light-Outline/Calendar</title>
    <defs>
        <polygon id="path-1" points="0 0.0791 19.5 0.0791 19.5 20 0 20"></polygon>
    </defs>
    <g id="Iconly/Light-Outline/Calendar" stroke="none" stroke-width="1" fill="none" fill-rule="evenodd">
        <g id="Calendar" transform="translate(2.000000, 1.000000)">
            <path d="M18.6665,8.9043 L0.8425,8.9043 C0.4285,8.9043 0.0925,8.5683 0.0925,8.1543 C0.0925,7.7403 0.4285,7.4043 0.8425,7.4043 L18.6665,7.4043 C19.0805,7.4043 19.4165,7.7403 19.4165,8.1543 C19.4165,8.5683 19.0805,8.9043 18.6665,8.9043" id="Fill-1" fill="#000000"></path>
            <path d="M14.2012,12.8096 C13.7872,12.8096 13.4472,12.4736 13.4472,12.0596 C13.4472,11.6456 13.7782,11.3096 14.1922,11.3096 L14.2012,11.3096 C14.6152,11.3096 14.9512,11.6456 14.9512,12.0596 C14.9512,12.4736 14.6152,12.8096 14.2012,12.8096" id="Fill-3" fill="#000000"></path>
            <path d="M9.7637,12.8096 C9.3497,12.8096 9.0097,12.4736 9.0097,12.0596 C9.0097,11.6456 9.3407,11.3096 9.7547,11.3096 L9.7637,11.3096 C10.1777,11.3096 10.5137,11.6456 10.5137,12.0596 C10.5137,12.4736 10.1777,12.8096 9.7637,12.8096" id="Fill-5" fill="#000000"></path>
            <path d="M5.3169,12.8096 C4.9029,12.8096 4.5619,12.4736 4.5619,12.0596 C4.5619,11.6456 4.8939,11.3096 5.3079,11.3096 L5.3169,11.3096 C5.7309,11.3096 6.0669,11.6456 6.0669,12.0596 C6.0669,12.4736 5.7309,12.8096 5.3169,12.8096" id="Fill-7" fill="#000000"></path>
            <path d="M14.2012,16.6963 C13.7872,16.6963 13.4472,16.3603 13.4472,15.9463 C13.4472,15.5323 13.7782,15.1963 14.1922,15.1963 L14.2012,15.1963 C14.6152,15.1963 14.9512,15.5323 14.9512,15.9463 C14.9512,16.3603 14.6152,16.6963 14.2012,16.6963" id="Fill-9" fill="#000000"></path>
            <path d="M9.7637,16.6963 C9.3497,16.6963 9.0097,16.3603 9.0097,15.9463 C9.0097,15.5323 9.3407,15.1963 9.7547,15.1963 L9.7637,15.1963 C10.1777,15.1963 10.5137,15.5323 10.5137,15.9463 C10.5137,16.3603 10.1777,16.6963 9.7637,16.6963" id="Fill-11" fill="#000000"></path>
            <path d="M5.3169,16.6963 C4.9029,16.6963 4.5619,16.3603 4.5619,15.9463 C4.5619,15.5323 4.8939,15.1963 5.3079,15.1963 L5.3169,15.1963 C5.7309,15.1963 6.0669,15.5323 6.0669,15.9463 C6.0669,16.3603 5.7309,16.6963 5.3169,16.6963" id="Fill-13" fill="#000000"></path>
            <path d="M13.7935,4.791 C13.3795,4.791 13.0435,4.455 13.0435,4.041 L13.0435,0.75 C13.0435,0.336 13.3795,0 13.7935,0 C14.2075,0 14.5435,0.336 14.5435,0.75 L14.5435,4.041 C14.5435,4.455 14.2075,4.791 13.7935,4.791" id="Fill-15" fill="#000000"></path>
            <path d="M5.7153,4.791 C5.3013,4.791 4.9653,4.455 4.9653,4.041 L4.9653,0.75 C4.9653,0.336 5.3013,0 5.7153,0 C6.1293,0 6.4653,0.336 6.4653,0.75 L6.4653,4.041 C6.4653,4.455 6.1293,4.791 5.7153,4.791" id="Fill-17" fill="#000000"></path>
            <g id="Group-21" transform="translate(0.000000, 1.500000)">
                <mask id="mask-2" fill="white">
                    <use xlink:href="#path-1"></use>
                </mask>
                <g id="Clip-20"></g>
                <path d="M5.521,1.5791 C2.928,1.5791 1.5,2.9621 1.5,5.4731 L1.5,14.5221 C1.5,17.0881 2.928,18.5001 5.521,18.5001 L13.979,18.5001 C16.572,18.5001 18.0000357,17.1141 18.0000357,14.5981 L18.0000357,5.4731 C18.004,4.2381 17.672,3.2781 17.013,2.6181 C16.335,1.9381 15.29,1.5791 13.988,1.5791 L5.521,1.5791 Z M13.979,20.0001 L5.521,20.0001 C2.116,20.0001 0,17.9011 0,14.5221 L0,5.4731 C0,2.1451 2.116,0.0791 5.521,0.0791 L13.988,0.0791 C15.697,0.0791 17.11,0.5911 18.075,1.5581 C19.012,2.4991 19.505,3.8521 19.5000377,5.4751 L19.5000377,14.5981 C19.5000377,17.9301 17.384,20.0001 13.979,20.0001 L13.979,20.0001 Z" id="Fill-19" fill="#000000" mask="url(#mask-2)"></path>
            </g>
        </g>
    </g>
</svg>