<?xml version="1.0" encoding="UTF-8"?>
<svg width="24px" height="24px" viewBox="0 0 24 24" version="1.1" xmlns="http://www.w3.org/2000/svg" xmlns:xlink="http://www.w3.org/1999/xlink">
    <title>Iconly/Light-Outline/Call Missed</title>
    <g id="Iconly/Light-Outline/Call-Missed" stroke="none" stroke-width="1" fill="none" fill-rule="evenodd">
        <g id="Call-Missed" transform="translate(1.000000, 1.500000)" fill="#000000" fill-rule="nonzero">
            <path d="M19.7845699,1.71956991 C20.0774631,1.4266767 20.5523369,1.4266767 20.8452301,1.71956991 C21.1114966,1.98583648 21.1357027,2.40250016 20.9178482,2.69611165 L20.8452301,2.78023009 L14.8452301,8.78023009 C14.5523369,9.0731233 14.0774631,9.0731233 13.7845699,8.78023009 C13.5183034,8.51396352 13.4940973,8.09729984 13.7119518,7.80368835 L13.7845699,7.71956991 L19.7845699,1.71956991 Z" id="Stroke-1"></path>
            <path d="M13.7845699,1.71956991 C14.0508365,1.45330335 14.4675002,1.4290973 14.7611117,1.64695176 L14.8452301,1.71956991 L20.8452301,7.71956991 C21.1381233,8.01246313 21.1381233,8.48733687 20.8452301,8.78023009 C20.5789635,9.04649665 20.1622998,9.0707027 19.8686883,8.85284824 L19.7845699,8.78023009 L13.7845699,2.78023009 C13.4916767,2.48733687 13.4916767,2.01246313 13.7845699,1.71956991 Z" id="Stroke-3"></path>
            <path d="M1.54358971,2.25364362 C3.47101051,0.32604747 4.72616966,-0.184880363 6.06538956,0.585229786 C6.45062374,0.806756323 6.81177593,1.11683961 7.30286524,1.61561781 L7.30286524,1.61561781 L8.809237,3.17764139 C9.64126236,4.08553755 9.83040688,4.95638939 9.55948522,5.97625939 L9.55948522,5.97625939 L9.52216209,6.11127602 L9.48073483,6.24552611 L9.27935886,6.83635127 C8.84834572,8.1613278 9.02829075,8.90888591 10.5617845,10.44199 C12.1564868,12.036287 12.90088,12.1667133 14.3280668,11.6679891 L14.3280668,11.6679891 L14.5824238,11.5795758 L14.8899946,11.4796928 L15.0246115,11.4423313 C16.1086377,11.153109 17.0243523,11.3839109 17.9955127,12.3544141 L17.9955127,12.3544141 L19.2092522,13.5267933 L19.566531,13.8781857 C19.9626486,14.2821405 20.2244452,14.6021884 20.4178249,14.9404919 C21.1831213,16.2793217 20.6716522,17.5337057 18.6886466,19.5093291 L18.6886466,19.5093291 L18.4999941,19.7004817 C18.2039097,19.9858223 17.9273051,20.1902525 17.5209323,20.3831967 C16.8387995,20.7070707 16.0329242,20.8291735 15.0965164,20.6989478 C12.789055,20.3780504 9.86248454,18.5574031 6.15420289,14.8500638 C5.85233941,14.548277 5.56322553,14.2523269 5.28657328,13.962095 L5.28657328,13.962095 L4.74979895,13.3892202 C-0.280052813,7.92445324 -0.723788212,4.56748898 1.33749874,2.46211177 L1.33749874,2.46211177 L1.47104207,2.32945892 Z M5.31764004,1.88556461 C4.85611577,1.62016792 4.35782007,1.73235211 3.43561687,2.52608297 L3.43561687,2.52608297 L3.14585154,2.78495259 C3.09530874,2.83160658 3.04360938,2.88004043 2.99070508,2.93029214 L2.99070508,2.93029214 L2.6584328,3.25392058 L2.62849429,3.29132966 L2.4032327,3.5176381 C1.858882,4.07364973 1.60103279,4.75224488 1.82322791,5.91927796 C2.18783492,7.83429949 3.85674265,10.4321366 7.21472827,13.7892688 C10.7136047,17.2872561 13.3794846,18.9457253 15.3031321,19.213246 C16.4245444,19.3692002 16.996532,19.0976226 17.5798669,18.500011 L17.5798669,18.500011 L18.0247037,18.0510789 C18.2333238,17.8327937 18.4115562,17.6349294 18.5620638,17.4541917 L18.5620638,17.4541917 L18.7673644,17.1955185 C19.2920206,16.4966717 19.339947,16.0774235 19.1155653,15.6848842 C19.0301925,15.5355308 18.9059996,15.3717759 18.7252167,15.1716509 L18.7252167,15.1716509 L18.4799767,14.9126373 L18.334852,14.7674011 L16.8035992,13.2888029 C16.2918947,12.8169286 15.942212,12.7499825 15.4112909,12.8916342 L15.4112909,12.8916342 L15.258015,12.9357155 L14.6237248,13.1510361 C12.7836138,13.7453249 11.456123,13.457152 9.50125914,11.5027849 C7.47661728,9.47865758 7.2391691,8.12697955 7.91754526,6.18078109 L7.91754526,6.18078109 L7.96106336,6.0557172 L8.08140398,5.69314239 L8.14055657,5.46203816 C8.2454584,4.95907061 8.12569315,4.60838211 7.58501638,4.06761417 C7.56274966,4.04535311 7.53787036,4.02026939 7.5107976,3.99280967 L7.5107976,3.99280967 L6.08873693,2.52253291 C5.76294269,2.20134266 5.52628425,2.00554417 5.31764004,1.88556461 Z" id="Stroke-5"></path>
        </g>
    </g>
</svg>