<?xml version="1.0" encoding="UTF-8"?>
<svg width="24px" height="24px" viewBox="0 0 24 24" version="1.1" xmlns="http://www.w3.org/2000/svg" xmlns:xlink="http://www.w3.org/1999/xlink">
    <title>Iconly/Broken/Call Silent</title>
    <g id="Iconly/Broken/Call-Silent" stroke="none" stroke-width="1" fill="none" fill-rule="evenodd">
        <g id="Call-Silent" transform="translate(2.000000, 2.000000)" fill="#000000" fill-rule="nonzero">
            <path d="M18.720218,0.222345802 C19.0132253,-0.0704862098 19.4882372,-0.0704862098 19.7802445,0.222345802 C20.0732518,0.515177814 20.0732518,0.989905478 19.7802445,1.28273749 L19.7802445,1.28273749 L10.3350084,10.7223223 C11.0550264,11.3239772 11.8970474,11.8226911 12.8450711,12.2124675 C13.0630766,12.2914222 13.2600815,12.2014738 13.718093,11.9376251 C14.1891047,11.6677799 14.8321208,11.2999909 15.6551414,11.4728917 C16.4191605,11.6208069 18.8302208,13.6086665 19.2892322,14.0823947 C19.720243,14.5321367 19.958249,15.0018673 19.99825,15.4825915 C20.0722518,17.3405257 17.5921898,19.2554271 17.3081827,19.414336 C16.7751694,19.8031129 16.1461537,20 15.438136,20 C14.7341184,20 13.9520988,19.8061112 13.1040776,19.4113377 C11.2630316,18.650774 8.80097002,16.872794 6.44591115,14.610092 L6.44591115,14.610092 L1.27978199,19.7721307 C0.987774694,20.0649627 0.512762819,20.0649627 0.219755494,19.7721307 C-0.0732518313,19.4792987 -0.0732518313,19.004571 0.219755494,18.711739 L0.219755494,18.711739 L5.90989775,13.0250013 C6.19090477,12.743163 6.68891722,12.743163 6.96992425,13.0250013 C9.3519838,15.4046362 11.8700468,17.2795606 13.7070927,18.0391249 C14.9251231,18.6067992 15.8301458,18.636782 16.5011625,18.1550584 C17.0351759,17.833243 18.5312133,16.3530921 18.5012125,15.5735393 C18.4972124,15.5325628 18.4512113,15.3746534 18.2092052,15.1227979 C17.6601915,14.556123 15.7071427,13.0779709 15.3081327,12.9290564 C15.0941274,12.8820833 14.8601215,13.0110094 14.4661117,13.2378792 C13.9430986,13.5377072 13.2270807,13.9484716 12.3010575,13.6096659 C10.8870222,13.028999 9.69099227,12.2474474 8.719968,11.2770041 C8.42696067,10.9841721 8.42696067,10.5094444 8.719968,10.2166124 L8.719968,10.2166124 Z M4.30132126,0.000897760565 L4.4880622,0.0040710191 C4.99507488,0.0460469389 5.46508663,0.283910484 5.91009775,0.712664522 C6.28610715,1.07445697 6.91912298,1.85600862 7.3801345,2.47165545 C8.44516113,3.8908413 8.49816245,4.19166873 8.52916323,4.37256496 C8.69816745,5.169108 8.3281582,5.81173935 8.05915148,6.28047045 C7.79514488,6.73920729 7.7041426,6.93509491 7.79414485,7.17895502 C7.87114678,7.36884609 7.96314908,7.57272912 8.0601515,7.77161503 C8.24215605,8.14340175 8.0881522,8.59314375 7.71514288,8.77403997 C7.34313358,8.9549362 6.89412235,8.80202392 6.7121178,8.4302372 C6.600115,8.19936964 6.49311233,7.96250552 6.39510988,7.71864542 C6.04510113,6.7731878 6.45711143,6.05759831 6.75811895,5.53389874 C6.98312458,5.14212348 7.10912773,4.90625879 7.0561264,4.6554027 C7.05312633,4.65640213 6.92712318,4.3665684 6.1801045,3.37113944 C5.68509213,2.71151784 5.13307833,2.04689911 4.86907173,1.79104589 C4.6200655,1.55218292 4.46106153,1.50620929 4.38705968,1.4992133 C3.74104353,1.44824254 2.20700518,2.8974112 1.87099677,3.45009415 C1.35698392,4.15568937 1.3959849,5.06216935 1.9519988,6.27647274 C2.47701193,7.55174116 3.480037,9.08586109 4.86207155,10.7379134 C5.1280782,11.055731 5.08607715,11.5284598 4.7680692,11.7943073 C4.6280657,11.9112403 4.45706143,11.969207 4.28705718,11.969207 C4.0720518,11.969207 3.85904648,11.8772598 3.71104278,11.7003612 C2.2320058,9.93037662 1.1479787,8.26233352 0.576964424,6.87412989 C-0.204055101,5.17310571 -0.191054776,3.73093304 0.624965624,2.61757174 C0.799969999,2.32573915 2.68501713,-0.1128619 4.4880622,0.0040710191 Z"></path>
        </g>
    </g>
</svg>