<?xml version="1.0" encoding="UTF-8"?>
<svg width="24px" height="24px" viewBox="0 0 24 24" version="1.1" xmlns="http://www.w3.org/2000/svg" xmlns:xlink="http://www.w3.org/1999/xlink">
    <title>Iconly/Light-Outline/Call Silent</title>
    <defs>
        <polygon id="path-1" points="0 0.4009 9.29533948 0.4009 9.29533948 13.5049 0 13.5049"></polygon>
    </defs>
    <g id="Iconly/Light-Outline/Call-Silent" stroke="none" stroke-width="1" fill="none" fill-rule="evenodd">
        <g id="Call-Silent" transform="translate(2.000000, 1.000000)">
            <g id="Group-3" transform="translate(0.000000, 0.599600)">
                <mask id="mask-2" fill="white">
                    <use xlink:href="#path-1"></use>
                </mask>
                <g id="Clip-2"></g>
                <path d="M4.7253,13.5049 C4.5183,13.5049 4.3113,13.4189 4.1633,13.2509 C-1.1787,7.1989 -0.4127,4.0649 1.1713,2.5009 C1.1873,2.4809 1.2423,2.4269 1.2593,2.4089 C2.6633,0.9839 3.6233,0.4009 4.5603,0.4009 L4.5893,0.4009 C5.7003,0.4149 6.4853,1.2539 7.4793,2.3169 C7.7233,2.5779 7.9893,2.8609 8.2833,3.1599 C9.7133,4.6189 9.3073,5.8069 8.9803,6.7609 C8.7443,7.4519 8.5383,8.0499 8.9123,8.9009 C9.0793,9.2809 8.9073,9.7239 8.5283,9.8899 C8.1463,10.0559 7.7053,9.8839 7.5393,9.5049 C6.9303,8.1159 7.2943,7.0519 7.5613,6.2749 C7.8503,5.4319 7.9953,5.0089 7.2133,4.2119 C6.9103,3.9039 6.6363,3.6109 6.3833,3.3419 C5.6043,2.5079 5.0403,1.9059 4.5703,1.9009 L4.5623,1.9009 C4.0953,1.9009 3.3643,2.4109 2.3283,3.4619 C2.3293,3.4599 2.3313,3.4589 2.3313,3.4589 C2.3333,3.4589 2.2863,3.5079 2.2253,3.5679 C0.0833,5.6839 3.2243,9.9209 5.2873,12.2589 C5.5613,12.5689 5.5323,13.0429 5.2213,13.3179 C5.0793,13.4429 4.9023,13.5049 4.7253,13.5049" id="Fill-1" fill="#000000" mask="url(#mask-2)"></path>
            </g>
            <path d="M15.5524,21.5996 C13.2614,21.5996 10.3234,19.8606 6.8154,16.4276 C6.5194,16.1376 6.5134,15.6626 6.8034,15.3676 C7.0944,15.0706 7.5694,15.0666 7.8644,15.3556 C11.9234,19.3286 14.2954,20.1566 15.6174,20.0986 C16.5824,20.0786 17.0384,19.5896 17.2574,19.3556 C17.3184,19.2906 17.3664,19.2426 17.4024,19.2106 C18.3954,18.1946 18.8964,17.4466 18.8904,16.9626 C18.8834,16.4696 18.2884,15.8916 17.4644,15.0906 C17.2034,14.8376 16.9214,14.5636 16.6224,14.2596 C15.8554,13.4776 15.4754,13.6136 14.6404,13.9156 C13.6124,14.2856 12.2024,14.7956 10.1554,13.1116 C9.8344,12.8486 9.7874,12.3756 10.0514,12.0566 C10.3134,11.7356 10.7894,11.6896 11.1064,11.9536 C12.4974,13.0916 13.2164,12.8316 14.1324,12.5036 C15.0264,12.1816 16.2514,11.7436 17.6934,13.2076 C17.9834,13.5036 18.2574,13.7696 18.5094,14.0156 C19.5524,15.0286 20.3754,15.8286 20.3894,16.9446 C20.4024,17.8966 19.8334,18.8696 18.4314,20.3016 L17.8054,19.8686 L18.3534,20.3796 C18.0504,20.7036 17.2464,21.5636 15.6514,21.5986 C15.6174,21.5996 15.5844,21.5996 15.5524,21.5996" id="Fill-4" fill="#000000"></path>
            <path d="M2.6394,21.3994 C2.4554,21.3994 2.2714,21.3324 2.1264,21.1964 C1.8244,20.9134 1.8094,20.4384 2.0924,20.1364 L17.0924,4.1364 C17.3744,3.8334 17.8504,3.8184 18.1524,4.1024 C18.4544,4.3854 18.4694,4.8604 18.1864,5.1624 L3.1864,21.1624 C3.0384,21.3204 2.8394,21.3994 2.6394,21.3994" id="Fill-6" fill="#000000"></path>
        </g>
    </g>
</svg>