<?xml version="1.0" encoding="UTF-8"?>
<svg width="24px" height="24px" viewBox="0 0 24 24" version="1.1" xmlns="http://www.w3.org/2000/svg" xmlns:xlink="http://www.w3.org/1999/xlink">
    <title>Iconly/Light-Outline/Call</title>
    <defs>
        <polygon id="path-1" points="0.000415706294 0.0002 20.5 0.0002 20.5 20.4997 0.000415706294 20.4997"></polygon>
    </defs>
    <g id="Iconly/Light-Outline/Call" stroke="none" stroke-width="1" fill="none" fill-rule="evenodd">
        <g id="Call" transform="translate(2.000000, 2.000000)">
            <mask id="mask-2" fill="white">
                <use xlink:href="#path-1"></use>
            </mask>
            <g id="Clip-2"></g>
            <path d="M2.3595,3.0607 C2.3615,3.0607 2.3115,3.1127 2.2485,3.1747 C2.0065,3.4097 1.5055,3.8987 1.50044962,4.9217 C1.4925,6.3527 2.4335,9.0097 6.9645,13.5397 C11.4745,18.0477 14.1275,18.9997 15.5615,18.9997 L15.5825,18.9997 C16.6055,18.9947 17.0935,18.4927 17.3295,18.2517 C17.4015,18.1777 17.4595,18.1237 17.5005,18.0897 C18.4965,17.0877 19.0065,16.3417 19.0015364,15.8637 C18.9945,15.3757 18.3875,14.7987 17.5485,14.0007 C17.2815,13.7467 16.9915,13.4707 16.6855,13.1647 C15.8925,12.3737 15.4995,12.5087 14.6355,12.8127 C13.4405,13.2317 11.8005,13.8017 9.2525,11.2527 C6.7005,8.7027 7.2715,7.0647 7.6895,5.8697 C7.9915,5.0057 8.1295,4.6117 7.3355,3.8177 C7.0245,3.5077 6.7455,3.2137 6.4885,2.9437 C5.6955,2.1097 5.1235,1.5067 4.6385,1.4997 L4.6305,1.4997 C4.1515,1.4997 3.4075,2.0117 2.3545,3.0647 C2.3575,3.0617 2.3585,3.0607 2.3595,3.0607 L2.3595,3.0607 Z M15.5625,20.4997 C13.0705,20.4997 9.8215,18.5157 5.9045,14.6007 C1.9725,10.6697 -0.0145,7.4107 0.000415706294,4.9137 C0.0095,3.2637 0.8745,2.4187 1.1995,2.1017 C1.2165,2.0807 1.2745,2.0237 1.2945,2.0037 C2.7285,0.5687 3.6955,-0.0113 4.6575,-0.000453341181 C5.7745,0.0147 6.5695,0.8507 7.5755,1.9097 C7.8245,2.1717 8.0945,2.4567 8.3955,2.7567 C9.8555,4.2167 9.4395,5.4077 9.1055,6.3637 C8.7415,7.4067 8.4265,8.3067 10.3125,10.1927 C12.2005,12.0787 13.1005,11.7637 14.1395,11.3967 C15.0965,11.0627 16.2845,10.6447 17.7465,12.1047 C18.0425,12.4007 18.3235,12.6677 18.5825,12.9147 C19.6465,13.9257 20.4865,14.7247 20.5006822,15.8447 C20.5125,16.7997 19.9325,17.7727 18.5005,19.2057 L17.8665,18.7757 L18.4025,19.2997 C18.0855,19.6247 17.2415,20.4907 15.5905,20.4997 L15.5625,20.4997 Z" id="Fill-1" fill="#000000" mask="url(#mask-2)"></path>
        </g>
    </g>
</svg>