<?xml version="1.0" encoding="UTF-8"?>
<svg width="24px" height="24px" viewBox="0 0 24 24" version="1.1" xmlns="http://www.w3.org/2000/svg" xmlns:xlink="http://www.w3.org/1999/xlink">
    <title>Iconly/Broken/Call</title>
    <g id="Iconly/Broken/Call" stroke="none" stroke-width="1" fill="none" fill-rule="evenodd">
        <g id="Call" transform="translate(2.000000, 2.000000)" fill="#000000" fill-rule="nonzero">
            <path d="M2.30628737,8.58485145 C2.64829608,8.35297031 3.11530799,8.43692727 3.34931395,8.77775257 C5.9443801,12.5448216 10.6845009,16.7856477 13.7005778,18.0390052 C14.9206089,18.6057147 15.828632,18.6406968 16.5046493,18.1559453 C17.0316627,17.8371087 18.5287009,16.3498711 18.5017002,15.5762676 C18.4926999,15.4853142 18.3886973,15.3144019 18.2116928,15.1334946 C17.6356781,14.5437969 15.7026288,13.0815464 15.2986185,12.9296243 C14.9796104,12.8616591 14.6476019,13.0555597 14.141589,13.3743963 L14.141589,13.3743963 L13.8855825,13.5333148 C13.5305735,13.7462057 13.0695617,13.6332636 12.8555563,13.277446 C12.6425508,12.9236274 12.7565537,12.4628636 13.1115628,12.2489732 L13.1115628,12.2489732 L13.3425687,12.1060465 C13.9025829,11.7532273 14.6756026,11.2714743 15.6476274,11.4733708 C16.4136469,11.6322893 18.8227084,13.6132739 19.2837201,14.0840325 C19.7177312,14.5278051 19.9577373,15.0005627 19.9987383,15.4873132 C20.06374,17.329369 17.5966771,19.2543822 17.3136699,19.4162992 C16.7756562,19.8041004 16.1446401,20 15.434622,20 C14.728604,20 13.944584,19.8060994 13.0955624,19.4103023 C9.83047915,18.054997 4.89235328,13.6602498 2.11428247,9.62731708 C1.87927648,9.28649178 1.96527868,8.81973105 2.30628737,8.58485145 Z M4.30266917,0.000981527297 L4.47944276,0.00375015182 C4.99545591,0.0467281212 5.46746794,0.286605159 5.91047923,0.718383828 C6.38249127,1.17914764 8.36454179,3.58991187 8.52354584,4.35252096 C8.6945502,5.17310032 8.32554079,5.81377191 8.05653394,6.28153214 C7.79152718,6.74229595 7.69952484,6.93919502 7.79052716,7.18806744 C8.45954421,8.82422874 9.49357056,10.1615432 10.8546053,11.1330452 C11.1916138,11.3749212 11.2686158,11.8426815 11.0276097,12.1795088 C10.8816059,12.3834043 10.6516001,12.4933479 10.4175941,12.4933479 C10.2655902,12.4933479 10.1135864,12.4473715 9.981583,12.3534197 C8.38754237,11.2130042 7.17951158,9.65680196 6.39049147,7.72679129 C6.04348262,6.77228058 6.45549313,6.05664741 6.7565008,5.53391537 C6.98250656,5.14211621 7.10750975,4.90823609 7.05450839,4.65836418 C6.91450483,4.29754913 5.45246756,2.36753847 4.86245252,1.79283306 C4.68044788,1.61392477 4.50944352,1.50897857 4.38244029,1.49898369 C3.66642204,1.4819924 2.20238472,2.89726692 1.87037626,3.44798462 C1.35536313,4.15562189 1.39136405,5.06215719 1.94437814,6.2765347 C2.1153825,6.65334155 1.94937827,7.09711407 1.57236866,7.26902594 C1.19435903,7.43993833 0.751347733,7.27502287 0.579343349,6.89721654 C-0.207676711,5.17110135 -0.192676329,3.72984014 0.623344471,2.61741038 C0.92735222,2.10867116 2.83840093,-0.103195028 4.47944276,0.00375015182 Z"></path>
        </g>
    </g>
</svg>