<?xml version="1.0" encoding="UTF-8"?>
<svg width="24px" height="24px" viewBox="0 0 24 24" version="1.1" xmlns="http://www.w3.org/2000/svg" xmlns:xlink="http://www.w3.org/1999/xlink">
    <title>Iconly/Broken/Call Missed</title>
    <g id="Iconly/Broken/Call-Missed" stroke="none" stroke-width="1" fill="none" fill-rule="evenodd">
        <g id="Call-Missed" transform="translate(2.000000, 2.000000)" fill="#000000" fill-rule="nonzero">
            <path d="M2.30628114,8.58522601 C2.64725935,8.35333218 3.11422949,8.4362942 3.34921447,8.77913723 C5.94304865,12.5444134 10.6827456,16.7854717 13.6985528,18.0398974 C14.9194748,18.6056384 15.8274167,18.6406224 16.5033735,18.1568439 C17.0293399,17.8369903 18.5272442,16.3506708 18.5002459,15.577025 C18.4912465,15.4860666 18.3872531,15.3151449 18.2092645,15.1332281 C17.6333013,14.5434981 15.7004249,13.0821672 15.2974506,12.9302367 C14.9814708,12.8642669 14.6474922,13.0561791 14.1415245,13.373034 L14.1415245,13.373034 L13.883541,13.5339603 C13.5275638,13.7458633 13.0675932,13.6319155 12.8546068,13.2780775 C12.6406205,12.9222404 12.7556131,12.4614514 13.1105904,12.2485488 L13.1105904,12.2485488 L13.3435755,12.1046147 C13.9035397,11.7527758 14.6724906,11.273995 15.6464283,11.4739035 C16.4123794,11.6328307 18.8212254,13.6149233 19.2821959,14.0847082 C19.7151682,14.5275055 19.9561528,14.9992895 19.9971502,15.4890652 C20.062146,17.3292228 17.5943038,19.2543414 17.3123218,19.4152677 C16.7733563,19.8040897 16.1423966,20 15.4334419,20 C14.7274871,20 13.9435372,19.8060888 13.0945915,19.4122691 C9.82880024,18.0548905 4.8911159,13.6609022 2.11429342,9.62774872 C1.87930844,9.28690476 1.96530294,8.82111801 2.30628114,8.58522601 Z M4.30228445,0.000887248188 L4.47904224,0.00395476689 C4.99500926,0.0469350893 5.46697908,0.286825261 5.90995076,0.718627569 C6.38092066,1.17741752 8.36379389,3.5873142 8.52278373,4.35296367 C8.6937728,5.17358796 8.32479639,5.81429463 8.05581358,6.28208046 C7.79083052,6.7428695 7.6988364,6.93977935 7.78983059,7.1886654 C8.45878782,8.82591582 9.49272172,10.162304 10.8526348,11.1328596 C11.1896132,11.3747489 11.2676083,11.8415352 11.0266237,12.1793805 C10.880633,12.3832872 10.6506477,12.4932368 10.4166627,12.4932368 C10.2656723,12.4932368 10.1126821,12.4482574 9.98069053,12.3533009 C8.38679242,11.2138226 7.17886964,9.65853462 6.38992008,7.72741874 C6.04294226,6.77285577 6.45491593,6.05718342 6.75589668,5.53442276 C6.98188224,5.14260215 7.10687425,4.90870923 7.05387763,4.65882363 C6.91388658,4.29798883 5.45098011,2.36587341 4.86201776,1.79213609 C4.68002939,1.61421754 4.50904032,1.50926559 4.38204844,1.49927017 C3.66609421,1.45229168 2.2021878,2.89762996 1.87020902,3.44837781 C1.35524194,4.15605382 1.39123964,5.06263876 1.94420429,6.27708275 C2.11519336,6.65391023 1.94920397,7.09770704 1.57222807,7.26962833 C1.19625211,7.44254916 0.750280618,7.27462604 0.579291549,6.89779857 C-0.207658142,5.17058933 -0.192659101,3.73024876 0.623288736,2.61775809 C0.927269303,2.10899102 2.83814714,-0.105994895 4.47904224,0.00395476689 Z M12.7197154,0.220555601 C13.0126967,-0.0723103167 13.4876663,-0.0723103167 13.7806476,0.220555601 L13.7806476,0.220555601 L16.2494898,2.68842574 L18.2033649,0.736319469 L18.2033649,0.736319469 L18.7193319,0.220555601 C19.0123131,-0.0723103167 19.4872828,-0.0723103167 19.780264,0.220555601 C20.0732453,0.513421518 20.0732453,0.987204607 19.780264,1.28007052 L19.780264,1.28007052 L18.7473301,2.3125978 C18.7473301,2.31359735 18.7463301,2.31359735 18.7463301,2.31359735 L17.3104219,3.7489402 L19.780264,6.21780988 C20.0732453,6.5106758 20.0732453,6.98445889 19.780264,7.27732481 C19.6332734,7.42425754 19.4412857,7.49722413 19.249298,7.49722413 C19.0583102,7.49722413 18.8663225,7.42425754 18.7193319,7.27732481 L18.7193319,7.27732481 L16.2494898,4.80945467 L13.7806476,7.27732481 C13.633657,7.42425754 13.4416693,7.49722413 13.2496815,7.49722413 C13.0586938,7.49722413 12.866706,7.42425754 12.7197154,7.27732481 C12.4267342,6.98445889 12.4267342,6.5106758 12.7197154,6.21780988 L12.7197154,6.21780988 L15.1895575,3.7489402 L12.7197154,1.28007052 C12.4267342,0.987204607 12.4267342,0.513421518 12.7197154,0.220555601 Z"></path>
        </g>
    </g>
</svg>