<?xml version="1.0" encoding="UTF-8"?>
<svg width="24px" height="24px" viewBox="0 0 24 24" version="1.1" xmlns="http://www.w3.org/2000/svg" xmlns:xlink="http://www.w3.org/1999/xlink">
    <title>Iconly/Light-Outline/Calling</title>
    <defs>
        <polygon id="path-1" points="0.354001704 0.499386379 8.893 0.499386379 8.893 9.0322 0.354001704 9.0322"></polygon>
        <polygon id="path-3" points="0.000415706294 0.499 20.5006533 0.499 20.5006533 20.9995 0.000415706294 20.9995"></polygon>
    </defs>
    <g id="Iconly/Light-Outline/Calling" stroke="none" stroke-width="1" fill="none" fill-rule="evenodd">
        <g id="Calling" transform="translate(2.000000, 1.000000)">
            <g id="Group-3" transform="translate(12.000000, 0.500900)">
                <mask id="mask-2" fill="white">
                    <use xlink:href="#path-1"></use>
                </mask>
                <g id="Clip-2"></g>
                <path d="M8.1427,9.0322 C7.7657,9.0322 7.4417,8.7492 7.3987,8.3662 C7.0197,4.9902 4.3977,2.3702 1.0207,1.9952 C0.6097,1.9492 0.3127,1.5792 0.3587,1.1672 C0.4037,0.7562 0.7707,0.4532 1.1867,0.5052 C5.2647,0.9582 8.4317,4.1212 8.8887,8.1982 C8.9347,8.6102 8.6387,8.9812 8.2277,9.0272 C8.1997,9.0302 8.1707,9.0322 8.1427,9.0322" id="Fill-1" fill="#000000" mask="url(#mask-2)"></path>
            </g>
            <path d="M16.6026,9.5439 C16.2506,9.5439 15.9376,9.2959 15.8676,8.9379 C15.5796,7.4579 14.4386,6.3169 12.9606,6.0299 C12.5536,5.9509 12.2886,5.5579 12.3676,5.1509 C12.4466,4.7439 12.8466,4.4779 13.2466,4.5579 C15.3276,4.9619 16.9346,6.5679 17.3396,8.6499 C17.4186,9.0579 17.1536,9.4509 16.7476,9.5299 C16.6986,9.5389 16.6506,9.5439 16.6026,9.5439" id="Fill-4" fill="#000000"></path>
            <g id="Group-8" transform="translate(0.000000, 0.500900)">
                <mask id="mask-4" fill="white">
                    <use xlink:href="#path-3"></use>
                </mask>
                <g id="Clip-7"></g>
                <path d="M2.3595,3.5605 C2.3615,3.5605 2.3115,3.6125 2.2485,3.6745 C2.0065,3.9095 1.5055,4.3985 1.50044962,5.4215 C1.4925,6.8525 2.4335,9.5095 6.9645,14.0395 C11.4735,18.5475 14.1265,19.4995 15.5615,19.4995 L15.5825,19.4995 C16.6055,19.4935 17.0935,18.9925 17.3285,18.7515 C17.3995,18.6785 17.4575,18.6235 17.4985,18.5905 C18.4955,17.5875 19.0055,16.8425 19.0005364,16.3635 C18.9945,15.8755 18.3875,15.2995 17.5485,14.5005 C17.2815,14.2475 16.9915,13.9705 16.6855,13.6645 C15.8915,12.8735 15.5005,13.0085 14.6355,13.3125 C13.4405,13.7315 11.8035,14.3055 9.2525,11.7525 C6.7005,9.2015 7.2725,7.5645 7.6895,6.3685 C7.9915,5.5045 8.1295,5.1115 7.3365,4.3175 C7.0265,4.0075 6.7475,3.7135 6.4905,3.4435 C5.6965,2.6095 5.1235,2.0065 4.6385,1.9995 L4.6305,1.9995 C4.1515,1.9995 3.4075,2.5115 2.3545,3.5645 C2.3575,3.5615 2.3585,3.5605 2.3595,3.5605 L2.3595,3.5605 Z M15.5615,20.9995 C13.0695,20.9995 9.8205,19.0155 5.9045,15.1005 C1.9725,11.1695 -0.0145,7.9105 0.000415706294,5.4135 C0.0095,3.7635 0.8745,2.9185 1.1995,2.6015 C1.2165,2.5805 1.2745,2.5235 1.2945,2.5035 C2.7295,1.0685 3.7155,0.4785 4.6575,0.4995 C5.7745,0.5145 6.5705,1.3515 7.5775,2.4105 C7.8265,2.6715 8.0955,2.9565 8.3965,3.2565 C9.8555,4.7165 9.4405,5.9075 9.1055,6.8635 C8.7415,7.9065 8.4265,8.8065 10.3125,10.6925 C12.1985,12.5785 13.0975,12.2635 14.1395,11.8965 C15.0965,11.5625 16.2845,11.1445 17.7465,12.6045 C18.0435,12.9015 18.3235,13.1675 18.5835,13.4145 C19.6465,14.4265 20.4865,15.2255 20.5006533,16.3455 C20.5115,17.2995 19.9315,18.2735 18.4995,19.7055 L17.8655,19.2755 L18.4025,19.7985 C18.0855,20.1235 17.2425,20.9895 15.5915,20.9995 L15.5615,20.9995 Z" id="Fill-6" fill="#000000" mask="url(#mask-4)"></path>
            </g>
        </g>
    </g>
</svg>