<?xml version="1.0" encoding="UTF-8"?>
<svg width="24px" height="24px" viewBox="0 0 24 24" version="1.1" xmlns="http://www.w3.org/2000/svg" xmlns:xlink="http://www.w3.org/1999/xlink">
    <title>Iconly/Broken/Calling</title>
    <g id="Iconly/Broken/Calling" stroke="none" stroke-width="1" fill="none" fill-rule="evenodd">
        <g id="Calling" transform="translate(2.000000, 2.000000)" fill="#000000" fill-rule="nonzero">
            <path d="M2.26464475,8.70467399 C2.59952253,8.47522686 3.05912019,8.55731355 3.28891902,8.89653926 C5.83536503,12.6220881 10.4902644,16.8193881 13.453098,18.0605784 C14.6521765,18.6203503 15.5448566,18.6549651 16.2077378,18.1762909 C16.7242942,17.8598121 18.1953995,16.3891747 18.1688843,15.6236917 C18.1600459,15.533693 18.057913,15.3645746 17.8840908,15.1845773 C17.3184322,14.6010695 15.4211188,13.1551571 15.0243721,13.0048296 C14.7081532,12.9405449 14.386042,13.1284542 13.8901086,13.441966 L13.8901086,13.441966 L13.6347766,13.6021833 C13.2861502,13.8128395 12.8324448,13.698116 12.624251,13.3490003 C12.4140931,12.9969177 12.5270284,12.5409904 12.8756548,12.3303342 L12.8756548,12.3303342 L13.1054536,12.1869297 C13.6553996,11.8388031 14.4096111,11.3650739 15.3671062,11.5638621 C16.1183716,11.7201235 18.4851032,13.681303 18.9368445,14.1481093 C19.3620705,14.5852456 19.5987437,15.0520518 19.6390076,15.53666 C19.7028406,17.3574021 17.2791503,19.2622088 17.0022133,19.4224262 C16.4728903,19.8061567 15.8532191,20 15.1569483,20 C14.4636237,20 13.6936994,19.8081347 12.8599421,19.4184702 C9.65257892,18.0754133 4.80225234,13.7267969 2.07609186,9.73619706 C1.84531099,9.39993834 1.92976697,8.9380771 2.26464475,8.70467399 Z M4.21724678,0.210810174 L4.39853311,0.213943502 C4.90428695,0.255481344 5.36781279,0.493829437 5.80384134,0.922064807 C6.26638514,1.37601408 8.21378291,3.760484 8.36992827,4.51805512 C8.53785819,5.33002103 8.17548311,5.96396762 7.91131266,6.42681786 C7.65107039,6.88274512 7.56072214,7.07757738 7.65008835,7.32383744 C8.30805936,8.94381328 9.32349521,10.2661012 10.6580961,11.2264166 C10.9890457,11.4657537 11.0656453,11.9276149 10.8289722,12.2618956 C10.6855934,12.4636509 10.4597228,12.5724405 10.2299239,12.5724405 C10.0816349,12.5724405 9.93138186,12.5279356 9.80175175,12.433981 C8.23735202,11.3075143 7.05104012,9.76863614 6.27522355,7.85690641 C5.9344535,6.91241501 6.33905656,6.2042937 6.63465249,5.68704867 C6.85659495,5.29936215 6.97935074,5.06793703 6.92730229,4.82068797 C6.78981581,4.46366033 5.3530821,2.5519306 4.77465684,1.98424676 C4.59592441,1.80721644 4.4279945,1.70337183 4.30327462,1.69348187 C3.64137543,1.66282299 2.16241373,3.0780766 1.83637436,3.62202453 C1.33062053,4.32223387 1.3659742,5.22024245 1.90904579,6.42187288 C2.0769757,6.79472446 1.91395602,7.23383879 1.54372457,7.40394614 C1.17447517,7.57405349 0.73648253,7.40889112 0.568552616,7.03603954 C-0.203335761,5.32804304 -0.189587113,3.90191047 0.611762652,2.80016866 C0.780674612,2.51335975 2.64950869,0.0982309428 4.39853311,0.213943502 Z M12.3913834,3.50811151 L12.4896124,3.51857553 C14.5322687,3.919119 16.109435,5.50744696 16.5081458,7.56455913 C16.5857275,7.9660916 16.3254852,8.35674511 15.9257924,8.43487581 C15.8786541,8.44377678 15.8305339,8.44773277 15.7833956,8.44773277 C15.4386974,8.44773277 15.1303349,8.2024617 15.0615916,7.84840105 C14.7787623,6.38666461 13.6582475,5.2592089 12.2077651,4.97536698 C11.8090543,4.89723628 11.54783,4.50658277 11.6254117,4.10505029 C11.7039754,3.70351782 12.0958119,3.45033479 12.4896124,3.51857553 Z M12.3305678,4.70823205e-05 L12.4304932,0.00595759397 C16.435278,0.452983893 19.5464006,3.58216798 19.9951957,7.61430564 C20.0413519,8.02177209 19.7496842,8.38967869 19.3460631,8.43418352 C19.3175838,8.43715051 19.2900865,8.4391285 19.2625892,8.4391285 C18.8933398,8.4391285 18.5741748,8.15924256 18.5319468,7.78045701 C18.1587692,4.44160571 15.5838438,1.85043557 12.2674736,1.47956199 C11.8628705,1.43406816 11.5721848,1.06813955 11.6163769,0.660673102 C11.662533,0.253206653 12.0268722,-0.0464592065 12.4304932,0.00595759397 Z"></path>
        </g>
    </g>
</svg>