<?xml version="1.0" encoding="UTF-8"?>
<svg width="24px" height="24px" viewBox="0 0 24 24" version="1.1" xmlns="http://www.w3.org/2000/svg" xmlns:xlink="http://www.w3.org/1999/xlink">
    <title>Iconly/Light-Outline/Camera</title>
    <g id="Iconly/Light-Outline/Camera" stroke="none" stroke-width="1" fill="none" fill-rule="evenodd">
        <g id="Camera" transform="translate(2.000000, 3.000000)" fill="#000000" fill-rule="nonzero">
            <path d="M6.68208381,0.354373451 C7.87109099,-0.118406855 12.1294852,-0.118406855 13.3175531,0.354467682 C13.9660537,0.612583794 14.4034758,1.10084517 14.8057478,1.8312247 L14.8057478,1.8312247 L15.2579543,2.69837386 C15.2683102,2.71555628 15.2778209,2.73066408 15.286354,2.74366661 L15.286354,2.74366661 L15.3247597,2.796173 C15.5308029,3.02067524 15.8756055,3.1563 16.1032,3.1563 C18.255222,3.1563 20.0002,4.90089495 20.0002,7.0523 L20.0002,7.0523 L20.0002,12.8473 C20.0002,15.5915136 17.7744136,17.8173 15.0302,17.8173 L15.0302,17.8173 L4.9702,17.8173 C2.22530429,17.8173 0.0002,15.5918315 0.0002,12.8473 L0.0002,12.8473 L0.0002,7.0523 C0.0002,4.90089495 1.74517795,3.1563 3.8972,3.1563 C4.12397456,3.1563 4.46927917,3.02047779 4.67564031,2.796173 C4.67976306,2.7916809 4.68514355,2.78499154 4.69164734,2.77613586 L4.69164734,2.77613586 L4.74307424,2.69725323 L5.1940188,1.83150057 C5.59597079,1.10097637 6.03323312,0.612628825 6.68208381,0.354373451 Z M12.6435141,1.70846625 C11.6143727,1.41758173 8.03461084,1.43080375 7.23655306,1.74813232 C6.98353561,1.84883827 6.757883,2.10085381 6.50821831,2.55460476 L6.50821831,2.55460476 L6.12335745,3.29870183 L6.02863194,3.47013187 C5.94955759,3.60165916 5.8704633,3.71268698 5.78014826,3.8110924 C5.27368577,4.3615951 4.52444925,4.6563 3.8972,4.6563 L3.8972,4.6563 L3.7331048,4.66182949 C2.48595052,4.74615834 1.5002,5.7845168 1.5002,7.0523 L1.5002,7.0523 L1.5002,12.8473 C1.5002,14.7634593 3.05378638,16.3173 4.9702,16.3173 L4.9702,16.3173 L15.0302,16.3173 C16.9459864,16.3173 18.5002,14.7630864 18.5002,12.8473 L18.5002,12.8473 L18.5002,7.0523 C18.5002,5.72939579 17.4268686,4.6563 16.1032,4.6563 L16.1032,4.6563 L15.929087,4.64902139 C15.3405456,4.60059328 14.6794812,4.31146427 14.2196403,3.810427 C14.1305238,3.7133267 14.0518528,3.6030873 13.9732499,3.4726702 C13.9619733,3.45396006 13.9479495,3.42933016 13.9318518,3.40018775 L13.9318518,3.40018775 L13.8157601,3.18244123 L13.491852,2.55488063 C13.2418914,2.10104315 13.0159927,1.84888932 12.7628469,1.74813232 L12.7628469,1.74813232 Z" id="Stroke-1"></path>
            <path d="M15.5045,5.5 C16.0567847,5.5 16.5045,5.94771525 16.5045,6.5 C16.5045,7.01283584 16.1184598,7.43550716 15.6211211,7.49327227 L15.5045,7.5 C14.9432153,7.5 14.4955,7.05228475 14.4955,6.5 C14.4955,5.98716416 14.8815402,5.56449284 15.3788789,5.50672773 L15.5045,5.5 Z" id="Stroke-13"></path>
            <path d="M9.9999,6.199 C12.1701136,6.199 13.9289,7.95778644 13.9289,10.128 C13.9289,12.2982136 12.1701136,14.057 9.9999,14.057 C7.82968644,14.057 6.0709,12.2982136 6.0709,10.128 C6.0709,7.95778644 7.82968644,6.199 9.9999,6.199 Z M9.9999,7.699 C8.65811356,7.699 7.5709,8.78621356 7.5709,10.128 C7.5709,11.4697864 8.65811356,12.557 9.9999,12.557 C11.3416864,12.557 12.4289,11.4697864 12.4289,10.128 C12.4289,8.78621356 11.3416864,7.699 9.9999,7.699 Z" id="Stroke-5"></path>
        </g>
    </g>
</svg>