<?xml version="1.0" encoding="UTF-8"?>
<svg width="24px" height="24px" viewBox="0 0 24 24" version="1.1" xmlns="http://www.w3.org/2000/svg" xmlns:xlink="http://www.w3.org/1999/xlink">
    <title>Iconly/Broken/Camera</title>
    <g id="Iconly/Broken/Camera" stroke="none" stroke-width="1" fill="none" fill-rule="evenodd">
        <g id="Camera" transform="translate(2.000000, 3.000000)" fill="#000000" fill-rule="nonzero">
            <path d="M12.348,1.17239551e-13 C13.325,0.0069926189 14.111,0.507464343 14.569,1.40851324 C14.778,1.82007881 15.126,2.55630168 15.41,3.15866585 C15.481,3.30750874 15.556,3.35545813 15.638,3.35545813 C18.043,3.35545813 20,5.31039458 20,7.71285865 L20,7.71285865 L20,13.6425995 C20,16.0450635 18.043,18 15.638,18 L15.638,18 L8.58,18 C8.166,18 7.83,17.6643543 7.83,17.2507908 C7.83,16.8372274 8.166,16.5015817 8.58,16.5015817 L8.58,16.5015817 L15.638,16.5015817 C17.216,16.5015817 18.5,15.2189356 18.5,13.6425995 L18.5,13.6425995 L18.5,7.71285865 C18.5,6.13652256 17.216,4.85387646 15.638,4.85387646 C14.979,4.85387646 14.371,4.46928242 14.09,3.87490982 C13.776,3.20961208 13.435,2.48937233 13.231,2.08579832 C13.026,1.68322326 12.752,1.50141517 12.342,1.49841834 L12.342,1.49841834 L7.653,1.49841834 C7.249,1.50141517 6.974,1.68322326 6.769,2.08679727 C6.64525,2.33091459 6.47071875,2.69326648 6.29057227,3.07215366 L6.0745918,3.52824644 L6.0745918,3.52824644 L5.97,3.75004162 L5.911,3.87490982 C5.63,4.46928242 5.022,4.85387646 4.363,4.85387646 C2.784,4.85387646 1.5,6.13652256 1.5,7.71285865 L1.5,7.71285865 L1.5,13.6425995 C1.5,15.2189356 2.784,16.5015817 4.363,16.5015817 L4.363,16.5015817 L5.108,16.5015817 C5.522,16.5015817 5.858,16.8372274 5.858,17.2507908 C5.858,17.6643543 5.522,18 5.108,18 L5.108,18 L4.363,18 C1.957,18 0,16.0450635 0,13.6425995 L0,13.6425995 L0,7.71285865 C0,5.31039458 1.957,3.35545813 4.363,3.35545813 C4.446,3.35545813 4.52,3.30850769 4.555,3.23458572 L4.555,3.23458572 L4.614,3.11071647 C4.893,2.51834175 5.228,1.8090904 5.431,1.40951218 C5.889,0.507464343 6.676,0.0069926189 7.646,1.17239551e-13 L7.646,1.17239551e-13 Z M10.0008,6.3963483 C11.0458,6.3963483 12.0308,6.80491703 12.7748,7.54813253 C13.5198,8.29234697 13.9298,9.28030412 13.9288,10.3271991 C13.9378,11.3591098 13.5318,12.3420723 12.7888,13.0892835 C12.0418,13.8404906 11.0518,14.2540541 10.0008,14.2540541 L10.0008,14.2540541 C8.9478,14.2530551 7.9618,13.8424885 7.2198,13.098274 C6.4778,12.3540596 6.0698,11.3661024 6.07179268,10.3192075 C6.07179268,9.9156335 6.1348,9.51805317 6.2568,9.13345913 C6.3818,8.73887563 6.8018,8.52310339 7.1988,8.64697264 C7.5938,8.77283978 7.8118,9.19439481 7.6868,9.58797936 C7.6108,9.82472945 7.57179268,10.071469 7.57179268,10.3202064 C7.5708,10.9695211 7.8228,11.5798768 8.2828,12.0403907 C8.7418,12.5009046 9.3508,12.7546368 9.9988,12.7556357 L9.9988,12.7556357 C10.6488,12.7556357 11.2618,12.4989067 11.7248,12.0333981 C12.1838,11.5708863 12.4338,10.9675232 12.4288,10.3321938 C12.4298,9.6788834 12.1758,9.06952661 11.7138,8.60801376 C11.2538,8.14849881 10.6458,7.89476664 10.0008,7.89476664 L10.0008,7.89476664 C9.8208,7.89476664 9.6438,7.9137466 9.4708,7.95170653 C9.0658,8.04560741 8.6658,7.78787946 8.5758,7.3853044 C8.4848,6.9817304 8.7398,6.58015428 9.1438,6.49124813 C9.4228,6.42731561 9.7108,6.3963483 9.9988,6.3963483 L9.9988,6.3963483 Z M15.1701,6.53340363 C15.3501,6.46347744 15.5601,6.46347744 15.7401,6.53340363 C15.8301,6.57336145 15.9201,6.63329819 15.9801,6.69423386 C16.0501,6.76416005 16.1101,6.85406515 16.1501,6.94397025 C16.1901,7.03287641 16.2101,7.13277096 16.2101,7.22367501 C16.2101,7.42246518 16.1301,7.61226483 15.9801,7.75211721 C15.9101,7.8220434 15.8301,7.88198013 15.7401,7.92193795 C15.6501,7.96189578 15.5501,7.97288418 15.4501,7.97288418 C15.2601,7.97288418 15.0701,7.90195904 14.9201,7.75211721 C14.7801,7.61226483 14.7001,7.42246518 14.7001,7.22367501 C14.7001,7.13277096 14.7201,7.03287641 14.7601,6.94397025 C14.8001,6.85406515 14.8601,6.76416005 14.9201,6.69423386 C14.9901,6.63329819 15.0801,6.57336145 15.1701,6.53340363 Z"></path>
        </g>
    </g>
</svg>