<?xml version="1.0" encoding="UTF-8"?>
<svg width="24px" height="24px" viewBox="0 0 24 24" version="1.1" xmlns="http://www.w3.org/2000/svg" xmlns:xlink="http://www.w3.org/1999/xlink">
    <title>Iconly/Broken/Category</title>
    <g id="Iconly/Broken/Category" stroke="none" stroke-width="1" fill="none" fill-rule="evenodd">
        <g id="Category" transform="translate(2.500000, 2.500000)" fill="#000000" fill-rule="nonzero">
            <path d="M16.1169374,10.2515396 C17.7037773,10.2564483 18.9903314,11.5658018 19,13.185694 L19,13.185694 L19,16.0568451 C18.9903739,17.6782168 17.7052045,18.9901732 16.1169374,19 L16.1169374,19 L13.3044084,19 C11.7175906,18.9901299 10.4349709,17.6767599 10.4301624,16.0568451 L10.4301624,16.0568451 L10.4301624,13.185694 C10.4301624,11.5652052 11.7170062,10.2515396 13.3044084,10.2515396 L13.3044084,10.2515396 Z M4.03805104,10.251554 C4.33336015,10.2192801 4.62080553,10.3619313 4.77835184,10.618945 C4.93589815,10.8759586 4.93589815,11.2022322 4.77835184,11.4592459 C4.62080553,11.7162595 4.33336015,11.8589108 4.03805104,11.8266369 L4.03805104,11.8266369 L2.88306265,11.8266369 C2.14635371,11.8266206 1.5477702,12.4336604 1.54292343,13.1857084 L1.54292343,13.1857084 L1.54292343,16.0208576 C1.56165621,16.7668724 2.15217202,17.3657305 2.88306265,17.3799291 L2.88306265,17.3799291 L5.71322506,17.3799291 C6.06783888,17.3823266 6.4087354,17.2401982 6.66031694,16.9850625 C6.91189848,16.7299268 7.05337205,16.3828707 7.05336427,16.0208576 L7.05336427,16.0208576 L7.05336427,11.7636336 L7.04133103,11.6577296 C7.02803,11.3760616 7.16312386,11.1047905 7.4008667,10.9509055 C7.66832739,10.7777849 8.01201204,10.787984 8.26916976,10.976673 C8.52632747,11.1653621 8.64533537,11.4946628 8.56983759,11.8086359 L8.56983759,11.8086359 L8.56983759,16.047859 C8.56983759,17.6733186 7.27904647,18.9910139 5.68677494,18.9910139 L5.68677494,18.9910139 L2.88306265,18.9910139 C1.30455556,18.9575814 0.0327499024,17.6592673 -2.30926389e-14,16.047859 L-2.30926389e-14,16.047859 L-2.30926389e-14,13.1857084 C-2.30926389e-14,12.4059603 0.304027858,11.6582794 0.844961927,11.1077593 C1.385896,10.5572391 2.11923877,10.2491621 2.88306265,10.251554 L2.88306265,10.251554 Z M16.1169374,11.8266225 L13.3044084,11.8266225 C12.5691392,11.8266225 11.9730562,12.4350995 11.9730562,13.185694 L11.9730562,13.185694 L11.9730562,16.0568451 C11.9707192,16.4180285 12.110223,16.7651192 12.3604092,17.0205202 C12.6105955,17.2759211 12.9505994,17.4183327 13.3044084,17.4159469 L13.3044084,17.4159469 L16.1169374,17.4159469 C16.4707463,17.4183327 16.8107502,17.2759211 17.0609365,17.0205202 C17.3111227,16.7651192 17.4506266,16.4180285 17.4482895,16.0568451 L17.4482895,16.0568451 L17.4482895,13.185694 C17.4482895,12.8252458 17.3079959,12.4795606 17.0583245,12.2246853 C16.8086531,11.9698099 16.470026,11.8266225 16.1169374,11.8266225 L16.1169374,11.8266225 Z M16.1169374,2.66453526e-14 C17.6920006,0.0381794262 18.9586076,1.33515287 18.9911833,2.9431549 L18.9911833,2.9431549 L18.9911833,5.80530554 C19.0005942,6.58350892 18.7067619,7.33364943 18.1743377,7.89067465 C17.6419136,8.44769986 16.9145199,8.76597193 16.1522042,8.77546187 L16.1522042,8.77546187 L14.9883991,8.77546187 C14.5941202,8.73237171 14.2951195,8.39271731 14.2951195,7.98792042 C14.2951195,7.58312353 14.5941202,7.24346912 14.9883991,7.20037897 L14.9883991,7.20037897 L16.1169374,7.20037897 C16.4739098,7.19801311 16.8152051,7.05035361 17.0651331,6.79014731 C17.3150612,6.52994101 17.4529645,6.17869498 17.4482599,5.81430602 L17.4482599,5.81430602 L17.4482599,2.9431549 C17.4387613,2.19661376 16.8482359,1.59377993 16.1169374,1.58408337 L16.1169374,1.58408337 L13.3044084,1.58408337 C12.5691392,1.58408337 11.9730858,2.19256042 11.9730858,2.9431549 L11.9730858,2.9431549 L11.9730858,7.23638086 L11.9626058,7.34316049 C11.8994696,7.72660372 11.5706896,8.01513394 11.1795824,8.0104216 C10.9745563,8.00573523 10.7799061,7.91743274 10.6390951,7.76523113 C10.498284,7.61302951 10.4230394,7.40960459 10.4301624,7.20037897 L10.4301624,7.20037897 L10.4301624,2.9431549 C10.4278194,2.16341049 10.7296062,1.41478251 11.268886,0.862573639 C11.8081659,0.310364772 12.5405809,2.66453526e-14 13.3044084,2.66453526e-14 L13.3044084,2.66453526e-14 Z M5.6955917,1.02140518e-13 C7.2858537,0.00494191606 8.57381333,1.31974675 8.57865434,2.9431549 L8.57865434,2.9431549 L8.57865434,5.81430602 C8.57865434,6.5940541 8.27462648,7.341735 7.73369241,7.89225515 C7.19275835,8.44277531 6.45941557,8.75085231 5.6955917,8.74847427 L5.6955917,8.74847427 L2.88306269,8.74847427 C1.29622272,8.74355173 0.009668661,7.43419818 4.84918523e-08,5.81430602 L4.84918523e-08,5.81430602 L4.84918523e-08,2.9431549 C0.00962617479,1.32178316 1.29479552,0.0098267656 2.88306269,1.02140518e-13 L2.88306269,1.02140518e-13 Z M5.6955917,1.58408337 L2.88306269,1.58408337 C2.52541369,1.57682822 2.17995161,1.7168064 1.92453001,1.97247235 C1.66910841,2.2281383 1.52521947,2.57797928 1.52529007,2.9431549 L1.52529007,2.9431549 L1.52529007,5.81430602 C1.51801794,6.18414129 1.65873212,6.54102414 1.91495728,6.80258985 C2.17118243,7.06415556 2.52077858,7.20780267 2.88306269,7.20037897 L2.88306269,7.20037897 L5.6955917,7.20037897 C6.05256418,7.19801311 6.39385944,7.05035361 6.64378748,6.79014731 C6.89371552,6.52994101 7.03161883,6.17869498 7.0269142,5.81430602 L7.0269142,5.81430602 L7.0269142,2.9431549 C7.02210573,2.1946031 6.42885984,1.58899207 5.6955917,1.58408337 L5.6955917,1.58408337 Z"></path>
        </g>
    </g>
</svg>