<?xml version="1.0" encoding="UTF-8"?>
<svg width="24px" height="24px" viewBox="0 0 24 24" version="1.1" xmlns="http://www.w3.org/2000/svg" xmlns:xlink="http://www.w3.org/1999/xlink">
    <title>Iconly/Light-Outline/Category</title>
    <g id="Iconly/Light-Outline/Category" stroke="none" stroke-width="1" fill="none" fill-rule="evenodd">
        <g id="Category" transform="translate(2.000000, 2.000000)" fill="#000000">
            <path d="M4.25,1.5 C1.5,1.5 1.5,1.708 1.5,4.25 L1.5,4.275 C1.5,5.382 1.5,6.182 1.771,6.52 C2.036,6.848 2.823,7 4.25,7 C5.677,7 6.464,6.847 6.729,6.519 C7,6.182 7,5.382 7,4.274 C7,1.708 7,1.5 4.25,1.5 M4.25,8.5 C2.564,8.5 1.299,8.323 0.604,7.46 C0,6.711 0,5.689 0,4.275 L0.75,4.25 L0,4.25 C0,1.38 0.181,0 4.25,0 C8.319,0 8.5,1.38 8.5,4.25 C8.5,5.688 8.5,6.711 7.896,7.46 C7.201,8.323 5.936,8.5 4.25,8.5" id="Fill-1"></path>
            <path d="M15.25,1.5 C12.5,1.5 12.5,1.708 12.5,4.25 L12.5,4.275 C12.5,5.382 12.5,6.182 12.771,6.52 C13.036,6.848 13.823,7 15.25,7 C16.677,7 17.464,6.847 17.729,6.519 C18,6.182 18,5.382 18,4.274 C18,1.708 18,1.5 15.25,1.5 M15.25,8.5 C13.564,8.5 12.299,8.323 11.604,7.46 C11,6.711 11,5.689 11,4.275 L11.75,4.25 L11,4.25 C11,1.38 11.181,0 15.25,0 C19.319,0 19.5,1.38 19.5,4.25 C19.5,5.688 19.5,6.711 18.896,7.46 C18.201,8.323 16.936,8.5 15.25,8.5" id="Fill-3"></path>
            <path d="M4.25,12.5 C1.5,12.5 1.5,12.708 1.5,15.25 L1.5,15.275 C1.5,16.382 1.5,17.182 1.771,17.52 C2.036,17.848 2.823,18 4.25,18 C5.677,18 6.464,17.847 6.729,17.519 C7,17.182 7,16.382 7,15.274 C7,12.708 7,12.5 4.25,12.5 M4.25,19.5 C2.564,19.5 1.299,19.323 0.604,18.46 C0,17.711 0,16.689 0,15.275 L0.75,15.25 L0,15.25 C0,12.38 0.181,11 4.25,11 C8.319,11 8.5,12.38 8.5,15.25 C8.5,16.688 8.5,17.711 7.896,18.46 C7.201,19.323 5.936,19.5 4.25,19.5" id="Fill-5"></path>
            <path d="M15.25,12.5 C12.5,12.5 12.5,12.708 12.5,15.25 L12.5,15.275 C12.5,16.382 12.5,17.182 12.771,17.52 C13.036,17.848 13.823,18 15.25,18 C16.677,18 17.464,17.847 17.729,17.519 C18,17.182 18,16.382 18,15.274 C18,12.708 18,12.5 15.25,12.5 M15.25,19.5 C13.564,19.5 12.299,19.323 11.604,18.46 C11,17.711 11,16.689 11,15.275 L11.75,15.25 L11,15.25 C11,12.38 11.181,11 15.25,11 C19.319,11 19.5,12.38 19.5,15.25 C19.5,16.688 19.5,17.711 18.896,18.46 C18.201,19.323 16.936,19.5 15.25,19.5" id="Fill-7"></path>
        </g>
    </g>
</svg>