<?xml version="1.0" encoding="UTF-8"?>
<svg width="24px" height="24px" viewBox="0 0 24 24" version="1.1" xmlns="http://www.w3.org/2000/svg" xmlns:xlink="http://www.w3.org/1999/xlink">
    <title>Iconly/Light-Outline/Chart</title>
    <g id="Iconly/Light-Outline/Chart" stroke="none" stroke-width="1" fill="none" fill-rule="evenodd">
        <g id="Chart" transform="translate(1.000000, 1.000000)" fill="#000000">
            <path d="M6.1211,16.5625 C5.7071,16.5625 5.3711,16.2265 5.3711,15.8125 L5.3711,8.9525 C5.3711,8.5385 5.7071,8.2025 6.1211,8.2025 C6.5351,8.2025 6.8711,8.5385 6.8711,8.9525 L6.8711,15.8125 C6.8711,16.2265 6.5351,16.5625 6.1211,16.5625" id="Fill-1"></path>
            <path d="M10.7881,16.5615 C10.3741,16.5615 10.0381,16.2255 10.0381,15.8115 L10.0381,5.6685 C10.0381,5.2545 10.3741,4.9185 10.7881,4.9185 C11.2021,4.9185 11.5381,5.2545 11.5381,5.6685 L11.5381,15.8115 C11.5381,16.2255 11.2021,16.5615 10.7881,16.5615" id="Fill-3"></path>
            <path d="M15.3784,16.5615 C14.9644,16.5615 14.6284,16.2255 14.6284,15.8115 L14.6284,12.5775 C14.6284,12.1635 14.9644,11.8275 15.3784,11.8275 C15.7924,11.8275 16.1284,12.1635 16.1284,12.5775 L16.1284,15.8115 C16.1284,16.2255 15.7924,16.5615 15.3784,16.5615" id="Fill-5"></path>
            <path d="M6.064,1.5 C3.292,1.5 1.5,3.397 1.5,6.335 L1.5,15.165 C1.5,18.103 3.292,20 6.064,20 L15.436,20 C18.209,20 20,18.103 20,15.165 L20,6.335 C20,3.397 18.209,1.5 15.436,1.5 L6.064,1.5 Z M15.436,21.5 L6.064,21.5 C2.437,21.5 0,18.954 0,15.165 L0,6.335 C0,2.546 2.437,0 6.064,0 L15.436,0 C19.063,0 21.5,2.546 21.5,6.335 L21.5,15.165 C21.5,18.954 19.063,21.5 15.436,21.5 L15.436,21.5 Z" id="Fill-7"></path>
        </g>
    </g>
</svg>