<?xml version="1.0" encoding="UTF-8"?>
<svg width="24px" height="24px" viewBox="0 0 24 24" version="1.1" xmlns="http://www.w3.org/2000/svg" xmlns:xlink="http://www.w3.org/1999/xlink">
    <title>Iconly/Light-Outline/Chat</title>
    <defs>
        <polygon id="path-1" points="0 0.5062 21.493 0.5062 21.493 22 0 22"></polygon>
    </defs>
    <g id="Iconly/Light-Outline/Chat" stroke="none" stroke-width="1" fill="none" fill-rule="evenodd">
        <g id="Chat" transform="translate(1.000000, 0.000000)">
            <g id="Group-3" transform="translate(0.000000, 0.494100)">
                <mask id="mask-2" fill="white">
                    <use xlink:href="#path-1"></use>
                </mask>
                <g id="Clip-2"></g>
                <path d="M5.1084,19.1812 C5.6884,19.1812 6.2354,19.4012 6.8144,19.6342 C10.3614,21.2742 14.5564,20.5282 17.2894,17.7962 C20.8954,14.1882 20.8954,8.3192 17.2894,4.7132 C15.5434,2.9672 13.2214,2.0062 10.7494,2.0062 C8.2764,2.0062 5.9534,2.9682 4.2084,4.7142 C1.4744,7.4462 0.7304,11.6412 2.3554,15.1542 C2.5894,15.7332 2.8154,16.2972 2.8154,16.8832 C2.8154,17.4682 2.6144,18.0572 2.4374,18.5772 C2.2914,19.0052 2.0704,19.6512 2.2124,19.7932 C2.3514,19.9372 3.0014,19.7102 3.4304,19.5632 C3.9454,19.3872 4.5294,19.1852 5.1084,19.1812 L5.1084,19.1812 Z M10.7244,22.0002 C9.1964,22.0002 7.6584,21.6772 6.2194,21.0112 C5.7954,20.8412 5.3984,20.6812 5.1134,20.6812 C4.7854,20.6832 4.3444,20.8352 3.9184,20.9822 C3.0444,21.2822 1.9564,21.6562 1.1514,20.8542 C0.3494,20.0512 0.7194,18.9662 1.0174,18.0932 C1.1644,17.6632 1.3154,17.2192 1.3154,16.8832 C1.3154,16.6072 1.1824,16.2552 0.9784,15.7482 C-0.8946,11.7032 -0.0286,6.8282 3.1484,3.6532 C5.1764,1.6242 7.8754,0.5062 10.7484,0.5062 C13.6214,0.5062 16.3214,1.6232 18.3494,3.6522 C22.5414,7.8442 22.5414,14.6642 18.3494,18.8562 C16.2944,20.9122 13.5274,22.0002 10.7244,22.0002 L10.7244,22.0002 Z" id="Fill-1" fill="#000000" mask="url(#mask-2)"></path>
            </g>
            <path d="M14.6963,13.163 C14.1443,13.163 13.6923,12.716 13.6923,12.163 C13.6923,11.61 14.1353,11.163 14.6873,11.163 L14.6963,11.163 C15.2483,11.163 15.6963,11.61 15.6963,12.163 C15.6963,12.716 15.2483,13.163 14.6963,13.163" id="Fill-4" fill="#000000"></path>
            <path d="M10.6875,13.163 C10.1355,13.163 9.6835,12.716 9.6835,12.163 C9.6835,11.61 10.1255,11.163 10.6785,11.163 L10.6875,11.163 C11.2395,11.163 11.6875,11.61 11.6875,12.163 C11.6875,12.716 11.2395,13.163 10.6875,13.163" id="Fill-6" fill="#000000"></path>
            <path d="M6.6783,13.163 C6.1263,13.163 5.6743,12.716 5.6743,12.163 C5.6743,11.61 6.1173,11.163 6.6693,11.163 L6.6783,11.163 C7.2303,11.163 7.6783,11.61 7.6783,12.163 C7.6783,12.716 7.2303,13.163 6.6783,13.163" id="Fill-8" fill="#000000"></path>
        </g>
    </g>
</svg>