<?xml version="1.0" encoding="UTF-8"?>
<svg width="24px" height="24px" viewBox="0 0 24 24" version="1.1" xmlns="http://www.w3.org/2000/svg" xmlns:xlink="http://www.w3.org/1999/xlink">
    <title>Iconly/Broken/Close Square</title>
    <g id="Iconly/Broken/Close-Square" stroke="none" stroke-width="1" fill="none" fill-rule="evenodd">
        <g id="Close-Square" transform="translate(2.000200, 1.999900)" fill="#000000" fill-rule="nonzero">
            <path d="M13.753,0 C17.59,0 20,2.392 20,6.253 L20,6.253 L20,8.822 C20,9.239 19.661,9.578 19.244,9.578 L19.244,9.578 L19.235,9.578 L19.235,9.56 C18.813,9.56 18.471,9.219 18.47,8.797 L18.47,8.797 L18.47,6.253 C18.47,3.2 16.8,1.53 13.756,1.53 L13.756,1.53 L6.256,1.53 C3.21,1.53 1.53,3.21 1.53,6.253 L1.53,6.253 L1.53,13.753 C1.53,16.787 3.21,18.467 6.253,18.467 L6.253,18.467 L13.753,18.467 C16.796,18.467 18.467,16.787 18.467,13.753 C18.467,13.331 18.809,12.988 19.232,12.988 C19.654,12.988 19.997,13.331 19.997,13.753 C20,17.608 17.608,20 13.756,20 L13.756,20 L6.253,20 C2.392,20 0,17.608 0,13.756 L0,13.756 L0,6.256 C0,2.392 2.392,0 6.253,0 L6.253,0 Z M7.8148,11.1454 C8.1238,10.8564 8.6078,10.8744 8.8968,11.1824 C9.1848,11.4924 9.1678,11.9764 8.8588,12.2644 L8.8588,12.2644 L8.1778,12.9454 C7.8768,13.2274 7.4068,13.2194 7.1148,12.9274 L7.1148,12.9274 L7.0928,12.9114 C6.8088,12.6004 6.8258,12.1194 7.1308,11.8294 L7.1308,11.8294 Z M7.2416,6.8913 C7.5336,6.5923 8.0116,6.5863 8.3106,6.8783 C8.3136,6.8803 8.3156,6.8823 8.3186,6.8853 L8.3186,6.8853 L10.1836,8.7513 L11.8806,7.0533 C12.1856,6.7623 12.6666,6.7653 12.9686,7.0603 C13.0226,7.1143 13.0686,7.1753 13.1036,7.2433 C13.2766,7.5443 13.2266,7.9223 12.9816,8.1683 L12.9816,8.1683 L11.2916,9.8573 L13.1296,11.6963 C13.4396,11.9893 13.4516,12.4783 13.1576,12.7873 C13.1536,12.7933 13.1476,12.7973 13.1426,12.8033 C12.8486,13.0963 12.3736,13.1023 12.0726,12.8153 L12.0726,12.8153 L12.0346,12.7783 L7.2546,7.9993 C6.9626,7.6893 6.9566,7.2073 7.2416,6.8913 Z"></path>
        </g>
    </g>
</svg>