<?xml version="1.0" encoding="UTF-8"?>
<svg width="24px" height="24px" viewBox="0 0 24 24" version="1.1" xmlns="http://www.w3.org/2000/svg" xmlns:xlink="http://www.w3.org/1999/xlink">
    <title>Iconly/Broken/Danger</title>
    <g id="Iconly/Broken/Danger" stroke="none" stroke-width="1" fill="none" fill-rule="evenodd">
        <g id="Danger" transform="translate(2.000335, 3.000012)" fill="#000000" fill-rule="nonzero">
            <path d="M8.63006466,0.353688185 C9.99706466,-0.402311815 11.7220647,0.0936881849 12.4770647,1.45968818 L12.4770647,1.45968818 L19.7490647,14.1856882 C19.7660647,14.2146882 19.7800647,14.2456882 19.7930647,14.2766882 C19.9120647,14.5696882 19.9800647,14.8786882 19.9970647,15.1946882 C20.0360647,15.9496882 19.7790647,16.6736882 19.2720647,17.2356882 C18.7660647,17.7976882 18.0710647,18.1286882 17.3160647,18.1666882 L17.3160647,18.1666882 L6.55906466,18.1676882 C6.14506466,18.1676882 5.80906466,17.8316882 5.80906466,17.4176882 C5.80906466,17.0036882 6.14506466,16.6676882 6.55906466,16.6676882 L6.55906466,16.6676882 L17.2780647,16.6676882 C17.5940647,16.6496882 17.9200647,16.4956882 18.1590647,16.2306882 C18.3970647,15.9666882 18.5170647,15.6276882 18.4990647,15.2726882 C18.4920647,15.1386882 18.4650647,15.0066882 18.4180647,14.8806882 L18.4180647,14.8806882 L11.1690647,2.19468818 C10.8100647,1.54568818 9.99906466,1.31168818 9.35706466,1.66668818 C9.13806466,1.78768818 8.95906466,1.96668818 8.83806466,2.18568818 L8.83806466,2.18568818 L1.58306466,14.8816882 C1.46606466,15.1996882 1.47406466,15.5446882 1.60606466,15.8576882 C1.74406466,16.1846882 2.00106466,16.4386882 2.33006466,16.5716882 C2.46906466,16.6286882 2.61306466,16.6606882 2.76206466,16.6686882 C3.17506466,16.6886882 3.49406466,17.0416882 3.47306466,17.4556882 C3.45306466,17.8556882 3.12106466,18.1676882 2.72406466,18.1676882 C2.71106466,18.1676882 2.69906466,18.1676882 2.68606466,18.1666882 C2.36806466,18.1506882 2.05806466,18.0816882 1.76406466,17.9616882 C1.06606466,17.6776882 0.519064655,17.1376882 0.225064655,16.4416882 C-0.0699353448,15.7456882 -0.0749353448,14.9756882 0.210064655,14.2756882 C0.222064655,14.2446882 0.236064655,14.2146882 0.253064655,14.1856882 L0.253064655,14.1856882 L7.53006466,1.45068818 C7.78206466,0.994688185 8.16506466,0.612688185 8.63006466,0.353688185 Z M10.0010647,12.5138882 C10.4150647,12.5138882 10.7510647,12.8448882 10.7510647,13.2588882 L10.7510647,13.2588882 L10.7510647,13.2688882 C10.7510647,13.6828882 10.4150647,14.0188882 10.0010647,14.0188882 C9.58706466,14.0188882 9.25106466,13.6828882 9.25106466,13.2688882 C9.25106466,12.8548882 9.58706466,12.5138882 10.0010647,12.5138882 Z M10.0010647,6.27098818 C10.4150647,6.27098818 10.7510647,6.60698818 10.7510647,7.02098818 L10.7510647,7.02098818 L10.7510647,9.84798818 C10.7510647,10.2619882 10.4150647,10.5979882 10.0010647,10.5979882 C9.58706466,10.5979882 9.25106466,10.2619882 9.25106466,9.84798818 L9.25106466,9.84798818 L9.25106466,7.02098818 C9.25106466,6.60698818 9.58706466,6.27098818 10.0010647,6.27098818 Z"></path>
        </g>
    </g>
</svg>