<?xml version="1.0" encoding="UTF-8"?>
<svg width="24px" height="24px" viewBox="0 0 24 24" version="1.1" xmlns="http://www.w3.org/2000/svg" xmlns:xlink="http://www.w3.org/1999/xlink">
    <title>Iconly/Light-Outline/Danger Circle</title>
    <g id="Iconly/Light-Outline/Danger-Circle" stroke="none" stroke-width="1" fill="none" fill-rule="evenodd">
        <g id="Danger-Circle" transform="translate(2.000000, 2.000000)" fill="#000000">
            <path d="M10,1.5 C5.313,1.5 1.5,5.313 1.5,10 C1.5,14.687 5.313,18.5 10,18.5 C14.687,18.5 18.5,14.687 18.5,10 C18.5,5.313 14.687,1.5 10,1.5 M10,20 C4.486,20 0,15.514 0,10 C0,4.486 4.486,0 10,0 C15.514,0 20,4.486 20,10 C20,15.514 15.514,20 10,20" id="Fill-1"></path>
            <path d="M9.9941,11.373 C9.5801,11.373 9.2441,11.037 9.2441,10.623 L9.2441,6.204 C9.2441,5.79 9.5801,5.454 9.9941,5.454 C10.4081,5.454 10.7441,5.79 10.7441,6.204 L10.7441,10.623 C10.7441,11.037 10.4081,11.373 9.9941,11.373" id="Fill-3"></path>
            <path d="M10.0039,14.7959 C9.4509,14.7959 8.9989,14.3489 8.9989,13.7959 C8.9989,13.2429 9.4419,12.7959 9.9939,12.7959 L10.0039,12.7959 C10.5569,12.7959 11.0039,13.2429 11.0039,13.7959 C11.0039,14.3489 10.5569,14.7959 10.0039,14.7959" id="Fill-5"></path>
        </g>
    </g>
</svg>