<?xml version="1.0" encoding="UTF-8"?>
<svg width="24px" height="24px" viewBox="0 0 24 24" version="1.1" xmlns="http://www.w3.org/2000/svg" xmlns:xlink="http://www.w3.org/1999/xlink">
    <title>Iconly/Light-Outline/Danger Triangle</title>
    <defs>
        <polygon id="path-1" points="0 0.8145 20.0137133 0.8145 20.0137133 19 0 19"></polygon>
    </defs>
    <g id="Iconly/Light-Outline/Danger-Triangle" stroke="none" stroke-width="1" fill="none" fill-rule="evenodd">
        <g id="Group-8" transform="translate(2.000000, 2.000000)">
            <g id="Group-3" transform="translate(0.000000, 0.185500)">
                <mask id="mask-2" fill="white">
                    <use xlink:href="#path-1"></use>
                </mask>
                <g id="Clip-2"></g>
                <path d="M10.0127,2.3145 C9.5367,2.3145 9.1127,2.5605 8.8747,2.9735 L1.6767,15.5385 C1.4427,15.9485 1.4447,16.4375 1.6817,16.8465 C1.9187,17.2555 2.3427,17.5005 2.8157,17.5005 L17.1987,17.5005 C17.6707,17.5005 18.0947,17.2555 18.3317,16.8465 C18.5697,16.4375 18.5717,15.9485 18.3357,15.5385 L11.1507,2.9735 C10.9137,2.5605 10.4897,2.3145 10.0127,2.3145 M17.1987,19.0005 L2.8157,19.0005 C1.8017,19.0005 0.8927,18.4765 0.3837,17.5985 C-0.1253,16.7215 -0.1283,15.6725 0.3747,14.7935 L7.5747,2.2275 C8.0807,1.3425 8.9917,0.8145 10.0127,0.8145 L10.0137,0.8145 C11.0337,0.8145 11.9467,1.3435 12.4527,2.2295 L19.6387,14.7935 C20.1417,15.6725 20.1387,16.7215 19.6297,17.5985 C19.1207,18.4765 18.2117,19.0005 17.1987,19.0005" id="Fill-1" fill="#000000" mask="url(#mask-2)"></path>
            </g>
            <path d="M10.0039,12.164 C9.5899,12.164 9.2539,11.828 9.2539,11.414 L9.2539,8.314 C9.2539,7.9 9.5899,7.564 10.0039,7.564 C10.4179,7.564 10.7539,7.9 10.7539,8.314 L10.7539,11.414 C10.7539,11.828 10.4179,12.164 10.0039,12.164" id="Fill-4" fill="#000000"></path>
            <path d="M10.0059,15.499 C9.4529,15.499 9.0009,15.052 9.0009,14.499 C9.0009,13.946 9.4439,13.499 9.9959,13.499 L10.0059,13.499 C10.5589,13.499 11.0059,13.946 11.0059,14.499 C11.0059,15.052 10.5589,15.499 10.0059,15.499" id="Fill-6" fill="#000000"></path>
        </g>
    </g>
</svg>