<?xml version="1.0" encoding="UTF-8"?>
<svg width="24px" height="24px" viewBox="0 0 24 24" version="1.1" xmlns="http://www.w3.org/2000/svg" xmlns:xlink="http://www.w3.org/1999/xlink">
    <title>Iconly/Broken/Delete</title>
    <g id="Iconly/Broken/Delete" stroke="none" stroke-width="1" fill="none" fill-rule="evenodd">
        <g id="Delete" transform="translate(3.000000, 2.000000)" fill="#000000" fill-rule="nonzero">
            <path d="M15.9915687,6.733199 C16.3846329,6.76619851 16.6772365,7.11919321 16.6450501,7.52218717 C16.6401734,7.58918616 16.1105608,14.3140853 15.8052777,17.135043 C15.6180114,18.8750169 14.4953888,19.932001 12.8041398,19.9630006 C11.5186345,19.9870002 11.2074993,20 9.92101869,20 C9.67718234,20 9.43432132,20 9.19048496,19.999 C8.79644541,19.997 8.47750745,19.669005 8.47944924,19.264011 C8.48043349,18.8610171 8.79937144,18.536022 9.193411,18.536022 L9.193411,18.536022 L9.55586246,18.5368993 C10.0124957,18.5375752 10.3789998,18.5362882 10.7274781,18.5331864 L11.2456891,18.5271911 C11.6812869,18.5210916 12.1450501,18.5122723 12.7778055,18.5010225 C13.7521756,18.4820228 14.2778868,17.9830303 14.3861501,16.9750454 C14.6894825,14.1740874 15.2181198,7.47118793 15.2229965,7.40418894 C15.2542075,7.00119498 15.6033812,6.71219932 15.9915687,6.733199 Z M2.00823625,6.73289901 C2.40130046,6.71489928 2.7455974,7.00189497 2.77680845,7.40488893 C2.78168518,7.47188792 3.30642102,14.1567876 3.61267949,16.9797453 C3.71899214,17.9667305 4.23787591,18.4767228 5.15470062,18.4967225 C5.54874018,18.5047224 5.86182606,18.8397174 5.8540233,19.2437113 C5.84524519,19.6427054 5.52728258,19.9597006 5.14007044,19.9597006 L5.14007044,19.9597006 L5.12544026,19.9597006 C3.50051477,19.9247011 2.37789217,18.8457173 2.19355188,17.1427429 C1.88534273,14.2967855 1.35963154,7.58888617 1.35475481,7.52088719 C1.32256841,7.11889322 1.61517204,6.76589851 2.00823625,6.73289901 Z M11.06822,1.77635684e-14 C11.9557843,1.77635684e-14 12.7360607,0.61399079 12.9662422,1.49397759 C13.0686535,1.88497173 12.8423733,2.28596571 12.4619886,2.39096414 C12.0825792,2.49596256 11.6904904,2.26396604 11.5880791,1.87297191 C11.5246817,1.63197552 11.311081,1.46397804 11.06822,1.46397804 L11.06822,1.46397804 L6.93178001,1.46397804 C6.68891899,1.46397804 6.47531834,1.63197552 6.41192089,1.87297191 L6.41192089,1.87297191 L6.1846654,3.04595431 C6.15345435,3.20395194 6.10468708,3.35194972 6.04616635,3.49694755 L6.04616635,3.49694755 L17.2860471,3.49694755 C17.6800867,3.49694755 18,3.82394264 18,4.22793658 C18,4.63293051 17.6800867,4.9599256 17.2860471,4.9599256 L17.2860471,4.9599256 L0.712977513,4.9599256 C0.318937957,4.9599256 -7.10542736e-15,4.63293051 -7.10542736e-15,4.22793658 C-7.10542736e-15,3.82394264 0.318937957,3.49694755 0.712977513,3.49694755 L0.712977513,3.49694755 L3.90723381,3.49694755 C4.33248442,3.49694755 4.70214034,3.18595221 4.7850447,2.7599586 L4.7850447,2.7599586 L5.02302899,1.5399769 C5.26393931,0.61399079 6.04421566,1.77635684e-14 6.93178001,1.77635684e-14 L6.93178001,1.77635684e-14 Z"></path>
        </g>
    </g>
</svg>