<?xml version="1.0" encoding="UTF-8"?>
<svg width="24px" height="24px" viewBox="0 0 24 24" version="1.1" xmlns="http://www.w3.org/2000/svg" xmlns:xlink="http://www.w3.org/1999/xlink">
    <title>Iconly/Light-Outline/Delete</title>
    <g id="Iconly/Light-Outline/Delete" stroke="none" stroke-width="1" fill="none" fill-rule="evenodd">
        <g id="Delete" transform="translate(3.000000, 2.000000)" fill="#000000">
            <path d="M9.2466,20 C7.8916,20 6.5706,19.985 5.2636,19.958 C3.5916,19.925 2.4346,18.841 2.2456,17.129 C1.9306,14.289 1.3916,7.595 1.3866,7.528 C1.3526,7.115 1.6606,6.753 2.0736,6.72 C2.4806,6.709 2.8486,6.995 2.8816,7.407 C2.8866,7.475 3.4246,14.146 3.7366,16.964 C3.8436,17.937 4.3686,18.439 5.2946,18.458 C7.7946,18.511 10.3456,18.514 13.0956,18.464 C14.0796,18.445 14.6116,17.953 14.7216,16.957 C15.0316,14.163 15.5716,7.475 15.5776,7.407 C15.6106,6.995 15.9756,6.707 16.3846,6.72 C16.7976,6.754 17.1056,7.115 17.0726,7.528 C17.0666,7.596 16.5246,14.307 16.2126,17.122 C16.0186,18.869 14.8646,19.932 13.1226,19.964 C11.7896,19.987 10.5036,20 9.2466,20" id="Fill-1"></path>
            <path d="M17.708,4.9893 L0.75,4.9893 C0.336,4.9893 0,4.6533 0,4.2393 C0,3.8253 0.336,3.4893 0.75,3.4893 L17.708,3.4893 C18.122,3.4893 18.458,3.8253 18.458,4.2393 C18.458,4.6533 18.122,4.9893 17.708,4.9893" id="Fill-3"></path>
            <path d="M14.4404,4.9893 C13.3024,4.9893 12.3144,4.1783 12.0904,3.0623 L11.8474,1.8463 C11.7964,1.6613 11.5854,1.5003 11.3454,1.5003 L7.1124,1.5003 C6.8724,1.5003 6.6614,1.6613 6.6004,1.8923 L6.3674,3.0623 C6.1444,4.1783 5.1554,4.9893 4.0174,4.9893 C3.6034,4.9893 3.2674,4.6533 3.2674,4.2393 C3.2674,3.8253 3.6034,3.4893 4.0174,3.4893 C4.4434,3.4893 4.8134,3.1853 4.8974,2.7673 L5.1404,1.5513 C5.3874,0.6193 6.1944,0.0003 7.1124,0.0003 L11.3454,0.0003 C12.2634,0.0003 13.0704,0.6193 13.3074,1.5063 L13.5614,2.7673 C13.6444,3.1853 14.0144,3.4893 14.4404,3.4893 C14.8544,3.4893 15.1904,3.8253 15.1904,4.2393 C15.1904,4.6533 14.8544,4.9893 14.4404,4.9893" id="Fill-5"></path>
        </g>
    </g>
</svg>