<?xml version="1.0" encoding="UTF-8"?>
<svg width="24px" height="24px" viewBox="0 0 24 24" version="1.1" xmlns="http://www.w3.org/2000/svg" xmlns:xlink="http://www.w3.org/1999/xlink">
    <title>Iconly/Light-Outline/Discovery</title>
    <defs>
        <polygon id="path-1" points="0 0.2783 20.7218 0.2783 20.7218 21 0 21"></polygon>
    </defs>
    <g id="Iconly/Light-Outline/Discovery" stroke="none" stroke-width="1" fill="none" fill-rule="evenodd">
        <g id="Discovery" transform="translate(2.000000, 1.000000)">
            <path d="M9.2114,10.2119 L8.1644,13.5589 L11.5104,12.5109 L12.5584,9.1639 L9.2114,10.2119 Z M7.0204,15.4519 C6.8244,15.4519 6.6324,15.3749 6.4894,15.2329 C6.2924,15.0349 6.2204,14.7439 6.3044,14.4789 L7.8974,9.3899 C7.9704,9.1539 8.1544,8.9709 8.3884,8.8979 L13.4774,7.3049 C13.7444,7.2199 14.0344,7.2929 14.2324,7.4899 C14.4294,7.6879 14.5014,7.9789 14.4174,8.2439 L12.8254,13.3329 C12.7524,13.5679 12.5674,13.7519 12.3334,13.8249 L7.2444,15.4179 C7.1704,15.4409 7.0944,15.4519 7.0204,15.4519 L7.0204,15.4519 Z" id="Fill-1" fill="#000000"></path>
            <g id="Group-5" transform="translate(0.000000, 0.721700)">
                <mask id="mask-2" fill="white">
                    <use xlink:href="#path-1"></use>
                </mask>
                <g id="Clip-4"></g>
                <path d="M10.3608,1.7783 C5.4748,1.7783 1.4998,5.7543 1.4998,10.6393 C1.4998,15.5253 5.4748,19.5003 10.3608,19.5003 C15.2468,19.5003 19.2218,15.5253 19.2218,10.6393 C19.2218,5.7543 15.2468,1.7783 10.3608,1.7783 M10.3608,21.0003 C4.6478,21.0003 -0.0002,16.3523 -0.0002,10.6393 C-0.0002,4.9263 4.6478,0.2783 10.3608,0.2783 C16.0738,0.2783 20.7218,4.9263 20.7218,10.6393 C20.7218,16.3523 16.0738,21.0003 10.3608,21.0003" id="Fill-3" fill="#000000" mask="url(#mask-2)"></path>
            </g>
        </g>
    </g>
</svg>