<?xml version="1.0" encoding="UTF-8"?>
<svg width="24px" height="24px" viewBox="0 0 24 24" version="1.1" xmlns="http://www.w3.org/2000/svg" xmlns:xlink="http://www.w3.org/1999/xlink">
    <title>Iconly/Light-Outline/Discount</title>
    <defs>
        <polygon id="path-1" points="0.000177768316 -0.001 20.0029215 -0.001 20.0029215 20 0.000177768316 20"></polygon>
    </defs>
    <g id="Iconly/Light-Outline/Discount" stroke="none" stroke-width="1" fill="none" fill-rule="evenodd">
        <g id="Discount" transform="translate(2.000000, 2.000000)">
            <g id="Group-3" transform="translate(0.000000, 0.001200)">
                <mask id="mask-2" fill="white">
                    <use xlink:href="#path-1"></use>
                </mask>
                <g id="Clip-2"></g>
                <path d="M8.9449,18.0743 C9.5349,18.6503 10.4849,18.6433 11.0709,18.0543 L11.7929,17.3343 C12.3529,16.7753 13.1269,16.4563 13.9159,16.4563 L14.9459,16.4563 C15.7799,16.4563 16.4579,15.7783 16.4579,14.9453 L16.4579,13.9163 C16.4579,13.1153 16.7679,12.3623 17.3339,11.7953 L18.0539,11.0743 C18.3469,10.7803 18.5039,10.3993 18.5029047,9.9953 C18.5019,9.5923 18.3429,9.2133 18.0559,8.9273 L17.3349,8.2053 C16.7679,7.6343 16.4579,6.8823 16.4579,6.0813 L16.4579,5.0543 C16.4579,4.2203 15.7799,3.5423 14.9459,3.5423 L13.9179,3.5423 C13.1169,3.5423 12.3639,3.2313 11.7969,2.6683 L11.0749,1.9453 C10.4739,1.3503 9.5149,1.3533 8.9279,1.9443 L8.2089,2.6653 C7.6349,3.2323 6.8819,3.5423 6.0839,3.5423 L5.0549,3.5423 C4.2219,3.5433 3.5439,4.2213 3.5439,5.0543 L3.5439,6.0793 C3.5439,6.8803 3.2329,7.6333 2.6689,8.2013 L1.9589,8.9123 C1.9519,8.9203 1.9449,8.9263 1.9379,8.9333 C1.3509,9.5243 1.3539,10.4833 1.9449,11.0703 L2.6669,11.7923 C3.2329,12.3603 3.5439,13.1133 3.5439,13.9143 L3.5439,14.9453 C3.5439,15.7783 4.2209,16.4563 5.0549,16.4563 L6.0819,16.4563 C6.8839,16.4573 7.6369,16.7683 8.2039,17.3333 L8.9249,18.0523 C8.9309,18.0593 8.9379,18.0663 8.9449,18.0743 L8.9449,18.0743 Z M9.9989,20.0003 C9.2319,20.0003 8.4649,19.7103 7.8779,19.1283 C7.8699,19.1203 7.8619,19.1123 7.8539,19.1033 L7.1439,18.3943 C6.8609,18.1133 6.4829,17.9573 6.0809,17.9563 L5.0549,17.9563 C3.3939,17.9563 2.0439,16.6053 2.0439,14.9453 L2.0439,13.9143 C2.0439,13.5123 1.8869,13.1353 1.6049,12.8513 L0.8859,12.1333 C-0.2821,10.9713 -0.2961,9.0793 0.8509,7.8993 C0.8599,7.8903 0.8689,7.8813 0.8779,7.8723 L1.6059,7.1423 C1.8869,6.8593 2.0439,6.4803 2.0439,6.0793 L2.0439,5.0543 C2.0439,3.3943 3.3939,2.0433 5.0539,2.0423 L6.0839,2.0423 C6.4849,2.0423 6.8629,1.8853 7.1499,1.6023 L7.8649,0.8853 C9.0339,-0.2917 10.9449,-0.2977 12.1239,0.8743 L12.8549,1.6053 C13.1379,1.8863 13.5159,2.0423 13.9179,2.0423 L14.9459,2.0423 C16.6069,2.0423 17.9579,3.3933 17.9579,5.0543 L17.9579,6.0813 C17.9579,6.4823 18.1139,6.8613 18.3969,7.1463 L19.1149,7.8653 C19.6839,8.4303 19.9999,9.1853 20.0029215,9.9903 C20.0059,10.7953 19.6949,11.5523 19.1279,12.1233 L18.3949,12.8543 C18.1139,13.1373 17.9579,13.5143 17.9579,13.9163 L17.9579,14.9453 C17.9579,16.6053 16.6069,17.9563 14.9469,17.9563 L13.9159,17.9563 C13.5199,17.9563 13.1329,18.1163 12.8519,18.3953 L12.1339,19.1133 C11.5469,19.7043 10.7729,20.0003 9.9989,20.0003 L9.9989,20.0003 Z" id="Fill-1" fill="#000000" mask="url(#mask-2)"></path>
            </g>
            <path d="M7.4303,13.3215 C7.2383,13.3215 7.0463,13.2485 6.9003,13.1015 C6.6073,12.8085 6.6073,12.3345 6.9003,12.0415 L12.0403,6.9005 C12.3333,6.6075 12.8083,6.6075 13.1013,6.9005 C13.3943,7.1935 13.3943,7.6685 13.1013,7.9615 L7.9603,13.1015 C7.8143,13.2485 7.6223,13.3215 7.4303,13.3215" id="Fill-4" fill="#000000"></path>
            <path d="M12.5035,13.4992 C11.9505,13.4992 11.4985,13.0522 11.4985,12.4992 C11.4985,11.9462 11.9415,11.4992 12.4945,11.4992 L12.5035,11.4992 C13.0565,11.4992 13.5035,11.9462 13.5035,12.4992 C13.5035,13.0522 13.0565,13.4992 12.5035,13.4992" id="Fill-6" fill="#000000"></path>
            <path d="M7.5035,8.4992 C6.9505,8.4992 6.4985,8.0522 6.4985,7.4992 C6.4985,6.9462 6.9415,6.4992 7.4945,6.4992 L7.5035,6.4992 C8.0565,6.4992 8.5035,6.9462 8.5035,7.4992 C8.5035,8.0522 8.0565,8.4992 7.5035,8.4992" id="Fill-8" fill="#000000"></path>
        </g>
    </g>
</svg>