<?xml version="1.0" encoding="UTF-8"?>
<svg width="24px" height="24px" viewBox="0 0 24 24" version="1.1" xmlns="http://www.w3.org/2000/svg" xmlns:xlink="http://www.w3.org/1999/xlink">
    <title>Iconly/Broken/Discount</title>
    <g id="Iconly/Broken/Discount" stroke="none" stroke-width="1" fill="none" fill-rule="evenodd">
        <g id="Discount" transform="translate(2.000000, 2.000000)" fill="#000000" fill-rule="nonzero">
            <path d="M2.79425399,14.1951073 C3.20825399,14.1951073 3.54425399,14.5312169 3.54425399,14.9453519 C3.54425399,15.7786236 4.22125399,16.4558444 5.05525399,16.4558444 L5.05525399,16.4558444 L6.08325399,16.4558444 C6.88425399,16.4568447 7.63825399,16.7689465 8.20525399,17.3321301 L8.20525399,17.3321301 L8.92625399,18.0543656 C9.21825399,18.3454605 9.59725399,18.5015114 9.99925399,18.5015114 C10.409254,18.5175166 10.785254,18.3444602 11.071254,18.0553659 C11.363254,17.7632707 11.838254,17.7602697 12.132254,18.052365 C12.425254,18.3454605 12.426254,18.8206155 12.134254,19.1147113 C11.547254,19.7049038 10.773254,20 9.99925399,20 C9.23125399,20 8.46225399,19.7089051 7.87625399,19.1257149 L7.87625399,19.1257149 L7.14625399,18.3954768 C6.86325399,18.1143852 6.48425399,17.957334 6.08125399,17.9563336 L6.08125399,17.9563336 L5.05525399,17.9563336 C3.39525399,17.9563336 2.04425399,16.6058933 2.04425399,14.9453519 C2.04425399,14.5312169 2.38025399,14.1951073 2.79425399,14.1951073 Z M14.943754,2.04064422 C16.603754,2.04064422 17.954754,3.39108454 17.954754,5.0526263 L17.954754,5.0526263 L17.954754,6.08096159 C17.955754,6.48209238 18.111754,6.861216 18.394754,7.14630896 L18.394754,7.14630896 L19.112754,7.86454314 C19.681754,8.42972742 19.996754,9.18497368 19.9997636,9.99023624 C20.001754,10.7954988 19.690754,11.5527457 19.123754,12.1229316 L19.123754,12.1229316 L18.393754,12.8531697 C18.115754,13.133261 17.955754,13.5203873 17.954754,13.9175168 L17.954754,13.9175168 L17.954754,14.9448517 C17.954754,16.6053932 16.603754,17.9568338 14.943754,17.9568338 C14.529754,17.9568338 14.193754,17.6207242 14.193754,17.2065892 C14.193754,16.7924542 14.529754,16.4563446 14.943754,16.4563446 C15.777754,16.4563446 16.454754,15.7781234 16.454754,14.9448517 L16.454754,14.9448517 L16.454754,13.9165164 C16.455754,13.1142549 16.766754,12.3600089 17.331754,11.7938243 L17.331754,11.7938243 L18.051754,11.0725891 C18.344754,10.7784933 18.500754,10.3983693 18.499754,9.99423755 C18.498754,9.5911061 18.339754,9.21198248 18.053754,8.92688953 L18.053754,8.92688953 L17.332754,8.20565436 C16.766754,7.63546845 16.455754,6.88222285 16.454754,6.08196192 L16.454754,6.08196192 L16.454754,5.0526263 C16.454754,4.21835427 15.777754,3.54113346 14.943754,3.54113346 C14.529754,3.54113346 14.193754,3.20502387 14.193754,2.79088884 C14.193754,2.37675381 14.529754,2.04064422 14.943754,2.04064422 Z M12.569554,11.703795 C13.048554,11.703795 13.437554,12.0929218 13.437554,12.5720781 C13.437554,13.0512343 13.048554,13.4403612 12.569554,13.4403612 C12.089554,13.4403612 11.701554,13.0512343 11.701554,12.5720781 C11.701554,12.0929218 12.089554,11.703795 12.569554,11.703795 Z M12.039454,6.89702768 C12.332454,6.60393211 12.806454,6.60393211 13.099454,6.89702768 C13.392454,7.19012324 13.392454,7.66527817 13.099454,7.95837374 L13.099454,7.95837374 L7.96045399,13.1000502 C7.81345399,13.2460978 7.62145399,13.3191216 7.42945399,13.3191216 C7.23745399,13.3191216 7.04545399,13.2460978 6.89945399,13.1000502 C6.60645399,12.8069547 6.60645399,12.3317997 6.89945399,12.0387042 L6.89945399,12.0387042 Z M7.86625399,0.882266518 C8.99625399,-0.249102374 10.826254,-0.299118682 12.006254,0.771230313 C12.046254,0.801240098 12.086254,0.831249883 12.126254,0.87126293 C12.256254,1.01130859 12.336254,1.1913673 12.336254,1.39143253 C12.336254,1.81156952 11.996254,2.14167716 11.586254,2.14167716 C11.386254,2.14167716 11.206254,2.06165106 11.076254,1.94161193 C11.066254,1.93160866 11.066254,1.93160866 11.056254,1.92260573 C10.456254,1.35141949 9.50625399,1.36142275 8.92625399,1.94161193 L8.92625399,1.94161193 L8.20625399,2.66184676 C7.63625399,3.23203268 6.88625399,3.54213379 6.08625399,3.54213379 L6.08625399,3.54213379 L5.05625399,3.54213379 C4.22625399,3.54213379 3.54625399,4.22235558 3.54625399,5.0526263 L3.54625399,5.0526263 L3.54625399,6.08296224 C3.54625399,6.8842235 3.23625399,7.63446812 2.66625399,8.20365371 L2.66625399,8.20365371 L1.94625399,8.92488888 C1.35625399,9.52408425 1.35625399,10.4843974 1.94625399,11.0745898 C2.23625399,11.3646844 2.23625399,11.8348377 1.94625399,12.1359359 C1.80625399,12.2749812 1.60625399,12.3550073 1.41625399,12.3550073 C1.22625399,12.3550073 1.03625399,12.2849845 0.886253989,12.1359359 C-0.293746011,10.9655543 -0.293746011,9.05393095 0.876253989,7.87354608 L0.876253989,7.87354608 L1.60625399,7.14330798 C1.88625399,6.86321665 2.04625399,6.48309271 2.04625399,6.08296224 L2.04625399,6.08296224 L2.04625399,5.0526263 C2.04625399,3.39208486 3.39625399,2.04164454 5.05625399,2.04164454 L5.05625399,2.04164454 L6.08625399,2.04164454 C6.48625399,2.04164454 6.86625399,1.88259268 7.14625399,1.60150103 L7.14625399,1.60150103 Z M7.42055399,6.57522275 C7.89955399,6.57522275 8.28855399,6.96434963 8.28855399,7.44350586 C8.28855399,7.92266209 7.89955399,8.31078864 7.42055399,8.31078864 C6.94155399,8.31078864 6.55255399,7.92266209 6.55255399,7.44350586 C6.55255399,6.96434963 6.94155399,6.57522275 7.42055399,6.57522275 Z"></path>
        </g>
    </g>
</svg>