<?xml version="1.0" encoding="UTF-8"?>
<svg width="24px" height="24px" viewBox="0 0 24 24" version="1.1" xmlns="http://www.w3.org/2000/svg" xmlns:xlink="http://www.w3.org/1999/xlink">
    <title>Iconly/Light-Outline/Document</title>
    <defs>
        <polygon id="path-1" points="0 0.09 18.1647 0.09 18.1647 19.9998 0 19.9998"></polygon>
    </defs>
    <g id="Iconly/Light-Outline/Document" stroke="none" stroke-width="1" fill="none" fill-rule="evenodd">
        <g id="Document" transform="translate(3.000000, 1.000000)">
            <path d="M12.7158,15.9737 L5.4958,15.9737 C5.0818,15.9737 4.7458,15.6377 4.7458,15.2237 C4.7458,14.8097 5.0818,14.4737 5.4958,14.4737 L12.7158,14.4737 C13.1298,14.4737 13.4658,14.8097 13.4658,15.2237 C13.4658,15.6377 13.1298,15.9737 12.7158,15.9737" id="Fill-1" fill="#000000"></path>
            <path d="M12.7158,11.7872 L5.4958,11.7872 C5.0818,11.7872 4.7458,11.4512 4.7458,11.0372 C4.7458,10.6232 5.0818,10.2872 5.4958,10.2872 L12.7158,10.2872 C13.1298,10.2872 13.4658,10.6232 13.4658,11.0372 C13.4658,11.4512 13.1298,11.7872 12.7158,11.7872" id="Fill-3" fill="#000000"></path>
            <path d="M8.2505,7.6104 L5.4955,7.6104 C5.0815,7.6104 4.7455,7.2744 4.7455,6.8604 C4.7455,6.4464 5.0815,6.1104 5.4955,6.1104 L8.2505,6.1104 C8.6645,6.1104 9.0005,6.4464 9.0005,6.8604 C9.0005,7.2744 8.6645,7.6104 8.2505,7.6104" id="Fill-5" fill="#000000"></path>
            <g id="Group-9" transform="translate(0.000000, 0.910200)">
                <mask id="mask-2" fill="white">
                    <use xlink:href="#path-1"></use>
                </mask>
                <g id="Clip-8"></g>
                <path d="M12.9087,1.5898 L5.2197,1.5938 C2.8917,1.6078 1.4997,3.0478 1.4997,5.4468 L1.4997,14.6428 C1.4997,17.0578 2.9047,18.4998 5.2557,18.4998 L12.9447,18.4968 C15.2727,18.4828 16.6647,17.0408 16.6647,14.6428 L16.6647,5.4468 C16.6647,3.0318 15.2607,1.5898 12.9087,1.5898 Z M5.2567,19.9998 C2.1127,19.9998 -0.0003,17.8468 -0.0003,14.6428 L-0.0003,5.4468 C-0.0003,2.2138 2.0467,0.1128 5.2147,0.0938 L12.9077,0.0898 L12.9087,0.0898 C16.0527,0.0898 18.1647,2.2428 18.1647,5.4468 L18.1647,14.6428 C18.1647,17.8748 16.1177,19.9768 12.9497,19.9968 L5.2567,19.9998 Z" id="Fill-7" fill="#000000" mask="url(#mask-2)"></path>
            </g>
        </g>
    </g>
</svg>