<?xml version="1.0" encoding="UTF-8"?>
<svg width="24px" height="24px" viewBox="0 0 24 24" version="1.1" xmlns="http://www.w3.org/2000/svg" xmlns:xlink="http://www.w3.org/1999/xlink">
    <title>Iconly/Light-Outline/Download</title>
    <defs>
        <polygon id="path-1" points="0.0002 0.256 20 0.256 20 14 0.0002 14"></polygon>
    </defs>
    <g id="Iconly/Light-Outline/Download" stroke="none" stroke-width="1" fill="none" fill-rule="evenodd">
        <g id="Download" transform="translate(2.000000, 3.000000)">
            <path d="M10.001,13.5411 C9.587,13.5411 9.251,13.2051 9.251,12.7911 L9.251,0.7501 C9.251,0.3361 9.587,0.0001 10.001,0.0001 C10.415,0.0001 10.751,0.3361 10.751,0.7501 L10.751,12.7911 C10.751,13.2051 10.415,13.5411 10.001,13.5411" id="Fill-1" fill="#000000"></path>
            <path d="M10.001,13.5411 C9.802,13.5411 9.61,13.4621 9.47,13.3201 L6.554,10.3931 C6.262,10.0991 6.263,9.6241 6.556,9.3321 C6.85,9.0401 7.324,9.0401 7.616,9.3341 L10.001,11.7291 L12.386,9.3341 C12.678,9.0401 13.152,9.0401 13.446,9.3321 C13.739,9.6241 13.74,10.0991 13.448,10.3931 L10.532,13.3201 C10.392,13.4621 10.2,13.5411 10.001,13.5411" id="Fill-3" fill="#000000"></path>
            <g id="Group-7" transform="translate(0.000000, 4.476600)">
                <mask id="mask-2" fill="white">
                    <use xlink:href="#path-1"></use>
                </mask>
                <g id="Clip-6"></g>
                <path d="M15.5752,14 L4.4352,14 C1.9902,14 0.0002,12.011 0.0002,9.565 L0.0002,4.68 C0.0002,2.24 1.9852,0.256 4.4262,0.256 L5.3672,0.256 C5.7812,0.256 6.1172,0.592 6.1172,1.006 C6.1172,1.42 5.7812,1.756 5.3672,1.756 L4.4262,1.756 C2.8122,1.756 1.5002,3.067 1.5002,4.68 L1.5002,9.565 C1.5002,11.184 2.8162,12.5 4.4352,12.5 L15.5752,12.5 C17.1872,12.5 18.5002,11.187 18.5002,9.575 L18.5002,4.691 C18.5002,3.072 17.1832,1.756 15.5662,1.756 L14.6342,1.756 C14.2202,1.756 13.8842,1.42 13.8842,1.006 C13.8842,0.592 14.2202,0.256 14.6342,0.256 L15.5662,0.256 C18.0112,0.256 20.0002,2.246 20.0002,4.691 L20.0002,9.575 C20.0002,12.015 18.0142,14 15.5752,14" id="Fill-5" fill="#000000" mask="url(#mask-2)"></path>
            </g>
        </g>
    </g>
</svg>