<?xml version="1.0" encoding="UTF-8"?>
<svg width="24px" height="24px" viewBox="0 0 24 24" version="1.1" xmlns="http://www.w3.org/2000/svg" xmlns:xlink="http://www.w3.org/1999/xlink">
    <title>Iconly/Light-Outline/Edit</title>
    <defs>
        <polygon id="path-1" points="0.000325694318 0.0604573565 17.1809124 0.0604573565 17.1809124 19 0.000325694318 19"></polygon>
    </defs>
    <g id="Iconly/Light-Outline/Edit" stroke="none" stroke-width="1" fill="none" fill-rule="evenodd">
        <g id="Edit" transform="translate(2.000000, 2.000000)">
            <path d="M18.7508,19.9397 L11.4978,19.9397 C11.0838,19.9397 10.7478,19.6037 10.7478,19.1897 C10.7478,18.7757 11.0838,18.4397 11.4978,18.4397 L18.7508,18.4397 C19.1648,18.4397 19.5008,18.7757 19.5008,19.1897 C19.5008,19.6037 19.1648,19.9397 18.7508,19.9397" id="Fill-1" fill="#000000"></path>
            <g id="Group-5" transform="translate(0.000000, 0.939700)">
                <mask id="mask-2" fill="white">
                    <use xlink:href="#path-1"></use>
                </mask>
                <g id="Clip-4"></g>
                <path d="M11.1106,2.0771 L1.6956,13.8521 C1.5246,14.0661 1.4616,14.3421 1.5246,14.6071 L2.2056,17.4921 L5.2446,17.4541 C5.5336,17.4511 5.8006,17.3221 5.9776,17.1021 C9.1946,13.0771 15.3276,5.4031 15.5016,5.1781 C15.6656,4.9121 15.7296,4.5361 15.6436,4.1741 C15.5556,3.8031 15.3246,3.4881 14.9916,3.2871 C14.9206,3.2381 13.2356,1.9301 13.1836,1.8891 C12.5496,1.3811 11.6246,1.4691 11.1106,2.0771 L11.1106,2.0771 Z M1.6136,19.0001 C1.2666,19.0001 0.9646,18.7621 0.8836,18.4231 L0.0646,14.9521 C-0.1044,14.2331 0.0636,13.4911 0.5246,12.9151 L9.9446,1.1331 C9.9486,1.1291 9.9516,1.1241 9.9556,1.1201 C10.9886,-0.1149 12.8566,-0.2969 14.1166,0.7141 C14.1666,0.7531 15.8396,2.0531 15.8396,2.0531 C16.4476,2.4151 16.9226,3.0621 17.1026,3.8281 C17.2816,4.5861 17.1516,5.3681 16.7346,6.0291 C16.7036,6.0781 16.6766,6.1201 7.1486,18.0401 C6.6896,18.6121 6.0016,18.9451 5.2626,18.9541 L1.6236,19.0001 L1.6136,19.0001 Z" id="Fill-3" fill="#000000" mask="url(#mask-2)"></path>
            </g>
            <path d="M14.2234,9.6848 C14.0634,9.6848 13.9034,9.6338 13.7664,9.5298 L8.3144,5.3418 C7.9864,5.0898 7.9244,4.6198 8.1764,4.2898 C8.4294,3.9618 8.8994,3.9008 9.2284,4.1528 L14.6814,8.3398 C15.0094,8.5918 15.0714,9.0628 14.8184,9.3918 C14.6714,9.5838 14.4484,9.6848 14.2234,9.6848" id="Fill-6" fill="#000000"></path>
        </g>
    </g>
</svg>