<?xml version="1.0" encoding="UTF-8"?>
<svg width="24px" height="24px" viewBox="0 0 24 24" version="1.1" xmlns="http://www.w3.org/2000/svg" xmlns:xlink="http://www.w3.org/1999/xlink">
    <title>Iconly/Broken/Edit</title>
    <g id="Iconly/Broken/Edit" stroke="none" stroke-width="1" fill="none" fill-rule="evenodd">
        <g id="Edit" transform="translate(3.000000, 3.000000)" fill="#000000" fill-rule="nonzero">
            <path d="M17.2208803,16.4250239 C17.6509544,16.4250239 18,16.7778185 18,17.2125119 C18,17.6472053 17.6509544,18 17.2208803,18 L17.2208803,18 L10.5962852,18 C10.1651723,18 9.81716545,17.6472053 9.81716545,17.2125119 C9.81716545,16.7778185 10.1651723,16.4250239 10.5962852,16.4250239 L10.5962852,16.4250239 Z M9.10505004,1.03845187 C10.0836244,-0.225728984 11.7976877,-0.349627108 13.1782879,0.743406339 L13.1782879,0.743406339 L14.6222564,1.88788901 C15.2528239,2.38768144 15.6839368,3.04497148 15.8345666,3.74006096 C16.0028565,4.51599921 15.8169066,5.30348728 15.312037,5.95447742 L15.312037,5.95447742 L6.70120605,17.0591092 C6.26593784,17.6208507 5.61147729,17.9484458 4.9040366,17.9578956 L4.9040366,17.9578956 L1.58187018,17.999895 C1.20997038,17.999895 0.895206015,17.7478988 0.81313874,17.3909042 L0.81313874,17.3909042 L0.0610285189,14.1212537 C-0.0989507271,13.4251143 0.0589508663,12.7037752 0.495257901,12.1420337 L0.495257901,12.1420337 L1.62550088,10.6836058 C1.89040158,10.341311 2.38072758,10.2804119 2.71938495,10.5502578 C3.05804231,10.8180038 3.11725541,11.3135963 2.85131589,11.6558911 L2.85131589,11.6558911 L1.7210729,13.114319 C1.57771488,13.2991162 1.52577356,13.5353626 1.5787537,13.7642591 L1.5787537,13.7642591 L2.18854472,16.416519 L4.8842989,16.3829195 C5.11595716,16.3797695 5.3309942,16.2726712 5.47435222,16.087874 L5.47435222,16.087874 L14.0851832,4.98324213 C14.3054144,4.69974642 14.3812487,4.39525103 14.3126861,4.07605587 C14.2389295,3.73901097 14.00831,3.40196608 13.6613421,3.12792023 L13.6613421,3.12792023 L12.2173736,1.98238758 C11.658485,1.54139425 10.8700159,1.31459769 10.3319039,2.01073715 L10.3319039,2.01073715 L9.1943891,3.47651495 L10.9998692,4.94019278 C11.3354101,5.21108868 11.389429,5.70773116 11.120373,6.04582604 C10.9666267,6.24112308 10.7401626,6.34192155 10.5116208,6.34192155 C10.3412533,6.34192155 10.1688081,6.28522241 10.0254501,6.16867418 L10.0254501,6.16867418 L8.2334748,4.71654617 L5.28736349,8.51643862 C5.02142397,8.85873344 4.53213679,8.9206825 4.1924406,8.6497866 C3.85482206,8.38204066 3.79560897,7.88644816 4.06050967,7.54415335 L4.06050967,7.54415335 Z"></path>
        </g>
    </g>
</svg>