<?xml version="1.0" encoding="UTF-8"?>
<svg width="24px" height="24px" viewBox="0 0 24 24" version="1.1" xmlns="http://www.w3.org/2000/svg" xmlns:xlink="http://www.w3.org/1999/xlink">
    <title>Iconly/Light-Outline/Edit Square</title>
    <g id="Iconly/Light-Outline/Edit-Square" stroke="none" stroke-width="1" fill="none" fill-rule="evenodd">
        <g id="Edit-Square" transform="translate(2.000000, 2.000000)" fill="#000000">
            <path d="M14.5771,20.3687 L5.7531,20.3687 C2.3121,20.3687 0.0001,17.9537 0.0001,14.3597 L0.0001,6.0457 C0.0001,2.4517 2.3121,0.0367 5.7531,0.0367 L9.4921,0.0367 C9.9061,0.0367 10.2421,0.3727 10.2421,0.7867 C10.2421,1.2007 9.9061,1.5367 9.4921,1.5367 L5.7531,1.5367 C3.1691,1.5367 1.5001,3.3067 1.5001,6.0457 L1.5001,14.3597 C1.5001,17.0987 3.1691,18.8687 5.7531,18.8687 L14.5771,18.8687 C17.1611,18.8687 18.8311,17.0987 18.8311,14.3597 L18.8311,10.3317 C18.8311,9.9177 19.1671,9.5817 19.5811,9.5817 C19.9951,9.5817 20.3311,9.9177 20.3311,10.3317 L20.3311,14.3597 C20.3311,17.9537 18.0181,20.3687 14.5771,20.3687" id="Fill-1"></path>
            <path d="M6.8677,13.4283 L9.8447,13.4283 C10.2247,13.4283 10.5807,13.2813 10.8497,13.0123 L18.3587,5.5033 C18.6667,5.1953 18.8367,4.7853 18.8367,4.3493 C18.8367,3.9123 18.6667,3.5013 18.3587,3.1933 L17.1417,1.9763 C16.5047,1.3413 15.4687,1.3413 14.8307,1.9763 L7.3577,9.4493 C7.0987,9.7083 6.9517,10.0523 6.9427,10.4173 L6.8677,13.4283 Z M9.8447,14.9283 L6.0987,14.9283 C5.8967,14.9283 5.7027,14.8463 5.5617,14.7013 C5.4207,14.5573 5.3437,14.3623 5.3487,14.1593 L5.4427,10.3803 C5.4617,9.6283 5.7647,8.9213 6.2967,8.3883 L6.2977,8.3883 L13.7707,0.9153 C14.9927,-0.3047 16.9797,-0.3047 18.2017,0.9153 L19.4187,2.1323 C20.0117,2.7243 20.3377,3.5113 20.3367023,4.3493 C20.3367023,5.1873 20.0107,5.9733 19.4187,6.5643 L11.9097,14.0733 C11.3587,14.6243 10.6247,14.9283 9.8447,14.9283 L9.8447,14.9283 Z" id="Fill-3"></path>
            <path d="M17.731,7.9166 C17.539,7.9166 17.347,7.8436 17.201,7.6966 L12.635,3.1306 C12.342,2.8376 12.342,2.3626 12.635,2.0696 C12.928,1.7766 13.402,1.7766 13.695,2.0696 L18.261,6.6366 C18.554,6.9296 18.554,7.4036 18.261,7.6966 C18.115,7.8436 17.923,7.9166 17.731,7.9166" id="Fill-5"></path>
        </g>
    </g>
</svg>