<?xml version="1.0" encoding="UTF-8"?>
<svg width="24px" height="24px" viewBox="0 0 24 24" version="1.1" xmlns="http://www.w3.org/2000/svg" xmlns:xlink="http://www.w3.org/1999/xlink">
    <title>Iconly/Light-Outline/Filter</title>
    <defs>
        <polygon id="path-1" points="0 0.1 6.2258 0.1 6.2258 6.2916 0 6.2916"></polygon>
    </defs>
    <g id="Iconly/Light-Outline/Filter" stroke="none" stroke-width="1" fill="none" fill-rule="evenodd">
        <g id="Group-10" transform="translate(3.000000, 4.000000)">
            <path d="M7.0801,14.5928 L0.7791,14.5928 C0.3651,14.5928 0.0291,14.2568 0.0291,13.8428 C0.0291,13.4288 0.3651,13.0928 0.7791,13.0928 L7.0801,13.0928 C7.4941,13.0928 7.8301,13.4288 7.8301,13.8428 C7.8301,14.2568 7.4941,14.5928 7.0801,14.5928" id="Fill-1" fill="#000000"></path>
            <path d="M16.1909,4.9004 L9.8909,4.9004 C9.4769,4.9004 9.1409,4.5644 9.1409,4.1504 C9.1409,3.7364 9.4769,3.4004 9.8909,3.4004 L16.1909,3.4004 C16.6049,3.4004 16.9409,3.7364 16.9409,4.1504 C16.9409,4.5644 16.6049,4.9004 16.1909,4.9004" id="Fill-3" fill="#000000"></path>
            <g id="Group-7" transform="translate(0.000000, 0.900400)">
                <mask id="mask-2" fill="white">
                    <use xlink:href="#path-1"></use>
                </mask>
                <g id="Clip-6"></g>
                <path d="M3.1128,1.5996 C2.2238,1.5996 1.4998,2.3156 1.4998,3.1966 C1.4998,4.0766 2.2238,4.7916 3.1128,4.7916 C4.0028,4.7916 4.7258,4.0766 4.7258,3.1966 C4.7258,2.3156 4.0028,1.5996 3.1128,1.5996 M3.1128,6.2916 C1.3968,6.2916 -0.0002,4.9036 -0.0002,3.1966 C-0.0002,1.4896 1.3968,0.0996 3.1128,0.0996 C4.8298,0.0996 6.2258,1.4896 6.2258,3.1966 C6.2258,4.9036 4.8298,6.2916 3.1128,6.2916" id="Fill-5" fill="#000000" mask="url(#mask-2)"></path>
            </g>
            <path d="M14.3877,12.208 C13.4977,12.208 12.7737,12.924 12.7737,13.804 C12.7737,14.685 13.4977,15.4 14.3877,15.4 C15.2767,15.4 15.9997,14.685 15.9997,13.804 C15.9997,12.924 15.2767,12.208 14.3877,12.208 M14.3877,16.9 C12.6707,16.9 11.2737,15.511 11.2737,13.804 C11.2737,12.097 12.6707,10.708 14.3877,10.708 C16.1037,10.708 17.4997,12.097 17.4997,13.804 C17.4997,15.511 16.1037,16.9 14.3877,16.9" id="Fill-8" fill="#000000"></path>
        </g>
    </g>
</svg>