<?xml version="1.0" encoding="UTF-8"?>
<svg width="24px" height="24px" viewBox="0 0 24 24" version="1.1" xmlns="http://www.w3.org/2000/svg" xmlns:xlink="http://www.w3.org/1999/xlink">
    <title>Iconly/Broken/Filter 2</title>
    <g id="Iconly/Broken/Filter-2" stroke="none" stroke-width="1" fill="none" fill-rule="evenodd">
        <g id="Filter-2" transform="translate(3.000000, 3.000000)" fill="#000000" fill-rule="nonzero">
            <path d="M16.0830383,0.000176141572 C17.1396172,0.000176141572 18,0.885519752 18,1.9738898 L18,3.35243006 C18,3.87900092 17.7903042,4.39259292 17.4249115,4.76063629 L11.4139317,10.8412318 L11.4139317,15.4218421 C11.4139317,15.7008875 11.2564349,15.9530482 11.0125397,16.069858 L7.12371753,17.9332513 C7.02921942,17.9786773 6.92932141,17.9999997 6.83122338,17.9999997 C6.56932861,17.9999997 6.31823364,17.8470346 6.20033599,17.5865304 C6.03923922,17.2268306 6.18953621,16.8013094 6.53782924,16.6344383 L10.0234595,14.9648008 L10.0234595,10.541791 C10.0234595,10.3498893 10.099058,10.1654041 10.2322554,10.0309802 L16.452031,3.73808759 C16.5528289,3.6370379 16.6095278,3.49612458 16.6095278,3.35243006 L16.6095278,1.9738898 C16.6095278,1.6763031 16.3737325,1.43248596 16.0830383,1.43248596 L8.07409852,1.43248596 C7.69070619,1.43248596 7.37931241,1.11172273 7.37931241,0.715867521 C7.37931241,0.321866438 7.69070619,0.000176141572 8.07409852,0.000176141572 L16.0830383,0.000176141572 Z M4.69610608,2.13162821e-14 C5.07949841,2.13162821e-14 5.39089218,0.325163502 5.39089218,0.724355582 C5.39089218,1.12354766 5.07949841,1.44777409 4.69610608,1.44777409 L1.91606168,1.44777409 C1.62626747,1.44777409 1.38957221,1.69422366 1.38957221,1.99502333 L1.38957221,3.41937066 C1.38957221,3.55805711 1.44087118,3.6920582 1.53176936,3.79326183 L7.25835483,10.1606566 C7.3798524,10.2955948 7.44645107,10.4717641 7.44645107,10.6554299 L7.44645107,14.2406621 C7.44645107,14.6389171 7.1350573,14.9631435 6.75166497,14.9631435 C6.36827263,14.9631435 6.05687886,14.6389171 6.05687886,14.2406621 L6.05687886,10.9412364 L0.51748965,4.78374546 C0.183596328,4.41172843 5.10702591e-14,3.9282 5.10702591e-14,3.41937066 L5.10702591e-14,1.99502333 C5.10702591e-14,0.894902433 0.85948281,2.13162821e-14 1.91606168,2.13162821e-14 L4.69610608,2.13162821e-14 Z"></path>
        </g>
    </g>
</svg>