<?xml version="1.0" encoding="UTF-8"?>
<svg width="24px" height="24px" viewBox="0 0 24 24" version="1.1" xmlns="http://www.w3.org/2000/svg" xmlns:xlink="http://www.w3.org/1999/xlink">
    <title>Iconly/Light-Outline/Filter 2</title>
    <defs>
        <polygon id="path-1" points="0.0004 0 19.5 0 19.5 19.5007 0.0004 19.5007"></polygon>
    </defs>
    <g id="Iconly/Light-Outline/Filter-2" stroke="none" stroke-width="1" fill="none" fill-rule="evenodd">
        <g id="Filter-2" transform="translate(2.000000, 2.000000)">
            <mask id="mask-2" fill="white">
                <use xlink:href="#path-1"></use>
            </mask>
            <g id="Clip-2"></g>
            <path d="M6.7734,9.5987 C6.7914,9.6147 6.8084,9.6297 6.8254,9.6477 C7.9044,10.7537 8.4994,12.2187 8.4994,13.7737 L8.4994,17.7577 L10.7354,16.5397 C10.9114,16.4437 11.0204,16.2557 11.0204,16.0487 L11.0204,13.7617 C11.0204,12.2127 11.6094,10.7527 12.6784,9.6527 L17.5154,4.5077 C17.8284,4.1747 18.0004,3.7377 18.0004,3.2767 L18.0004,2.3407 C18.0004,1.8767 17.6344,1.4997 17.1864,1.4997 L2.3154,1.4997 C1.8664,1.4997 1.5004,1.8767 1.5004,2.3407 L1.5004,3.2767 C1.5004,3.7377 1.6724,4.1747 1.9854,4.5067 L6.7734,9.5987 Z M8.1464,19.5007 C7.9444,19.5007 7.7444,19.4467 7.5624,19.3387 C7.2104,19.1287 6.9994,18.7577 6.9994,18.3457 L6.9994,13.7737 C6.9994,12.6387 6.5764,11.5697 5.8054,10.7507 C5.7824,10.7317 5.7594,10.7107 5.7394,10.6887 L0.8934,5.5357 C0.3174,4.9237 0.0004,4.1207 0.0004,3.2767 L0.0004,2.3407 C0.0004,1.0497 1.0394,-0.0003 2.3154,-0.0003 L17.1864,-0.0003 C18.4614,-0.0003 19.5004,1.0497 19.5004,2.3407 L19.5004,3.2767 C19.5004,4.1197 19.1834,4.9217 18.6094,5.5347 L13.7624,10.6887 C12.9594,11.5167 12.5204,12.6057 12.5204,13.7617 L12.5204,16.0487 C12.5204,16.8047 12.1114,17.4967 11.4534,17.8567 L8.6924,19.3607 C8.5204,19.4537 8.3334,19.5007 8.1464,19.5007 L8.1464,19.5007 Z" id="Fill-1" fill="#000000" mask="url(#mask-2)"></path>
        </g>
    </g>
</svg>