<?xml version="1.0" encoding="UTF-8"?>
<svg width="24px" height="24px" viewBox="0 0 24 24" version="1.1" xmlns="http://www.w3.org/2000/svg" xmlns:xlink="http://www.w3.org/1999/xlink">
    <title>Iconly/Broken/Filter</title>
    <g id="Iconly/Broken/Filter" stroke="none" stroke-width="1" fill="none" fill-rule="evenodd">
        <g id="Filter" transform="translate(3.000000, 3.000000)" fill="#000000" fill-rule="nonzero">
            <path d="M15.4258278,10.9940648 C15.6940583,10.9940648 15.9622889,11.0238507 16.2238137,11.0823192 C16.6753351,11.1827085 16.9592125,11.6272898 16.8563908,12.0718711 C16.7524514,12.5164523 16.3031652,12.7977631 15.8527614,12.6951674 C14.690429,12.4326107 13.5280966,13.3471464 13.5280966,14.5220324 C13.5280966,15.5546083 14.378611,16.395231 15.4258278,16.395231 C16.471927,16.395231 17.323559,15.5546083 17.323559,14.5220324 C17.323559,14.4161272 17.314618,14.3113252 17.2978536,14.2109358 C17.2207373,13.7597355 17.5303201,13.3339082 17.986312,13.2577889 C18.4411863,13.1827727 18.8748257,13.4872502 18.9508244,13.9384505 C18.9832356,14.1281974 19,14.3234601 19,14.5220324 C19,16.4669376 17.3962048,18.05 15.4258278,18.05 C13.4543332,18.05 11.8516556,16.4669376 11.8516556,14.5220324 C11.8516556,12.576024 13.4543332,10.9940648 15.4258278,10.9940648 Z M7.71162862,13.6944273 C8.17432634,13.6944273 8.54984912,14.0650955 8.54984912,14.5218118 C8.54984912,14.978528 8.17432634,15.3491963 7.71162862,15.3491963 L0.838220502,15.3491963 C0.375522785,15.3491963 -1.33226763e-14,14.978528 -1.33226763e-14,14.5218118 C-1.33226763e-14,14.0650955 0.375522785,13.6944273 0.838220502,13.6944273 L7.71162862,13.6944273 Z M3.57450751,-1.47881707e-13 C5.54600213,-1.47881707e-13 7.14867973,1.5819592 7.14867973,3.52796758 C7.14867973,5.47287279 5.54600213,7.05593517 3.57450751,7.05593517 C1.60301289,7.05593517 0.000335288201,5.47287279 0.000335288201,3.52796758 C0.000335288201,3.3293953 0.0170996982,3.13413255 0.049510891,2.9443857 C0.12550955,2.49318535 0.552443192,2.19201738 1.01402328,2.26372404 C1.47001524,2.33984342 1.77959801,2.76567065 1.70248172,3.216871 C1.68571731,3.31726033 1.67677629,3.42206236 1.67677629,3.52796758 C1.67677629,4.56054346 2.52729069,5.40116613 3.57450751,5.40116613 C4.62172432,5.40116613 5.47223873,4.56054346 5.47223873,3.52796758 C5.47223873,2.49428853 4.62172432,1.65476904 3.57450751,1.65476904 C3.43145121,1.65476904 3.28839491,1.67021355 3.15204438,1.70110257 C2.6994053,1.80811097 2.25011912,1.52790341 2.14506215,1.08332213 C2.04000518,0.638740848 2.32052964,0.193056387 2.77205108,0.0904607073 C3.03357588,0.0297858426 3.30292407,-1.47881707e-13 3.57450751,-1.47881707e-13 Z M18.161556,2.70025211 C18.6242537,2.70025211 18.9997765,3.07092038 18.9997765,3.52763663 C18.9997765,3.98435288 18.6242537,4.35502115 18.161556,4.35502115 L11.2892655,4.35502115 C10.8265678,4.35502115 10.451045,3.98435288 10.451045,3.52763663 C10.451045,3.07092038 10.8265678,2.70025211 11.2892655,2.70025211 L18.161556,2.70025211 Z"></path>
        </g>
    </g>
</svg>