<?xml version="1.0" encoding="UTF-8"?>
<svg width="24px" height="24px" viewBox="0 0 24 24" version="1.1" xmlns="http://www.w3.org/2000/svg" xmlns:xlink="http://www.w3.org/1999/xlink">
    <title>Iconly/Light-Outline/Folder</title>
    <defs>
        <polygon id="path-1" points="0 0.3311 20.6966 0.3311 20.6966 21 0 21"></polygon>
    </defs>
    <g id="Iconly/Light-Outline/Folder" stroke="none" stroke-width="1" fill="none" fill-rule="evenodd">
        <g id="Folder" transform="translate(2.000000, 1.000000)">
            <g id="Group-3" transform="translate(0.000000, 0.668900)">
                <mask id="mask-2" fill="white">
                    <use xlink:href="#path-1"></use>
                </mask>
                <g id="Clip-2"></g>
                <path d="M5.6426,1.8311 C2.7386,1.8311 1.4996,3.3071 1.4996,6.7641 L1.4996,14.5631 C1.4996,17.7471 3.2576,19.5001 6.4496,19.5001 L14.2316,19.5001 C17.4156,19.5001 19.1686,17.7471 19.1686,14.5631 L19.1686,14.5601 L19.1966,9.5951 C19.1966,6.1961 18.0306,4.8711 15.0356,4.8711 L12.2056,4.8711 C11.2566,4.8701 10.3506,4.4171 9.7806,3.6591 L8.8676,2.4451 C8.5806,2.0601 8.1216,1.8321 7.6416,1.8311 L5.6426,1.8311 Z M14.2316,21.0001 L6.4496,21.0001 C2.4716,21.0001 -0.0004,18.5331 -0.0004,14.5631 L-0.0004,6.7641 C-0.0004,2.4951 1.8986,0.3311 5.6426,0.3311 L7.6426,0.3311 C8.5936,0.3321 9.4996,0.7861 10.0676,1.5451 L10.9786,2.7571 C11.2676,3.1411 11.7266,3.3701 12.2066,3.3711 L15.0356,3.3711 C18.8976,3.3711 20.6966,5.3501 20.6966,9.5991 L20.6686,14.5661 C20.6676,18.5341 18.2016,21.0001 14.2316,21.0001 L14.2316,21.0001 Z" id="Fill-1" fill="#000000" mask="url(#mask-2)"></path>
            </g>
            <path d="M14.7158,14.7128 L5.9808,14.7128 C5.5668,14.7128 5.2308,14.3768 5.2308,13.9628 C5.2308,13.5488 5.5668,13.2128 5.9808,13.2128 L14.7158,13.2128 C15.1298,13.2128 15.4658,13.5488 15.4658,13.9628 C15.4658,14.3768 15.1298,14.7128 14.7158,14.7128" id="Fill-4" fill="#000000"></path>
        </g>
    </g>
</svg>