<?xml version="1.0" encoding="UTF-8"?>
<svg width="24px" height="24px" viewBox="0 0 24 24" version="1.1" xmlns="http://www.w3.org/2000/svg" xmlns:xlink="http://www.w3.org/1999/xlink">
    <title>Iconly/Light-Outline/Game</title>
    <defs>
        <polygon id="path-1" points="0.0718 0.5 6.1118 0.5 6.1118 6.0879 0.0718 6.0879"></polygon>
        <polygon id="path-3" points="0.0002 0.87325 21.5 0.87325 21.5 18 0.0002 18"></polygon>
    </defs>
    <g id="Iconly/Light-Outline/Game" stroke="none" stroke-width="1" fill="none" fill-rule="evenodd">
        <g id="Game" transform="translate(1.000000, 0.000000)">
            <path d="M7.5981,16.5596 C7.1841,16.5596 6.8481,16.2236 6.8481,15.8096 L6.8481,12.0646 C6.8481,11.6506 7.1841,11.3146 7.5981,11.3146 C8.0121,11.3146 8.3481,11.6506 8.3481,12.0646 L8.3481,15.8096 C8.3481,16.2236 8.0121,16.5596 7.5981,16.5596" id="Fill-1" fill="#000000"></path>
            <path d="M9.5088,14.6865 L5.6878,14.6865 C5.2738,14.6865 4.9378,14.3505 4.9378,13.9365 C4.9378,13.5225 5.2738,13.1865 5.6878,13.1865 L9.5088,13.1865 C9.9228,13.1865 10.2588,13.5225 10.2588,13.9365 C10.2588,14.3505 9.9228,14.6865 9.5088,14.6865" id="Fill-3" fill="#000000"></path>
            <path d="M14.1162,12.9287 L14.0092,12.9287 C13.5952,12.9287 13.2592,12.5927 13.2592,12.1787 C13.2592,11.7647 13.5952,11.4287 14.0092,11.4287 L14.1162,11.4287 C14.5302,11.4287 14.8662,11.7647 14.8662,12.1787 C14.8662,12.5927 14.5302,12.9287 14.1162,12.9287" id="Fill-5" fill="#000000"></path>
            <path d="M15.9297,16.5029 L15.8227,16.5029 C15.4087,16.5029 15.0727,16.1669 15.0727,15.7529 C15.0727,15.3389 15.4087,15.0029 15.8227,15.0029 L15.9297,15.0029 C16.3437,15.0029 16.6797,15.3389 16.6797,15.7529 C16.6797,16.1669 16.3437,16.5029 15.9297,16.5029" id="Fill-7" fill="#000000"></path>
            <g id="Group-11" transform="translate(6.000000, 0.500000)">
                <mask id="mask-2" fill="white">
                    <use xlink:href="#path-1"></use>
                </mask>
                <g id="Clip-10"></g>
                <path d="M5.3618,6.0879 C4.9478,6.0879 4.6118,5.7519 4.6118,5.3379 L4.6118,4.6629 C4.6088,3.9389 3.9948,3.3439 3.2438,3.3409 L2.1898,3.3409 C1.0228,3.3409 0.0718,2.4029 0.0718,1.2499 C0.0718,0.8359 0.4078,0.4999 0.8218,0.4999 C1.2368,0.4999 1.5718,0.8359 1.5718,1.2499 C1.5718,1.5759 1.8488,1.8409 2.1898,1.8409 L3.2468,1.8409 C4.8198,1.8459 6.1048,3.1099 6.1118,4.6589 L6.1118,5.3379 C6.1118,5.7519 5.7758,6.0879 5.3618,6.0879" id="Fill-9" fill="#000000" mask="url(#mask-2)"></path>
            </g>
            <g id="Group-14" transform="translate(0.000000, 4.500000)">
                <mask id="mask-4" fill="white">
                    <use xlink:href="#path-3"></use>
                </mask>
                <g id="Clip-13"></g>
                <path d="M10.7012,2.373 C9.2252,2.373 7.7672,2.386 6.3352,2.41 C3.5282,2.41 1.5002,4.388 1.5002,7.112 L1.5002,11.762 C1.5002,14.485 3.5282,16.463 6.3232,16.463 C9.2702,16.512 12.2412,16.512 15.1652,16.463 L15.1782,16.463 C17.9722,16.463 20.0002,14.485 20.0002,11.762 L20.0002,7.112 C20.0002,4.388 17.9722,2.41 15.1782,2.41 C13.6742,2.386 12.1792,2.373 10.7012,2.373 M10.7542,18 C9.2712,18 7.7862,17.987 6.3102,17.963 C2.6592,17.963 0.0002,15.354 0.0002,11.762 L0.0002,7.112 C0.0002,3.519 2.6592,0.91 6.3232,0.91 C9.1922,0.861 12.1802,0.861 15.1902,0.91 C18.8412,0.91 21.5002,3.519 21.5002,7.112 L21.5002,11.762 C21.5002,15.352 18.8452,17.96 15.1842,17.963 C13.7162,17.987 12.2362,18 10.7542,18" id="Fill-12" fill="#000000" mask="url(#mask-4)"></path>
            </g>
        </g>
    </g>
</svg>