<?xml version="1.0" encoding="UTF-8"?>
<svg width="24px" height="24px" viewBox="0 0 24 24" version="1.1" xmlns="http://www.w3.org/2000/svg" xmlns:xlink="http://www.w3.org/1999/xlink">
    <title>Iconly/Light-Outline/Graph</title>
    <defs>
        <polygon id="path-1" points="0.474047828 0.656 10.893 0.656 10.893 10.9453 0.474047828 10.9453"></polygon>
    </defs>
    <g id="Iconly/Light-Outline/Graph" stroke="none" stroke-width="1" fill="none" fill-rule="evenodd">
        <g id="Graph" transform="translate(2.000000, 0.000000)">
            <path d="M6.9824,6.3035 C6.9504,6.3035 6.9184,6.3075 6.8864,6.3155 C3.9164,7.0465 1.5004,10.2645 1.5004,13.4885 C1.5004,17.5445 4.8004,20.8445 8.8574,20.8445 C12.5144,20.8445 15.5704,18.2395 16.1244,14.6495 C16.1284,14.6195 16.1424,14.5325 16.0604,14.4355 C15.9824,14.3445 15.8584,14.2905 15.7284,14.2905 C14.3174,14.2905 13.2404,14.3225 12.3994,14.3465 C10.3634,14.4075 9.5214,14.4305 8.6894,13.8135 C7.4354,12.8845 7.3294,11.2885 7.3294,6.5945 C7.3294,6.5105 7.2934,6.4405 7.2214,6.3845 C7.1544,6.3315 7.0694,6.3035 6.9824,6.3035 M8.8574,22.3445 C3.9734,22.3445 0.0004,18.3715 0.0004,13.4885 C0.0004,9.6165 2.9284,5.7445 6.5274,4.8585 C7.0894,4.7215 7.6934,4.8495 8.1474,5.2035 C8.5804,5.5435 8.8294,6.0505 8.8294,6.5945 C8.8294,10.9795 8.9774,12.1595 9.5824,12.6085 C9.9794,12.9015 10.5234,12.8985 12.3564,12.8475 C13.2084,12.8225 14.2994,12.7905 15.7284,12.7905 C16.2984,12.7905 16.8354,13.0345 17.1994,13.4595 C17.5374,13.8545 17.6854,14.3705 17.6074,14.8785 C16.9394,19.2035 13.2594,22.3445 8.8574,22.3445" id="Fill-1" fill="#000000"></path>
            <g id="Group-5" transform="translate(10.000000, 0.344500)">
                <mask id="mask-2" fill="white">
                    <use xlink:href="#path-1"></use>
                </mask>
                <g id="Clip-4"></g>
                <path d="M2.0108,2.1573 C1.9008,4.6763 2.0638,7.9303 2.1398,9.2193 C2.1438,9.2963 2.1998,9.3523 2.2758,9.3563 C3.3038,9.4153 6.8458,9.5793 9.39282794,9.2043 C9.3988,7.8003 8.4378,5.8963 6.9908,4.4503 C5.5068,2.9683 3.7508,2.1573 2.0328,2.1573 L2.0108,2.1573 Z M5.3148,10.9453 C4.0048,10.9453 2.8518,10.8923 2.1888,10.8543 C1.3548,10.8053 0.6908,10.1403 0.6428,9.3063 C0.5648,7.9843 0.3958,4.6253 0.5158,2.0273 C0.5488,1.2723 1.1588,0.6713 1.9048,0.6583 C4.0418,0.5963 6.2468,1.5883 8.0508,3.3893 C9.8088,5.1463 10.9248,7.4553 10.8928,9.2723 C10.8808,9.9813 10.3658,10.5733 9.6698,10.6783 C8.3118,10.8833 6.7218,10.9453 5.3148,10.9453 L5.3148,10.9453 Z" id="Fill-3" fill="#000000" mask="url(#mask-2)"></path>
            </g>
        </g>
    </g>
</svg>