<?xml version="1.0" encoding="UTF-8"?>
<svg width="24px" height="24px" viewBox="0 0 24 24" version="1.1" xmlns="http://www.w3.org/2000/svg" xmlns:xlink="http://www.w3.org/1999/xlink">
    <title>Iconly/Light-Outline/Heart</title>
    <defs>
        <polygon id="path-1" points="0 0.499 20.4725159 0.499 20.4725159 20 0 20"></polygon>
    </defs>
    <g id="Iconly/Light-Outline/Heart" stroke="none" stroke-width="1" fill="none" fill-rule="evenodd">
        <g id="Heart" transform="translate(2.000000, 2.000000)">
            <g id="Group-3" transform="translate(0.000000, 0.500900)">
                <mask id="mask-2" fill="white">
                    <use xlink:href="#path-1"></use>
                </mask>
                <g id="Clip-2"></g>
                <path d="M1.8237,9.6221 C3.2257,13.9841 8.7647,17.5111 10.2367,18.3841 C11.7137,17.5021 17.2927,13.9361 18.6497,9.6261 C19.5407,6.8401 18.7137,3.3111 15.4277,2.2521 C13.8357,1.7411 11.9787,2.0521 10.6967,3.0441 C10.4287,3.2501 10.0567,3.2541 9.7867,3.0501 C8.4287,2.0291 6.6547,1.7301 5.0377,2.2521 C1.7567,3.3101 0.9327,6.8391 1.8237,9.6221 M10.2377,20.0001 C10.1137,20.0001 9.9907,19.9701 9.8787,19.9091 C9.5657,19.7381 2.1927,15.6741 0.3957,10.0801 C0.3947,10.0801 0.3947,10.0791 0.3947,10.0791 C-0.7333,6.5571 0.5227,2.1311 4.5777,0.8241 C6.4817,0.2081 8.5567,0.4791 10.2347,1.5381 C11.8607,0.5101 14.0207,0.2261 15.8867,0.8241 C19.9457,2.1331 21.2057,6.5581 20.0787,10.0791 C18.3397,15.6091 10.9127,19.7341 10.5977,19.9071 C10.4857,19.9691 10.3617,20.0001 10.2377,20.0001" id="Fill-1" fill="#000000" mask="url(#mask-2)"></path>
            </g>
            <path d="M16.1537,8.6249 C15.7667,8.6249 15.4387,8.3279 15.4067,7.9359 C15.3407,7.1139 14.7907,6.4199 14.0077,6.1669 C13.6127,6.0389 13.3967,5.6159 13.5237,5.2229 C13.6527,4.8289 14.0717,4.6149 14.4677,4.7389 C15.8307,5.1799 16.7857,6.3869 16.9027,7.8139 C16.9357,8.2269 16.6287,8.5889 16.2157,8.6219 C16.1947,8.6239 16.1747,8.6249 16.1537,8.6249" id="Fill-4" fill="#000000"></path>
        </g>
    </g>
</svg>