<?xml version="1.0" encoding="UTF-8"?>
<svg width="24px" height="24px" viewBox="0 0 24 24" version="1.1" xmlns="http://www.w3.org/2000/svg" xmlns:xlink="http://www.w3.org/1999/xlink">
    <title>Iconly/Light-Outline/Hide</title>
    <defs>
        <polygon id="path-1" points="0 0.351072943 16.0862351 0.351072943 16.0862351 14.4492 0 14.4492"></polygon>
        <polygon id="path-3" points="0.717467996 0.467795133 14 0.467795133 14 12.416 0.717467996 12.416"></polygon>
        <polygon id="path-5" points="0.36355 0.727 17.63705 0.727 17.63705 18 0.36355 18"></polygon>
    </defs>
    <g id="Iconly/Light-Outline/Hide" stroke="none" stroke-width="1" fill="none" fill-rule="evenodd">
        <g id="Hide" transform="translate(2.000000, 3.000000)">
            <path d="M7.7608,12.6172 C7.5688,12.6172 7.3768,12.5442 7.2308,12.3972 C6.4928,11.6602 6.0858,10.6802 6.0858,9.6382 C6.0858,7.4782 7.8418,5.7212 9.9998,5.7212 C11.0378,5.7212 12.0458,6.1402 12.7648,6.8712 C13.0548,7.1672 13.0518,7.6412 12.7558,7.9312 C12.4608,8.2232 11.9868,8.2182 11.6958,7.9242 C11.2568,7.4772 10.6388,7.2212 9.9998,7.2212 C8.6688,7.2212 7.5858,8.3052 7.5858,9.6382 C7.5858,10.2792 7.8368,10.8832 8.2908,11.3372 C8.5838,11.6302 8.5838,12.1042 8.2918,12.3972 C8.1448,12.5442 7.9528,12.6172 7.7608,12.6172" id="Fill-1" fill="#000000"></path>
            <path d="M10.5674,13.4912 C10.2124,13.4912 9.8964,13.2372 9.8304,12.8752 C9.7564,12.4682 10.0264,12.0772 10.4344,12.0032 C11.4144,11.8252 12.1904,11.0472 12.3664,10.0662 C12.4404,9.6592 12.8304,9.3912 13.2374,9.4612 C13.6454,9.5342 13.9164,9.9242 13.8434,10.3322 C13.5564,11.9252 12.2944,13.1892 10.7024,13.4792 C10.6574,13.4872 10.6114,13.4912 10.5674,13.4912" id="Fill-3" fill="#000000"></path>
            <g id="Group-7" transform="translate(0.000000, 1.273400)">
                <mask id="mask-2" fill="white">
                    <use xlink:href="#path-1"></use>
                </mask>
                <g id="Clip-6"></g>
                <path d="M4.6544,14.4492 C4.4924,14.4492 4.3294,14.3962 4.1914,14.2892 C2.5004,12.9612 1.0714,11.0142 0.0614,8.6602 C-0.0206,8.4702 -0.0206,8.2562 0.0614,8.0672 C1.0824,5.7032 2.5204,3.7462 4.2204,2.4092 C7.6864,-0.3338 12.3004,-0.3428 15.8014,2.4292 C16.1264,2.6862 16.1814,3.1582 15.9244,3.4832 C15.6664,3.8062 15.1964,3.8632 14.8704,3.6052 C11.9044,1.2572 8.0834,1.2652 5.1494,3.5872 C3.7134,4.7172 2.4804,6.3632 1.5704,8.3652 C2.4714,10.3552 3.6934,11.9912 5.1184,13.1092 C5.4444,13.3652 5.5004,13.8372 5.2444,14.1622 C5.0964,14.3502 4.8764,14.4492 4.6544,14.4492" id="Fill-5" fill="#000000" mask="url(#mask-2)"></path>
            </g>
            <g id="Group-10" transform="translate(6.000000, 5.273400)">
                <mask id="mask-4" fill="white">
                    <use xlink:href="#path-3"></use>
                </mask>
                <g id="Clip-9"></g>
                <path d="M4.0001,12.416 C3.0631,12.416 2.1311,12.264 1.2311,11.965 C0.8381,11.834 0.6251,11.409 0.7561,11.016 C0.8871,10.622 1.3101,10.413 1.7051,10.541 C2.4521,10.79 3.2241,10.916 4.0001,10.916 C7.4281,10.916 10.5611,8.474 12.4301,4.363 C11.9741,3.364 11.4431,2.459 10.8491,1.669 C10.6001,1.338 10.6661,0.867 10.9971,0.618 C11.3271,0.369 11.7981,0.437 12.0471,0.767 C12.7711,1.728 13.4071,2.839 13.9381,4.065 C14.0211,4.255 14.0211,4.471 13.9381,4.66 C11.8421,9.517 8.1271,12.416 4.0001,12.416" id="Fill-8" fill="#000000" mask="url(#mask-4)"></path>
            </g>
            <g id="Group-13" transform="translate(1.000000, 0.273400)">
                <mask id="mask-6" fill="white">
                    <use xlink:href="#path-5"></use>
                </mask>
                <g id="Clip-12"></g>
                <path d="M1.1133,18 C0.9213,18 0.7293,17.927 0.5833,17.78 C0.2903,17.487 0.2903,17.013 0.5833,16.72 L16.3573,0.946 C16.6503,0.653 17.1243,0.653 17.4173,0.946 C17.7103,1.239 17.7103,1.714 17.4173,2.007 L1.6433,17.78 C1.4973,17.927 1.3053,18 1.1133,18" id="Fill-11" fill="#000000" mask="url(#mask-6)"></path>
            </g>
        </g>
    </g>
</svg>