<?xml version="1.0" encoding="UTF-8"?>
<svg width="24px" height="24px" viewBox="0 0 24 24" version="1.1" xmlns="http://www.w3.org/2000/svg" xmlns:xlink="http://www.w3.org/1999/xlink">
    <title>Iconly/Broken/Hide</title>
    <g id="Iconly/Broken/Hide" stroke="none" stroke-width="1" fill="none" fill-rule="evenodd">
        <g id="Hide" transform="translate(2.000000, 3.500000)" fill="#000000" fill-rule="nonzero">
            <path d="M17.3851033,0.21115261 C17.671103,-0.0703842034 18.1341024,-0.0703842034 18.420102,0.21115261 C18.7061017,0.492689424 18.7061017,0.948464055 18.420102,1.23000087 L18.420102,1.23000087 L2.61512224,16.7883552 C2.47212243,16.9291236 2.28512267,17 2.09812291,17 C1.91012315,17 1.72312338,16.9291236 1.58012357,16.7883552 C1.29412393,16.5068184 1.29412393,16.0510437 1.58012357,15.7704913 L1.58012357,15.7704913 L6.77611692,10.6545934 C6.33711748,10.0245809 6.09811779,9.2813631 6.09811779,8.5007383 C6.09811779,6.38232143 7.84811555,4.65963114 10.0001128,4.65963114 C10.7871118,4.65963114 11.5531108,4.8978546 12.19011,5.32508179 L12.19011,5.32508179 L14.2241074,3.32380787 C11.3561111,1.48692782 7.85911553,1.64443093 5.12711903,3.77367613 C3.68412088,4.89096384 2.44512246,6.52112105 1.53212363,8.50172269 C1.93812311,9.3866933 2.41012251,10.2027563 2.93612183,10.9312082 C3.17012153,11.255074 3.09312163,11.7049422 2.76412205,11.9352905 C2.63512222,12.0258548 2.48712241,12.0691682 2.3401226,12.0691682 C2.11112289,12.0691682 1.88612318,11.9648224 1.74312336,11.7659747 C1.10112418,10.8770665 0.534124906,9.87396856 0.059125514,8.7842439 C-0.0198743849,8.60311532 -0.0198743849,8.39639248 0.0601255127,8.2152639 C1.08112421,5.88815542 2.51912237,3.96071108 4.22112019,2.64260691 C7.51911597,0.0743217812 11.8511104,-0.0526651032 15.277106,2.28724051 L15.277106,2.28724051 Z M17.0230038,4.82097339 C17.3450034,4.58176554 17.8030028,4.64575118 18.0470025,4.96371059 C18.7710016,5.90971366 19.4070008,7.00436029 19.9400001,8.21418107 C20.02,8.39629404 20.02,8.60400127 19.9400001,8.78512985 C17.8430028,13.5683025 14.1270075,16.4240308 10.0000128,16.4240308 C9.06201399,16.4240308 8.13001519,16.2744028 7.23101634,15.9790845 C6.84801683,15.8520976 6.64101709,15.4445583 6.76901693,15.0675353 C6.89601677,14.6895278 7.30901624,14.4887113 7.69401575,14.6117606 C8.44401479,14.8578592 9.22001379,14.9828773 10.0000128,14.9828773 C13.4450084,14.9828773 16.5920044,12.5661889 18.468002,8.50063986 C18.0090025,7.50738585 17.4750032,6.61060251 16.878004,5.82997771 C16.6350043,5.5120183 16.6990042,5.06116564 17.0230038,4.82097339 Z M13.1413824,8.33490816 L13.2397086,8.34579461 C13.6377081,8.41568662 13.9027078,8.78975651 13.8307079,9.18252989 C13.5467083,10.7457483 12.2877099,11.9860853 10.6997119,12.2705753 C10.655712,12.2774661 10.611712,12.2814036 10.5677121,12.2814036 C10.2217125,12.2814036 9.91271291,12.0382582 9.84871299,11.690767 C9.77671308,11.298978 10.0407127,10.9239237 10.4387122,10.8520629 C11.428711,10.6758563 12.21271,9.90212224 12.3907097,8.92757173 C12.4617096,8.53775153 12.8447092,8.27491821 13.2397086,8.34579461 Z M10.0001128,6.09980023 C8.65511452,6.09980023 7.56111592,7.17574336 7.56111592,8.5007383 C7.56111592,8.89154289 7.66711578,9.263644 7.84711555,9.60129129 L7.84711555,9.60129129 L11.1191114,6.38035264 C10.7771118,6.20414604 10.3951123,6.09980023 10.0001128,6.09980023 Z"></path>
        </g>
    </g>
</svg>