<?xml version="1.0" encoding="UTF-8"?>
<svg width="24px" height="24px" viewBox="0 0 24 24" version="1.1" xmlns="http://www.w3.org/2000/svg" xmlns:xlink="http://www.w3.org/1999/xlink">
    <title>Iconly/Broken/Home</title>
    <g id="Iconly/Broken/Home" stroke="none" stroke-width="1" fill="none" fill-rule="evenodd">
        <g id="Home" transform="translate(2.500000, 2.003982)" fill="#000000" fill-rule="nonzero">
            <path d="M1.99933896,5.0253781 C2.31482632,4.92814955 2.66338886,5.03968117 2.86228858,5.31316828 C3.08328826,5.61704285 3.05714116,6.03509289 2.80000001,6.30906195 L2.80000001,6.30906195 L2.09565218,6.83080108 C1.76191292,7.1080734 1.56776138,7.51865617 1.5652174,7.95254022 L1.5652174,7.95254022 L1.5652174,15.909062 C1.57473912,17.2051555 2.62561934,18.2521579 3.92173915,18.2568881 L3.92173915,18.2568881 L7.92173917,18.2568881 L7.92173917,18.2742794 C8.35396202,18.2742794 8.70434787,18.6246652 8.70434787,19.0568881 C8.70434787,19.4891109 8.35396202,19.8394968 7.92173917,19.8394968 L7.92173917,19.8394968 L3.92173915,19.8394968 C1.75780637,19.8347146 0.0047821894,18.0816904 -4.26325641e-14,15.9177576 L-4.26325641e-14,15.9177576 L-4.26325641e-14,7.95254022 C0.0138352771,7.0321169 0.445875565,6.16803633 1.17391305,5.60471412 L1.17391305,5.60471412 L1.89565218,5.06558368 Z M7.12173917,0.796018441 C8.44214141,-0.26533948 10.3230761,-0.26533948 11.6434783,0.796018441 L11.6434783,0.796018441 L17.652174,5.58732281 C18.3641697,6.15997273 18.7821625,7.02148476 18.7913044,7.93514891 L18.7913044,7.93514891 L18.7826088,15.909062 C18.7826088,18.0749787 17.0267864,19.8308011 14.8608696,19.8308011 L14.8608696,19.8308011 L13.1217392,19.8308011 C12.0733835,19.8308011 11.2221784,18.9834938 11.2173914,17.935149 L11.2173914,17.935149 L11.2173914,14.3351489 L11.2092656,14.2444918 C11.1665615,14.0092143 10.9606379,13.8308011 10.7130435,13.8308011 L10.7130435,13.8308011 L8.10434787,13.8308011 C7.96906617,13.830781 7.83944772,13.8851095 7.74461016,13.9815822 C7.64977261,14.0780549 7.59766759,14.208583 7.60000004,14.3438446 L7.60000004,14.3438446 L7.60000004,15.7177576 C7.60000004,16.1499805 7.24961419,16.5003663 6.81739134,16.5003663 C6.38516849,16.5003663 6.03478264,16.1499805 6.03478264,15.7177576 L6.03478264,15.7177576 L6.03478264,14.3438446 C6.03478264,13.7926555 6.25374164,13.2640418 6.64349116,12.8742922 C7.03324068,12.4845427 7.56185446,12.2655837 8.11304352,12.2655837 L8.11304352,12.2655837 L10.7217392,12.2655837 C11.8661337,12.270372 12.7913144,13.1994401 12.7913044,14.3438446 L12.7913044,14.3438446 L12.7913044,17.935149 C12.7913044,18.1176431 12.9392451,18.2655837 13.1217392,18.2655837 L13.1217392,18.2655837 L14.9043479,18.2655837 C16.2010165,18.2655837 17.252174,17.2144262 17.252174,15.9177576 L17.252174,15.9177576 L17.252174,7.95254022 C17.245809,7.51128176 17.0414821,7.0962427 16.6956523,6.82210543 L16.6956523,6.82210543 L10.6869566,2.03080106 C9.92926336,1.40700621 8.83595413,1.40700621 8.07826091,2.03080106 L8.07826091,2.03080106 L6.14782612,3.47427932 C5.79004165,3.7312118 5.29171511,3.6494551 5.03478263,3.29167063 C4.77785016,2.93388616 4.85960686,2.43555961 5.21739133,2.17862714 L5.21739133,2.17862714 Z"></path>
        </g>
    </g>
</svg>