<?xml version="1.0" encoding="UTF-8"?>
<svg width="24px" height="24px" viewBox="0 0 24 24" version="1.1" xmlns="http://www.w3.org/2000/svg" xmlns:xlink="http://www.w3.org/1999/xlink">
    <title>Iconly/Light-Outline/Home</title>
    <defs>
        <polygon id="path-1" points="0 0.0002 20.4998 0.0002 20.4998 21.5052 0 21.5052"></polygon>
    </defs>
    <g id="Iconly/Light-Outline/Home" stroke="none" stroke-width="1" fill="none" fill-rule="evenodd">
        <g id="Home" transform="translate(2.000000, 1.000000)">
            <mask id="mask-2" fill="white">
                <use xlink:href="#path-1"></use>
            </mask>
            <g id="Clip-2"></g>
            <path d="M11.7168,14.2913 C12.9208,14.2913 13.9008,15.2643 13.9008,16.4603 L13.9008,19.5363 C13.9008,19.7933 14.1068,19.9993 14.3708,20.0053 L16.2768,20.0053 C17.7788,20.0053 18.9998,18.7993 18.9998,17.3173 L18.9998,8.5933 C18.9928,8.0833 18.7498,7.6033 18.3328,7.2843 L11.7398,2.0263 C10.8548,1.3253 9.6168,1.3253 8.7288,2.0283 L2.1808,7.2823 C1.7478,7.6113 1.5048,8.0913 1.4998,8.6103 L1.4998,17.3173 C1.4998,18.7993 2.7208,20.0053 4.2228,20.0053 L6.1468,20.0053 C6.4178,20.0053 6.6378,19.7903 6.6378,19.5263 C6.6378,19.4683 6.6448,19.4103 6.6568,19.3553 L6.6568,16.4603 C6.6568,15.2713 7.6308,14.2993 8.8258,14.2913 L11.7168,14.2913 Z M16.2768,21.5053 L14.3528,21.5053 C13.2508,21.4793 12.4008,20.6143 12.4008,19.5363 L12.4008,16.4603 C12.4008,16.0913 12.0938,15.7913 11.7168,15.7913 L8.8308,15.7913 C8.4618,15.7933 8.1568,16.0943 8.1568,16.4603 L8.1568,19.5263 C8.1568,19.6013 8.1468,19.6733 8.1258,19.7413 C8.0178,20.7313 7.1718,21.5053 6.1468,21.5053 L4.2228,21.5053 C1.8938,21.5053 -0.0002,19.6263 -0.0002,17.3173 L-0.0002,8.6033 C0.0098,7.6093 0.4678,6.6993 1.2588,6.1003 L7.7938,0.8553 C9.2328,-0.2847 11.2378,-0.2847 12.6738,0.8533 L19.2558,6.1033 C20.0288,6.6923 20.4868,7.6003 20.4998,8.5823 L20.4998,17.3173 C20.4998,19.6263 18.6058,21.5053 16.2768,21.5053 L16.2768,21.5053 Z" id="Fill-1" fill="#000000" mask="url(#mask-2)"></path>
        </g>
    </g>
</svg>