<?xml version="1.0" encoding="UTF-8"?>
<svg width="24px" height="24px" viewBox="0 0 24 24" version="1.1" xmlns="http://www.w3.org/2000/svg" xmlns:xlink="http://www.w3.org/1999/xlink">
    <title>Iconly/Broken/Image</title>
    <g id="Iconly/Broken/Image" stroke="none" stroke-width="1" fill="none" fill-rule="evenodd">
        <g id="Image" transform="translate(2.000000, 2.000000)" fill="#000000" fill-rule="nonzero">
            <path d="M14.3,6.92779167e-14 C17.686,6.92779167e-14 19.96,2.371 19.96,5.899 L19.96,14.05 C19.96,17.578 17.686,19.949 14.3,19.949 L10.98,19.949 C10.566,19.949 10.23,19.613 10.23,19.199 C10.23,18.785 10.566,18.449 10.98,18.449 L14.3,18.449 C16.827,18.449 18.46,16.722 18.46,14.05 L18.46,5.899 C18.46,3.226 16.827,1.5 14.3,1.5 L5.65,1.5 C3.129,1.5 1.5,3.226 1.5,5.899 L1.5,14.05 C1.5,16.722 3.129,18.449 5.65,18.449 L6.371,18.449 C6.785,18.449 7.121,18.785 7.121,19.199 C7.121,19.613 6.785,19.949 6.371,19.949 L5.65,19.949 C2.271,19.949 -7.81597009e-14,17.578 -7.81597009e-14,14.05 L-7.81597009e-14,5.899 C-7.81597009e-14,2.371 2.271,6.92779167e-14 5.65,6.92779167e-14 L14.3,6.92779167e-14 Z M13.2915,9.5434 C13.9825,9.5224 14.6585,9.7854 15.1405,10.2824 L17.2175,12.4234 C17.5055,12.7214 17.4985,13.1964 17.2005,13.4844 C16.9035,13.7734 16.4285,13.7644 16.1405,13.4684 L14.0635,11.3274 C13.8755,11.1334 13.6295,11.0244 13.3525,11.0424 C13.0825,11.0534 12.8395,11.1754 12.6675,11.3844 L10.4385,14.0964 C10.0455,14.5744 9.4655,14.8644 8.8475,14.8914 C8.2285,14.9044 7.6265,14.6804 7.1925,14.2394 L6.3065,13.3354 C6.1765,13.2014 6.0115,13.0834 5.8275,13.1294 C5.6465,13.1304 5.4795,13.2034 5.3555,13.3334 L3.8255,14.9484 C3.6785,15.1044 3.4805,15.1824 3.2815,15.1824 C3.0965,15.1824 2.9105,15.1144 2.7655,14.9774 C2.4655,14.6924 2.4525,14.2174 2.7375,13.9164 L4.2665,12.3024 C4.6745,11.8704 5.2265,11.6314 5.8215,11.6294 C6.3955,11.6674 6.9705,11.8624 7.3825,12.2904 L8.2635,13.1884 C8.4005,13.3284 8.5805,13.4064 8.7815,13.3924 C8.9775,13.3834 9.1545,13.2954 9.2795,13.1434 L11.5085,10.4314 C11.9485,9.8964 12.5985,9.5724 13.2915,9.5434 Z M6.5603,4.6296 C7.9403,4.6296 9.0633,5.7526 9.0633,7.1336 C9.0633,8.5146 7.9403,9.6376 6.5603,9.6376 C5.1793,9.6376 4.0563,8.5146 4.0563,7.1336 C4.0563,5.7526 5.1793,4.6296 6.5603,4.6296 Z M6.5603,6.1296 C6.0063,6.1296 5.5563,6.5796 5.5563,7.1336 C5.5563,7.6876 6.0063,8.1376 6.5603,8.1376 C7.1133,8.1376 7.5633,7.6876 7.5633,7.1336 C7.5633,6.5796 7.1133,6.1296 6.5603,6.1296 Z"></path>
        </g>
    </g>
</svg>