<?xml version="1.0" encoding="UTF-8"?>
<svg width="24px" height="24px" viewBox="0 0 24 24" version="1.1" xmlns="http://www.w3.org/2000/svg" xmlns:xlink="http://www.w3.org/1999/xlink">
    <title>Iconly/Light-Outline/Image 2</title>
    <defs>
        <polygon id="path-1" points="0.0004 0.046 19.9534051 0.046 19.9534051 19.9999 0.0004 19.9999"></polygon>
    </defs>
    <g id="Iconly/Light-Outline/Image-2" stroke="none" stroke-width="1" fill="none" fill-rule="evenodd">
        <g id="Image-2" transform="translate(2.000000, 1.000000)">
            <g id="Group-3" transform="translate(0.000000, 0.954100)">
                <mask id="mask-2" fill="white">
                    <use xlink:href="#path-1"></use>
                </mask>
                <g id="Clip-2"></g>
                <path d="M5.6514,1.5459 C3.1304,1.5459 1.5004,3.2749 1.5004,5.9499 L1.5004,14.0959 C1.5004,16.7719 3.1304,18.4999 5.6514,18.4999 L14.2974,18.4999 C16.8224,18.4999 18.4534072,16.7719 18.4534072,14.0959 L18.4534072,5.9499 C18.4554,4.5869 18.0394,3.4489 17.2514,2.6599 C16.5234,1.9309 15.5044,1.5459 14.3024,1.5459 L5.6514,1.5459 Z M14.2974,19.9999 L5.6514,19.9999 C2.2714,19.9999 0.0004,17.6269 0.0004,14.0959 L0.0004,5.9499 C0.0004,2.4189 2.2714,0.0459 5.6514,0.0459 L14.3024,0.0459 C15.9104,0.0459 17.2974,0.5829 18.3124,1.5999 C19.3734,2.6619 19.9554,4.2069 19.9534051,5.9509 L19.9534051,14.0959 C19.9534051,17.6269 17.6804,19.9999 14.2974,19.9999 L14.2974,19.9999 Z" id="Fill-1" fill="#000000" mask="url(#mask-2)"></path>
            </g>
            <path d="M6.8564,6.6895 C6.2524,6.6895 5.7614,7.1805 5.7614,7.7855 C5.7614,8.3895 6.2524,8.8805 6.8574,8.8805 C7.4614,8.8805 7.9534,8.3895 7.9534,7.7865 C7.9524,7.1815 7.4604,6.6905 6.8564,6.6895 M6.8574,10.3805 C5.4254,10.3805 4.2614,9.2165 4.2614,7.7855 C4.2614,6.3535 5.4254,5.1895 6.8574,5.1895 C8.2884,5.1905 9.4524,6.3545 9.4534,7.7845 L9.4534,7.7855 C9.4534,9.2165 8.2894,10.3805 6.8574,10.3805" id="Fill-4" fill="#000000"></path>
            <path d="M1.749,19.1113 C1.625,19.1113 1.499,19.0803 1.383,19.0153 C1.021,18.8123 0.894,18.3553 1.096,17.9943 C1.156,17.8863 2.591,15.3493 4.17,14.0493 C5.422,13.0193 6.77,13.5853 7.856,14.0423 C8.495,14.3113 9.099,14.5653 9.679,14.5653 C10.211,14.5653 10.878,13.6253 11.468,12.7963 C12.287,11.6403 13.217,10.3323 14.579,10.3323 C16.749,10.3323 18.622,12.2683 19.629,13.3083 L19.745,13.4283 C20.033,13.7253 20.026,14.2003 19.729,14.4893 C19.434,14.7783 18.959,14.7713 18.669,14.4733 L18.551,14.3513 C17.699,13.4703 16.113,11.8323 14.579,11.8323 C13.991,11.8323 13.301,12.8053 12.69,13.6643 C11.852,14.8443 10.985,16.0653 9.679,16.0653 C8.796,16.0653 7.987,15.7253 7.274,15.4243 C6.14,14.9463 5.626,14.7933 5.123,15.2073 C3.759,16.3313 2.417,18.7053 2.404,18.7283 C2.267,18.9733 2.012,19.1113 1.749,19.1113" id="Fill-6" fill="#000000"></path>
        </g>
    </g>
</svg>