<?xml version="1.0" encoding="UTF-8"?>
<svg width="24px" height="24px" viewBox="0 0 24 24" version="1.1" xmlns="http://www.w3.org/2000/svg" xmlns:xlink="http://www.w3.org/1999/xlink">
    <title>Iconly/Light-Outline/Image</title>
    <defs>
        <polygon id="path-1" points="0.0004 0.05 19.96 0.05 19.96 19.9998 0.0004 19.9998"></polygon>
    </defs>
    <g id="Iconly/Light-Outline/Image" stroke="none" stroke-width="1" fill="none" fill-rule="evenodd">
        <g id="Image" transform="translate(2.000000, 1.000000)">
            <g id="Group-3" transform="translate(0.000000, 0.950200)">
                <mask id="mask-2" fill="white">
                    <use xlink:href="#path-1"></use>
                </mask>
                <g id="Clip-2"></g>
                <path d="M5.6504,1.5498 C3.1294,1.5498 1.5004,3.2768 1.5004,5.9488 L1.5004,14.1008 C1.5004,16.7738 3.1294,18.4998 5.6504,18.4998 L14.3004,18.4998 C16.8274,18.4998 18.4604,16.7738 18.4604,14.1008 L18.4604,5.9488 C18.4604,3.2768 16.8274,1.5498 14.3004,1.5498 L5.6504,1.5498 Z M14.3004,19.9998 L5.6504,19.9998 C2.2704,19.9998 0.0004,17.6288 0.0004,14.1008 L0.0004,5.9488 C0.0004,2.4208 2.2704,0.0498 5.6504,0.0498 L14.3004,0.0498 C17.6854,0.0498 19.9604,2.4208 19.9604,5.9488 L19.9604,14.1008 C19.9604,17.6288 17.6854,19.9998 14.3004,19.9998 L14.3004,19.9998 Z" id="Fill-1" fill="#000000" mask="url(#mask-2)"></path>
            </g>
            <path d="M3.2814,16.1804 C3.0954,16.1804 2.9104,16.1124 2.7654,15.9744 C2.4644,15.6904 2.4524,15.2144 2.7374,14.9154 L4.2654,13.3024 C5.0744,12.4434 6.4394,12.4014 7.3024,13.2114 L8.2604,14.1834 C8.5274,14.4534 8.9614,14.4584 9.2294,14.1944 C9.3304,14.0754 11.5084,11.4304 11.5084,11.4304 C11.9224,10.9284 12.5064,10.6184 13.1554,10.5544 C13.8054,10.4974 14.4364,10.6864 14.9394,11.0994 C14.9824,11.1344 15.0214,11.1684 17.2174,13.4234 C17.5064,13.7194 17.5014,14.1944 17.2044,14.4834 C16.9084,14.7744 16.4324,14.7654 16.1434,14.4694 C16.1434,14.4694 14.0944,12.3664 13.9484,12.2244 C13.7934,12.0974 13.5444,12.0234 13.2994,12.0474 C13.0504,12.0724 12.8264,12.1914 12.6674,12.3844 C10.3434,15.2034 10.3154,15.2304 10.2774,15.2674 C9.4194,16.1094 8.0344,16.0954 7.1914,15.2354 C7.1914,15.2354 6.2614,14.2914 6.2454,14.2724 C6.0144,14.0584 5.6024,14.0724 5.3554,14.3334 L3.8254,15.9464 C3.6774,16.1024 3.4794,16.1804 3.2814,16.1804 L3.2814,16.1804 Z" id="Fill-4" fill="#000000"></path>
            <path d="M6.5576,7.1289 C6.0046,7.1289 5.5546,7.5789 5.5546,8.1329 C5.5546,8.6869 6.0046,9.1379 6.5586,9.1379 C7.1126,9.1379 7.5636,8.6869 7.5636,8.1329 C7.5636,7.5799 7.1126,7.1299 6.5576,7.1289 M6.5586,10.6379 C5.1776,10.6379 4.0546,9.5139 4.0546,8.1329 C4.0546,6.7519 5.1776,5.6289 6.5586,5.6289 C7.9406,5.6299 9.0636,6.7539 9.0636,8.1329 C9.0636,9.5139 7.9396,10.6379 6.5586,10.6379" id="Fill-6" fill="#000000"></path>
        </g>
    </g>
</svg>