<?xml version="1.0" encoding="UTF-8"?>
<svg width="24px" height="24px" viewBox="0 0 24 24" version="1.1" xmlns="http://www.w3.org/2000/svg" xmlns:xlink="http://www.w3.org/1999/xlink">
    <title>Iconly/Broken/Image 2</title>
    <g id="Iconly/Broken/Image-2" stroke="none" stroke-width="1" fill="none" fill-rule="evenodd">
        <g id="Image-2" transform="translate(2.000300, 2.000000)" fill="#000000" fill-rule="nonzero">
            <path d="M14.359,0 C17.733,0 20,2.368 20,5.893 L20,8.263 C20,8.648 19.687,8.961 19.302,8.961 C18.917,8.961 18.604,8.648 18.604,8.263 L18.604,5.893 C18.604,3.16 16.938,1.396 14.359,1.396 L5.641,1.396 C3.062,1.396 1.395,3.16 1.395,5.893 L1.395,14.107 C1.395,16.84 3.062,18.604 5.641,18.604 L14.358,18.604 C16.937,18.604 18.604,16.84 18.604,14.107 L18.604,13.022 C18.452,12.896 18.297,12.761 18.14,12.625 C17.04,11.674 15.905,10.692 14.664,10.979 C13.797,11.18 13.313,11.895 12.753,12.722 C12.27,13.436 11.77,14.174 10.963,14.674 C9.758,15.42 8.486,14.864 7.556,14.458 L7.402,14.391 C6.244,13.885 5.466,13.987 4.719,14.74 C4.448,15.013 4.006,15.017 3.733,14.744 C3.46,14.473 3.458,14.03 3.729,13.757 C4.89,12.587 6.273,12.376 7.959,13.11 L8.116,13.18 C9.04,13.584 9.686,13.825 10.229,13.487 C10.782,13.146 11.178,12.56 11.598,11.939 C12.231,11.005 12.948,9.944 14.348,9.619 C16.28,9.169 17.817,10.501 19.053,11.569 C19.287,11.772 19.515,11.97 19.737,12.147 C19.903,12.28 19.999,12.48 19.999,12.692 L20,14.107 C20,17.632 17.732,20 14.358,20 L5.641,20 C2.267,20 0,17.632 0,14.107 L0,5.893 C0,2.368 2.267,0 5.641,0 L14.359,0 Z M6.8536,4.2221 C8.2646,4.2221 9.4116,5.3701 9.4116,6.7801 C9.4116,8.1911 8.2646,9.3391 6.8536,9.3391 C5.4426,9.3391 4.2956,8.1911 4.2956,6.7801 C4.2956,5.3701 5.4426,4.2221 6.8536,4.2221 Z M6.8536,5.6181 C6.2126,5.6181 5.6906,6.1391 5.6906,6.7801 C5.6906,7.4221 6.2126,7.9431 6.8536,7.9431 C7.4956,7.9431 8.0166,7.4221 8.0166,6.7801 C8.0166,6.1391 7.4956,5.6181 6.8536,5.6181 Z"></path>
        </g>
    </g>
</svg>