<?xml version="1.0" encoding="UTF-8"?>
<svg width="24px" height="24px" viewBox="0 0 24 24" version="1.1" xmlns="http://www.w3.org/2000/svg" xmlns:xlink="http://www.w3.org/1999/xlink">
    <title>Iconly/Broken/Info Square</title>
    <g id="Iconly/Broken/Info-Square" stroke="none" stroke-width="1" fill="none" fill-rule="evenodd">
        <g id="Info-Square" transform="translate(2.000196, 1.999800)" fill="#000000" fill-rule="nonzero">
            <path d="M13.7470044,0 C17.6080044,0 20.0000022,2.393 20.0000022,6.256 L20.0000022,6.256 L20.0000022,13.756 C20.0000022,17.608 17.6080044,20 13.7470044,20 L13.7470044,20 L6.24400437,20 C2.39200437,20 2.17785747e-06,17.608 0.00100436526,13.753 C0.00100436526,13.331 0.343004365,12.988 0.766004365,12.988 C1.18800437,12.988 1.53100437,13.331 1.53100437,13.753 C1.53100437,16.787 3.20200437,18.467 6.25400437,18.467 L6.25400437,18.467 L13.7470044,18.467 C16.7900044,18.467 18.4700044,16.796 18.4700044,13.753 L18.4700044,13.753 L18.4700044,6.253 C18.4700044,3.21 16.8000044,1.53 13.7470044,1.53 L13.7470044,1.53 L6.25300437,1.53 C3.21000437,1.53 1.53000437,3.21 1.53000437,6.253 L1.53000437,6.253 L1.53000437,8.584 C1.53000437,9.002 1.19100437,9.34 0.774004365,9.34 L0.774004365,9.34 L0.763004365,9.34 C0.341004365,9.34 -0.000995634738,8.997 2.17785747e-06,8.575 L2.17785747e-06,8.575 L2.17785747e-06,6.253 C2.17785747e-06,2.393 2.41000437,0 6.25400437,0 L6.25400437,0 Z M9.99450437,8.6259 C10.4085044,8.6259 10.7445044,8.9619 10.7445044,9.3759 L10.7445044,13.7959 C10.7445044,14.2099 10.4085044,14.5459 9.99450437,14.5459 C9.58050437,14.5459 9.24450437,14.2099 9.24450437,13.7959 L9.24450437,9.3759 C9.24450437,8.9619 9.58050437,8.6259 9.99450437,8.6259 Z M10.0048044,5.4541 C10.4188044,5.4541 10.7548044,5.7901 10.7548044,6.2041 C10.7548044,6.6181 10.4188044,6.9541 10.0048044,6.9541 L9.99480437,6.9541 C9.58080437,6.9541 9.24980437,6.6181 9.24980437,6.2041 C9.24980437,5.7901 9.59080437,5.4541 10.0048044,5.4541 Z"></path>
        </g>
    </g>
</svg>