<?xml version="1.0" encoding="UTF-8"?>
<svg width="24px" height="24px" viewBox="0 0 24 24" version="1.1" xmlns="http://www.w3.org/2000/svg" xmlns:xlink="http://www.w3.org/1999/xlink">
    <title>Iconly/Light-Outline/Info Square</title>
    <defs>
        <polygon id="path-1" points="0.0001 0 20 0 20 20 0.0001 20"></polygon>
    </defs>
    <g id="Iconly/Light-Outline/Info-Square" stroke="none" stroke-width="1" fill="none" fill-rule="evenodd">
        <g id="Info-Square" transform="translate(2.000000, 2.000000)">
            <g id="Group-3">
                <mask id="mask-2" fill="white">
                    <use xlink:href="#path-1"></use>
                </mask>
                <g id="Clip-2"></g>
                <path d="M5.6641,1.5 C3.1351,1.5 1.5001,3.233 1.5001,5.916 L1.5001,14.084 C1.5001,16.767 3.1351,18.5 5.6641,18.5 L14.3321,18.5 C16.8641,18.5 18.5001,16.767 18.5001,14.084 L18.5001,5.916 C18.5001,3.233 16.8641,1.5 14.3341,1.5 L5.6641,1.5 Z M14.3321,20 L5.6641,20 C2.2761,20 0.0001,17.622 0.0001,14.084 L0.0001,5.916 C0.0001,2.378 2.2761,0 5.6641,0 L14.3341,0 C17.7231,0 20.0001,2.378 20.0001,5.916 L20.0001,14.084 C20.0001,17.622 17.7231,20 14.3321,20 L14.3321,20 Z" id="Fill-1" fill="#000000" mask="url(#mask-2)"></path>
            </g>
            <path d="M9.9941,14.75 C9.5801,14.75 9.2441,14.414 9.2441,14 L9.2441,10 C9.2441,9.586 9.5801,9.25 9.9941,9.25 C10.4081,9.25 10.7441,9.586 10.7441,10 L10.7441,14 C10.7441,14.414 10.4081,14.75 9.9941,14.75" id="Fill-4" fill="#000000"></path>
            <path d="M9.999,7.2041 C9.446,7.2041 8.994,6.7571 8.994,6.2041 C8.994,5.6511 9.437,5.2041 9.989,5.2041 L9.999,5.2041 C10.552,5.2041 10.999,5.6511 10.999,6.2041 C10.999,6.7571 10.552,7.2041 9.999,7.2041" id="Fill-6" fill="#000000"></path>
        </g>
    </g>
</svg>