<?xml version="1.0" encoding="UTF-8"?>
<svg width="24px" height="24px" viewBox="0 0 24 24" version="1.1" xmlns="http://www.w3.org/2000/svg" xmlns:xlink="http://www.w3.org/1999/xlink">
    <title>Iconly/Broken/Info Circle</title>
    <g id="Iconly/Broken/Info-Circle" stroke="none" stroke-width="1" fill="none" fill-rule="evenodd">
        <g id="Info-Circle" transform="translate(1.999900, 1.999800)" fill="#000000" fill-rule="nonzero">
            <path d="M10,0 C15.514,0 20,4.485 20,10 C20,15.514 15.514,20 10,20 C6.873,20 3.983,18.577 2.073,16.098 C1.828,15.779 1.887,15.322 2.206,15.078 C2.523,14.832 2.979,14.893 3.225,15.21 C4.858,17.33 7.327,18.546 10,18.546 C14.712,18.546 18.546,14.713 18.546,10 C18.546,5.288 14.712,1.454 10,1.454 C5.288,1.454 1.454,5.288 1.454,10 C1.454,10.438 1.487,10.873 1.552,11.299 C1.612,11.695 1.34,12.066 0.943,12.127 C0.544,12.193 0.175,11.916 0.115,11.519 C0.039,11.021 0,10.51 0,10 C0,4.485 4.486,0 10,0 Z M10.0102,13.0459 C10.4242,13.0459 10.7602,13.3819 10.7602,13.7959 C10.7602,14.2099 10.4242,14.5459 10.0102,14.5459 C9.5962,14.5459 9.2552,14.2099 9.2552,13.7959 C9.2552,13.3819 9.5862,13.0459 10.0002,13.0459 L10.0002,13.0459 Z M10,5.4541 C10.414,5.4541 10.75,5.7901 10.75,6.2041 L10.75,6.2041 L10.75,10.6241 C10.75,11.0381 10.414,11.3741 10,11.3741 C9.586,11.3741 9.25,11.0381 9.25,10.6241 L9.25,10.6241 L9.25,6.2041 C9.25,5.7901 9.586,5.4541 10,5.4541 Z"></path>
        </g>
    </g>
</svg>