<?xml version="1.0" encoding="UTF-8"?>
<svg width="24px" height="24px" viewBox="0 0 24 24" version="1.1" xmlns="http://www.w3.org/2000/svg" xmlns:xlink="http://www.w3.org/1999/xlink">
    <title>Iconly/Broken/Lock</title>
    <g id="Iconly/Broken/Lock" stroke="none" stroke-width="1" fill="none" fill-rule="evenodd">
        <g id="Lock" transform="translate(3.500000, 2.000000)" fill="#000000" fill-rule="nonzero">
            <path d="M8.51321296,0 C11.4800311,0 13.8969867,2.378 13.8969867,5.301 L13.8969867,5.301 L13.8969867,6.898 C15.6969987,7.519 17,9.188 17,11.169 L17,11.169 L17,15.458 C17,17.963 14.9286141,20 12.382578,20 L12.382578,20 L8.94212603,20 C8.52134402,20 8.17983977,19.664 8.17983977,19.25 C8.17983977,18.836 8.52134402,18.5 8.94212603,18.5 L8.94212603,18.5 L12.353103,18.5 C14.0585914,18.5 15.444936,17.136 15.444936,15.458 C15.444936,15.406 15.4642473,15.361 15.4754275,15.313 L15.4754275,15.313 L15.4754275,11.169 C15.4754275,9.491 14.0880665,8.127 12.382578,8.127 L12.382578,8.127 L4.61742198,8.127 C2.91193352,8.127 1.52457252,9.491 1.52457252,11.169 L1.52457252,11.169 L1.52457252,15.313 C1.53473634,15.361 1.55404759,15.406 1.55404759,15.458 C1.55404759,17.136 2.94140859,18.5 4.64689705,18.5 C5.06767906,18.5 5.40918331,18.836 5.40918331,19.25 C5.40918331,19.664 5.06767906,20 4.64689705,20 L4.64689705,20 L4.62656941,19.998 C4.62352027,19.998 4.62047112,20 4.61742198,20 C2.07138587,20 5.68434189e-14,17.963 5.68434189e-14,15.458 L5.68434189e-14,15.458 L5.68434189e-14,11.169 C5.68434189e-14,9.188 1.30198493,7.519 3.10199689,6.898 L3.10199689,6.898 L3.10199689,5.301 C3.11520985,2.363 5.53013273,0 8.48983618,0 L8.48983618,0 Z M8.49979672,11.4528 C8.92057874,11.4528 9.26208298,11.7888 9.26208298,12.2028 L9.26208298,12.2028 L9.26208298,14.4238 C9.26208298,14.8378 8.92057874,15.1738 8.49979672,15.1738 C8.07901471,15.1738 7.73751046,14.8378 7.73751046,14.4238 L7.73751046,14.4238 L7.73751046,12.2028 C7.73751046,11.7888 8.07901471,11.4528 8.49979672,11.4528 Z M8.51016382,1.5 L8.49288533,1.5 C6.36763123,1.5 4.63673323,3.194 4.62656941,5.284 L4.62656941,5.284 L4.62656941,6.627 L12.3724142,6.627 L12.3724142,5.301 C12.3724142,3.205 10.6394834,1.5 8.51016382,1.5 L8.51016382,1.5 Z"></path>
        </g>
    </g>
</svg>