<?xml version="1.0" encoding="UTF-8"?>
<svg width="24px" height="24px" viewBox="0 0 24 24" version="1.1" xmlns="http://www.w3.org/2000/svg" xmlns:xlink="http://www.w3.org/1999/xlink">
    <title>Iconly/Light-Outline/Login</title>
    <g id="Iconly/Light-Outline/Login" stroke="none" stroke-width="1" fill="none" fill-rule="evenodd">
        <g id="Login" transform="translate(3.000000, 2.000000)" fill="#000000">
            <path d="M12.791,10.75 L0.75,10.75 C0.336,10.75 0,10.414 0,10 C0,9.586 0.336,9.25 0.75,9.25 L12.791,9.25 C13.205,9.25 13.541,9.586 13.541,10 C13.541,10.414 13.205,10.75 12.791,10.75" id="Fill-1"></path>
            <path d="M9.8633,13.665 C9.6713,13.665 9.4783,13.592 9.3323,13.444 C9.0393,13.15 9.0413,12.676 9.3343,12.384 L11.7283,10 L9.3343,7.615 C9.0413,7.323 9.0393,6.849 9.3323,6.555 C9.6253,6.261 10.0993,6.261 10.3923,6.553 L13.3213,9.469 C13.4633,9.609 13.5423,9.801 13.5423,10 C13.5423,10.199 13.4633,10.391 13.3213,10.531 L10.3923,13.446 C10.2463,13.592 10.0543,13.665 9.8633,13.665" id="Fill-3"></path>
            <path d="M14.042,20 L9.157,20 C6.718,20 4.733,18.015 4.733,15.575 L4.733,14.633 C4.733,14.219 5.069,13.883 5.483,13.883 C5.897,13.883 6.233,14.219 6.233,14.633 L6.233,15.575 C6.233,17.187 7.545,18.5 9.157,18.5 L14.042,18.5 C15.661,18.5 16.978,17.184 16.978,15.564 L16.978,4.425 C16.978,2.813 15.665,1.5 14.053,1.5 L9.168,1.5 C7.55,1.5 6.233,2.816 6.233,4.434 L6.233,5.367 C6.233,5.781 5.897,6.117 5.483,6.117 C5.069,6.117 4.733,5.781 4.733,5.367 L4.733,4.434 C4.733,1.989 6.723,0 9.168,0 L14.053,0 C16.492,0 18.478,1.985 18.478,4.425 L18.478,15.564 C18.478,18.01 16.487,20 14.042,20" id="Fill-5"></path>
        </g>
    </g>
</svg>