<?xml version="1.0" encoding="UTF-8"?>
<svg width="24px" height="24px" viewBox="0 0 24 24" version="1.1" xmlns="http://www.w3.org/2000/svg" xmlns:xlink="http://www.w3.org/1999/xlink">
    <title>Iconly/Broken/Login</title>
    <g id="Iconly/Broken/Login" stroke="none" stroke-width="1" fill="none" fill-rule="evenodd">
        <g id="Login" transform="translate(2.500000, 2.000000)" fill="#000000" fill-rule="nonzero">
            <path d="M5.49889391,13.8520615 C5.94070104,13.8520615 6.29934448,14.197058 6.29934448,14.6220538 L6.29934448,14.6220538 L6.29934448,15.5630444 C6.29934448,17.1600284 7.65075452,18.4600154 9.30987023,18.4600154 L9.30987023,18.4600154 L14.3766183,18.4600154 C16.0430109,18.4600154 17.3985791,17.1560284 17.3985791,15.5530445 C17.3985791,15.1280487 17.7572225,14.7830522 18.1990297,14.7830522 C18.6408368,14.7830522 18.9994802,15.1280487 18.9994802,15.5530445 C18.9994802,18.0050199 16.9255856,20 14.3766183,20 L14.3766183,20 L9.30987023,20 C6.76714026,20 4.69844335,18.0100199 4.69844335,15.5630444 L4.69844335,15.5630444 L4.69844335,14.6220538 C4.69844335,14.197058 5.05708678,13.8520615 5.49889391,13.8520615 Z M12.7212419,9.22920771 C13.0317102,9.22920771 13.3113308,9.41720583 13.4297466,9.70620294 C13.5481624,9.99420006 13.4814913,10.3261967 13.2625713,10.5461945 L13.2625713,10.5461945 L10.3549157,13.4541655 C10.2056521,13.603164 10.0096192,13.6781632 9.81358631,13.6781632 C9.6175534,13.6781632 9.42052541,13.603164 9.27126178,13.4521655 C8.97273451,13.1501685 8.9737296,12.6631734 9.27325196,12.3631764 L9.27325196,12.3631764 L10.8653974,10.7701923 L0.766219981,10.7701923 C0.343306355,10.7701923 -2.48689958e-14,10.4251957 -2.48689958e-14,10.0002 C-2.48689958e-14,9.57520425 0.343306355,9.22920771 0.766219981,9.22920771 L0.766219981,9.22920771 Z M14.3875336,-8.17124146e-14 C16.9302635,-8.17124146e-14 19,1.9899801 19,4.43695563 L19,4.43695563 L19,12.0508795 C19,12.4758752 18.640317,12.8198718 18.1995494,12.8198718 C17.7567028,12.8198718 17.3980593,12.4758752 17.3980593,12.0508795 L17.3980593,12.0508795 L17.3980593,4.43695563 C17.3980593,2.8399716 16.0476888,1.5399846 14.3875336,1.5399846 L14.3875336,1.5399846 L9.32078546,1.5399846 C7.65439293,1.5399846 6.2988247,2.84397156 6.2988247,4.44695553 L6.2988247,4.44695553 L6.2988247,5.37794622 C6.2988247,5.80294197 5.94122082,6.14693853 5.49837414,6.14693853 C5.05656701,6.14693853 4.69792358,5.80294197 4.69792358,5.37794622 L4.69792358,5.37794622 L4.69792358,4.44695553 C4.69792358,1.99498005 6.77181822,-8.17124146e-14 9.32078546,-8.17124146e-14 L9.32078546,-8.17124146e-14 Z M9.26907258,6.5498345 C9.56560966,6.24683753 10.0502189,6.24483755 10.3527265,6.54383456 L10.3527265,6.54383456 L11.0861085,7.27182728 C11.386626,7.5698243 11.3896113,8.05781942 11.091084,8.3598164 C10.9418204,8.51281487 10.7447924,8.58881411 10.5467693,8.58881411 C10.3527265,8.58881411 10.1576887,8.51481485 10.00743,8.36581634 L10.00743,8.36581634 L9.27504312,7.63882361 C8.97452567,7.3398266 8.9715404,6.85283147 9.26907258,6.5498345 Z"></path>
        </g>
    </g>
</svg>