<?xml version="1.0" encoding="UTF-8"?>
<svg width="24px" height="24px" viewBox="0 0 24 24" version="1.1" xmlns="http://www.w3.org/2000/svg" xmlns:xlink="http://www.w3.org/1999/xlink">
    <title>Iconly/Broken/Logout</title>
    <g id="Iconly/Broken/Logout" stroke="none" stroke-width="1" fill="none" fill-rule="evenodd">
        <g id="Logout" transform="translate(2.000000, 2.500000)" fill="#000000" fill-rule="nonzero">
            <path d="M12.6483839,13.1601164 C13.0623027,13.1601164 13.3983073,13.4878795 13.3983073,13.8916457 L13.3983073,13.8916457 L13.3983073,14.7856314 C13.3983073,17.1094244 11.4601935,19 9.07699529,19 L9.07699529,19 L4.33007737,19 C1.94298343,19 3.01980663e-14,17.1046742 3.01980663e-14,14.775181 C3.01980663e-14,14.3714149 0.336004654,14.0446018 0.749923431,14.0446018 C1.16384221,14.0446018 1.49984686,14.3714149 1.49984686,14.775181 C1.49984686,16.299042 2.76984706,17.5369415 4.33007737,17.5369415 L4.33007737,17.5369415 L9.07699529,17.5369415 C10.6333299,17.5369415 11.8984605,16.3028421 11.8984605,14.7856314 L11.8984605,14.7856314 L11.8984605,13.8916457 C11.8984605,13.4878795 12.2344651,13.1601164 12.6483839,13.1601164 Z M19.2498527,8.76771071 C19.5537178,8.76771071 19.8273912,8.94631785 19.9432884,9.22087884 C20.0591857,9.49448978 19.9939326,9.8099024 19.7796688,10.0189108 L19.7796688,10.0189108 L16.9338554,12.7825713 C16.7867925,12.924127 16.5959029,12.9963299 16.4040394,12.9963299 C16.2121759,12.9963299 16.0193384,12.924127 15.8732494,12.7806712 C15.5810715,12.4937598 15.5810715,12.0310912 15.8751973,11.7460798 L15.8751973,11.7460798 L17.4344537,10.2317193 L7.54909935,10.2317193 C7.13518057,10.2317193 6.79820199,9.90395616 6.79820199,9.50019001 C6.79820199,9.09642386 7.13518057,8.76771071 7.54909935,8.76771071 L7.54909935,8.76771071 Z M9.06745081,1.7408297e-13 C11.4555187,1.7408297e-13 13.3985021,1.89532581 13.3985021,4.22481899 L13.3985021,4.22481899 L13.3985021,5.10930437 C13.3985021,5.51212048 13.0624975,5.8398836 12.6485787,5.8398836 C12.2346599,5.8398836 11.8986552,5.51212048 11.8986552,5.10930437 L11.8986552,5.10930437 L11.8986552,4.22481899 C11.8986552,2.70095804 10.628655,1.46305852 9.06745081,1.46305852 L9.06745081,1.46305852 L4.32150681,1.46305852 C2.76517221,1.46305852 1.50004165,2.69810792 1.50004165,4.21436857 L1.50004165,4.21436857 L1.50004165,11.448908 C1.50004165,11.8526741 1.16403699,12.1804372 0.750118216,12.1804372 C0.336199439,12.1804372 0.000194785307,11.8526741 0.000194785307,11.448908 L0.000194785307,11.448908 L0.000194785307,4.21436857 C0.000194785307,1.89057562 1.93830859,1.7408297e-13 4.32150681,1.7408297e-13 L4.32150681,1.7408297e-13 Z M15.8713016,6.22265391 C16.1634795,5.93384235 16.6368078,5.93194228 16.9319076,6.21695368 L16.9319076,6.21695368 L17.6487175,6.90858134 C17.9438172,7.19359274 17.9457651,7.65626125 17.6545611,7.94317273 C17.5074982,8.0875785 17.3146607,8.16073143 17.1218232,8.16073143 C16.9309336,8.16073143 16.740044,8.08947858 16.5939551,7.94887295 L16.5939551,7.94887295 L15.8761712,7.25629525 C15.5820454,6.97223389 15.5800975,6.50861534 15.8713016,6.22265391 Z"></path>
        </g>
    </g>
</svg>