<?xml version="1.0" encoding="UTF-8"?>
<svg width="24px" height="24px" viewBox="0 0 24 24" version="1.1" xmlns="http://www.w3.org/2000/svg" xmlns:xlink="http://www.w3.org/1999/xlink">
    <title>Iconly/Light-Outline/Logout</title>
    <defs>
        <polygon id="path-1" points="-0.0039 0.25 13.537 0.25 13.537 1.75 -0.0039 1.75"></polygon>
        <polygon id="path-3" points="0.10964744 0.33524936 4.537 0.33524936 4.537 7.666 0.10964744 7.666"></polygon>
    </defs>
    <g id="Iconly/Light-Outline/Logout" stroke="none" stroke-width="1" fill="none" fill-rule="evenodd">
        <g id="Logout" transform="translate(2.000000, 2.000000)">
            <path d="M9.3193,20 L4.4333,20 C1.9893,20 0.0003,18.011 0.0003,15.565 L0.0003,4.436 C0.0003,1.99 1.9893,0 4.4333,0 L9.3083,0 C11.7543,0 13.7443,1.99 13.7443,4.436 L13.7443,5.368 C13.7443,5.782 13.4083,6.118 12.9943,6.118 C12.5803,6.118 12.2443,5.782 12.2443,5.368 L12.2443,4.436 C12.2443,2.816 10.9273,1.5 9.3083,1.5 L4.4333,1.5 C2.8163,1.5 1.5003,2.816 1.5003,4.436 L1.5003,15.565 C1.5003,17.184 2.8163,18.5 4.4333,18.5 L9.3193,18.5 C10.9313,18.5 12.2443,17.188 12.2443,15.576 L12.2443,14.633 C12.2443,14.219 12.5803,13.883 12.9943,13.883 C13.4083,13.883 13.7443,14.219 13.7443,14.633 L13.7443,15.576 C13.7443,18.016 11.7583,20 9.3193,20" id="Fill-1" fill="#000000"></path>
            <g id="Group-5" transform="translate(7.000000, 9.000000)">
                <mask id="mask-2" fill="white">
                    <use xlink:href="#path-1"></use>
                </mask>
                <g id="Clip-4"></g>
                <path d="M12.7871,1.75 L0.7461,1.75 C0.3321,1.75 -0.0039,1.414 -0.0039,1 C-0.0039,0.586 0.3321,0.25 0.7461,0.25 L12.7871,0.25 C13.2011,0.25 13.5371,0.586 13.5371,1 C13.5371,1.414 13.2011,1.75 12.7871,1.75" id="Fill-3" fill="#000000" mask="url(#mask-2)"></path>
            </g>
            <g id="Group-8" transform="translate(16.000000, 6.000000)">
                <mask id="mask-4" fill="white">
                    <use xlink:href="#path-3"></use>
                </mask>
                <g id="Clip-7"></g>
                <path d="M0.8594,7.666 C0.6674,7.666 0.4744,7.593 0.3284,7.445 C0.0364,7.151 0.0374,6.677 0.3304,6.385 L2.7244,4 L0.3304,1.616 C0.0374,1.324 0.0354,0.85 0.3284,0.556 C0.6204,0.262 1.0944,0.262 1.3884,0.554 L4.3164,3.469 C4.4584,3.609 4.5374,3.801 4.5374,4 C4.5374,4.199 4.4584,4.391 4.3164,4.531 L1.3884,7.447 C1.2424,7.593 1.0504,7.666 0.8594,7.666" id="Fill-6" fill="#000000" mask="url(#mask-4)"></path>
            </g>
        </g>
    </g>
</svg>