<?xml version="1.0" encoding="UTF-8"?>
<svg width="24px" height="24px" viewBox="0 0 24 24" version="1.1" xmlns="http://www.w3.org/2000/svg" xmlns:xlink="http://www.w3.org/1999/xlink">
    <title>Iconly/Light-Outline/Message</title>
    <defs>
        <polygon id="path-1" points="0 0.5 21.4999 0.5 21.4999 20 0 20"></polygon>
    </defs>
    <g id="Iconly/Light-Outline/Message" stroke="none" stroke-width="1" fill="none" fill-rule="evenodd">
        <g id="Message" transform="translate(1.000000, 1.000000)">
            <path d="M10.7769,12.4648 C10.1079,12.4648 9.4409,12.2438 8.8829,11.8018 L4.3979,8.1858 C4.0749,7.9258 4.0249,7.4528 4.2839,7.1308 C4.5449,6.8098 5.0169,6.7588 5.3389,7.0178 L9.8199,10.6298 C10.3829,11.0758 11.1759,11.0758 11.7429,10.6258 L16.1789,7.0198 C16.5009,6.7568 16.9729,6.8068 17.2349,7.1288 C17.4959,7.4498 17.4469,7.9218 17.1259,8.1838 L12.6819,11.7958 C12.1199,12.2418 11.4479,12.4648 10.7769,12.4648" id="Fill-1" fill="#000000"></path>
            <g id="Group-5" transform="translate(0.000000, 0.500000)">
                <mask id="mask-2" fill="white">
                    <use xlink:href="#path-1"></use>
                </mask>
                <g id="Clip-4"></g>
                <path d="M5.8389,18.5 L15.6589,18.5 C15.6609,18.498 15.6689,18.5 15.6749,18.5 C16.8159,18.5 17.8279,18.092 18.6039,17.317 C19.5049,16.42 19.9999,15.131 19.9999,13.688 L19.9999,6.82 C19.9999,4.027 18.1739,2 15.6589,2 L5.8409,2 C3.3259,2 1.4999,4.027 1.4999,6.82 L1.4999,13.688 C1.4999,15.131 1.9959,16.42 2.8959,17.317 C3.6719,18.092 4.6849,18.5 5.8249,18.5 L5.8389,18.5 Z M5.8219,20 C4.2789,20 2.9009,19.44 1.8369,18.38 C0.6519,17.198 -0.0001,15.532 -0.0001,13.688 L-0.0001,6.82 C-0.0001,3.217 2.5109,0.5 5.8409,0.5 L15.6589,0.5 C18.9889,0.5 21.4999,3.217 21.4999,6.82 L21.4999,13.688 C21.4999,15.532 20.8479,17.198 19.6629,18.38 C18.5999,19.439 17.2209,20 15.6749,20 L15.6589,20 L5.8409,20 L5.8219,20 Z" id="Fill-3" fill="#000000" mask="url(#mask-2)"></path>
            </g>
        </g>
    </g>
</svg>