<?xml version="1.0" encoding="UTF-8"?>
<svg width="24px" height="24px" viewBox="0 0 24 24" version="1.1" xmlns="http://www.w3.org/2000/svg" xmlns:xlink="http://www.w3.org/1999/xlink">
    <title>Iconly/Broken/More Square</title>
    <g id="Iconly/Broken/More-Square" stroke="none" stroke-width="1" fill="none" fill-rule="evenodd">
        <g id="More-Square" transform="translate(1.999796, 1.999800)" fill="#000000" fill-rule="nonzero">
            <path d="M13.7470044,0 C17.6080044,0 20.0000022,2.393 20.0000022,6.256 L20.0000022,6.256 L20.0000022,13.756 C20.0000022,17.608 17.6080044,20 13.7470044,20 L13.7470044,20 L6.24400437,20 C2.39200437,20 2.17785747e-06,17.608 0.00100436526,13.753 C0.00100436526,13.331 0.344004365,12.988 0.766004365,12.988 C1.18900437,12.988 1.53100437,13.331 1.53100437,13.753 C1.53100437,16.787 3.20200437,18.467 6.25400437,18.467 L6.25400437,18.467 L13.7470044,18.467 C16.7900044,18.467 18.4700044,16.796 18.4700044,13.753 L18.4700044,13.753 L18.4700044,6.253 C18.4700044,3.21 16.8000044,1.53 13.7470044,1.53 L13.7470044,1.53 L6.25300437,1.53 C3.21000437,1.53 1.53000437,3.21 1.53000437,6.253 L1.53000437,6.253 L1.53000437,8.584 C1.53000437,9.002 1.19200437,9.34 0.774004365,9.34 L0.774004365,9.34 L0.763004365,9.34 C0.341004365,9.34 -0.000995634738,8.997 2.17785747e-06,8.575 L2.17785747e-06,8.575 L2.17785747e-06,6.253 C2.17785747e-06,2.393 2.41000437,0 6.25400437,0 L6.25400437,0 Z M5.52070437,8.804 C6.18170437,8.804 6.71870437,9.341 6.71870437,10 C6.71870437,10.66 6.18170437,11.197 5.52070437,11.197 C4.86070437,11.197 4.32270437,10.66 4.32270437,10 C4.32270437,9.341 4.86070437,8.804 5.52070437,8.804 Z M10.0002044,8.804 C10.6612044,8.804 11.1982044,9.341 11.1982044,10 C11.1982044,10.66 10.6612044,11.197 10.0002044,11.197 C9.34020437,11.197 8.80220437,10.66 8.80220437,10 C8.80220437,9.341 9.34020437,8.804 10.0002044,8.804 Z M14.4792044,8.804 C15.1402044,8.804 15.6772044,9.341 15.6772044,10 C15.6772044,10.66 15.1402044,11.197 14.4792044,11.197 C13.8192044,11.197 13.2812044,10.66 13.2812044,10 C13.2812044,9.341 13.8192044,8.804 14.4792044,8.804 Z"></path>
        </g>
    </g>
</svg>