<?xml version="1.0" encoding="UTF-8"?>
<svg width="24px" height="24px" viewBox="0 0 24 24" version="1.1" xmlns="http://www.w3.org/2000/svg" xmlns:xlink="http://www.w3.org/1999/xlink">
    <title>Iconly/Two-tone/More Circle</title>
    <g id="Iconly/Two-tone/More-Circle" stroke="none" stroke-width="1" fill="none" fill-rule="evenodd">
        <g id="More-Circle" transform="translate(2.000000, 2.000000)">
            <path d="M10.0002,0.7502 C15.1082,0.7502 19.2502,4.8922 19.2502,10.0002 C19.2502,15.1082 15.1082,19.2502 10.0002,19.2502 C4.8912,19.2502 0.7502,15.1082 0.7502,10.0002 C0.7502,4.8922 4.8912,0.7502 10.0002,0.7502 Z" id="Stroke-1" stroke="#000000" stroke-width="1.5" stroke-linecap="round" stroke-linejoin="round"></path>
            <path d="M5.5207,11.1974 C4.8597,11.1974 4.3227,10.6604 4.3227,10.0004 C4.3227,9.3404 4.8597,8.8024 5.5207,8.8024 C6.1817,8.8024 6.7187,9.3404 6.7187,10.0004 C6.7187,10.6604 6.1817,11.1974 5.5207,11.1974" id="Fill-3" fill="#000000" fill-rule="nonzero" opacity="0.400000006"></path>
            <path d="M10.0002,11.1974 C9.3392,11.1974 8.8022,10.6604 8.8022,10.0004 C8.8022,9.3404 9.3392,8.8024 10.0002,8.8024 C10.6612,8.8024 11.1982,9.3404 11.1982,10.0004 C11.1982,10.6604 10.6612,11.1974 10.0002,11.1974" id="Fill-5" fill="#000000" fill-rule="nonzero" opacity="0.400000006"></path>
            <path d="M14.4792,11.1974 C13.8182,11.1974 13.2812,10.6604 13.2812,10.0004 C13.2812,9.3404 13.8182,8.8024 14.4792,8.8024 C15.1402,8.8024 15.6772,9.3404 15.6772,10.0004 C15.6772,10.6604 15.1402,11.1974 14.4792,11.1974" id="Fill-7" fill="#000000" fill-rule="nonzero" opacity="0.400000006"></path>
        </g>
    </g>
</svg>