<?xml version="1.0" encoding="UTF-8"?>
<svg width="24px" height="24px" viewBox="0 0 24 24" version="1.1" xmlns="http://www.w3.org/2000/svg" xmlns:xlink="http://www.w3.org/1999/xlink">
    <title>Iconly/Broken/More Circle</title>
    <g id="Iconly/Broken/More-Circle" stroke="none" stroke-width="1" fill="none" fill-rule="evenodd">
        <g id="More-Circle" transform="translate(2.000200, 1.999800)" fill="#000000" fill-rule="nonzero">
            <path d="M10,0 C15.514,0 20,4.485 20,10 C20,15.514 15.514,20 10,20 C6.872,20 3.983,18.577 2.073,16.098 C1.828,15.779 1.887,15.322 2.205,15.078 C2.523,14.832 2.979,14.893 3.225,15.21 C4.857,17.33 7.327,18.546 10,18.546 C14.712,18.546 18.545,14.713 18.545,10 C18.545,5.288 14.712,1.454 10,1.454 C5.288,1.454 1.454,5.288 1.454,10 C1.454,10.438 1.487,10.873 1.552,11.299 C1.612,11.695 1.339,12.066 0.943,12.127 C0.544,12.193 0.175,11.916 0.114,11.519 C0.038,11.021 0,10.51 0,10 C0,4.485 4.486,0 10,0 Z M5.5202,8.804 C6.1812,8.804 6.7182,9.341 6.7182,10 C6.7182,10.66 6.1812,11.197 5.5202,11.197 C4.8602,11.197 4.3222,10.66 4.3222,10 C4.3222,9.341 4.8602,8.804 5.5202,8.804 Z M9.9997,8.804 C10.6597,8.804 11.1977,9.341 11.1977,10 C11.1977,10.66 10.6597,11.197 9.9997,11.197 C9.3387,11.197 8.8017,10.66 8.8017,10 C8.8017,9.341 9.3387,8.804 9.9997,8.804 Z M14.4787,8.804 C15.1397,8.804 15.6767,9.341 15.6767,10 C15.6767,10.66 15.1397,11.197 14.4787,11.197 C13.8187,11.197 13.2807,10.66 13.2807,10 C13.2807,9.341 13.8187,8.804 14.4787,8.804 Z"></path>
        </g>
    </g>
</svg>