<?xml version="1.0" encoding="UTF-8"?>
<svg width="24px" height="24px" viewBox="0 0 24 24" version="1.1" xmlns="http://www.w3.org/2000/svg" xmlns:xlink="http://www.w3.org/1999/xlink">
    <title>Iconly/Light-Outline/More Circle</title>
    <g id="Iconly/Light-Outline/More-Circle" stroke="none" stroke-width="1" fill="none" fill-rule="evenodd">
        <g id="More-Circle" transform="translate(2.000000, 2.000000)" fill="#000000">
            <path d="M10,1.5 C5.313,1.5 1.5,5.313 1.5,10 C1.5,14.687 5.313,18.5 10,18.5 C14.687,18.5 18.5,14.687 18.5,10 C18.5,5.313 14.687,1.5 10,1.5 M10,20 C4.486,20 0,15.514 0,10 C0,4.486 4.486,0 10,0 C15.514,0 20,4.486 20,10 C20,15.514 15.514,20 10,20" id="Fill-1"></path>
            <path d="M13.9482,11.0137 C13.3952,11.0137 12.9432,10.5667 12.9432,10.0137 C12.9432,9.4607 13.3862,9.0137 13.9382,9.0137 L13.9482,9.0137 C14.5012,9.0137 14.9482,9.4607 14.9482,10.0137 C14.9482,10.5667 14.5012,11.0137 13.9482,11.0137" id="Fill-3"></path>
            <path d="M9.9385,11.0137 C9.3855,11.0137 8.9345,10.5667 8.9345,10.0137 C8.9345,9.4607 9.3765,9.0137 9.9295,9.0137 L9.9385,9.0137 C10.4915,9.0137 10.9385,9.4607 10.9385,10.0137 C10.9385,10.5667 10.4915,11.0137 9.9385,11.0137" id="Fill-5"></path>
            <path d="M5.9297,11.0137 C5.3767,11.0137 4.9247,10.5667 4.9247,10.0137 C4.9247,9.4607 5.3677,9.0137 5.9207,9.0137 L5.9297,9.0137 C6.4827,9.0137 6.9297,9.4607 6.9297,10.0137 C6.9297,10.5667 6.4827,11.0137 5.9297,11.0137" id="Fill-7"></path>
        </g>
    </g>
</svg>