<?xml version="1.0" encoding="UTF-8"?>
<svg width="24px" height="24px" viewBox="0 0 24 24" version="1.1" xmlns="http://www.w3.org/2000/svg" xmlns:xlink="http://www.w3.org/1999/xlink">
    <title>Iconly/Two-tone/More Square</title>
    <g id="Iconly/Two-tone/More-Square" stroke="none" stroke-width="1" fill="none" fill-rule="evenodd">
        <g id="More-Square" transform="translate(2.000000, 2.000000)">
            <path d="M14.3347,0.7502 L5.6657,0.7502 C2.6447,0.7502 0.7507,2.8892 0.7507,5.9162 L0.7507,14.0842 C0.7507,17.1112 2.6347,19.2502 5.6657,19.2502 L14.3337,19.2502 C17.3647,19.2502 19.2507,17.1112 19.2507,14.0842 L19.2507,5.9162 C19.2507,2.8892 17.3647,0.7502 14.3347,0.7502 Z" id="Stroke-1" stroke="#000000" stroke-width="1.5" stroke-linecap="round" stroke-linejoin="round"></path>
            <path d="M5.5208,11.1974 C4.8598,11.1974 4.3228,10.6604 4.3228,10.0004 C4.3228,9.3404 4.8598,8.8024 5.5208,8.8024 C6.1818,8.8024 6.7188,9.3404 6.7188,10.0004 C6.7188,10.6604 6.1818,11.1974 5.5208,11.1974" id="Fill-3" fill="#000000" fill-rule="nonzero" opacity="0.400000006"></path>
            <path d="M10.0002,11.1974 C9.3392,11.1974 8.8022,10.6604 8.8022,10.0004 C8.8022,9.3404 9.3392,8.8024 10.0002,8.8024 C10.6612,8.8024 11.1982,9.3404 11.1982,10.0004 C11.1982,10.6604 10.6612,11.1974 10.0002,11.1974" id="Fill-5" fill="#000000" fill-rule="nonzero" opacity="0.400000006"></path>
            <path d="M14.4792,11.1974 C13.8182,11.1974 13.2812,10.6604 13.2812,10.0004 C13.2812,9.3404 13.8182,8.8024 14.4792,8.8024 C15.1402,8.8024 15.6772,9.3404 15.6772,10.0004 C15.6772,10.6604 15.1402,11.1974 14.4792,11.1974" id="Fill-7" fill="#000000" fill-rule="nonzero" opacity="0.400000006"></path>
        </g>
    </g>
</svg>