<?xml version="1.0" encoding="UTF-8"?>
<svg width="24px" height="24px" viewBox="0 0 24 24" version="1.1" xmlns="http://www.w3.org/2000/svg" xmlns:xlink="http://www.w3.org/1999/xlink">
    <title>Iconly/Light-Outline/More Square</title>
    <g id="Iconly/Light-Outline/More-Square" stroke="none" stroke-width="1" fill="none" fill-rule="evenodd">
        <g id="More-Square" transform="translate(2.000000, 2.000000)" fill="#000000">
            <path d="M5.665,1.5 C3.135,1.5 1.5,3.233 1.5,5.916 L1.5,14.084 C1.5,16.767 3.135,18.5 5.665,18.5 L14.333,18.5 C16.864,18.5 18.5,16.767 18.5,14.084 L18.5,5.916 C18.5,3.233 16.864,1.5 14.334,1.5 L5.665,1.5 Z M14.333,20 L5.665,20 C2.276,20 0,17.622 0,14.084 L0,5.916 C0,2.378 2.276,0 5.665,0 L14.334,0 C17.723,0 20,2.378 20,5.916 L20,14.084 C20,17.622 17.723,20 14.333,20 L14.333,20 Z" id="Fill-1"></path>
            <path d="M13.9482,11.0137 C13.3952,11.0137 12.9432,10.5667 12.9432,10.0137 C12.9432,9.4607 13.3862,9.0137 13.9382,9.0137 L13.9482,9.0137 C14.5012,9.0137 14.9482,9.4607 14.9482,10.0137 C14.9482,10.5667 14.5012,11.0137 13.9482,11.0137" id="Fill-3"></path>
            <path d="M9.9385,11.0137 C9.3855,11.0137 8.9345,10.5667 8.9345,10.0137 C8.9345,9.4607 9.3765,9.0137 9.9295,9.0137 L9.9385,9.0137 C10.4915,9.0137 10.9385,9.4607 10.9385,10.0137 C10.9385,10.5667 10.4915,11.0137 9.9385,11.0137" id="Fill-5"></path>
            <path d="M5.9297,11.0137 C5.3767,11.0137 4.9247,10.5667 4.9247,10.0137 C4.9247,9.4607 5.3677,9.0137 5.9207,9.0137 L5.9297,9.0137 C6.4827,9.0137 6.9297,9.4607 6.9297,10.0137 C6.9297,10.5667 6.4827,11.0137 5.9297,11.0137" id="Fill-7"></path>
        </g>
    </g>
</svg>