<?xml version="1.0" encoding="UTF-8"?>
<svg width="24px" height="24px" viewBox="0 0 24 24" version="1.1" xmlns="http://www.w3.org/2000/svg" xmlns:xlink="http://www.w3.org/1999/xlink">
    <title>Iconly/Light-Outline/Notification</title>
    <defs>
        <polygon id="path-1" points="8.66453236e-05 0.5 18.497 0.5 18.497 17.848 8.66453236e-05 17.848"></polygon>
    </defs>
    <g id="Iconly/Light-Outline/Notification" stroke="none" stroke-width="1" fill="none" fill-rule="evenodd">
        <g id="Notification" transform="translate(3.000000, 0.000000)">
            <g id="Group-3" transform="translate(0.000000, 0.500000)">
                <mask id="mask-2" fill="white">
                    <use xlink:href="#path-1"></use>
                </mask>
                <g id="Clip-2"></g>
                <path d="M9.2471,2 C5.7521,2 3.3161,4.738 3.3161,7.195 C3.3161,9.274 2.7391,10.235 2.2291,11.083 C1.8201,11.764 1.4971,12.302 1.4971,13.471 C1.6641,15.357 2.9091,16.348 9.2471,16.348 C15.5501,16.348 16.8341,15.313 17.0001,13.406 C16.9971,12.302 16.6741,11.764 16.2651,11.083 C15.7551,10.235 15.1781,9.274 15.1781,7.195 C15.1781,4.738 12.7421,2 9.2471,2 M9.2471,17.848 C4.5711,17.848 0.3451,17.518 8.66453236e-05,13.535 C-0.0029,11.887 0.5001,11.049 0.9441,10.311 C1.3931,9.563 1.8161,8.858 1.8161,7.195 C1.8161,3.962 4.8021,0.5 9.2471,0.5 C13.6921,0.5 16.6781,3.962 16.6781,7.195 C16.6781,8.858 17.1011,9.563 17.5501,10.311 C17.9941,11.049 18.4971,11.887 18.4971,13.471 C18.1481,17.518 13.9231,17.848 9.2471,17.848" id="Fill-1" fill="#000000" mask="url(#mask-2)"></path>
            </g>
            <path d="M9.1983,22.5 L9.1963,22.5 C8.0753,22.499 7.0143,22.005 6.2093,21.108 C5.9323,20.801 5.9573,20.326 6.2653,20.05 C6.5733,19.772 7.0473,19.797 7.3243,20.106 C7.8423,20.683 8.5073,21 9.1973,21 L9.1983,21 C9.8913,21 10.5593,20.683 11.0783,20.105 C11.3563,19.798 11.8303,19.773 12.1373,20.05 C12.4453,20.327 12.4703,20.802 12.1933,21.109 C11.3853,22.006 10.3223,22.5 9.1983,22.5" id="Fill-4" fill="#000000"></path>
        </g>
    </g>
</svg>