<?xml version="1.0" encoding="UTF-8"?>
<svg width="24px" height="24px" viewBox="0 0 24 24" version="1.1" xmlns="http://www.w3.org/2000/svg" xmlns:xlink="http://www.w3.org/1999/xlink">
    <title>Iconly/Light-Outline/Paper Fail</title>
    <defs>
        <polygon id="path-1" points="0 0.1445 17.0515093 0.1445 17.0515093 19.9995 0 19.9995"></polygon>
    </defs>
    <g id="Iconly/Light-Outline/Paper-Fail" stroke="none" stroke-width="1" fill="none" fill-rule="evenodd">
        <g id="Paper-Fail" transform="translate(3.000000, 1.000000)">
            <g id="Group-3" transform="translate(0.000000, 0.867200)">
                <mask id="mask-2" fill="white">
                    <use xlink:href="#path-1"></use>
                </mask>
                <g id="Clip-2"></g>
                <path d="M4.4785,1.6445 C2.8355,1.6445 1.4995,2.9815 1.4995,4.6235 L1.4995,15.4725 C1.5045,16.2835 1.8265,17.0475 2.4055,17.6205 C2.9835,18.1915 3.7805,18.5195 4.5665,18.4995 C4.5735,18.4995 4.6835,18.4985 4.6895,18.4985 L12.5725,18.4985 C14.2145,18.4805 15.5545,17.1235 15.551505,15.4735 L15.551505,6.4745 L10.9165,1.6445 L4.4785,1.6445 Z M4.5425,19.9995 C3.3425,19.9995 2.2075,19.5345 1.3505,18.6865 C0.4865,17.8325 0.0065,16.6925 -0.0005,15.4765 L-0.0005,4.6235 C-0.0005,2.1545 2.0085,0.1445 4.4785,0.1445 L11.2365,0.1445 C11.4405,0.1445 11.6355,0.2275 11.7775,0.3745 L16.8425,5.6535 C16.9765,5.7925 17.0515093,5.9795 17.0515093,6.1725 L17.0515093,15.4725 C17.0565,17.9415 15.0505,19.9725 12.5805,19.9985 L4.5715,19.9995 L4.5425,19.9995 Z" id="Fill-1" fill="#000000" mask="url(#mask-2)"></path>
            </g>
            <path d="M16.2969,7.9844 L13.5409,7.9844 C11.7109,7.9794 10.2239,6.4874 10.2239,4.6594 L10.2239,1.7504 C10.2239,1.3364 10.5599,1.0004 10.9739,1.0004 C11.3879,1.0004 11.7239,1.3364 11.7239,1.7504 L11.7239,4.6594 C11.7239,5.6634 12.5399,6.4814 13.5429,6.4844 L16.2969,6.4844 C16.7109,6.4844 17.0469,6.8204 17.0469,7.2344 C17.0469,7.6484 16.7109,7.9844 16.2969,7.9844" id="Fill-4" fill="#000000"></path>
            <path d="M10.0752,14.3985 C9.8832,14.3985 9.6912,14.3255 9.5452,14.1785 L6.0792,10.7125 C5.7862,10.4195 5.7862,9.9455 6.0792,9.6525 C6.3722,9.3595 6.8462,9.3595 7.1392,9.6525 L10.6052,13.1185 C10.8982,13.4115 10.8982,13.8855 10.6052,14.1785 C10.4592,14.3255 10.2672,14.3985 10.0752,14.3985" id="Fill-6" fill="#000000"></path>
            <path d="M6.6104,14.3985 C6.4184,14.3985 6.2264,14.3255 6.0804,14.1785 C5.7874,13.8855 5.7874,13.4115 6.0804,13.1185 L9.5464,9.6525 C9.8394,9.3595 10.3134,9.3595 10.6064,9.6525 C10.8994,9.9455 10.8994,10.4195 10.6064,10.7125 L7.1404,14.1785 C6.9944,14.3255 6.8024,14.3985 6.6104,14.3985" id="Fill-8" fill="#000000"></path>
        </g>
    </g>
</svg>