<?xml version="1.0" encoding="UTF-8"?>
<svg width="24px" height="24px" viewBox="0 0 24 24" version="1.1" xmlns="http://www.w3.org/2000/svg" xmlns:xlink="http://www.w3.org/1999/xlink">
    <title>Iconly/Light-Outline/Paper Plus</title>
    <g id="Iconly/Light-Outline/Paper-Plus" stroke="none" stroke-width="1" fill="none" fill-rule="evenodd">
        <g id="Paper-Plus" transform="translate(3.000000, 2.000000)" fill="#000000">
            <path d="M4.5729,1.5117 C2.9149,1.5117 1.5399,2.8537 1.5009,4.5087 L1.5009,15.3397 C1.4719,16.9867 2.7789,18.3387 4.4139,18.3667 L4.5609,18.3657 L12.5729,18.3657 C14.2149,18.3477 15.5539,16.9907 15.5519022,15.3407 L15.5519022,6.3417 L10.9179,1.5117 L4.5849,1.5117 L4.5729,1.5117 Z M4.3999,19.8667 C1.9269,19.8237 -0.0411,17.7867 0.0009,15.3267 L0.0009,4.4907 C0.0579,2.0097 2.1069,0.0117 4.5699,0.0117 L4.5879,0.0117 L11.2369,0.0117 C11.4409,0.0117 11.6359,0.0947 11.7779,0.2417 L16.8439,5.5207 C16.9769,5.6597 17.051906,5.8467 17.051906,6.0397 L17.051906,15.3397 C17.0559,17.8087 15.0499,19.8397 12.5809,19.8657 L4.3999,19.8667 Z" id="Fill-1"></path>
            <path d="M16.2975,6.9844 L13.5435,6.9844 C11.7125,6.9794 10.2245,5.4874 10.2245,3.6594 L10.2245,0.7504 C10.2245,0.3364 10.5605,0.0004 10.9745,0.0004 C11.3885,0.0004 11.7245,0.3364 11.7245,0.7504 L11.7245,3.6594 C11.7245,4.6634 12.5415,5.4814 13.5455,5.4844 L16.2975,5.4844 C16.7115,5.4844 17.0475,5.8204 17.0475,6.2344 C17.0475,6.6484 16.7115,6.9844 16.2975,6.9844" id="Fill-3"></path>
            <path d="M10.7936,11.6641 L5.8946,11.6641 C5.4806,11.6641 5.1446,11.3281 5.1446,10.9141 C5.1446,10.5001 5.4806,10.1641 5.8946,10.1641 L10.7936,10.1641 C11.2076,10.1641 11.5436,10.5001 11.5436,10.9141 C11.5436,11.3281 11.2076,11.6641 10.7936,11.6641" id="Fill-5"></path>
            <path d="M8.3444,14.1143 C7.9304,14.1143 7.5944,13.7783 7.5944,13.3643 L7.5944,8.4643 C7.5944,8.0503 7.9304,7.7143 8.3444,7.7143 C8.7584,7.7143 9.0944,8.0503 9.0944,8.4643 L9.0944,13.3643 C9.0944,13.7783 8.7584,14.1143 8.3444,14.1143" id="Fill-7"></path>
        </g>
    </g>
</svg>