<?xml version="1.0" encoding="UTF-8"?>
<svg width="24px" height="24px" viewBox="0 0 24 24" version="1.1" xmlns="http://www.w3.org/2000/svg" xmlns:xlink="http://www.w3.org/1999/xlink">
    <title>Iconly/Light-Outline/Paper Download</title>
    <defs>
        <polygon id="path-1" points="0.000231719645 0.1465 17.0523975 0.1465 17.0523975 20 0.000231719645 20"></polygon>
    </defs>
    <g id="Iconly/Light-Outline/Paper-Download" stroke="none" stroke-width="1" fill="none" fill-rule="evenodd">
        <g id="Paper-Download" transform="translate(3.000000, 1.000000)">
            <g id="Group-3" transform="translate(0.000000, 0.865200)">
                <mask id="mask-2" fill="white">
                    <use xlink:href="#path-1"></use>
                </mask>
                <g id="Clip-2"></g>
                <path d="M4.5733,1.6465 C2.9163,1.6465 1.5403,2.9885 1.5013,4.6435 L1.5013,15.3625 C1.4653,17.0635 2.8053,18.4635 4.4903,18.5005 L12.5733,18.5005 C14.2423,18.4405 15.5633,17.0635 15.5523682,15.3675 L15.5523682,6.4745 L10.9183,1.6465 L4.5853,1.6465 L4.5733,1.6465 Z M4.5853,20.0005 L4.4593,20.0005 C1.9473,19.9465 -0.0527,17.8585 0.0013,15.3465 L0.0013,4.6255 C0.0603,2.1445 2.1083,0.1465 4.5703,0.1465 L4.5883,0.1465 L11.2373,0.1465 C11.4413,0.1465 11.6363,0.2295 11.7783,0.3765 L16.8443,5.6535 C16.9773,5.7925 17.0523975,5.9795 17.0523975,6.1725 L17.0523975,15.3625 C17.0683,17.8715 15.1123,19.9105 12.5993,20.0005 L4.5853,20.0005 Z" id="Fill-1" fill="#000000" mask="url(#mask-2)"></path>
            </g>
            <path d="M16.2979,7.9843 L13.5439,7.9843 C11.7129,7.9793 10.2259,6.4873 10.2259,4.6593 L10.2259,1.7503 C10.2259,1.3363 10.5619,1.0003 10.9759,1.0003 C11.3899,1.0003 11.7259,1.3363 11.7259,1.7503 L11.7259,4.6593 C11.7259,5.6633 12.5419,6.4813 13.5459,6.4843 L16.2979,6.4843 C16.7119,6.4843 17.0479,6.8203 17.0479,7.2343 C17.0479,7.6483 16.7119,7.9843 16.2979,7.9843" id="Fill-4" fill="#000000"></path>
            <path d="M8.1427,15.7002 C7.7287,15.7002 7.3927,15.3642 7.3927,14.9502 L7.3927,8.9092 C7.3927,8.4952 7.7287,8.1592 8.1427,8.1592 C8.5567,8.1592 8.8927,8.4952 8.8927,8.9092 L8.8927,14.9502 C8.8927,15.3642 8.5567,15.7002 8.1427,15.7002" id="Fill-6" fill="#000000"></path>
            <path d="M8.1417,15.6992 C7.9427,15.6992 7.7507,15.6202 7.6107,15.4782 L5.2657,13.1242 C4.9737,12.8302 4.9747,12.3552 5.2677,12.0632 C5.5617,11.7712 6.0367,11.7712 6.3287,12.0652 L8.1417,13.8872 L9.9547,12.0652 C10.2467,11.7712 10.7217,11.7712 11.0157,12.0632 C11.3087,12.3552 11.3097,12.8302 11.0177,13.1242 L8.6727,15.4782 C8.5327,15.6202 8.3407,15.6992 8.1417,15.6992" id="Fill-8" fill="#000000"></path>
        </g>
    </g>
</svg>