<?xml version="1.0" encoding="UTF-8"?>
<svg width="24px" height="24px" viewBox="0 0 24 24" version="1.1" xmlns="http://www.w3.org/2000/svg" xmlns:xlink="http://www.w3.org/1999/xlink">
    <title>Iconly/Broken/Paper</title>
    <g id="Iconly/Broken/Paper" stroke="none" stroke-width="1" fill="none" fill-rule="evenodd">
        <g id="Paper" transform="translate(3.500000, 2.000000)" fill="#000000" fill-rule="nonzero">
            <path d="M10.9405348,3.55271368e-15 C10.9604738,3.55271368e-15 10.977422,0.0100679587 10.997361,0.0120815505 L10.997361,0.0120815505 L11.2027328,0.0120815505 C11.4061107,0.0120815505 11.6005161,0.0956456079 11.742083,0.244651397 L11.742083,0.244651397 L16.7916373,5.55650642 C16.9252287,5.69745784 17,5.88472187 17,6.08004027 L17,6.08004027 L17,15.3083312 C17,17.8514976 14.9552545,20 12.5346587,20 L12.5346587,20 L4.57002111,20 C2.00785832,20 -4.61852778e-14,17.9390888 -4.61852778e-14,15.3083312 L-4.61852778e-14,15.3083312 L-4.61852778e-14,12.7853008 C-4.61852778e-14,12.3684873 0.334975369,12.0302039 0.747712878,12.0302039 C1.16045039,12.0302039 1.49542576,12.3684873 1.49542576,12.7853008 L1.49542576,12.7853008 L1.49542576,15.3083312 C1.49542576,17.0923735 2.84629369,18.4898062 4.57002111,18.4898062 L4.57002111,18.4898062 L12.5346587,18.4898062 C14.1168191,18.4898062 15.5045742,17.0027687 15.5045742,15.3083312 L15.5045742,15.3083312 L15.5045742,6.38308583 L11.6882477,2.36899069 L11.6882477,3.68487289 C11.6882477,4.69569595 12.5017593,5.52026177 13.5026976,5.52227536 C13.9154351,5.52328215 14.2494136,5.86156557 14.2484166,6.27938585 C14.2474197,6.69519255 13.9134412,7.03246917 13.5007037,7.03246917 L13.5007037,7.03246917 C11.6762843,7.02844198 10.192822,5.52730934 10.192822,3.68487289 L10.192822,3.68487289 L10.192822,1.52227536 L4.57002111,1.52227536 C2.90311987,1.52227536 1.49542576,2.89554493 1.49542576,4.52152026 L1.49542576,4.52152026 L1.49542576,8.68059401 C1.49542576,9.0974075 1.16045039,9.43569091 0.747712878,9.43569091 C0.334975369,9.43569091 -4.61852778e-14,9.0974075 -4.61852778e-14,8.68059401 L-4.61852778e-14,8.68059401 L-4.61852778e-14,4.52152026 C-4.61852778e-14,2.07701988 2.09259911,0.0120815505 4.57002111,0.0120815505 L4.57002111,0.0120815505 L10.8827117,0.0120815505 C10.9026507,0.0100679587 10.9195989,3.55271368e-15 10.9405348,3.55271368e-15 Z M10.7516127,12.8951422 C11.1643502,12.8951422 11.4993256,13.2334256 11.4993256,13.6502391 C11.4993256,14.0670526 11.1643502,14.405336 10.7516127,14.405336 L10.7516127,14.405336 L5.37007389,14.405336 C4.95733638,14.405336 4.62236101,14.0670526 4.62236101,13.6502391 C4.62236101,13.2334256 4.95733638,12.8951422 5.37007389,12.8951422 L5.37007389,12.8951422 Z M8.71583978,7.90928769 C9.12857729,7.90928769 9.46355266,8.2475711 9.46355266,8.6643846 C9.46355266,9.08119809 9.12857729,9.4194815 8.71583978,9.4194815 L8.71583978,9.4194815 L5.37007389,9.4194815 C4.95733638,9.4194815 4.62236101,9.08119809 4.62236101,8.6643846 C4.62236101,8.2475711 4.95733638,7.90928769 5.37007389,7.90928769 L5.37007389,7.90928769 Z"></path>
        </g>
    </g>
</svg>