<?xml version="1.0" encoding="UTF-8"?>
<svg width="24px" height="24px" viewBox="0 0 24 24" version="1.1" xmlns="http://www.w3.org/2000/svg" xmlns:xlink="http://www.w3.org/1999/xlink">
    <title>Iconly/Light-Outline/Paper</title>
    <defs>
        <polygon id="path-1" points="0.000296569746 0.1465 17.053 0.1465 17.053 20 0.000296569746 20"></polygon>
    </defs>
    <g id="Iconly/Light-Outline/Paper" stroke="none" stroke-width="1" fill="none" fill-rule="evenodd">
        <g id="Paper" transform="translate(3.000000, 1.000000)">
            <g id="Group-3" transform="translate(0.000000, 0.865200)">
                <mask id="mask-2" fill="white">
                    <use xlink:href="#path-1"></use>
                </mask>
                <g id="Clip-2"></g>
                <path d="M4.5734,1.6465 C2.9164,1.6465 1.5404,2.9885 1.5014,4.6435 L1.5014,15.3385 C1.4644,17.0515 2.8144,18.4625 4.5104,18.5005 L12.5744,18.5005 C14.2434,18.4315 15.5654,17.0445 15.553481,15.3445 L15.553481,6.4745 L10.9184,1.6465 L4.5854,1.6465 L4.5734,1.6465 Z M4.5854,20.0005 L4.4764,20.0005 C1.9544,19.9435 -0.0536,17.8455 0.0014,15.3225 L0.0014,4.6255 C0.0594,2.1445 2.1084,0.1465 4.5714,0.1465 L4.5884,0.1465 L11.2384,0.1465 C11.4424,0.1465 11.6374,0.2295 11.7794,0.3765 L16.8444,5.6535 C16.9784,5.7925 17.0535234,5.9795 17.0535234,6.1725 L17.0535234,15.3385 C17.0714,17.8475 15.1174,19.8975 12.6044,19.9995 L4.5854,20.0005 Z" id="Fill-1" fill="#000000" mask="url(#mask-2)"></path>
            </g>
            <path d="M16.2985,7.9843 L13.5435,7.9843 C11.7135,7.9793 10.2255,6.4873 10.2255,4.6593 L10.2255,1.7503 C10.2255,1.3363 10.5615,1.0003 10.9755,1.0003 C11.3895,1.0003 11.7255,1.3363 11.7255,1.7503 L11.7255,4.6593 C11.7255,5.6633 12.5425,6.4813 13.5455,6.4843 L16.2985,6.4843 C16.7125,6.4843 17.0485,6.8203 17.0485,7.2343 C17.0485,7.6483 16.7125,7.9843 16.2985,7.9843" id="Fill-4" fill="#000000"></path>
            <path d="M10.7887,15.1084 L5.3887,15.1084 C4.9747,15.1084 4.6387,14.7724 4.6387,14.3584 C4.6387,13.9444 4.9747,13.6084 5.3887,13.6084 L10.7887,13.6084 C11.2027,13.6084 11.5387,13.9444 11.5387,14.3584 C11.5387,14.7724 11.2027,15.1084 10.7887,15.1084" id="Fill-6" fill="#000000"></path>
            <path d="M8.7438,11.3564 L5.3878,11.3564 C4.9738,11.3564 4.6378,11.0204 4.6378,10.6064 C4.6378,10.1924 4.9738,9.8564 5.3878,9.8564 L8.7438,9.8564 C9.1578,9.8564 9.4938,10.1924 9.4938,10.6064 C9.4938,11.0204 9.1578,11.3564 8.7438,11.3564" id="Fill-8" fill="#000000"></path>
        </g>
    </g>
</svg>