<?xml version="1.0" encoding="UTF-8"?>
<svg width="24px" height="24px" viewBox="0 0 24 24" version="1.1" xmlns="http://www.w3.org/2000/svg" xmlns:xlink="http://www.w3.org/1999/xlink">
    <title>Iconly/Broken/Paper Download</title>
    <g id="Iconly/Broken/Paper-Download" stroke="none" stroke-width="1" fill="none" fill-rule="evenodd">
        <g id="Paper-Download" transform="translate(3.500000, 2.000000)" fill="#000000" fill-rule="nonzero">
            <path d="M10.9395379,3.55271368e-15 C10.9604738,3.55271368e-15 10.977422,0.0100679587 10.997361,0.0120815505 L10.997361,0.0120815505 L11.2017359,0.0120815505 C11.4051138,0.0120815505 11.5995191,0.0956456079 11.7410861,0.244651397 L11.7410861,0.244651397 L16.7916373,5.55650642 C16.9252287,5.69745784 17,5.88472187 17,6.08004027 L17,6.08004027 L17,15.3314875 C17,17.8625724 14.9552545,20 12.5336617,20 L12.5336617,20 L4.57002111,20 C2.00686137,20 -4.61852778e-14,17.9491568 -4.61852778e-14,15.3314875 L-4.61852778e-14,15.3314875 L-4.61852778e-14,12.8084571 C-4.61852778e-14,12.3916436 0.334975369,12.0533602 0.747712878,12.0533602 C1.16045039,12.0533602 1.49542576,12.3916436 1.49542576,12.8084571 L1.49542576,12.8084571 L1.49542576,15.3314875 C1.49542576,17.1316386 2.81638517,18.4898062 4.57002111,18.4898062 L4.57002111,18.4898062 L12.5336617,18.4898062 C14.1447338,18.4898062 15.5045742,17.0430405 15.5045742,15.3314875 L15.5045742,15.3314875 L15.5045742,6.38308583 L11.6872508,2.36798389 L11.6872508,3.68487289 C11.6872508,4.69569595 12.5017593,5.52026177 13.5026976,5.52227536 C13.9154351,5.52328215 14.2494136,5.86156557 14.2484166,6.27938585 C14.2474197,6.69519255 13.9134412,7.03246917 13.5007037,7.03246917 L13.5007037,7.03246917 C11.6762843,7.02844198 10.191825,5.52730934 10.191825,3.68487289 L10.191825,3.68487289 L10.191825,1.52227536 L4.57002111,1.52227536 C2.90311987,1.52227536 1.49542576,2.89554493 1.49542576,4.52152026 L1.49542576,4.52152026 L1.49542576,8.70375031 C1.49542576,9.12056381 1.16045039,9.45884722 0.747712878,9.45884722 C0.334975369,9.45884722 -4.61852778e-14,9.12056381 -4.61852778e-14,8.70375031 L-4.61852778e-14,8.70375031 L-4.61852778e-14,4.52152026 C-4.61852778e-14,2.07701988 2.09259911,0.0120815505 4.57002111,0.0120815505 L4.57002111,0.0120815505 L10.8817148,0.0120815505 C10.9016538,0.0100679587 10.9195989,3.55271368e-15 10.9395379,3.55271368e-15 Z M8.11547619,6.7363705 C8.5282137,6.7363705 8.86318907,7.07465391 8.86318907,7.4914674 L8.86318907,7.4914674 L8.86318907,12.2797886 L10.4144441,10.7061666 C10.7065506,10.4101686 11.1791051,10.4101686 11.4722085,10.704153 C11.765312,10.9981374 11.7663089,11.4763655 11.4751994,11.7723635 L11.4751994,11.7723635 L8.64585386,14.6427385 C8.64485691,14.6427385 8.64385996,14.6437453 8.64286301,14.6437453 C8.57507037,14.7122074 8.49431738,14.7675812 8.40459184,14.8058394 C8.31386934,14.8440977 8.21616819,14.8642336 8.11547619,14.8642336 C8.01478419,14.8642336 7.91708304,14.8440977 7.82636054,14.8058394 C7.736635,14.7675812 7.65488506,14.7112006 7.58609547,14.6427385 L7.58609547,14.6427385 L4.75575299,11.7723635 C4.46464344,11.4763655 4.46564039,10.9981374 4.75774689,10.704153 C5.05085034,10.4101686 5.52440183,10.4101686 5.81551138,10.7061666 L5.81551138,10.7061666 L7.36776331,12.2807954 L7.36776331,7.4914674 C7.36776331,7.07465391 7.70273868,6.7363705 8.11547619,6.7363705 Z"></path>
        </g>
    </g>
</svg>