<?xml version="1.0" encoding="UTF-8"?>
<svg width="24px" height="24px" viewBox="0 0 24 24" version="1.1" xmlns="http://www.w3.org/2000/svg" xmlns:xlink="http://www.w3.org/1999/xlink">
    <title>Iconly/Light-Outline/Paper Negative</title>
    <g id="Iconly/Light-Outline/Paper-Negative" stroke="none" stroke-width="1" fill="none" fill-rule="evenodd">
        <g id="Group-7" transform="translate(3.000000, 2.000000)" fill="#000000">
            <path d="M4.5719,1.5117 C2.9149,1.5117 1.5399,2.8537 1.5009,4.5087 L1.5009,15.3397 C1.4719,16.9867 2.7789,18.3387 4.4129,18.3667 L4.5609,18.3657 L12.5729,18.3657 C14.2149,18.3477 15.5539,16.9907 15.5519022,15.3407 L15.5519022,6.3417 L10.9169,1.5117 L4.5849,1.5117 L4.5719,1.5117 Z M4.3989,19.8667 C1.9259,19.8237 -0.0411,17.7867 0.0009,15.3267 L0.0009,4.4907 C0.0579,2.0097 2.1059,0.0117 4.5689,0.0117 L4.5879,0.0117 L11.2359,0.0117 C11.4399,0.0117 11.6349,0.0947 11.7769,0.2417 L16.8429,5.5207 C16.9769,5.6597 17.051906,5.8467 17.051906,6.0397 L17.051906,15.3397 C17.0559,17.8087 15.0499,19.8397 12.5809,19.8657 L4.3989,19.8667 Z" id="Fill-1"></path>
            <path d="M16.2966,6.9844 L13.5426,6.9844 C11.7116,6.9794 10.2236,5.4874 10.2236,3.6594 L10.2236,0.7504 C10.2236,0.3364 10.5596,0.0004 10.9736,0.0004 C11.3876,0.0004 11.7236,0.3364 11.7236,0.7504 L11.7236,3.6594 C11.7236,4.6634 12.5406,5.4814 13.5446,5.4844 L16.2966,5.4844 C16.7106,5.4844 17.0466,5.8204 17.0466,6.2344 C17.0466,6.6484 16.7106,6.9844 16.2966,6.9844" id="Fill-3"></path>
            <path d="M10.7926,12.4971 L5.8936,12.4971 C5.4796,12.4971 5.1436,12.1611 5.1436,11.7471 C5.1436,11.3331 5.4796,10.9971 5.8936,10.9971 L10.7926,10.9971 C11.2066,10.9971 11.5426,11.3331 11.5426,11.7471 C11.5426,12.1611 11.2066,12.4971 10.7926,12.4971" id="Fill-5"></path>
        </g>
    </g>
</svg>