<?xml version="1.0" encoding="UTF-8"?>
<svg width="24px" height="24px" viewBox="0 0 24 24" version="1.1" xmlns="http://www.w3.org/2000/svg" xmlns:xlink="http://www.w3.org/1999/xlink">
    <title>Iconly/Broken/Paper Fail</title>
    <g id="Iconly/Broken/Paper-Fail" stroke="none" stroke-width="1" fill="none" fill-rule="evenodd">
        <g id="Paper-Fail" transform="translate(3.500000, 2.000000)" fill="#000000" fill-rule="nonzero">
            <path d="M10.9395379,-7.10542736e-15 C10.9604738,-7.10542736e-15 10.977422,0.0100674519 10.997361,0.0120809423 L10.997361,0.0120809423 L11.2017359,0.0120809423 C11.4051138,0.0120809423 11.5995191,0.0956407933 11.7410861,0.244639082 L11.7410861,0.244639082 L16.7916373,5.55622672 C16.9252287,5.69717105 17,5.88442565 17,6.07973422 L17,6.07973422 L17,15.4434713 C17,17.9553005 14.9971264,20 12.5336617,20 L12.5336617,20 L4.67470091,20 C2.05371804,20 -4.61852778e-14,17.9985906 -4.61852778e-14,15.4434713 L-4.61852778e-14,15.4434713 L-4.61852778e-14,12.9205678 C-4.61852778e-14,12.5037753 0.334975369,12.1655089 0.747712878,12.1655089 C1.16045039,12.1655089 1.49542576,12.5037753 1.49542576,12.9205678 L1.49542576,12.9205678 L1.49542576,15.4434713 C1.49542576,17.1801067 2.8622449,18.4898822 4.67470091,18.4898822 L4.67470091,18.4898822 L12.5336617,18.4898822 C14.1726484,18.4898822 15.5045742,17.1227222 15.5045742,15.4434713 L15.5045742,15.4434713 L15.5045742,6.38276452 L11.6872508,2.36887144 L11.6872508,3.68569415 C11.6872508,4.69646632 12.5017593,5.51998389 13.5026976,5.52199738 C13.9154351,5.52300413 14.2494136,5.86127051 14.2484166,6.27906977 C14.2474197,6.69485553 13.9134412,7.03211517 13.5007037,7.03211517 L13.5007037,7.03211517 C11.6762843,7.02808819 10.191825,5.52703111 10.191825,3.68569415 L10.191825,3.68569415 L10.191825,1.52219873 L4.46434436,1.52219873 C2.82735163,1.52219873 1.49542576,2.86721031 1.49542576,4.52129266 L1.49542576,4.52129266 L1.49542576,8.81606765 C1.49542576,9.23286016 1.16045039,9.57112655 0.747712878,9.57112655 C0.334975369,9.57112655 -4.61852778e-14,9.23286016 -4.61852778e-14,8.81606765 L-4.61852778e-14,8.81606765 L-4.61852778e-14,4.52129266 C-4.61852778e-14,2.03463203 2.00287356,0.0120809423 4.46434436,0.0120809423 L4.46434436,0.0120809423 L10.8827117,0.0120809423 C10.9026507,0.0100674519 10.9195989,-7.10542736e-15 10.9395379,-7.10542736e-15 Z M6.06185785,8.71046008 C6.35396434,8.41548374 6.82751583,8.41548374 7.11962233,8.71046008 L7.11962233,8.71046008 L8.31795684,9.92157455 L9.51728829,8.71046008 C9.80939479,8.41548374 10.2819493,8.41548374 10.5740558,8.71046008 C10.8661623,9.00543642 10.8661623,9.48263365 10.5740558,9.77760999 L10.5740558,9.77760999 L9.37572132,10.9887245 L10.5740558,12.1988322 C10.8661623,12.4938085 10.8661623,12.9720125 10.5740558,13.2669888 C10.4285011,13.4139736 10.2370866,13.4884728 10.0456721,13.4884728 C9.85425757,13.4884728 9.66284307,13.4139736 9.51728829,13.2669888 L9.51728829,13.2669888 L8.31795684,12.0568811 L7.11962233,13.2669888 C6.97307061,13.4139736 6.78165611,13.4884728 6.59024161,13.4884728 C6.39882712,13.4884728 6.20741262,13.4139736 6.06185785,13.2669888 C5.76975135,12.9720125 5.76975135,12.4938085 6.06185785,12.1988322 L6.06185785,12.1988322 L7.2611893,10.9887245 L6.06185785,9.77760999 C5.76975135,9.48263365 5.76975135,9.00543642 6.06185785,8.71046008 Z"></path>
        </g>
    </g>
</svg>