<?xml version="1.0" encoding="UTF-8"?>
<svg width="24px" height="24px" viewBox="0 0 24 24" version="1.1" xmlns="http://www.w3.org/2000/svg" xmlns:xlink="http://www.w3.org/1999/xlink">
    <title>Iconly/Broken/Paper Negative</title>
    <g id="Iconly/Broken/Paper-Negative" stroke="none" stroke-width="1" fill="none" fill-rule="evenodd">
        <g id="Paper-Negative" transform="translate(3.500000, 2.000000)" fill="#000000" fill-rule="nonzero">
            <path d="M10.9395379,-7.10542736e-15 C10.9604738,-7.10542736e-15 10.977422,0.0100674519 10.997361,0.0120809423 L10.997361,0.0120809423 L11.2017359,0.0120809423 C11.4051138,0.0120809423 11.5995191,0.0956407933 11.7410861,0.244639082 L11.7410861,0.244639082 L16.7916373,5.55622672 C16.9252287,5.69717105 17,5.88442565 17,6.07973422 L17,6.07973422 L17,15.4434713 C17,17.9553005 14.9971264,20 12.5336617,20 L12.5336617,20 L4.57002111,20 C1.96399249,20 -4.61852778e-14,18.0408739 -4.61852778e-14,15.4434713 L-4.61852778e-14,15.4434713 L-4.61852778e-14,12.9205678 C-4.61852778e-14,12.5037753 0.334975369,12.1655089 0.747712878,12.1655089 C1.16045039,12.1655089 1.49542576,12.5037753 1.49542576,12.9205678 L1.49542576,12.9205678 L1.49542576,15.4434713 C1.49542576,17.2082956 2.78847056,18.4898822 4.57002111,18.4898822 L4.57002111,18.4898822 L12.5336617,18.4898822 C14.1726484,18.4898822 15.5045742,17.1227222 15.5045742,15.4434713 L15.5045742,15.4434713 L15.5045742,6.38276452 L11.6872508,2.36887144 L11.6872508,3.68569415 C11.6872508,4.69646632 12.5017593,5.51998389 13.5026976,5.52199738 C13.9154351,5.52300413 14.2494136,5.86127051 14.2484166,6.27906977 C14.2474197,6.69485553 13.9134412,7.03211517 13.5007037,7.03211517 L13.5007037,7.03211517 C11.6762843,7.02808819 10.191825,5.52703111 10.191825,3.68569415 L10.191825,3.68569415 L10.191825,1.52219873 L4.57002111,1.52219873 C2.90311987,1.52219873 1.49542576,2.89539917 1.49542576,4.52129266 L1.49542576,4.52129266 L1.49542576,8.81606765 C1.49542576,9.23286016 1.16045039,9.57112655 0.747712878,9.57112655 C0.334975369,9.57112655 -4.61852778e-14,9.23286016 -4.61852778e-14,8.81606765 L-4.61852778e-14,8.81606765 L-4.61852778e-14,4.52129266 C-4.61852778e-14,2.07691533 2.09259911,0.0120809423 4.57002111,0.0120809423 L4.57002111,0.0120809423 L10.8817148,0.0120809423 C10.9016538,0.0100674519 10.9186019,-7.10542736e-15 10.9395379,-7.10542736e-15 Z M10.7612831,11.0716803 C11.1740206,11.0716803 11.508996,11.4099466 11.508996,11.8267392 C11.508996,12.2435317 11.1740206,12.581798 10.7612831,12.581798 L10.7612831,12.581798 L5.87522871,12.581798 C5.4624912,12.581798 5.12751583,12.2435317 5.12751583,11.8267392 C5.12751583,11.4099466 5.4624912,11.0716803 5.87522871,11.0716803 L5.87522871,11.0716803 Z"></path>
        </g>
    </g>
</svg>