<?xml version="1.0" encoding="UTF-8"?>
<svg width="24px" height="24px" viewBox="0 0 24 24" version="1.1" xmlns="http://www.w3.org/2000/svg" xmlns:xlink="http://www.w3.org/1999/xlink">
    <title>Iconly/Light-Outline/Password</title>
    <defs>
        <polygon id="path-1" points="0.0001 0 20 0 20 20 0.0001 20"></polygon>
    </defs>
    <g id="Iconly/Light-Outline/Password" stroke="none" stroke-width="1" fill="none" fill-rule="evenodd">
        <g id="Password" transform="translate(2.000000, 2.000000)">
            <g id="Group-3">
                <mask id="mask-2" fill="white">
                    <use xlink:href="#path-1"></use>
                </mask>
                <g id="Clip-2"></g>
                <path d="M5.6641,1.5 C3.1351,1.5 1.5001,3.233 1.5001,5.916 L1.5001,14.084 C1.5001,16.767 3.1351,18.5 5.6641,18.5 L14.3321,18.5 C16.8641,18.5 18.5001,16.767 18.5001,14.084 L18.5001,5.916 C18.5001,3.233 16.8641,1.5 14.3341,1.5 L5.6641,1.5 Z M14.3321,20 L5.6641,20 C2.2761,20 0.0001,17.622 0.0001,14.084 L0.0001,5.916 C0.0001,2.378 2.2761,0 5.6641,0 L14.3341,0 C17.7231,0 20.0001,2.378 20.0001,5.916 L20.0001,14.084 C20.0001,17.622 17.7231,20 14.3321,20 L14.3321,20 Z" id="Fill-1" fill="#000000" mask="url(#mask-2)"></path>
            </g>
            <path d="M6.8389,8.8984 C6.2289,8.8984 5.7349,9.3924 5.7349,10.0004 C5.7349,10.6084 6.2289,11.1024 6.8369,11.1024 C7.4439,11.1024 7.9389,10.6084 7.9389,10.0004 C7.9389,9.3934 7.4449,8.8994 6.8389,8.8984 M6.8369,12.6024 C5.4019,12.6024 4.2349,11.4344 4.2349,10.0004 C4.2349,8.5654 5.4019,7.3984 6.8369,7.3984 C8.2739,7.3994 9.4389,8.5664 9.4389,10.0004 C9.4389,11.4344 8.2719,12.6024 6.8369,12.6024" id="Fill-4" fill="#000000"></path>
            <path d="M15.0098,12.6025 C14.5958,12.6025 14.2598,12.2665 14.2598,11.8525 L14.2598,10.7495 L8.6918,10.7495 C8.2778,10.7495 7.9418,10.4145 7.9418,9.9995 C7.9418,9.5855 8.2778,9.2495 8.6918,9.2495 L15.0098,9.2495 C15.4238,9.2495 15.7598,9.5855 15.7598,9.9995 L15.7598,11.8525 C15.7598,12.2665 15.4238,12.6025 15.0098,12.6025" id="Fill-6" fill="#000000"></path>
            <path d="M12.1816,12.6025 C11.7676,12.6025 11.4316,12.2665 11.4316,11.8525 L11.4316,9.9995 C11.4316,9.5855 11.7676,9.2495 12.1816,9.2495 C12.5956,9.2495 12.9316,9.5855 12.9316,9.9995 L12.9316,11.8525 C12.9316,12.2665 12.5956,12.6025 12.1816,12.6025" id="Fill-8" fill="#000000"></path>
        </g>
    </g>
</svg>