<?xml version="1.0" encoding="UTF-8"?>
<svg width="24px" height="24px" viewBox="0 0 24 24" version="1.1" xmlns="http://www.w3.org/2000/svg" xmlns:xlink="http://www.w3.org/1999/xlink">
    <title>Iconly/Broken/Password</title>
    <g id="Iconly/Broken/Password" stroke="none" stroke-width="1" fill="none" fill-rule="evenodd">
        <g id="Password" transform="translate(2.000400, 1.999800)" fill="#000000" fill-rule="nonzero">
            <path d="M14.334,0 C17.723,0 20,2.378 20,5.916 L20,5.916 L20,14.084 C20,17.622 17.722,20 14.333,20 L14.333,20 L8.953,20 C8.539,20 8.203,19.664 8.203,19.25 C8.203,18.836 8.539,18.5 8.953,18.5 L8.953,18.5 L14.333,18.5 C16.864,18.5 18.5,16.767 18.5,14.084 L18.5,14.084 L18.5,5.916 C18.5,3.233 16.864,1.5 14.334,1.5 L14.334,1.5 L5.665,1.5 C3.135,1.5 1.5,3.233 1.5,5.916 L1.5,5.916 L1.5,14.084 C1.5,16.767 3.135,18.5 5.665,18.5 C6.079,18.5 6.415,18.836 6.415,19.25 C6.415,19.664 6.079,20 5.665,20 C2.276,20 0,17.622 0,14.084 L0,14.084 L0,5.916 C0,2.378 2.276,0 5.665,0 L5.665,0 Z M6.84,7.3986 C8.013,7.3986 8.994,8.1826 9.318,9.2496 L9.318,9.2496 L15.01,9.2496 C15.424,9.2496 15.76,9.5856 15.76,9.9996 L15.76,9.9996 L15.76,11.8516 C15.76,12.2656 15.424,12.6016 15.01,12.6016 C14.596,12.6016 14.26,12.2656 14.26,11.8516 L14.26,11.8516 L14.26,10.7496 L12.931,10.7496 L12.931,11.8516 C12.931,12.2656 12.595,12.6016 12.181,12.6016 C11.767,12.6016 11.431,12.2656 11.431,11.8516 L11.431,11.8516 L11.431,10.7496 L9.318,10.7496 C8.994,11.8176 8.013,12.6016 6.84,12.6016 C5.406,12.6016 4.239,11.4346 4.239,9.9996 C4.239,9.6286 4.315,9.2706 4.467,8.9326 C4.637,8.5546 5.079,8.3856 5.459,8.5566 C5.837,8.7256 6.005,9.1696 5.835,9.5476 C5.771,9.6906 5.739,9.8426 5.739,9.9996 C5.739,10.6076 6.233,11.1016 6.84,11.1016 C7.448,11.1016 7.942,10.6076 7.942,9.9996 C7.942,9.3926 7.448,8.8986 6.84,8.8986 C6.426,8.8986 6.09,8.5626 6.09,8.1486 C6.09,7.7346 6.426,7.3986 6.84,7.3986 Z"></path>
        </g>
    </g>
</svg>