<?xml version="1.0" encoding="UTF-8"?>
<svg width="24px" height="24px" viewBox="0 0 24 24" version="1.1" xmlns="http://www.w3.org/2000/svg" xmlns:xlink="http://www.w3.org/1999/xlink">
    <title>Iconly/Broken/Play</title>
    <g id="Iconly/Broken/Play" stroke="none" stroke-width="1" fill="none" fill-rule="evenodd">
        <g id="Play" transform="translate(2.000100, 1.999800)" fill="#000000" fill-rule="nonzero">
            <path d="M10,0 C15.514,0 20,4.485 20,10 C20,15.514 15.514,20 10,20 C8.605,20 7.255,19.719 5.987,19.162 C5.621,19.002 5.455,18.575 5.615,18.209 C5.775,17.841 6.201,17.676 6.569,17.837 C7.652,18.312 8.806,18.553 10,18.553 C14.715,18.553 18.552,14.715 18.552,10 C18.552,5.284 14.715,1.448 10,1.448 C5.284,1.448 1.448,5.284 1.448,10 C1.448,11.847 2.026,13.604 3.122,15.084 C3.359,15.405 3.292,15.858 2.971,16.096 C2.649,16.335 2.196,16.269 1.958,15.945 C0.677,14.216 0,12.16 0,10 C0,4.485 4.486,0 10,0 Z M8.8639,6.0304 C9.0869,6.0364 9.4949,6.1884 9.6599,6.2534 C10.6791941,6.64869412 12.5656993,7.9041128 13.4444097,8.75492331 L13.5969,8.9094 L13.6759,8.9944 C13.7699,9.0934 13.8859,9.2194 13.9129,9.2534 C14.0799,9.4664 14.1709,9.7314 14.1709,10.0004 C14.1709,10.2554 14.0909,10.5014 13.9409,10.7084 C13.9129,10.746 13.81194,10.85912 13.721476,10.957136 L13.6569,11.0264 L13.6079,11.0784 C12.7939,11.9544 10.7789,13.2784 9.7609,13.7074 C9.75544545,13.7101273 9.25412314,13.9186397 8.94288347,13.9617877 L8.8559,13.9694 L8.8199,13.9694 C8.3779,13.9694 7.9599,13.7164 7.7539,13.3184 C7.66808182,13.1518545 7.58490826,12.7642182 7.54553937,12.5628598 L7.5248692,12.4531333 L7.5219,12.4364 C7.4269,11.8584 7.3729,10.9694 7.37484634,9.9994 C7.3729,8.9734 7.4329,8.0524 7.5379,7.4734 C7.5389,7.4654 7.6389,6.9424 7.7139,6.7664 C7.8159,6.5194 8.0079,6.3074 8.2509,6.1754 C8.4469,6.0724 8.6519,6.0274 8.8639,6.0304 Z M8.9989,7.5504 C8.9839,7.6194 8.9699,7.6874 8.9619,7.7334 C8.8749,8.2144 8.8209,9.0834 8.82188468,9.9994 C8.8209,10.8824 8.8689,11.7064 8.9509,12.2014 C8.9609,12.2634 8.9799,12.3584 9.0009,12.4504 C9.0729,12.4214 9.1509,12.3924 9.1999,12.3724 C10.1259,11.9824 11.9399,10.7474 12.5469,10.0914 C12.5519,10.0924 12.6039,10.0334 12.6049,10.0314 C12.6139,10.0214 12.6239,10.0104 12.6349,10.0004 L12.6279,9.9929 L12.6279,9.9929 L12.6209,9.9854 L12.5369,9.8964 C11.9099,9.2254 9.9989,7.9374 9.1319,7.6004 C9.1009,7.5884 9.0529,7.5704 8.9989,7.5504 Z"></path>
        </g>
    </g>
</svg>