<?xml version="1.0" encoding="UTF-8"?>
<svg width="24px" height="24px" viewBox="0 0 24 24" version="1.1" xmlns="http://www.w3.org/2000/svg" xmlns:xlink="http://www.w3.org/1999/xlink">
    <title>Iconly/Light-Outline/Play</title>
    <g id="Iconly/Light-Outline/Play" stroke="none" stroke-width="1" fill="none" fill-rule="evenodd">
        <g id="Play" transform="translate(2.000000, 2.000000)" fill="#000000">
            <path d="M10.25,1.5 C5.425,1.5 1.5,5.425 1.5,10.25 C1.5,15.075 5.425,19 10.25,19 C15.075,19 19,15.075 19,10.25 C19,5.425 15.075,1.5 10.25,1.5 M10.25,20.5 C4.598,20.5 0,15.902 0,10.25 C0,4.598 4.598,0 10.25,0 C15.902,0 20.5,4.598 20.5,10.25 C20.5,15.902 15.902,20.5 10.25,20.5" id="Fill-1"></path>
            <path d="M9.1338,8.0864 C8.9568,9.0874 8.9538,11.4784 9.1308,12.4284 C10.0088,12.1184 11.9108,10.8684 12.4228,10.2494 C11.9128,9.6484 10.0348,8.4244 9.1338,8.0864 L9.1338,8.0864 Z M8.8278,14.0014 C8.5578,14.0014 8.3018,13.9244 8.0928,13.7164 C7.9318,13.5574 7.5018,13.1324 7.49979832,10.3334 C7.4988,7.3614 7.9458,6.9194 8.0928,6.7724 C8.6158,6.2544 9.4678,6.6094 9.8308,6.7614 C10.3508,6.9784 13.9997983,8.8474 13.9997983,10.2454 C13.9997983,11.5554 10.7158,13.3874 9.8768,13.7374 C9.5498,13.8734 9.1768,14.0014 8.8278,14.0014 L8.8278,14.0014 Z" id="Fill-3"></path>
        </g>
    </g>
</svg>