<?xml version="1.0" encoding="UTF-8"?>
<svg width="24px" height="24px" viewBox="0 0 24 24" version="1.1" xmlns="http://www.w3.org/2000/svg" xmlns:xlink="http://www.w3.org/1999/xlink">
    <title>Iconly/Light-Outline/Plus</title>
    <g id="Iconly/Light-Outline/Plus" stroke="none" stroke-width="1" fill="none" fill-rule="evenodd">
        <g id="Plus" transform="translate(1.000000, 1.000000)" fill="#000000">
            <path d="M10.75,15.1543 C10.336,15.1543 10,14.8183 10,14.4043 L10,7.0773 C10,6.6633 10.336,6.3273 10.75,6.3273 C11.164,6.3273 11.5,6.6633 11.5,7.0773 L11.5,14.4043 C11.5,14.8183 11.164,15.1543 10.75,15.1543" id="Fill-1"></path>
            <path d="M14.4165,11.4902 L7.0835,11.4902 C6.6685,11.4902 6.3335,11.1542 6.3335,10.7402 C6.3335,10.3262 6.6685,9.9902 7.0835,9.9902 L14.4165,9.9902 C14.8305,9.9902 15.1665,10.3262 15.1665,10.7402 C15.1665,11.1542 14.8305,11.4902 14.4165,11.4902" id="Fill-3"></path>
            <path d="M6.064,1.5 C3.292,1.5 1.5,3.397 1.5,6.335 L1.5,15.165 C1.5,18.103 3.292,20 6.064,20 L15.436,20 C18.209,20 20,18.103 20,15.165 L20,6.335 C20,3.397 18.209,1.5 15.436,1.5 L6.064,1.5 Z M15.436,21.5 L6.064,21.5 C2.437,21.5 0,18.954 0,15.165 L0,6.335 C0,2.546 2.437,0 6.064,0 L15.436,0 C19.063,0 21.5,2.546 21.5,6.335 L21.5,15.165 C21.5,18.954 19.063,21.5 15.436,21.5 L15.436,21.5 Z" id="Fill-5"></path>
        </g>
    </g>
</svg>