<?xml version="1.0" encoding="UTF-8"?>
<svg width="24px" height="24px" viewBox="0 0 24 24" version="1.1" xmlns="http://www.w3.org/2000/svg" xmlns:xlink="http://www.w3.org/1999/xlink">
    <title>Iconly/Broken/Scan</title>
    <g id="Iconly/Broken/Scan" stroke="none" stroke-width="1" fill="none" fill-rule="evenodd">
        <g id="Scan" transform="translate(1.000000, 3.000000)" fill="#000000" fill-rule="nonzero">
            <path d="M21.239,9.04118544 C21.659,9.04118544 22,9.37557202 22,9.78840706 C22,10.2002615 21.659,10.5346481 21.239,10.5346481 L21.239,10.5346481 L20.177,10.5346481 L20.177,14.0932665 C20.177,16.248638 18.39,18 16.194,18 L16.194,18 L14.601,18 C14.181,18 13.84,17.6656134 13.84,17.2527784 C13.84,16.8409239 14.181,16.5065374 14.601,16.5065374 L14.601,16.5065374 L16.194,16.5065374 C17.551,16.5065374 18.655,15.4249292 18.655,14.0932665 L18.655,14.0932665 L18.655,10.5346481 L3.346,10.5346481 L3.346,14.0962083 C3.346,15.4239486 4.447,16.5035956 5.8,16.5055568 L5.8,16.5055568 L7.428,16.5065374 C7.848,16.5065374 8.189,16.8409239 8.189,17.2527784 C8.188,17.6656134 7.848,18 7.427,18 L7.427,18 L5.799,17.9990194 C3.607,17.9970582 1.823,16.2466768 1.823,14.0962083 L1.823,14.0962083 L1.823,10.5346481 L0.761,10.5346481 C0.342,10.5346481 0,10.2002615 0,9.78840706 C0,9.37557202 0.342,9.04118544 0.761,9.04118544 L0.761,9.04118544 Z M12.8591,12.7739595 C13.2791,12.7739595 13.6201,13.108346 13.6201,13.5202005 C13.6201,13.9330355 13.2791,14.2664415 12.8591,14.2664415 L12.8591,14.2664415 L9.1421,14.2664415 C8.7211,14.2664415 8.3801,13.9330355 8.3801,13.5202005 C8.3801,13.108346 8.7211,12.7739595 9.1421,12.7739595 L9.1421,12.7739595 Z M7.4277,7.32747196e-14 C7.8477,7.32747196e-14 8.1887,0.334386577 8.1887,0.747221617 C8.1887,1.15907605 7.8487,1.49346263 7.4277,1.49346263 L7.4277,1.49346263 L5.7997,1.49444323 C4.4467,1.49640445 3.3467,2.57605143 3.3467,3.90281107 L3.3467,3.90281107 L3.3467,5.76203966 C3.3467,6.17389409 3.0047,6.50926128 2.5847,6.50926128 C2.1647,6.50926128 1.8237,6.17389409 1.8237,5.76203966 L1.8237,5.76203966 L1.8237,3.90281107 C1.8237,1.75332316 3.6067,0.00294181739 5.7977,0.000980605797 L5.7977,0.000980605797 Z M12.8588,5.01579865 C13.2798,5.01579865 13.6208,5.35018523 13.6208,5.76203966 C13.6208,6.17389409 13.2798,6.50926128 12.8588,6.50926128 L12.8588,6.50926128 L9.1418,6.50926128 C8.7218,6.50926128 8.3808,6.17389409 8.3808,5.76203966 C8.3808,5.35018523 8.7218,5.01579865 9.1418,5.01579865 L9.1418,5.01579865 Z M16.1938,0.000686424058 C18.3908,0.000686424058 20.1768,1.75204838 20.1768,3.90643931 L20.1768,3.90643931 L20.1768,5.76272608 C20.1768,6.17359991 19.8358,6.5089671 19.4158,6.5089671 C18.9958,6.5089671 18.6548,6.17359991 18.6548,5.76272608 L18.6548,5.76272608 L18.6548,3.90643931 C18.6548,2.57575725 17.5508,1.49316845 16.1938,1.49316845 L16.1938,1.49316845 L14.6008,1.49316845 C14.1808,1.49316845 13.8398,1.15878187 13.8398,0.746927435 C13.8398,0.334092395 14.1808,0.000686424058 14.6008,0.000686424058 L14.6008,0.000686424058 Z"></path>
        </g>
    </g>
</svg>