<?xml version="1.0" encoding="UTF-8"?>
<svg width="24px" height="24px" viewBox="0 0 24 24" version="1.1" xmlns="http://www.w3.org/2000/svg" xmlns:xlink="http://www.w3.org/1999/xlink">
    <title>Iconly/Light-Outline/Scan</title>
    <g id="Iconly/Light-Outline/Scan" stroke="none" stroke-width="1" fill="none" fill-rule="evenodd">
        <g id="Scan" transform="translate(1.000000, 3.000000)" fill="#000000">
            <path d="M21.75,10.955 L0.75,10.955 C0.336,10.955 0,10.619 0,10.205 C0,9.791 0.336,9.455 0.75,9.455 L21.75,9.455 C22.164,9.455 22.5,9.791 22.5,10.205 C22.5,10.619 22.164,10.955 21.75,10.955" id="Fill-1"></path>
            <path d="M19.8799,6.7451 C19.4659,6.7451 19.1299,6.4091 19.1299,5.9951 L19.1299,4.4811 C19.1299,2.8381 17.7919,1.5001 16.1469,1.5001 L14.9419,1.5001 C14.5279,1.5001 14.1919,1.1641 14.1919,0.7501 C14.1919,0.3361 14.5279,0.0001 14.9419,0.0001 L16.1469,0.0001 C18.6189,0.0001 20.6299,2.0111 20.6299,4.4811 L20.6299,5.9951 C20.6299,6.4091 20.2939,6.7451 19.8799,6.7451" id="Fill-3"></path>
            <path d="M2.6201,6.7451 C2.2061,6.7451 1.8701,6.4091 1.8701,5.9951 L1.8701,4.4811 C1.8701,2.0111 3.8811,0.0001 6.3531,0.0001 L7.5891,0.0001 C8.0031,0.0001 8.3391,0.3361 8.3391,0.7501 C8.3391,1.1641 8.0031,1.5001 7.5891,1.5001 L6.3531,1.5001 C4.7081,1.5001 3.3701,2.8381 3.3701,4.4811 L3.3701,5.9951 C3.3701,6.4091 3.0341,6.7451 2.6201,6.7451" id="Fill-5"></path>
            <path d="M16.147,18.7607 L14.942,18.7607 C14.528,18.7607 14.192,18.4247 14.192,18.0107 C14.192,17.5967 14.528,17.2607 14.942,17.2607 L16.147,17.2607 C17.792,17.2607 19.13,15.9227 19.13,14.2787 L19.13,10.2037 C19.13,9.7897 19.466,9.4537 19.88,9.4537 C20.294,9.4537 20.63,9.7897 20.63,10.2037 L20.63,14.2787 C20.63,16.7497 18.619,18.7607 16.147,18.7607" id="Fill-7"></path>
            <path d="M7.5889,18.7607 L6.3529,18.7607 C3.8809,18.7607 1.8699,16.7497 1.8699,14.2787 L1.8699,10.2037 C1.8699,9.7897 2.2059,9.4537 2.6199,9.4537 C3.0339,9.4537 3.3699,9.7897 3.3699,10.2037 L3.3699,14.2787 C3.3699,15.9227 4.7079,17.2607 6.3529,17.2607 L7.5889,17.2607 C8.0029,17.2607 8.3389,17.5967 8.3389,18.0107 C8.3389,18.4247 8.0029,18.7607 7.5889,18.7607" id="Fill-9"></path>
        </g>
    </g>
</svg>