<?xml version="1.0" encoding="UTF-8"?>
<svg width="24px" height="24px" viewBox="0 0 24 24" version="1.1" xmlns="http://www.w3.org/2000/svg" xmlns:xlink="http://www.w3.org/1999/xlink">
    <title>Iconly/Light-Outline/Search</title>
    <defs>
        <polygon id="path-1" points="0 0.2783 19.4768 0.2783 19.4768 19.7553 0 19.7553"></polygon>
        <polygon id="path-3" points="0.23994936 0.98525 5.264 0.98525 5.264 6 0.23994936 6"></polygon>
    </defs>
    <g id="Iconly/Light-Outline/Search" stroke="none" stroke-width="1" fill="none" fill-rule="evenodd">
        <g id="Search" transform="translate(2.000000, 1.000000)">
            <g id="Group-3" transform="translate(0.000000, 0.721700)">
                <mask id="mask-2" fill="white">
                    <use xlink:href="#path-1"></use>
                </mask>
                <g id="Clip-2"></g>
                <path d="M9.7388,1.7783 C5.1958,1.7783 1.4998,5.4733 1.4998,10.0163 C1.4998,14.5593 5.1958,18.2553 9.7388,18.2553 C14.2808,18.2553 17.9768,14.5593 17.9768,10.0163 C17.9768,5.4733 14.2808,1.7783 9.7388,1.7783 M9.7388,19.7553 C4.3688,19.7553 -0.0002,15.3863 -0.0002,10.0163 C-0.0002,4.6463 4.3688,0.2783 9.7388,0.2783 C15.1088,0.2783 19.4768,4.6463 19.4768,10.0163 C19.4768,15.3863 15.1088,19.7553 9.7388,19.7553" id="Fill-1" fill="#000000" mask="url(#mask-2)"></path>
            </g>
            <g id="Group-6" transform="translate(15.000000, 15.721700)">
                <mask id="mask-4" fill="white">
                    <use xlink:href="#path-3"></use>
                </mask>
                <g id="Clip-5"></g>
                <path d="M4.5142,6 C4.3232,6 4.1312,5.927 3.9842,5.781 L0.4602,2.267 C0.1672,1.974 0.1662,1.499 0.4592,1.206 C0.7512,0.911 1.2262,0.913 1.5202,1.204 L5.0442,4.719 C5.3372,5.012 5.3382,5.486 5.0452,5.779 C4.8992,5.927 4.7062,6 4.5142,6" id="Fill-4" fill="#000000" mask="url(#mask-4)"></path>
            </g>
        </g>
    </g>
</svg>