<?xml version="1.0" encoding="UTF-8"?>
<svg width="24px" height="24px" viewBox="0 0 24 24" version="1.1" xmlns="http://www.w3.org/2000/svg" xmlns:xlink="http://www.w3.org/1999/xlink">
    <title>Iconly/Broken/Send</title>
    <g id="Iconly/Broken/Send" stroke="none" stroke-width="1" fill="none" fill-rule="evenodd">
        <g id="Send" transform="translate(2.000000, 2.000000)" fill="#000000" fill-rule="nonzero">
            <path d="M13.4340757,5.48007191 C13.7270859,5.18518462 14.2011023,5.18518462 14.4941125,5.48007191 C14.7871227,5.7749592 14.7871227,6.2530188 14.4941125,6.54790609 L14.4941125,6.54790609 L9.08992457,11.9877211 L12.8840565,18.2699275 C13.0220613,18.4983896 13.2390689,18.4963768 13.329072,18.4863123 C13.4170751,18.474235 13.6300825,18.4198872 13.7060851,18.1642511 L13.7060851,18.1642511 L16.0281659,10.3492347 C16.1481701,9.94867111 16.5651846,9.72121539 16.9621984,9.84198834 C17.3592122,9.96175485 17.58522,10.3824473 17.4662159,10.7820045 L17.4662159,10.7820045 L15.1441351,18.5960144 C14.9191273,19.3518518 14.2971057,19.8832528 13.5200787,19.9828905 C13.4330756,19.9949678 13.3470726,20 13.2610696,20 C12.5830461,20 11.9630245,19.6517713 11.6020119,19.0539452 L11.6020119,19.0539452 L7.50186933,12.2644925 C7.32286311,11.9665858 7.36786467,11.5841382 7.61287319,11.3385665 L7.61287319,11.3385665 Z M17.5039172,0.0772939265 C18.188941,-0.121981443 18.9309669,0.0702488377 19.4339843,0.58252744 C19.9370018,1.0937996 20.1230083,1.83957258 19.9180012,2.52999128 L19.9180012,2.52999128 L18.6689577,6.73188355 C18.5499536,7.13144073 18.1339391,7.35789002 17.7359253,7.23912995 C17.3389115,7.11936344 17.1129036,6.69867099 17.2319078,6.30012025 L17.2319078,6.30012025 L18.4809512,2.09722154 C18.5509536,1.86171428 18.4259493,1.70269656 18.3689473,1.64532941 C18.3119453,1.58695582 18.1519398,1.46014422 17.9209317,1.52757579 L17.9209317,1.52757579 L1.82937204,6.20652121 C1.57336313,6.28099787 1.51736118,6.49536986 1.50536077,6.58393669 C1.49436038,6.67250352 1.49036024,6.8939206 1.71836817,7.03482237 L1.71836817,7.03482237 L5.10448595,9.11815578 C5.45749823,9.3355471 5.56950212,9.80052296 5.35249457,10.1568032 C5.21148967,10.3882847 4.96548111,10.5171091 4.71247231,10.5171091 C4.57946769,10.5171091 4.44446299,10.4818837 4.32245875,10.4064006 L4.32245875,10.4064006 L0.936340975,8.32206075 C0.265317636,7.90941983 -0.0866946077,7.16666618 0.0183090445,6.38264843 C0.123312697,5.59762425 0.658331305,4.97463711 1.41335757,4.75523291 L1.41335757,4.75523291 Z"></path>
        </g>
    </g>
</svg>