<?xml version="1.0" encoding="UTF-8"?>
<svg width="24px" height="24px" viewBox="0 0 24 24" version="1.1" xmlns="http://www.w3.org/2000/svg" xmlns:xlink="http://www.w3.org/1999/xlink">
    <title>Iconly/Light-Outline/Setting</title>
    <defs>
        <polygon id="path-1" points="0 0.2788 19.284851 0.2788 19.284851 20.9998 0 20.9998"></polygon>
    </defs>
    <g id="Iconly/Light-Outline/Setting" stroke="none" stroke-width="1" fill="none" fill-rule="evenodd">
        <g id="Setting" transform="translate(2.000000, 1.000000)">
            <g id="Group-3" transform="translate(0.000000, 0.721700)">
                <mask id="mask-2" fill="white">
                    <use xlink:href="#path-1"></use>
                </mask>
                <g id="Clip-2"></g>
                <path d="M5.2022,15.7188 C5.4312,15.7188 5.6602,15.7478 5.8842,15.8078 C6.5602,15.9898 7.1472,16.4418 7.4952,17.0488 C7.7212,17.4298 7.8462,17.8748 7.8502,18.3288 C7.8502,18.9788 8.3722,19.4998 9.0142,19.4998 L10.2672,19.4998 C10.9062,19.4998 11.4282,18.9818 11.4312,18.3428 C11.4272,17.6368 11.7032,16.9658 12.2082,16.4608 C12.7062,15.9628 13.4022,15.6638 14.0982,15.6838 C14.5542,15.6948 14.9932,15.8178 15.3802,16.0378 C15.9372,16.3568 16.6482,16.1668 16.9702,15.6168 L17.6342,14.5098 C17.7822,14.2548 17.8252,13.9348 17.7462,13.6398 C17.6682,13.3448 17.4722,13.0888 17.2082,12.9378 C16.5902,12.5818 16.1492,12.0078 15.9662,11.3198 C15.7852,10.6448 15.8842,9.9078 16.2372,9.3008 C16.4672,8.9008 16.8042,8.5638 17.2082,8.3318 C17.7502,8.0148 17.9402,7.3058 17.6252,6.7538 C17.6122,6.7318 17.6002,6.7088 17.5902,6.6848 L17.0042,5.6688 C16.6852,5.1138 15.9752,4.9228 15.4182,5.2398 C14.8162,5.5958 14.1002,5.6978 13.4122,5.5168 C12.7252,5.3388 12.1492,4.9038 11.7902,4.2898 C11.5602,3.9058 11.4352,3.4588 11.4312,3.0038 C11.4402,2.6618 11.3202,2.3548 11.1022,2.1298 C10.8852,1.9058 10.5802,1.7788 10.2672,1.7788 L9.0142,1.7788 C8.7042,1.7788 8.4142,1.8998 8.1952,2.1178 C7.9772,2.3368 7.8582,2.6278 7.8602,2.9378 C7.8392,4.3998 6.6442,5.5768 5.1972,5.5768 C4.7332,5.5718 4.2862,5.4468 3.8982,5.2148 C3.3532,4.9048 2.6412,5.0958 2.3222,5.6508 L1.6452,6.7638 C1.3352,7.3018 1.5252,8.0128 2.0772,8.3338 C2.8962,8.8078 3.4072,9.6918 3.4072,10.6398 C3.4072,11.5878 2.8962,12.4708 2.0752,12.9458 C1.5262,13.2638 1.3362,13.9708 1.6542,14.5208 L2.2852,15.6088 C2.4412,15.8898 2.6962,16.0928 2.9912,16.1758 C3.2852,16.2578 3.6092,16.2228 3.8792,16.0728 C4.2762,15.8398 4.7382,15.7188 5.2022,15.7188 M10.2672,20.9998 L9.0142,20.9998 C7.5452,20.9998 6.3502,19.8058 6.3502,18.3368 C6.3482,18.1558 6.2962,17.9678 6.1992,17.8048 C6.0422,17.5308 5.7882,17.3348 5.4952,17.2568 C5.2042,17.1788 4.8852,17.2218 4.6232,17.3738 C3.9952,17.7238 3.2562,17.8088 2.5802,17.6188 C1.9052,17.4278 1.3222,16.9638 0.9802,16.3488 L0.3552,15.2718 C-0.3758,14.0038 0.0592,12.3788 1.3252,11.6468 C1.6842,11.4398 1.9072,11.0538 1.9072,10.6398 C1.9072,10.2258 1.6842,9.8388 1.3252,9.6318 C0.0582,8.8958 -0.3758,7.2668 0.3542,5.9988 L1.0322,4.8858 C1.7532,3.6318 3.3832,3.1898 4.6542,3.9198 C4.8272,4.0228 5.0152,4.0748 5.2062,4.0768 C5.8292,4.0768 6.3502,3.5628 6.3602,2.9308 C6.3562,2.2338 6.6312,1.5648 7.1322,1.0598 C7.6352,0.5558 8.3032,0.2788 9.0142,0.2788 L10.2672,0.2788 C10.9832,0.2788 11.6792,0.5728 12.1782,1.0838 C12.6762,1.5978 12.9512,2.3028 12.9302,3.0178 C12.9322,3.1788 12.9852,3.3648 13.0812,3.5278 C13.2402,3.7978 13.4912,3.9878 13.7892,4.0658 C14.0872,4.1398 14.3992,4.0998 14.6642,3.9428 C15.9442,3.2118 17.5732,3.6498 18.3042,4.9198 L18.9272,5.9988 C18.9432,6.0278 18.9572,6.0558 18.9692,6.0848 C19.6312,7.3358 19.1892,8.9108 17.9592,9.6298 C17.7802,9.7328 17.6352,9.8768 17.5352,10.0508 C17.3802,10.3198 17.3372,10.6398 17.4152,10.9338 C17.4952,11.2338 17.6862,11.4828 17.9552,11.6368 C18.5622,11.9858 19.0152,12.5738 19.1962,13.2528 C19.3772,13.9308 19.2782,14.6668 18.9252,15.2738 L18.2612,16.3798 C17.5302,17.6358 15.9012,18.0708 14.6342,17.3388 C14.4652,17.2418 14.2702,17.1888 14.0762,17.1838 L14.0702,17.1838 C13.7812,17.1838 13.4842,17.3068 13.2682,17.5218 C13.0492,17.7408 12.9292,18.0328 12.9312,18.3428 C12.9242,19.8118 11.7292,20.9998 10.2672,20.9998" id="Fill-1" fill="#000000" mask="url(#mask-2)"></path>
            </g>
            <path d="M9.6451,9.4746 C8.6051,9.4746 7.7591,10.3216 7.7591,11.3616 C7.7591,12.4016 8.6051,13.2466 9.6451,13.2466 C10.6851,13.2466 11.5311,12.4016 11.5311,11.3616 C11.5311,10.3216 10.6851,9.4746 9.6451,9.4746 M9.6451,14.7466 C7.7781,14.7466 6.2591,13.2286 6.2591,11.3616 C6.2591,9.4946 7.7781,7.9746 9.6451,7.9746 C11.5121,7.9746 13.0311,9.4946 13.0311,11.3616 C13.0311,13.2286 11.5121,14.7466 9.6451,14.7466" id="Fill-4" fill="#000000"></path>
        </g>
    </g>
</svg>