<?xml version="1.0" encoding="UTF-8"?>
<svg width="24px" height="24px" viewBox="0 0 24 24" version="1.1" xmlns="http://www.w3.org/2000/svg" xmlns:xlink="http://www.w3.org/1999/xlink">
    <title>Iconly/Light-Outline/Shield Done</title>
    <defs>
        <polygon id="path-1" points="0.000185466386 0.644 16.967 0.644 16.967 20.9996 0.000185466386 20.9996"></polygon>
    </defs>
    <g id="Iconly/Light-Outline/Shield-Done" stroke="none" stroke-width="1" fill="none" fill-rule="evenodd">
        <g id="Shield-Done" transform="translate(4.000000, 1.000000)">
            <g id="Group-3" transform="translate(0.000000, 0.356400)">
                <mask id="mask-2" fill="white">
                    <use xlink:href="#path-1"></use>
                </mask>
                <g id="Clip-2"></g>
                <path d="M8.4836,2.1436 C7.6356,2.1436 2.2856,4.0276 1.6686,4.5426 C1.4866,4.7256 1.4796,5.0436 1.5186,7.1726 C1.5366,8.1986 1.5616,9.5926 1.5616,11.5226 C1.5616,16.7236 7.2836,19.0326 8.4826,19.4576 C9.6806,19.0306 15.4056,16.7086 15.4056,11.5226 C15.4056,9.5906 15.4306,8.1956 15.4496,7.1696 C15.4876,5.0426 15.4806,4.7246 15.2876,4.5326 C14.6826,4.0276 9.3316,2.1436 8.4836,2.1436 M8.4836,20.9996 C8.4106,20.9996 8.3376,20.9896 8.2666,20.9676 C7.9316,20.8666 0.0616,18.4046 0.0616,11.5226 C0.0616,9.6056 0.0366,8.2186 0.0186,7.2006 C-0.0274,4.6576 -0.0374,4.1276 0.6196,3.4716 C1.4046,2.6846 7.3496,0.6436 8.4836,0.6436 C9.6166,0.6436 15.5616,2.6846 16.3486,3.4716 C17.0046,4.1276 16.9946,4.6576 16.9486,7.1976 C16.9306,8.2156 16.9056,9.6026 16.9056,11.5226 C16.9056,18.4046 9.0356,20.8666 8.7006,20.9676 C8.6296,20.9896 8.5566,20.9996 8.4836,20.9996" id="Fill-1" fill="#000000" mask="url(#mask-2)"></path>
            </g>
            <path d="M7.7771,13.5195 L7.7771,13.5195 C7.5781,13.5195 7.3871,13.4405 7.2461,13.2995 L5.3541,11.4055 C5.0621,11.1125 5.0621,10.6365 5.3551,10.3445 C5.6471,10.0515 6.1231,10.0515 6.4161,10.3445 L7.7771,11.7075 L11.1451,8.3395 C11.4381,8.0465 11.9121,8.0465 12.2051,8.3395 C12.4981,8.6325 12.4981,9.1075 12.2051,9.4005 L8.3071,13.2995 C8.1671,13.4405 7.9761,13.5195 7.7771,13.5195" id="Fill-4" fill="#000000"></path>
        </g>
    </g>
</svg>