<?xml version="1.0" encoding="UTF-8"?>
<svg width="24px" height="24px" viewBox="0 0 24 24" version="1.1" xmlns="http://www.w3.org/2000/svg" xmlns:xlink="http://www.w3.org/1999/xlink">
    <title>Iconly/Light-Outline/Shield Fail</title>
    <defs>
        <polygon id="path-1" points="0.00026444574 0.644 16.967 0.644 16.967 20.9996 0.00026444574 20.9996"></polygon>
    </defs>
    <g id="Iconly/Light-Outline/Shield-Fail" stroke="none" stroke-width="1" fill="none" fill-rule="evenodd">
        <g id="Shield-Fail" transform="translate(4.000000, 1.000000)">
            <g id="Group-3" transform="translate(0.000000, 0.356400)">
                <mask id="mask-2" fill="white">
                    <use xlink:href="#path-1"></use>
                </mask>
                <g id="Clip-2"></g>
                <path d="M8.4837,2.1436 C7.6357,2.1436 2.2847,4.0276 1.6677,4.5426 C1.4867,4.7246 1.4797,5.0426 1.5177,7.1696 C1.5367,8.1956 1.5617,9.5906 1.5617,11.5226 C1.5617,16.7236 7.2837,19.0326 8.4827,19.4576 C9.6807,19.0306 15.4057,16.7086 15.4057,11.5226 C15.4057,9.5926 15.4307,8.1986 15.4487,7.1726 C15.4877,5.0436 15.4807,4.7256 15.2877,4.5326 C14.6817,4.0276 9.3317,2.1436 8.4837,2.1436 M8.4837,20.9996 C8.4107,20.9996 8.3377,20.9896 8.2667,20.9676 C7.9317,20.8666 0.0617,18.4046 0.0617,11.5226 C0.0617,9.6026 0.0367,8.2156 0.0187,7.1976 C-0.0273,4.6576 -0.0373,4.1276 0.6177,3.4716 C1.4047,2.6846 7.3507,0.6436 8.4837,0.6436 C9.6167,0.6436 15.5627,2.6846 16.3487,3.4716 C17.0047,4.1276 16.9947,4.6576 16.9487,7.2006 C16.9307,8.2186 16.9057,9.6056 16.9057,11.5226 C16.9057,18.4046 9.0357,20.8666 8.7007,20.9676 C8.6297,20.9896 8.5567,20.9996 8.4837,20.9996" id="Fill-1" fill="#000000" mask="url(#mask-2)"></path>
            </g>
            <path d="M10.3626,13.5752 C10.1706,13.5752 9.9786,13.5022 9.8326,13.3552 L6.0746,9.5972 C5.7816,9.3042 5.7816,8.8302 6.0746,8.5372 C6.3676,8.2442 6.8416,8.2442 7.1346,8.5372 L10.8926,12.2952 C11.1856,12.5882 11.1856,13.0622 10.8926,13.3552 C10.7466,13.5022 10.5546,13.5752 10.3626,13.5752" id="Fill-4" fill="#000000"></path>
            <path d="M6.6048,13.5752 C6.4128,13.5752 6.2208,13.5022 6.0748,13.3552 C5.7818,13.0622 5.7818,12.5882 6.0748,12.2952 L9.8328,8.5372 C10.1258,8.2442 10.5998,8.2442 10.8928,8.5372 C11.1858,8.8302 11.1858,9.3042 10.8928,9.5972 L7.1348,13.3552 C6.9888,13.5022 6.7968,13.5752 6.6048,13.5752" id="Fill-6" fill="#000000"></path>
        </g>
    </g>
</svg>