<?xml version="1.0" encoding="UTF-8"?>
<svg width="24px" height="24px" viewBox="0 0 24 24" version="1.1" xmlns="http://www.w3.org/2000/svg" xmlns:xlink="http://www.w3.org/1999/xlink">
    <title>Iconly/Broken/Shield Done</title>
    <g id="Iconly/Broken/Shield-Done" stroke="none" stroke-width="1" fill="none" fill-rule="evenodd">
        <g id="Shield-Done" transform="translate(3.500000, 2.000000)" fill="#000000" fill-rule="nonzero">
            <path d="M7.8846247,0.100497488 C8.28184019,-0.0334991625 8.71918886,-0.0334991625 9.1153753,0.100497488 L9.1153753,0.100497488 L15.7579298,2.36744081 C16.500908,2.62143446 17,3.30541736 17,4.07139822 L17,4.07139822 L17,10.7122322 C17,12.7251819 16.2518765,14.6741331 14.8945521,16.1950951 C14.2730024,16.8920777 13.4754843,17.4910627 12.4567191,18.0270493 L12.4567191,18.0270493 L8.86634383,19.9120022 C8.75417676,19.9700007 8.63069007,20 8.50617433,20 C8.38268765,20 8.25920097,19.9700007 8.1470339,19.9120022 L8.1470339,19.9120022 L4.54945521,18.0260493 C3.52863196,17.4890628 2.73008475,16.8900777 2.10956416,16.1960951 C0.750181598,14.6731332 -1.0658141e-14,12.7231819 -1.0658141e-14,10.7082323 C-1.0658141e-14,10.3022424 0.339588378,9.97225069 0.757384988,9.97225069 C1.1751816,9.97225069 1.51476998,10.3022424 1.51476998,10.7082323 C1.51476998,12.3701907 2.13220339,13.9761506 3.25284504,15.2321192 C3.75193705,15.7911052 4.41156174,16.281093 5.26876513,16.7310817 L5.26876513,16.7310817 L8.50617433,18.4280393 L11.7363801,16.7320817 C12.5915254,16.2830929 13.2511501,15.7931052 13.7512712,15.2321192 C14.8698547,13.9771506 15.4862591,12.3731907 15.4862591,10.7122322 L15.4862591,10.7122322 L15.4862591,4.07139822 C15.4862591,3.92940176 15.3936441,3.80340491 15.2567797,3.75640609 L15.2567797,3.75640609 L8.61422518,1.48946276 C8.54116223,1.46446339 8.45986683,1.46446339 8.38577482,1.48946276 L8.38577482,1.48946276 L1.74424939,3.75640609 C1.60738499,3.80340491 1.51476998,3.92940176 1.51476998,4.07139822 L1.51476998,4.07139822 L1.51476998,5.97135072 C1.51476998,6.37834054 1.1751816,6.70833229 0.757384988,6.70833229 C0.339588378,6.70833229 -1.0658141e-14,6.37834054 -1.0658141e-14,5.97135072 L-1.0658141e-14,5.97135072 L-1.0658141e-14,4.07139822 C-1.0658141e-14,3.30541736 0.500121065,2.62143446 1.24309927,2.36744081 L1.24309927,2.36744081 Z M11.1841889,7.23961901 C11.4795278,6.95262618 11.9590678,6.95262618 12.2544068,7.23961901 C12.5497458,7.52661183 12.5497458,7.99260018 12.2544068,8.27959301 L12.2544068,8.27959301 L8.32135593,12.1014975 C8.17934625,12.239494 7.98691283,12.3174921 7.78624697,12.3174921 C7.58455206,12.3174921 7.3931477,12.239494 7.25113801,12.1014975 L7.25113801,12.1014975 L5.34121065,10.2455439 C5.04587167,9.95755106 5.04587167,9.49356266 5.34121065,9.20556986 C5.63757869,8.91757706 6.11608959,8.91757706 6.41142857,9.20556986 L6.41142857,9.20556986 L7.78624697,10.5405365 Z"></path>
        </g>
    </g>
</svg>