<?xml version="1.0" encoding="UTF-8"?>
<svg width="24px" height="24px" viewBox="0 0 24 24" version="1.1" xmlns="http://www.w3.org/2000/svg" xmlns:xlink="http://www.w3.org/1999/xlink">
    <title>Iconly/Light-Outline/Show</title>
    <defs>
        <polygon id="path-1" points="0.00015 0.895 20 0.895 20 17 0.00015 17"></polygon>
    </defs>
    <g id="Iconly/Light-Outline/Show" stroke="none" stroke-width="1" fill="none" fill-rule="evenodd">
        <g id="Show" transform="translate(2.000000, 3.000000)">
            <path d="M9.9996,6.6413 C8.6696,6.6413 7.5886,7.7233 7.5886,9.0533 C7.5886,10.3823 8.6696,11.4633 9.9996,11.4633 C11.3296,11.4633 12.4116,10.3823 12.4116,9.0533 C12.4116,7.7233 11.3296,6.6413 9.9996,6.6413 M9.9996,12.9633 C7.8426,12.9633 6.0886,11.2093 6.0886,9.0533 C6.0886,6.8963 7.8426,5.1413 9.9996,5.1413 C12.1566,5.1413 13.9116,6.8963 13.9116,9.0533 C13.9116,11.2093 12.1566,12.9633 9.9996,12.9633" id="Fill-1" fill="#000000"></path>
            <g id="Group-5" transform="translate(0.000000, 0.105200)">
                <mask id="mask-2" fill="white">
                    <use xlink:href="#path-1"></use>
                </mask>
                <g id="Clip-4"></g>
                <path d="M1.5699,8.9473 C3.4299,13.0563 6.5629,15.4993 9.9999,15.5003 C13.4369,15.4993 16.5699,13.0563 18.4299,8.9473 C16.5699,4.8393 13.4369,2.3963 9.9999,2.3953 C6.5639,2.3963 3.4299,4.8393 1.5699,8.9473 L1.5699,8.9473 Z M10.0019,17.0003 L9.9979,17.0003 L9.9969,17.0003 C5.8609,16.9973 2.1469,14.0983 0.0609,9.2433 C-0.0201,9.0543 -0.0201,8.8403 0.0609,8.6513 C2.1469,3.7973 5.8619,0.8983 9.9969,0.8953 C9.9989,0.8943 9.9989,0.8943 9.9999,0.8953 C10.0019,0.8943 10.0019,0.8943 10.0029,0.8953 C14.1389,0.8983 17.8529,3.7973 19.9389,8.6513 C20.0209,8.8403 20.0209,9.0543 19.9389,9.2433 C17.8539,14.0983 14.1389,16.9973 10.0029,17.0003 L10.0019,17.0003 Z" id="Fill-3" fill="#000000" mask="url(#mask-2)"></path>
            </g>
        </g>
    </g>
</svg>