<?xml version="1.0" encoding="UTF-8"?>
<svg width="24px" height="24px" viewBox="0 0 24 24" version="1.1" xmlns="http://www.w3.org/2000/svg" xmlns:xlink="http://www.w3.org/1999/xlink">
    <title>Iconly/Broken/Star</title>
    <g id="Iconly/Broken/Star" stroke="none" stroke-width="1" fill="none" fill-rule="evenodd">
        <g id="Star" transform="translate(2.000150, 2.000022)" fill="#000000" fill-rule="nonzero">
            <path d="M15.49775,19.9193779 C15.37475,19.9223779 15.25275,19.8913779 15.14575,19.8293779 L10.00775,17.1233779 L5.48375,19.5593779 C4.74575,19.9593779 3.82175,19.6853779 3.42175,18.9463779 C3.41675,18.9373779 3.41175,18.9283779 3.40675,18.9183779 C3.24975,18.6093779 3.19475,18.2603779 3.24875,17.9183779 L4.12875,12.7243779 L0.45075,9.00037787 C-0.15025,8.38037787 -0.15025,7.39437787 0.45075,6.77337787 C0.68475,6.52737787 0.99475,6.36837787 1.33075,6.32237787 L6.37375,5.55637787 L8.61675,0.883377869 C8.96575,0.123377869 9.86475,-0.210622131 10.62575,0.138377869 C10.95575,0.289377869 11.21975,0.554377869 11.37075,0.883377869 L13.62375,5.57237787 L18.68375,6.34737787 C19.09275,6.40837787 19.45975,6.63437787 19.69975,6.97137787 C20.14775,7.61537787 20.07975,8.48537787 19.53775,9.05237787 L15.87675,12.7323779 L16.38675,15.5313779 C16.45775,15.9513779 16.18075,16.3523779 15.76175,16.4313779 C15.34975,16.5053779 14.95575,16.2313779 14.88175,15.8183779 L14.36275,13.0193779 C14.27575,12.5063779 14.43875,11.9823779 14.80275,11.6113779 L18.47275,7.90537787 L13.41275,7.12037787 C12.89975,7.03737787 12.46475,6.69737787 12.25975,6.22037787 L10.00775,1.55137787 L7.72775,6.29437787 C7.52275,6.77237787 7.08775,7.11137787 6.57475,7.19437787 L1.53175,7.96037787 L5.17475,11.6603779 C5.53775,12.0253779 5.70075,12.5423779 5.61475,13.0493779 L4.73475,18.2433779 L9.25775,15.8173779 C9.70575,15.5653779 10.25275,15.5653779 10.70075,15.8173779 L15.83175,18.5233779 C16.14475,18.6943779 16.30375,19.0553779 16.21875,19.4023779 C16.14075,19.7493779 15.83475,19.9963779 15.47975,20.0023779 L15.49775,19.9193779 Z"></path>
        </g>
    </g>
</svg>