<?xml version="1.0" encoding="UTF-8"?>
<svg width="24px" height="24px" viewBox="0 0 24 24" version="1.1" xmlns="http://www.w3.org/2000/svg" xmlns:xlink="http://www.w3.org/1999/xlink">
    <title>Iconly/Light-Outline/Swap</title>
    <g id="Iconly/Light-Outline/Swap" stroke="none" stroke-width="1" fill="none" fill-rule="evenodd">
        <g id="Swap" transform="translate(2.000000, 3.000000)" fill="#000000" fill-rule="nonzero">
            <path d="M14.8395556,2.79644444 C15.2192513,2.79644444 15.5330465,3.07859833 15.5827089,3.44467389 L15.5895556,3.54644444 L15.5895556,17.1642222 C15.5895556,17.5784358 15.2537691,17.9142222 14.8395556,17.9142222 C14.4598598,17.9142222 14.1460646,17.6320683 14.0964022,17.2659928 L14.0895556,17.1642222 L14.0895556,3.54644444 C14.0895556,3.13223088 14.425342,2.79644444 14.8395556,2.79644444 Z" id="Stroke-1"></path>
            <path d="M18.3856681,12.5390079 C18.6778838,12.2454387 19.1527562,12.2443414 19.4463254,12.536557 C19.7132066,12.8022076 19.7383753,13.2188142 19.5211999,13.5129283 L19.4487763,13.5972143 L15.3709986,17.693881 C15.1044795,17.9616347 14.6862288,17.9859759 14.3921221,17.7669047 L14.3078903,17.693881 L10.2301126,13.5972143 C9.93789691,13.3036451 9.93899421,12.8287726 10.2325634,12.536557 C10.4994446,12.2709064 10.9161631,12.2476632 11.2092704,12.4661956 L11.2932208,12.5390079 L14.839,16.101 L18.3856681,12.5390079 Z" id="Stroke-3"></path>
            <path d="M4.91111111,0.0828888889 C5.29080688,0.0828888889 5.60460207,0.365042771 5.6542645,0.731118332 L5.66111111,0.832888889 L5.66111111,14.4506667 C5.66111111,14.8648802 5.32532467,15.2006667 4.91111111,15.2006667 C4.53141535,15.2006667 4.21762015,14.9185128 4.16795773,14.5524372 L4.16111111,14.4506667 L4.16111111,0.832888889 C4.16111111,0.418675327 4.49689755,0.0828888889 4.91111111,0.0828888889 Z" id="Stroke-5"></path>
            <path d="M4.37966811,0.303230107 C4.64618722,0.035476442 5.06443787,0.0111351998 5.35854453,0.23020638 L5.44277634,0.303230107 L9.52055411,4.39989677 C9.81276976,4.693466 9.81167246,5.16833847 9.51810323,5.46055411 C9.25122211,5.7262047 8.8345036,5.74944789 8.54139629,5.53091556 L8.45744589,5.45810323 L4.911,1.895 L1.36499856,5.45810323 C1.09934797,5.72498435 0.682741336,5.75015312 0.388627226,5.5329777 L0.304341218,5.46055411 C0.0374600991,5.19490353 0.0122913202,4.77829689 0.229466745,4.48418278 L0.301890331,4.39989677 L4.37966811,0.303230107 Z" id="Stroke-7"></path>
        </g>
    </g>
</svg>