<?xml version="1.0" encoding="UTF-8"?>
<svg width="24px" height="24px" viewBox="0 0 24 24" version="1.1" xmlns="http://www.w3.org/2000/svg" xmlns:xlink="http://www.w3.org/1999/xlink">
    <title>Iconly/Broken/Tick Square</title>
    <g id="Iconly/Broken/Tick-Square" stroke="none" stroke-width="1" fill="none" fill-rule="evenodd">
        <g id="Tick-Square" transform="translate(2.000100, 1.999900)" fill="#000000" fill-rule="nonzero">
            <path d="M13.753,0 C17.59,0 20,2.392 20,6.253 L20,6.253 L20,8.822 C20,9.239 19.661,9.578 19.244,9.578 L19.244,9.578 L19.235,9.578 L19.235,9.56 C18.813,9.56 18.471,9.219 18.47,8.797 L18.47,8.797 L18.47,6.253 C18.47,3.2 16.8,1.53 13.756,1.53 L13.756,1.53 L6.256,1.53 C3.21,1.53 1.53,3.21 1.53,6.253 L1.53,6.253 L1.53,13.753 C1.53,16.787 3.21,18.467 6.253,18.467 L6.253,18.467 L13.753,18.467 C16.796,18.467 18.467,16.787 18.467,13.753 C18.467,13.331 18.809,12.988 19.232,12.988 C19.655,12.988 19.997,13.331 19.997,13.753 C20,17.608 17.608,20 13.756,20 L13.756,20 L6.253,20 C2.392,20 0,17.608 0,13.756 L0,13.756 L0,6.256 C0,2.392 2.392,0 6.253,0 L6.253,0 Z M13.0296,7.0965 C13.3226,6.8035 13.7976,6.8035 14.0906,7.0965 C14.3836,7.3895 14.3836,7.8645 14.0906,8.1575 L14.0906,8.1575 L9.3436,12.9045 C9.2026,13.0445 9.0116,13.1235 8.8136,13.1235 C8.6136,13.1235 8.4236,13.0445 8.2826,12.9045 L8.2826,12.9045 L5.9096,10.5305 C5.6166,10.2375 5.6166,9.7625 5.9096,9.4695 C6.2026,9.1765 6.6776,9.1765 6.9706,9.4695 L6.9706,9.4695 L8.8136,11.3135 Z"></path>
        </g>
    </g>
</svg>