<?xml version="1.0" encoding="UTF-8"?>
<svg width="24px" height="24px" viewBox="0 0 24 24" version="1.1" xmlns="http://www.w3.org/2000/svg" xmlns:xlink="http://www.w3.org/1999/xlink">
    <title>Iconly/Light-Outline/Ticket</title>
    <defs>
        <polygon id="path-1" points="0 0.5 21.5 0.5 21.5 17.9997 0 17.9997"></polygon>
    </defs>
    <g id="Iconly/Light-Outline/Ticket" stroke="none" stroke-width="1" fill="none" fill-rule="evenodd">
        <g id="Group-10" transform="translate(1.000000, 3.000000)">
            <path d="M12.5996,5.1709 C12.1856,5.1709 11.8496,4.8349 11.8496,4.4209 L11.8496,1.9999 C11.8496,1.5859 12.1856,1.2499 12.5996,1.2499 C13.0136,1.2499 13.3496,1.5859 13.3496,1.9999 L13.3496,4.4209 C13.3496,4.8349 13.0136,5.1709 12.5996,5.1709" id="Fill-1" fill="#000000"></path>
            <path d="M12.5996,18.2842 C12.1856,18.2842 11.8496,17.9482 11.8496,17.5342 L11.8496,15.5112 C11.8496,15.0962 12.1856,14.7612 12.5996,14.7612 C13.0136,14.7612 13.3496,15.0962 13.3496,15.5112 L13.3496,17.5342 C13.3496,17.9482 13.0136,18.2842 12.5996,18.2842" id="Fill-3" fill="#000000"></path>
            <path d="M12.5996,12.8252 C12.1856,12.8252 11.8496,12.4892 11.8496,12.0752 L11.8496,7.2542 C11.8496,6.8402 12.1856,6.5042 12.5996,6.5042 C13.0136,6.5042 13.3496,6.8402 13.3496,7.2542 L13.3496,12.0752 C13.3496,12.4892 13.0136,12.8252 12.5996,12.8252" id="Fill-5" fill="#000000"></path>
            <g id="Group-9" transform="translate(0.000000, 0.500000)">
                <mask id="mask-2" fill="white">
                    <use xlink:href="#path-1"></use>
                </mask>
                <g id="Clip-8"></g>
                <path d="M1.5,12.0537 L1.5,13.9927 C1.5,15.3747 2.643,16.4997 4.048,16.4997 L17.452,16.4997 C18.857,16.4997 20,15.3747 20,13.9927 L20,12.0537 C18.749,11.7247 17.823,10.5927 17.823,9.2507 C17.823,7.9077 18.748,6.7767 20,6.4477 L19.999,4.5067 C19.999,3.1247 18.856,1.9997 17.451,1.9997 L4.049,1.9997 C2.644,1.9997 1.501,3.1247 1.501,4.5067 L1.5,6.5247 C2.767,6.8357 3.677,7.9217 3.677,9.2507 C3.677,10.5927 2.751,11.7247 1.5,12.0537 M17.452,17.9997 L4.048,17.9997 C1.816,17.9997 0,16.2017 0,13.9927 L0,11.4007 C0,10.9867 0.336,10.6507 0.75,10.6507 C1.537,10.6507 2.177,10.0227 2.177,9.2507 C2.177,8.5007 1.563,7.9347 0.75,7.9347 C0.551,7.9347 0.36,7.8557 0.22,7.7147 C0.079,7.5747 0,7.3827 0,7.1847 L0.001,4.5067 C0.001,2.2977 1.817,0.4997 4.049,0.4997 L17.451,0.4997 C19.683,0.4997 21.499,2.2977 21.499,4.5067 L21.5,7.1007 C21.5,7.2987 21.421,7.4907 21.28,7.6307 C21.14,7.7717 20.949,7.8507 20.75,7.8507 C19.963,7.8507 19.323,8.4787 19.323,9.2507 C19.323,10.0227 19.963,10.6507 20.75,10.6507 C21.164,10.6507 21.5,10.9867 21.5,11.4007 L21.5,13.9927 C21.5,16.2017 19.684,17.9997 17.452,17.9997" id="Fill-7" fill="#000000" mask="url(#mask-2)"></path>
            </g>
        </g>
    </g>
</svg>