<?xml version="1.0" encoding="UTF-8"?>
<svg width="24px" height="24px" viewBox="0 0 24 24" version="1.1" xmlns="http://www.w3.org/2000/svg" xmlns:xlink="http://www.w3.org/1999/xlink">
    <title>Iconly/Broken/Ticket Star</title>
    <g id="Iconly/Broken/Ticket-Star" stroke="none" stroke-width="1" fill="none" fill-rule="evenodd">
        <g id="Ticket-Star" transform="translate(2.000000, 3.000000)" fill="#000000" fill-rule="nonzero">
            <path d="M15.856,0 C18.14,0 19.999,1.84102169 19.999,4.10514147 L20,6.78245073 C20,6.97864142 19.921,7.16789607 19.78,7.30760762 C19.64,7.44731917 19.449,7.52559727 19.25,7.52559727 C18.429,7.52559727 17.761,8.18749312 17.761,9.00099086 C17.761,9.81448861 18.429,10.4763845 19.25,10.4763845 C19.664,10.4763845 20,10.8093141 20,11.219531 L20,13.8948585 C20,16.1589783 18.142,18 15.858,18 L10.395,18 C9.981,18 9.645,17.6670704 9.645,17.2568535 C9.645,16.8466366 9.981,16.5137069 10.395,16.5137069 L15.858,16.5137069 C17.315,16.5137069 18.5,15.3385445 18.5,13.8948585 L18.5,11.8685456 C17.214,11.5385886 16.261,10.3782891 16.261,9.00099086 C16.261,7.62369261 17.213,6.46339315 18.5,6.13343609 L18.499,4.10514147 C18.499,2.66145547 17.313,1.48629307 15.856,1.48629307 L4.144,1.48629307 C2.687,1.48629307 1.502,2.66145547 1.502,4.10514147 L1.501,6.21270505 C2.802,6.52581746 3.739,7.63855554 3.739,9.00099086 C3.739,10.3782891 2.787,11.5385886 1.5,11.8685456 L1.5,13.8948585 C1.5,15.3385445 2.686,16.5137069 4.143,16.5137069 L5.933,16.5137069 C6.347,16.5137069 6.683,16.8466366 6.683,17.2568535 C6.683,17.6670704 6.347,18 5.933,18 L4.143,18 C1.858,18 0,16.1589783 0,13.8948585 L0,11.219531 C0,10.8093141 0.336,10.4763845 0.75,10.4763845 C1.571,10.4763845 2.239,9.81448861 2.239,9.00099086 C2.239,8.20830122 1.599,7.61180227 0.75,7.61180227 C0.551,7.61180227 0.36,7.53352417 0.22,7.39381262 C0.079,7.25410107 0,7.06484642 0,6.86865573 L0.002,4.10514147 C0.002,1.84102169 1.86,0 4.144,0 L15.856,0 Z M10.0332332,5 C10.4061903,5 10.7388012,5.21177961 10.9041225,5.55427486 L10.9041225,5.55427486 L11.691367,7.10056998 C11.8812898,7.47549082 11.7415539,7.93755541 11.3784373,8.13210893 C11.2042595,8.22735909 11.0035121,8.24458518 10.8155575,8.18581381 C10.6256347,8.12501583 10.471138,7.99227359 10.3786368,7.81190627 L10.3786368,7.81190627 L10.0479941,7.16339455 L9.60024874,8.09765674 C9.49200262,8.32260925 9.28436687,8.47967068 9.04228918,8.51513616 L9.04228918,8.51513616 L8.0739784,8.660038 L8.77462604,9.36529449 C8.94978794,9.53958201 9.02949645,9.7918936 8.98816612,10.040152 L8.98816612,10.040152 L8.82284476,11.0341989 L9.69078186,10.5650412 C9.90727411,10.4485117 10.1650967,10.4485117 10.3796208,10.5650412 L10.3796208,10.5650412 L11.2475579,11.0341989 L11.0822366,10.040152 C11.0409062,9.7918936 11.1206147,9.53958201 11.2947926,9.36428119 L11.2947926,9.36428119 L12.7413544,7.91323623 C12.8820744,7.77340089 13.0719971,7.68220393 13.2648721,7.69639012 C13.4636513,7.69841672 13.6496378,7.77948068 13.7893737,7.92742242 C13.9281256,8.07333756 14.0019297,8.26586447 14,8.46953768 C13.9970095,8.67321089 13.918285,8.86371121 13.7755969,9.00557315 L13.7755969,9.00557315 L12.6085069,10.1779607 L12.8840425,11.8316656 C12.9470221,12.208613 12.7994137,12.5835339 12.4982927,12.8074731 C12.1961876,13.0324256 11.8065016,13.0597847 11.4768429,12.8824573 L11.4768429,12.8824573 L10.0342173,12.1042432 L8.59159168,12.8834706 C8.45283983,12.9604813 8.29637498,13 8.13991013,13 C7.93522655,13 7.73841542,12.9331222 7.57112595,12.8074731 C7.27098897,12.5835339 7.12239657,12.208613 7.18537613,11.8316656 L7.18537613,11.8316656 L7.46189577,10.1779607 L6.29382169,9.00557315 C6.02714261,8.73907536 5.93365732,8.34692844 6.04780778,7.9821406 C6.16392635,7.61836605 6.46406333,7.35794807 6.83210015,7.30424319 L6.83210015,7.30424319 L8.44398333,7.0620646 L9.16628019,5.55630146 C9.32963343,5.21380621 9.66224425,5.0010133 10.0332332,5 Z"></path>
        </g>
    </g>
</svg>