<?xml version="1.0" encoding="UTF-8"?>
<svg width="24px" height="24px" viewBox="0 0 24 24" version="1.1" xmlns="http://www.w3.org/2000/svg" xmlns:xlink="http://www.w3.org/1999/xlink">
    <title>Iconly/Broken/Ticket</title>
    <g id="Iconly/Broken/Ticket" stroke="none" stroke-width="1" fill="none" fill-rule="evenodd">
        <g id="Ticket" transform="translate(2.000000, 4.000000)" fill="#000000" fill-rule="nonzero">
            <path d="M5.00967305,-6.66133815e-14 C5.41013736,-6.66133815e-14 5.73515187,0.315585559 5.73515187,0.704432052 C5.73515187,1.09327854 5.41013736,1.4088641 5.00967305,1.4088641 L5.00967305,1.4088641 L3.7840975,1.4088641 C2.49758174,1.4088641 1.45095763,2.42512474 1.45095763,3.67431758 L1.45095763,3.67431758 L1.45095763,5.42882301 C2.61365835,5.73877311 3.46972335,6.77287937 3.46972335,7.99953038 C3.46972335,9.21303199 2.62720062,10.2067508 1.45192494,10.4997945 L1.45192494,10.4997945 L1.45289224,12.3256824 C1.45289224,13.5748753 2.49951635,14.5911359 3.78603211,14.5911359 L3.78603211,14.5911359 L11.027278,14.5911359 L11.027278,13.3936014 C11.027278,13.0047549 11.3522925,12.6891694 11.7527568,12.6891694 C12.1532211,12.6891694 12.4782356,13.0047549 12.4782356,13.3936014 L12.4782356,13.3936014 L12.4782356,14.5911359 L16.2139679,14.5911359 C17.501451,14.5911359 18.5480751,13.5748753 18.5480751,12.3256824 L18.5480751,12.3256824 L18.5490424,10.5692985 C17.3863417,10.2593484 16.5302766,9.22524215 16.5302766,7.99953038 C16.5302766,6.77287937 17.3863417,5.73877311 18.5490424,5.42882301 L18.5490424,5.42882301 L18.5490424,3.67431758 C18.5490424,2.42512474 17.5024183,1.4088641 16.2159025,1.4088641 L16.2159025,1.4088641 L12.4782356,1.4088641 L12.4782356,2.97833871 C12.4782356,3.36718521 12.1532211,3.68277077 11.7527568,3.68277077 C11.3522925,3.68277077 11.027278,3.36718521 11.027278,2.97833871 L11.027278,2.97833871 L11.027278,1.4088641 L9.06364867,1.4088641 C8.66318437,1.4088641 8.33816986,1.09327854 8.33816986,0.704432052 C8.33816986,0.315585559 8.66318437,-6.66133815e-14 9.06364867,-6.66133815e-14 L9.06364867,-6.66133815e-14 L16.2159025,-6.66133815e-14 C18.3023796,-6.66133815e-14 20,1.648371 20,3.67431758 L20,3.67431758 L20,6.03839155 C20,6.42723804 19.6749855,6.7428236 19.2745212,6.7428236 C18.5616173,6.7428236 17.9812343,7.30730848 17.9812343,7.99953038 C17.9812343,8.69175227 18.5616173,9.25529792 19.2745212,9.25529792 C19.4670149,9.25529792 19.6517702,9.32949809 19.7871929,9.46193132 C19.9235829,9.5934253 20,9.77375991 20,9.95972997 L20,9.95972997 L19.9990327,12.3256824 C19.9990327,14.3525682 18.3014123,16 16.2139679,16 L16.2139679,16 L3.78603211,16 C1.69955504,16 0.00193461018,14.3525682 0.00193461018,12.3256824 L0.00193461018,12.3256824 L2.13162821e-14,9.88365131 C2.13162821e-14,9.69768124 0.076417102,9.51734664 0.212807119,9.38491341 C0.349197137,9.25341943 0.532985104,9.17921925 0.725478816,9.17921925 C1.46256529,9.17921925 2.01876572,8.67202818 2.01876572,7.99953038 C2.01876572,7.30730848 1.43934997,6.7428236 0.725478816,6.7428236 C0.32501451,6.7428236 2.13162821e-14,6.42723804 2.13162821e-14,6.03839155 L2.13162821e-14,6.03839155 L2.13162821e-14,3.67431758 C2.13162821e-14,1.648371 1.69762043,-6.66133815e-14 3.7840975,-6.66133815e-14 L3.7840975,-6.66133815e-14 Z M11.7528536,5.70636924 C12.1533179,5.70636924 12.4783324,6.0219548 12.4783324,6.41080129 L12.4783324,6.41080129 L12.4783324,10.1677722 C12.4783324,10.5566187 12.1533179,10.8722043 11.7528536,10.8722043 C11.3523892,10.8722043 11.0273747,10.5566187 11.0273747,10.1677722 L11.0273747,10.1677722 L11.0273747,6.41080129 C11.0273747,6.0219548 11.3523892,5.70636924 11.7528536,5.70636924 Z"></path>
        </g>
    </g>
</svg>