<?xml version="1.0" encoding="UTF-8"?>
<svg width="24px" height="24px" viewBox="0 0 24 24" version="1.1" xmlns="http://www.w3.org/2000/svg" xmlns:xlink="http://www.w3.org/1999/xlink">
    <title>Iconly/Light-Outline/Ticket Star</title>
    <defs>
        <polygon id="path-1" points="0 0.8335 20 0.8335 20 18.9995 0 18.9995"></polygon>
    </defs>
    <g id="Iconly/Light-Outline/Ticket-Star" stroke="none" stroke-width="1" fill="none" fill-rule="evenodd">
        <g id="Ticket-Star" transform="translate(2.000000, 2.000000)">
            <g id="Group-3" transform="translate(0.000000, 0.167000)">
                <mask id="mask-2" fill="white">
                    <use xlink:href="#path-1"></use>
                </mask>
                <g id="Clip-2"></g>
                <path d="M1.5,12.8125 L1.5,14.8575 C1.5,15.5635 1.774,16.2265 2.273,16.7255 C2.772,17.2245 3.436,17.4995 4.141,17.4995 L15.857,17.4995 C17.313,17.4995 18.499,16.3155 18.5,14.8595 L18.5,12.8115 C17.214,12.4785 16.261,11.3075 16.26,9.9185 C16.26,8.5295 17.213,7.3585 18.499,7.0245 L18.5,4.9795 C18.501,3.5215 17.318,2.3345 15.861,2.3335 L4.144,2.3335 C2.687,2.3335 1.501,3.5185 1.5,4.9755 L1.5,7.0925 C1.986,7.2085 2.437,7.4475 2.812,7.7975 C3.381,8.3285 3.709,9.0485 3.737,9.8265 C3.74,11.2925 2.787,12.4765 1.5,12.8125 M15.857,18.9995 L4.142,18.9995 C3.035,18.9995 1.995,18.5695 1.212,17.7865 C0.43,17.0035 0,15.9635 0,14.8575 L0,12.1575 C0,11.7435 0.336,11.4075 0.75,11.4075 C1.574,11.4065 2.24,10.7385 2.239,9.9185 C2.225,9.5005 2.065,9.1525 1.789,8.8945 C1.514,8.6365 1.158,8.4955 0.776,8.5165 C0.569,8.5185 0.375,8.4475 0.229,8.3065 C0.083,8.1655 0,7.9695 0,7.7665 L0,4.9765 C0.001,2.6915 1.86,0.8335 4.144,0.8335 L15.856,0.8335 C18.146,0.8345 20.002,2.6965 20,4.9805 L20,7.6795 C20,8.0935 19.664,8.4295 19.25,8.4295 C18.429,8.4295 17.76,9.0975 17.76,9.9175 C17.761,10.7395 18.429,11.4075 19.25,11.4075 C19.664,11.4075 20,11.7435 20,12.1575 L20,14.8575 C19.999,17.1415 18.14,18.9995 15.857,18.9995" id="Fill-1" fill="#000000" mask="url(#mask-2)"></path>
            </g>
            <path d="M8.1039,9.3815 L8.6129,9.8775 C8.8889,10.1485 9.0139,10.5345 8.9479,10.9115 L8.8279,11.6095 L9.4569,11.2785 C9.7959,11.0975 10.2029,11.0985 10.5449,11.2805 L11.1699,11.6085 L11.0499,10.9095 C10.9869,10.5265 11.1129,10.1435 11.3859,9.8775 L11.8949,9.3815 L11.1899,9.2795 C10.8119,9.2245 10.4839,8.9865 10.3149,8.6415 L9.9999,8.0045 L9.6849,8.6425 C9.5159,8.9865 9.1879,9.2245 8.8079,9.2795 L8.1039,9.3815 Z M11.6179,13.3875 C11.4319,13.3875 11.2459,13.3425 11.0739,13.2515 L9.9999,12.6885 L8.9249,13.2525 C8.5289,13.4595 8.0579,13.4265 7.6979,13.1645 C7.3369,12.9015 7.1599,12.4655 7.2349,12.0255 L7.4399,10.8295 L6.5709,9.9825 C6.2519,9.6715 6.1379,9.2145 6.2749,8.7905 C6.4129,8.3655 6.7729,8.0605 7.2139,7.9965 L8.4179,7.8205 L8.9549,6.7315 C9.1519,6.3315 9.5519,6.0825 9.9999,6.0825 C10.4459,6.0825 10.8469,6.3315 11.0439,6.7325 L11.5819,7.8205 L12.7839,7.9965 C13.2259,8.0605 13.5869,8.3655 13.7239,8.7905 C13.8609,9.2145 13.7479,9.6715 13.4279,9.9835 L12.5579,10.8305 L12.7639,12.0255 C12.8389,12.4665 12.6609,12.9035 12.2989,13.1655 C12.0949,13.3125 11.8569,13.3875 11.6179,13.3875 L11.6179,13.3875 Z" id="Fill-4" fill="#000000"></path>
        </g>
    </g>
</svg>