<?xml version="1.0" encoding="UTF-8"?>
<svg width="24px" height="24px" viewBox="0 0 24 24" version="1.1" xmlns="http://www.w3.org/2000/svg" xmlns:xlink="http://www.w3.org/1999/xlink">
    <title>Iconly/Broken/Time Square</title>
    <g id="Iconly/Broken/Time-Square" stroke="none" stroke-width="1" fill="none" fill-rule="evenodd">
        <g id="Time-Square" transform="translate(1.999996, 1.999700)" fill="#000000" fill-rule="nonzero">
            <path d="M13.7470044,0 C17.6080044,0 20.0000022,2.393 20.0000022,6.256 L20.0000022,13.756 C20.0000022,17.608 17.6080044,20 13.7470044,20 L6.24400437,20 C2.39200437,20 2.17785739e-06,17.608 0.00100436526,13.753 C0.00100436526,13.331 0.343004365,12.988 0.766004365,12.988 C1.18900437,12.988 1.53100437,13.331 1.53100437,13.753 C1.53100437,16.787 3.20200437,18.467 6.25400437,18.467 L13.7470044,18.467 C16.7900044,18.467 18.4700044,16.796 18.4700044,13.753 L18.4700044,6.253 C18.4700044,3.21 16.8000044,1.53 13.7470044,1.53 L6.25300437,1.53 C3.21000437,1.53 1.53000437,3.21 1.53000437,6.253 L1.53000437,8.584 C1.53000437,9.002 1.19200437,9.34 0.774004365,9.34 L0.763004365,9.34 C0.341004365,9.34 -0.000995634738,8.997 2.17785739e-06,8.575 L2.17785739e-06,6.253 C2.17785739e-06,2.393 2.41000437,0 6.25400437,0 L13.7470044,0 Z M10.0002044,4.8838 C10.4142044,4.8838 10.7502044,5.2198 10.7502044,5.6338 L10.7502044,5.6338 L10.7502044,9.5688 L13.7762044,11.3728 C14.1312044,11.5858 14.2482044,12.0458 14.0362044,12.4018 C13.8962044,12.6368 13.6462044,12.7678 13.3912044,12.7678 C13.2602044,12.7678 13.1282044,12.7338 13.0072044,12.6618 L13.0072044,12.6618 L9.61620437,10.6388 C9.38920437,10.5028 9.25020437,10.2578 9.25020437,9.9938 L9.25020437,9.9938 L9.25020437,5.6338 C9.25020437,5.2198 9.58620437,4.8838 10.0002044,4.8838 Z"></path>
        </g>
    </g>
</svg>