<?xml version="1.0" encoding="UTF-8"?>
<svg width="24px" height="24px" viewBox="0 0 24 24" version="1.1" xmlns="http://www.w3.org/2000/svg" xmlns:xlink="http://www.w3.org/1999/xlink">
    <title>Iconly/Light-Outline/Time Square</title>
    <g id="Iconly/Light-Outline/Time-Square" stroke="none" stroke-width="1" fill="none" fill-rule="evenodd">
        <g id="Time-Square" transform="translate(2.000000, 2.000000)" fill="#000000">
            <path d="M5.665,1.5 C3.135,1.5 1.5,3.233 1.5,5.916 L1.5,14.084 C1.5,16.767 3.135,18.5 5.665,18.5 L14.333,18.5 C16.864,18.5 18.5,16.767 18.5,14.084 L18.5,5.916 C18.5,3.233 16.865,1.5 14.334,1.5 L5.665,1.5 Z M14.333,20 L5.665,20 C2.276,20 0,17.622 0,14.084 L0,5.916 C0,2.378 2.276,0 5.665,0 L14.334,0 C17.723,0 20,2.378 20,5.916 L20,14.084 C20,17.622 17.723,20 14.333,20 L14.333,20 Z" id="Fill-1"></path>
            <path d="M13.3901,12.7676 C13.2591,12.7676 13.1271,12.7336 13.0061,12.6626 L9.6151,10.6396 C9.3891,10.5036 9.2491,10.2586 9.2491,9.9956 L9.2491,5.6336 C9.2491,5.2196 9.5851,4.8836 9.9991,4.8836 C10.4131,4.8836 10.7491,5.2196 10.7491,5.6336 L10.7491,9.5696 L13.7751,11.3726 C14.1301,11.5856 14.2471,12.0456 14.0351,12.4016 C13.8941,12.6366 13.6451,12.7676 13.3901,12.7676" id="Fill-3"></path>
        </g>
    </g>
</svg>