<?xml version="1.0" encoding="UTF-8"?>
<svg width="24px" height="24px" viewBox="0 0 24 24" version="1.1" xmlns="http://www.w3.org/2000/svg" xmlns:xlink="http://www.w3.org/1999/xlink">
    <title>Iconly/Broken/Time Circle</title>
    <g id="Iconly/Broken/Time-Circle" stroke="none" stroke-width="1" fill="none" fill-rule="evenodd">
        <g id="Time-Circle" transform="translate(1.999800, 1.999800)" fill="#000000" fill-rule="nonzero">
            <path d="M10,0 C15.514,0 20,4.485 20,10 C20,15.514 15.514,20 10,20 C6.873,20 3.983,18.577 2.073,16.098 C1.828,15.779 1.888,15.322 2.206,15.078 C2.524,14.832 2.979,14.893 3.225,15.21 C4.858,17.33 7.327,18.546 10,18.546 C14.712,18.546 18.546,14.713 18.546,10 C18.546,5.288 14.712,1.454 10,1.454 C5.288,1.454 1.455,5.288 1.455,10 C1.455,10.438 1.487,10.873 1.552,11.299 C1.612,11.695 1.34,12.066 0.943,12.127 C0.544,12.193 0.175,11.916 0.115,11.519 C0.039,11.021 0,10.51 0,10 C0,4.485 4.486,0 10,0 Z M9.6611,5.1094 C10.0621,5.1094 10.3881,5.4354 10.3881,5.8374 L10.3881,5.8374 L10.3881,10.2834 L13.8121,12.3254 C14.1571,12.5314 14.2701,12.9774 14.0641,13.3224 C13.9291,13.5494 13.6871,13.6764 13.4401,13.6764 C13.3131,13.6764 13.1841,13.6434 13.0681,13.5744 L13.0681,13.5744 L9.2881,11.3204 C9.0691,11.1884 8.9341,10.9514 8.9341,10.6954 L8.9341,10.6954 L8.9341,5.8374 C8.9341,5.4354 9.2601,5.1094 9.6611,5.1094 Z"></path>
        </g>
    </g>
</svg>