<?xml version="1.0" encoding="UTF-8"?>
<svg width="24px" height="24px" viewBox="0 0 24 24" version="1.1" xmlns="http://www.w3.org/2000/svg" xmlns:xlink="http://www.w3.org/1999/xlink">
    <title>Iconly/Light-Outline/Time Circle</title>
    <g id="Iconly/Light-Outline/Time-Circle" stroke="none" stroke-width="1" fill="none" fill-rule="evenodd">
        <g id="Time-Circle" transform="translate(2.000000, 2.000000)" fill="#000000">
            <path d="M10,1.5 C5.313,1.5 1.5,5.313 1.5,10 C1.5,14.687 5.313,18.5 10,18.5 C14.687,18.5 18.5,14.687 18.5,10 C18.5,5.313 14.687,1.5 10,1.5 M10,20 C4.486,20 0,15.514 0,10 C0,4.486 4.486,0 10,0 C15.514,0 20,4.486 20,10 C20,15.514 15.514,20 10,20" id="Fill-1"></path>
            <path d="M13.4312,13.6924 C13.3002,13.6924 13.1682,13.6584 13.0472,13.5874 L9.2772,11.3384 C9.0512,11.2024 8.9112,10.9574 8.9112,10.6934 L8.9112,5.8454 C8.9112,5.4314 9.2472,5.0954 9.6612,5.0954 C10.0762,5.0954 10.4112,5.4314 10.4112,5.8454 L10.4112,10.2674 L13.8162,12.2974 C14.1712,12.5104 14.2882,12.9704 14.0762,13.3264 C13.9352,13.5614 13.6862,13.6924 13.4312,13.6924" id="Fill-3"></path>
        </g>
    </g>
</svg>