<?xml version="1.0" encoding="UTF-8"?>
<svg width="24px" height="24px" viewBox="0 0 24 24" version="1.1" xmlns="http://www.w3.org/2000/svg" xmlns:xlink="http://www.w3.org/1999/xlink">
    <title>Iconly/Broken/Unlock</title>
    <g id="Iconly/Broken/Unlock" stroke="none" stroke-width="1" fill="none" fill-rule="evenodd">
        <g id="Unlock" transform="translate(3.500000, 2.000000)" fill="#000000" fill-rule="nonzero">
            <path d="M8.51372197,0 C10.8057997,0 12.8518984,1.434 13.6030493,3.567 C13.7402691,3.959 13.5298655,4.386 13.13142,4.522 C12.7350075,4.658 12.2999701,4.45 12.1617339,4.058 C11.6240359,2.528 10.156293,1.5 8.5096562,1.5 L8.5096562,1.5 L8.49339312,1.5 C6.36801196,1.5 4.63599402,3.194 4.62684604,5.284 L4.62684604,5.284 L4.62684604,6.627 L12.3833184,6.627 C14.9295067,6.627 17,8.664 17,11.169 L17,11.169 L17,15.458 C17,17.963 14.9295067,20 12.3833184,20 L12.3833184,20 L8.94266069,20 C8.52185351,20 8.18032885,19.664 8.18032885,19.25 C8.18032885,18.836 8.52185351,18.5 8.94266069,18.5 L8.94266069,18.5 L12.3538416,18.5 C14.0584155,18.5 15.4458595,17.136 15.4458595,15.458 C15.4458595,15.406 15.4651719,15.361 15.4753363,15.314 L15.4753363,15.314 L15.4753363,11.169 C15.4753363,9.491 14.0889088,8.127 12.3833184,8.127 L12.3833184,8.127 L4.61668161,8.127 C2.91210762,8.127 1.52466368,9.491 1.52466368,11.169 L1.52466368,11.169 L1.52466368,15.314 C1.5348281,15.361 1.55414051,15.406 1.55414051,15.458 C1.55414051,17.136 2.94158445,18.5 4.64717489,18.5 C5.06798206,18.5 5.40950673,18.836 5.40950673,19.25 C5.40950673,19.664 5.06798206,20 4.64717489,20 C4.64005979,20 4.63294469,19.998 4.62684604,19.998 C4.62379671,19.998 4.62074738,20 4.61668161,20 C2.07049327,20 -4.61852778e-14,17.963 -4.61852778e-14,15.458 L-4.61852778e-14,15.458 L-4.61852778e-14,11.169 C-4.61852778e-14,9.189 1.30206278,7.519 3.10218236,6.898 L3.10218236,6.898 L3.10218236,5.301 C3.11539611,2.363 5.53046338,0 8.48932735,0 L8.48932735,0 Z M8.50010164,11.4529 C8.92090882,11.4529 9.26243348,11.7889 9.26243348,12.2029 L9.26243348,12.2029 L9.26243348,14.4239 C9.26243348,14.8379 8.92090882,15.1739 8.50010164,15.1739 C8.07929447,15.1739 7.73776981,14.8379 7.73776981,14.4239 L7.73776981,14.4239 L7.73776981,12.2029 C7.73776981,11.7889 8.07929447,11.4529 8.50010164,11.4529 Z"></path>
        </g>
    </g>
</svg>