<?xml version="1.0" encoding="UTF-8"?>
<svg width="24px" height="24px" viewBox="0 0 24 24" version="1.1" xmlns="http://www.w3.org/2000/svg" xmlns:xlink="http://www.w3.org/1999/xlink">
    <title>Iconly/Light-Outline/Upload</title>
    <defs>
        <polygon id="path-1" points="0.0004 0.256 20 0.256 20 14 0.0004 14"></polygon>
        <polygon id="path-3" points="0.25 0.462 1.75 0.462 1.75 14.0029 0.25 14.0029"></polygon>
    </defs>
    <g id="Iconly/Light-Outline/Upload" stroke="none" stroke-width="1" fill="none" fill-rule="evenodd">
        <g id="Upload" transform="translate(2.000000, 1.000000)">
            <g id="Group-3" transform="translate(0.000000, 7.538100)">
                <mask id="mask-2" fill="white">
                    <use xlink:href="#path-1"></use>
                </mask>
                <g id="Clip-2"></g>
                <path d="M15.5654,14 L4.4354,14 C1.9904,14 0.0004,12.011 0.0004,9.565 L0.0004,4.69 C0.0004,2.245 1.9904,0.256 4.4354,0.256 L5.3684,0.256 C5.7824,0.256 6.1184,0.592 6.1184,1.006 C6.1184,1.42 5.7824,1.756 5.3684,1.756 L4.4354,1.756 C2.8164,1.756 1.5004,3.072 1.5004,4.69 L1.5004,9.565 C1.5004,11.184 2.8164,12.5 4.4354,12.5 L15.5654,12.5 C17.1834,12.5 18.5004,11.184 18.5004,9.565 L18.5004,4.681 C18.5004,3.068 17.1884,1.756 15.5764,1.756 L14.6334,1.756 C14.2194,1.756 13.8834,1.42 13.8834,1.006 C13.8834,0.592 14.2194,0.256 14.6334,0.256 L15.5764,0.256 C18.0154,0.256 20.0004,2.241 20.0004,4.681 L20.0004,9.565 C20.0004,12.011 18.0104,14 15.5654,14" id="Fill-1" fill="#000000" mask="url(#mask-2)"></path>
            </g>
            <g id="Group-6" transform="translate(9.000000, 0.538100)">
                <mask id="mask-4" fill="white">
                    <use xlink:href="#path-3"></use>
                </mask>
                <g id="Clip-5"></g>
                <path d="M1,14.0029 C0.586,14.0029 0.25,13.6669 0.25,13.2529 L0.25,1.2119 C0.25,0.7979 0.586,0.4619 1,0.4619 C1.414,0.4619 1.75,0.7979 1.75,1.2119 L1.75,13.2529 C1.75,13.6669 1.414,14.0029 1,14.0029" id="Fill-4" fill="#000000" mask="url(#mask-4)"></path>
            </g>
            <path d="M7.085,5.4287 C6.894,5.4287 6.702,5.3557 6.556,5.2097 C6.263,4.9177 6.261,4.4437 6.554,4.1497 L9.469,1.2217 C9.75,0.9387 10.25,0.9387 10.531,1.2217 L13.447,4.1497 C13.739,4.4437 13.738,4.9177 13.445,5.2097 C13.151,5.5017 12.677,5.5017 12.385,5.2077 L10,2.8137 L7.616,5.2077 C7.47,5.3557 7.277,5.4287 7.085,5.4287" id="Fill-7" fill="#000000"></path>
        </g>
    </g>
</svg>