<?xml version="1.0" encoding="UTF-8"?>
<svg width="24px" height="24px" viewBox="0 0 24 24" version="1.1" xmlns="http://www.w3.org/2000/svg" xmlns:xlink="http://www.w3.org/1999/xlink">
    <title>Iconly/Broken/Upload</title>
    <g id="Iconly/Broken/Upload" stroke="none" stroke-width="1" fill="none" fill-rule="evenodd">
        <g id="Upload" transform="translate(2.500000, 2.000000)" fill="#000000" fill-rule="nonzero">
            <path d="M14.7856314,6.60169268 C17.1094244,6.60169268 19,8.53980648 19,10.9230047 L19,10.9230047 L19,15.6699226 C19,18.0570166 17.1046742,20 14.775181,20 C14.3714149,20 14.0446018,19.6639953 14.0446018,19.2500766 C14.0446018,18.8361578 14.3714149,18.5001531 14.775181,18.5001531 C16.299042,18.5001531 17.5369415,17.2301529 17.5369415,15.6699226 L17.5369415,15.6699226 L17.5369415,10.9230047 C17.5369415,9.36667011 16.3028421,8.10153954 14.7856314,8.10153954 L14.7856314,8.10153954 L13.8916457,8.10153954 C13.4878795,8.10153954 13.1601164,7.76553488 13.1601164,7.35161611 C13.1601164,6.93769733 13.4878795,6.60169268 13.8916457,6.60169268 L13.8916457,6.60169268 Z M5.10930437,6.60149789 C5.51212048,6.60149789 5.8398836,6.93750255 5.8398836,7.35142132 C5.8398836,7.7653401 5.51212048,8.10134475 5.10930437,8.10134475 L5.10930437,8.10134475 L4.22481899,8.10134475 C2.70095804,8.10134475 1.46305852,9.37134495 1.46305852,10.9325492 L1.46305852,10.9325492 L1.46305852,15.6784932 C1.46305852,17.2348278 2.69810792,18.4999584 4.21436857,18.4999584 L4.21436857,18.4999584 L11.448908,18.4999584 C11.8526741,18.4999584 12.1804372,18.835963 12.1804372,19.2498818 C12.1804372,19.6638006 11.8526741,19.9998052 11.448908,19.9998052 L11.448908,19.9998052 L4.21436857,19.9998052 C1.89057562,19.9998052 2.94285631e-14,18.0616914 2.95744919e-14,15.6784932 L2.95744919e-14,15.6784932 L2.98650972e-14,10.9325492 C3.00113241e-14,8.54448133 1.89532581,6.60149789 4.22481899,6.60149789 L4.22481899,6.60149789 Z M9.22087884,0.0567115857 C9.49448978,-0.0591856718 9.8099024,0.00606740594 10.0189108,0.220331243 L10.0189108,0.220331243 L12.7825713,3.06614457 C12.924127,3.21320748 12.9963299,3.40409708 12.9963299,3.59596061 C12.9963299,3.78782414 12.924127,3.98066159 12.7806712,4.12675057 C12.4937598,4.41892853 12.0310912,4.41892853 11.7460798,4.12480272 L11.7460798,4.12480272 L10.2317193,2.56554634 L10.2317193,12.4509007 C10.2317193,12.8648194 9.90395616,13.201798 9.50019001,13.201798 C9.09642386,13.201798 8.76771071,12.8648194 8.76771071,12.4509007 L8.76771071,12.4509007 L8.76771071,0.750147278 C8.76771071,0.446282199 8.94631785,0.172608843 9.22087884,0.0567115857 Z M6.90858134,2.3512825 C7.19359274,2.05618276 7.65626125,2.05423491 7.94317273,2.34543894 C8.0875785,2.49250185 8.16073143,2.6853393 8.16073143,2.87817675 C8.16073143,3.06906635 8.08947858,3.25995595 7.94887295,3.40604493 L7.94887295,3.40604493 L7.25629525,4.12382879 C6.97223389,4.4179546 6.50861534,4.41990246 6.22265391,4.12869842 C5.93384235,3.83652046 5.93194228,3.36319217 6.21695368,3.06809243 L6.21695368,3.06809243 Z"></path>
        </g>
    </g>
</svg>