<?xml version="1.0" encoding="UTF-8"?>
<svg width="24px" height="24px" viewBox="0 0 24 24" version="1.1" xmlns="http://www.w3.org/2000/svg" xmlns:xlink="http://www.w3.org/1999/xlink">
    <title>Iconly/Light-Outline/Video</title>
    <defs>
        <polygon id="path-1" points="0.000192990948 0.498653869 15.5004737 0.498653869 15.5004737 16 0.000192990948 16"></polygon>
    </defs>
    <g id="Iconly/Light-Outline/Video" stroke="none" stroke-width="1" fill="none" fill-rule="evenodd">
        <g id="Video" transform="translate(2.000000, 4.000000)">
            <g id="Group-3" transform="translate(0.000000, 0.501600)">
                <mask id="mask-2" fill="white">
                    <use xlink:href="#path-1"></use>
                </mask>
                <g id="Clip-2"></g>
                <path d="M4.8473,2 C4.4083,2 4.1253,2 4.0763,2.002 C3.3383,2.033 2.6573,2.346 2.1663,2.882 C1.7083,3.383 1.4723,4.023 1.5033,4.687 C1.5033,7.58 1.5043,11.922 1.5113,12.16 C1.6253,13.545 2.9233,14.604 4.4093,14.49 C7.1593,14.494 11.2333,14.503 11.4243,14.496 C12.1593,14.466 12.8413,14.154 13.3323,13.619 C13.7913,13.12 14.0273,12.48 13.9983,11.819 C13.9973,11.808 13.9973,11.797 13.9973,11.786 C13.9983,8.926 13.9983,4.587 13.9913,4.354 C13.8783,2.962 12.5743,1.89 11.0803,2.007 C9.0143,2.004 6.1953,2 4.8473,2 M4.1463,16.0000005 C2.0323,16.001 0.1883,14.381 0.0143,12.256 C0.0113,12.215 0.0013,12.09 0.0043,4.721 C-0.0437,3.69 0.3303,2.666 1.0603,1.869 C1.8223,1.037 2.8733,0.552 4.0203,0.503 C4.1593,0.493 8.9673,0.505 11.0263,0.509 C13.2763,0.351 15.3073,2.021 15.4883,4.262 C15.4963,4.371 15.4993,6.896 15.4973,11.771 C15.5393,12.827 15.1633,13.844 14.4373,14.634 C13.6743,15.465 12.6223,15.948 11.4763,15.995 C11.3363,16.005 6.5263,15.992 4.4643,15.988 C4.3583,15.996 4.2523,16.0000005 4.1463,16.0000005" id="Fill-1" fill="#000000" mask="url(#mask-2)"></path>
            </g>
            <path d="M18.8185,14.3493 C18.3675,14.3493 17.9225,14.1943 17.5555,13.8933 L14.2745,11.1973 C13.9545,10.9343 13.9085,10.4613 14.1715,10.1413 C14.4335,9.8223 14.9065,9.7743 15.2265,10.0383 L18.5065,12.7343 C18.7275,12.9143 18.9495,12.8403 19.0355,12.7983 C19.1215,12.7583 19.3205,12.6333 19.3205,12.3493 L19.3325,5.0003 C19.3335,4.7163 19.1335,4.5913 19.0475,4.5503 C18.9625,4.5103 18.7375,4.4353 18.5185,4.6153 L15.2255,7.3103 C14.9035,7.5733 14.4325,7.5263 14.1705,7.2043 C13.9075,6.8843 13.9555,6.4123 14.2755,6.1503 L17.5685,3.4543 C18.1725,2.9593 18.9855,2.8623 19.6905,3.1953 C20.3955,3.5303 20.8335,4.2223 20.8325017,5.0023 L20.8205,12.3513 C20.8195,13.1313 20.3805,13.8233 19.6765,14.1553 C19.4005,14.2863 19.1085,14.3493 18.8185,14.3493" id="Fill-4" fill="#000000"></path>
        </g>
    </g>
</svg>