<?xml version="1.0" encoding="UTF-8"?>
<svg width="24px" height="24px" viewBox="0 0 24 24" version="1.1" xmlns="http://www.w3.org/2000/svg" xmlns:xlink="http://www.w3.org/1999/xlink">
    <title>Iconly/Broken/Video</title>
    <g id="Iconly/Broken/Video" stroke="none" stroke-width="1" fill="none" fill-rule="evenodd">
        <g id="Video" transform="translate(2.000000, 4.500000)" fill="#000000" fill-rule="nonzero">
            <path d="M19.0204878,2.56859407 C18.4185366,2.28177592 17.7229268,2.36723201 17.2078049,2.79156571 L15.6331707,4.08912317 C15.3209756,4.34647371 15.275122,4.81009757 15.5307317,5.12638334 C15.7863415,5.43972235 16.2478049,5.48687054 16.5609756,5.22853775 L18.1356098,3.93098029 C18.2380488,3.84650645 18.342439,3.87499181 18.3941463,3.89954816 C18.4478049,3.92606902 18.5365854,3.98795102 18.5365854,4.12546657 L18.5365854,10.8745334 C18.5365854,11.012049 18.4478049,11.073931 18.3941463,11.1004518 C18.342439,11.1259904 18.2380488,11.1534935 18.1346341,11.0690197 L14.4058537,7.99456486 L14.4058537,4.08715867 C14.4058537,1.6806365 12.6887805,0 10.2302439,0 L4.17560976,0 C1.71707317,0 0,1.6806365 0,4.08715867 L0,10.9236461 C0,13.3232925 1.71317073,15 4.16585366,15 C4.5697561,15 4.89756098,14.6699627 4.89756098,14.2633095 C4.89756098,13.8566564 4.5697561,13.5266191 4.16585366,13.5266191 C2.49853659,13.5266191 1.46341463,12.5296313 1.46341463,10.9236461 L1.46341463,4.08715867 C1.46341463,2.47429769 2.50243902,1.47338092 4.17560976,1.47338092 L10.2302439,1.47338092 C11.9034146,1.47338092 12.942439,2.47429769 12.942439,4.08715867 L12.942439,10.9236461 C12.942439,12.5296313 11.9034146,13.5266191 10.2302439,13.5266191 L8.54341463,13.5266191 C8.1395122,13.5266191 7.81170732,13.8566564 7.81170732,14.2633095 C7.81170732,14.6699627 8.1395122,15 8.54341463,15 L10.2302439,15 C12.6887805,15 14.4058537,13.3232925 14.4058537,10.9236461 L14.4058537,9.89915526 L17.2078049,12.2084343 C17.52,12.4667671 17.8995122,12.5993714 18.2839024,12.5993714 C18.5326829,12.5993714 18.7834146,12.5443651 19.0204878,12.4314059 C19.6243902,12.1436055 20,11.5473774 20,10.8745334 L20,4.12546657 C20,3.45262262 19.6243902,2.85639447 19.0204878,2.56859407"></path>
        </g>
    </g>
</svg>