<?xml version="1.0" encoding="UTF-8"?>
<svg width="24px" height="24px" viewBox="0 0 24 24" version="1.1" xmlns="http://www.w3.org/2000/svg" xmlns:xlink="http://www.w3.org/1999/xlink">
    <title>Iconly/Broken/Voice</title>
    <g id="Iconly/Broken/Voice" stroke="none" stroke-width="1" fill="none" fill-rule="evenodd">
        <g id="Voice" transform="translate(4.000000, 2.000000)" fill="#000000" fill-rule="nonzero">
            <path d="M15.2964388,8.27388274 C15.6849142,8.27388274 16,8.59688597 16,8.99388994 C16,13.2589326 12.7855374,16.7659677 8.70409942,17.1329713 L8.70409942,17.1329713 L8.70409942,19.2799928 C8.70409942,19.6779968 8.38901358,20 8.00053819,20 C7.61108427,20 7.29599843,19.6779968 7.29599843,19.2799928 L7.29599843,19.2799928 L7.29599843,16.4499645 C7.29599843,16.0529605 7.61108427,15.7299573 8.00053819,15.7299573 C11.6347891,15.7299573 14.5928775,12.7079271 14.5928775,8.99388994 C14.5928775,8.59688597 14.9079634,8.27388274 15.2964388,8.27388274 Z M0.703561228,8.27388274 C1.09301515,8.27388274 1.40810098,8.59688597 1.40810098,8.99388994 C1.40810098,11.5749157 2.81522344,13.8899389 5.07953593,15.0359504 C5.4278917,15.2119521 5.57075671,15.6419564 5.39853588,15.99996 C5.27621995,16.2529625 5.02669545,16.398964 4.76738568,16.398964 C4.66268324,16.398964 4.55602375,16.3759638 4.45523543,16.3239632 C1.70753038,14.9349493 -4.4408921e-16,12.1259213 -4.4408921e-16,8.99388994 C-4.4408921e-16,8.59688597 0.315085835,8.27388274 0.703561228,8.27388274 Z M8.12383265,-8.79296636e-14 C10.5006758,-8.79296636e-14 12.434246,1.97501975 12.434246,4.40304403 L12.434246,4.40304403 L12.434246,8.98708987 C12.434246,11.4161142 10.5006758,13.3921339 8.12383265,13.3921339 L8.12383265,13.3921339 L7.87528668,13.3921339 C5.49942206,13.3921339 3.56585184,11.4161142 3.56585184,8.98708987 L3.56585184,8.98708987 L3.56585184,4.40304403 C3.56585184,1.97501975 5.49942206,-8.79296636e-14 7.87528668,-8.79296636e-14 L7.87528668,-8.79296636e-14 Z M8.12383265,1.43801438 L7.87528668,1.43801438 C6.27539432,1.43801438 4.9729743,2.76802768 4.9729743,4.40304403 L4.9729743,4.40304403 L4.9729743,8.98708987 C4.9729743,10.6231062 6.27539432,11.9531195 7.87528668,11.9531195 L7.87528668,11.9531195 L8.12383265,11.9531195 C9.72470354,11.9531195 11.0271236,10.6231062 11.0271236,8.98708987 L11.0271236,8.98708987 L11.0271236,4.40304403 C11.0271236,2.76802768 9.72470354,1.43801438 8.12383265,1.43801438 L8.12383265,1.43801438 Z"></path>
        </g>
    </g>
</svg>