<?xml version="1.0" encoding="UTF-8"?>
<svg width="24px" height="24px" viewBox="0 0 24 24" version="1.1" xmlns="http://www.w3.org/2000/svg" xmlns:xlink="http://www.w3.org/1999/xlink">
    <title>Iconly/Broken/Voice 2</title>
    <g id="Iconly/Broken/Voice-2" stroke="none" stroke-width="1" fill="none" fill-rule="evenodd">
        <g id="Voice-2" transform="translate(4.000000, 2.000000)" fill="#000000" fill-rule="nonzero">
            <path d="M15.2964087,8.27446902 C15.6849007,8.27446902 16,8.59645614 16,8.99444022 C16,13.2582697 12.7863783,16.7661294 8.70378706,17.1321147 L8.70378706,17.1321147 L8.70378706,19.2800288 C8.70378706,19.6770129 8.38868774,20 8.00019571,20 C7.61072512,20 7.29660436,19.6770129 7.29660436,19.2800288 L7.29660436,19.2800288 L7.29660436,16.450142 C7.29660436,16.0521579 7.61072512,15.7301708 8.00019571,15.7301708 C11.6346022,15.7301708 14.5928173,12.7082917 14.5928173,8.99444022 C14.5928173,8.59645614 14.9079166,8.27446902 15.2964087,8.27446902 Z M0.703591349,8.27416903 C1.09208337,8.27416903 1.40816127,8.59715611 1.40816127,8.99414023 C1.40816127,11.575037 2.8143654,13.8899444 5.0797534,15.0358986 C5.42714551,15.2118915 5.57099521,15.6418743 5.398767,15.99986 C5.27546727,16.2528499 5.02593209,16.398844 4.76661121,16.398844 C4.6619043,16.398844 4.55524024,16.375845 4.45542617,16.323847 C1.70760348,14.9349026 3.55271368e-15,12.126015 3.55271368e-15,8.99414023 C3.55271368e-15,8.59715611 0.315099325,8.27416903 0.703591349,8.27416903 Z M8.12398473,-8.70414851e-14 C10.5009296,-8.70414851e-14 12.4345826,1.97592096 12.4345826,4.40382385 L12.4345826,4.40382385 L12.4345826,4.91180353 C12.4345826,5.30878765 12.1194833,5.63077477 11.7309913,5.63077477 L11.7309913,5.63077477 L9.85507388,5.63077477 C9.46658186,5.63077477 9.15148253,5.30878765 9.15148253,4.91180353 C9.15148253,4.51481941 9.46658186,4.19283229 9.85507388,4.19283229 L9.85507388,4.19283229 L11.0195714,4.19283229 C10.9129073,2.65589376 9.65544574,1.43894244 8.12398473,1.43894244 L8.12398473,1.43894244 L7.87542812,1.43894244 C6.2744887,1.43894244 4.97299149,2.76888924 4.97299149,4.40382385 L4.97299149,4.40382385 L4.97299149,8.98764049 C4.97299149,10.6225751 6.2744887,11.9525219 7.87542812,11.9525219 L7.87542812,11.9525219 L8.12398473,11.9525219 C9.72492416,11.9525219 11.0264214,10.6225751 11.0264214,8.98764049 L11.0264214,8.98764049 L11.0264214,8.82364705 L8.91662589,8.82364705 C8.52813387,8.82364705 8.21303454,8.50065997 8.21303454,8.10467581 C8.21303454,7.70669173 8.52813387,7.38470461 8.91662589,7.38470461 L8.91662589,7.38470461 L11.7309913,7.38470461 C12.1194833,7.38470461 12.4345826,7.70669173 12.4345826,8.10467581 L12.4345826,8.10467581 L12.4345826,8.98764049 C12.4345826,11.4155434 10.5009296,13.3914643 8.12398473,13.3914643 L8.12398473,13.3914643 L7.87542812,13.3914643 C5.49848322,13.3914643 3.56483022,11.4155434 3.56483022,8.98764049 L3.56483022,8.98764049 L3.56483022,4.40382385 C3.56483022,1.97592096 5.49848322,-8.70414851e-14 7.87542812,-8.70414851e-14 L7.87542812,-8.70414851e-14 Z"></path>
        </g>
    </g>
</svg>