<?xml version="1.0" encoding="UTF-8"?>
<svg width="24px" height="24px" viewBox="0 0 24 24" version="1.1" xmlns="http://www.w3.org/2000/svg" xmlns:xlink="http://www.w3.org/1999/xlink">
    <title>Iconly/Light-Outline/Voice</title>
    <defs>
        <polygon id="path-1" points="0 0.3009 17.4995 0.3009 17.4995 9.8389 0 9.8389"></polygon>
    </defs>
    <g id="Iconly/Light-Outline/Voice" stroke="none" stroke-width="1" fill="none" fill-rule="evenodd">
        <g id="Voice" transform="translate(3.000000, 1.000000)">
            <path d="M8.7495,21.5 C8.3355,21.5 7.9995,21.164 7.9995,20.75 L7.9995,17.589 C7.9995,17.175 8.3355,16.839 8.7495,16.839 C9.1635,16.839 9.4995,17.175 9.4995,17.589 L9.4995,20.75 C9.4995,21.164 9.1635,21.5 8.7495,21.5" id="Fill-1" fill="#000000"></path>
            <path d="M8.7495,1.5 C6.9235,1.5 5.4375,2.994 5.4375,4.831 L5.4375,9.519 C5.4375,11.354 6.9235,12.849 8.7495,12.849 C10.5755,12.849 12.0615,11.354 12.0615,9.519 L12.0615,4.831 C12.0615,2.994 10.5755,1.5 8.7495,1.5 M8.7495,14.349 C6.0965,14.349 3.9375,12.182 3.9375,9.519 L3.9375,4.831 C3.9375,2.167 6.0965,0 8.7495,0 C11.4025,0 13.5615,2.167 13.5615,4.831 L13.5615,9.519 C13.5615,12.182 11.4025,14.349 8.7495,14.349" id="Fill-3" fill="#000000"></path>
            <g id="Group-7" transform="translate(0.000000, 8.500000)">
                <mask id="mask-2" fill="white">
                    <use xlink:href="#path-1"></use>
                </mask>
                <g id="Clip-6"></g>
                <path d="M8.7495,9.8389 C3.9245,9.8389 -0.0005,5.8969 -0.0005,1.0509 C-0.0005,0.6369 0.3355,0.3009 0.7495,0.3009 C1.1645,0.3009 1.4995,0.6369 1.4995,1.0509 C1.4995,5.0689 4.7515,8.3389 8.7495,8.3389 C12.7475,8.3389 15.9995,5.0689 15.9995,1.0509 C15.9995,0.6369 16.3355,0.3009 16.7495,0.3009 C17.1645,0.3009 17.4995,0.6369 17.4995,1.0509 C17.4995,5.8969 13.5745,9.8389 8.7495,9.8389" id="Fill-5" fill="#000000" mask="url(#mask-2)"></path>
            </g>
        </g>
    </g>
</svg>