<?xml version="1.0" encoding="UTF-8"?>
<svg width="24px" height="24px" viewBox="0 0 24 24" version="1.1" xmlns="http://www.w3.org/2000/svg" xmlns:xlink="http://www.w3.org/1999/xlink">
    <title>Iconly/Light-Outline/Volume Off</title>
    <defs>
        <polygon id="path-1" points="0 0.10104354 12.0337237 0.10104354 12.0337237 13.2873 0 13.2873"></polygon>
        <polygon id="path-3" points="0.00175 0.50025 17.5 0.50025 17.5 18 0.00175 18"></polygon>
    </defs>
    <g id="Iconly/Light-Outline/Volume-Off" stroke="none" stroke-width="1" fill="none" fill-rule="evenodd">
        <g id="Volume-Off" transform="translate(3.000000, 3.000000)">
            <g id="Group-3" transform="translate(0.000000, 1.500000)">
                <mask id="mask-2" fill="white">
                    <use xlink:href="#path-1"></use>
                </mask>
                <g id="Clip-2"></g>
                <path d="M9.2305,1.6113 C8.3645,1.6113 7.2515,2.5273 6.3255,3.2893 C5.4355,4.0213 4.7335,4.5993 4.0285,4.6553 C3.7135,4.6793 3.4435,4.6903 3.2055,4.6993 C2.4665,4.7263 2.2795,4.7443 1.9475,5.0283 C1.4945,5.4153 1.4985,6.9633 1.5005,7.8873 L1.5015,8.1333 L1.5005,8.3803 C1.4985,9.3043 1.4945,10.8523 1.9475,11.2393 C2.2865,11.5293 2.4785,11.5473 3.2355,11.5733 C3.4645,11.5813 3.7235,11.5903 4.0225,11.6113 C4.1085,11.6173 4.1965,11.6313 4.2865,11.6533 L10.5245,5.4153 C10.4515,3.1903 10.2265,2.1923 9.6965,1.7183 C9.5525,1.6443 9.3965,1.6113 9.2305,1.6113 M4.4635,13.2873 C4.3345,13.2873 4.2055,13.2543 4.0885,13.1863 C3.9685,13.1173 3.9135,13.1073 3.9135,13.1073 C3.6375,13.0883 3.3975,13.0793 3.1835,13.0723 C2.3675,13.0443 1.7225,13.0213 0.9725,12.3803 C-0.0075,11.5423 -0.0035,9.7873 0.0005,8.3763 L0.0015,8.1333 L0.0005,7.8913 C-0.0035,6.4803 -0.0075,4.7243 0.9735,3.8873 C1.7135,3.2543 2.3475,3.2303 3.1485,3.2003 C3.3695,3.1913 3.6185,3.1823 3.9105,3.1593 C4.1615,3.1273 4.8905,2.5273 5.3725,2.1313 C6.7785,0.9723 8.7055,-0.6137 10.5075,0.4543 C10.5405,0.4723 10.5715,0.4943 10.6005,0.5183 C11.7245,1.4333 11.9645,2.9813 12.0335,5.6983 C12.0385,5.9033 11.9595,6.1013 11.8135,6.2473 L4.9945,13.0673 C4.8495,13.2123 4.6575,13.2873 4.4635,13.2873" id="Fill-1" fill="#000000" mask="url(#mask-2)"></path>
            </g>
            <path d="M9.2329,17.666 C8.2229,17.666 7.2639,17.081 6.5529,16.566 C6.2169,16.324 6.1419,15.855 6.3839,15.52 C6.6279,15.184 7.0969,15.107 7.4319,15.352 C8.7449,16.301 9.3369,16.238 9.6959,16.05 C10.2779,15.531 10.4989,14.363 10.5329,11.657 C10.5389,11.243 10.8419,10.921 11.2929,10.917 C11.7069,10.923 12.0389,11.263 12.0329,11.677 C11.9949,14.632 11.7629,16.305 10.5999,17.25 C10.5699,17.273 10.5399,17.295 10.5079,17.313 C10.0839,17.564 9.6539,17.666 9.2329,17.666" id="Fill-4" fill="#000000"></path>
            <g id="Group-8" transform="translate(0.000000, 0.500000)">
                <mask id="mask-4" fill="white">
                    <use xlink:href="#path-3"></use>
                </mask>
                <g id="Clip-7"></g>
                <path d="M0.7515,18 C0.5595,18 0.3675,17.927 0.2215,17.78 C-0.0715,17.487 -0.0715,17.013 0.2215,16.72 L16.2205,0.72 C16.5135,0.427 16.9875,0.427 17.2805,0.72 C17.5735,1.013 17.5735,1.487 17.2805,1.78 L1.2815,17.78 C1.1355,17.927 0.9435,18 0.7515,18" id="Fill-6" fill="#000000" mask="url(#mask-4)"></path>
            </g>
        </g>
    </g>
</svg>