<?xml version="1.0" encoding="UTF-8"?>
<svg width="24px" height="24px" viewBox="0 0 24 24" version="1.1" xmlns="http://www.w3.org/2000/svg" xmlns:xlink="http://www.w3.org/1999/xlink">
    <title>Iconly/Light-Outline/Volume Down</title>
    <defs>
        <polygon id="path-1" points="0.000116419338 0.498 12.0201 0.498 12.0201 15.9999 0.000116419338 15.9999"></polygon>
    </defs>
    <g id="Iconly/Light-Outline/Volume-Down" stroke="none" stroke-width="1" fill="none" fill-rule="evenodd">
        <g id="Volume-Down" transform="translate(3.000000, 4.000000)">
            <g id="Group-3" transform="translate(0.000000, 0.502200)">
                <mask id="mask-2" fill="white">
                    <use xlink:href="#path-1"></use>
                </mask>
                <g id="Clip-2"></g>
                <path d="M9.2081,2.0039 C8.3401,2.0039 7.2301,2.8849 6.3061,3.6189 C5.4171,4.3239 4.7151,4.8819 4.0151,4.9339 C3.7051,4.9559 3.4391,4.9659 3.2051,4.9739 C2.4581,4.9989 2.2691,5.0159 1.9321,5.2939 C1.4901,5.6569 1.4971,7.1399 1.5011,8.0249 L1.5021,8.2459 L1.5021,8.2499 L1.5011,8.4709 C1.4971,9.3569 1.4901,10.8399 1.9321,11.2029 C2.2681,11.4809 2.4571,11.4969 3.2021,11.5239 C3.4371,11.5309 3.7041,11.5409 4.0151,11.5639 C4.7151,11.6149 5.4171,12.1729 6.3061,12.8779 C7.4091,13.7529 8.7761,14.8379 9.6811,14.3869 C10.4391,13.7299 10.5201,11.9879 10.5201,8.2479 C10.5201,4.5079 10.4391,2.7669 9.6811,2.1089 C9.5341,2.0359 9.3751,2.0039 9.2081,2.0039 M9.2181,15.9999 C7.8271,15.9999 6.4481,14.9049 5.3741,14.0529 C4.8891,13.6679 4.1561,13.0859 3.9031,13.0599 C3.6161,13.0379 3.3681,13.0289 3.1491,13.0229 C2.3511,12.9939 1.7201,12.9729 0.9781,12.3609 C-0.0139,11.5439 -0.0049,9.8359 0.0011,8.4639 L0.0021,8.2479 L0.0011,8.0319 C-0.0049,6.6599 -0.0139,4.9529 0.9781,4.1359 C1.7211,3.5239 2.3531,3.5019 3.1531,3.4749 C3.3711,3.4669 3.6181,3.4589 3.9051,3.4379 C4.1561,3.4109 4.8891,2.8289 5.3741,2.4439 C6.7721,1.3329 8.6891,-0.1841 10.4741,0.8329 C10.5051,0.8519 10.5361,0.8719 10.5641,0.8949 C11.9581,1.9899 12.0201,4.0549 12.0201,8.2479 C12.0201,12.4419 11.9581,14.5069 10.5641,15.6029 C10.5361,15.6249 10.5051,15.6459 10.4731,15.6639 C10.0591,15.8999 9.6381,15.9999 9.2181,15.9999" id="Fill-1" fill="#000000" mask="url(#mask-2)"></path>
            </g>
            <path d="M15.3306,13.1868 C15.2036,13.1868 15.0756,13.1548 14.9576,13.0868 C14.5986,12.8808 14.4746,12.4218 14.6806,12.0638 C15.8516,10.0228 15.8516,7.4848 14.6806,5.4378 C14.4746,5.0778 14.5996,4.6198 14.9586,4.4138 C15.3186,4.2118 15.7756,4.3328 15.9816,4.6918 C17.4166,7.1998 17.4166,10.3098 15.9816,12.8098 C15.8426,13.0518 15.5906,13.1868 15.3306,13.1868" id="Fill-4" fill="#000000"></path>
        </g>
    </g>
</svg>