<?xml version="1.0" encoding="UTF-8"?>
<svg width="24px" height="24px" viewBox="0 0 24 24" version="1.1" xmlns="http://www.w3.org/2000/svg" xmlns:xlink="http://www.w3.org/1999/xlink">
    <title>Iconly/Broken/Volume Down</title>
    <g id="Iconly/Broken/Volume-Down" stroke="none" stroke-width="1" fill="none" fill-rule="evenodd">
        <g id="Volume-Down" transform="translate(3.000000, 3.000000)" fill="#000000" fill-rule="nonzero">
            <path d="M9.82334492,-2.30926389e-14 C10.8850723,0.0183509622 11.8576643,0.753536383 12.2108212,1.95667134 C12.3417037,2.46017586 12.3936053,2.96368039 12.4443787,3.45227475 L12.4443787,3.45227475 L12.4917672,3.89269785 C12.6745513,5.3699503 12.6745513,12.6289028 12.4917672,14.109596 L12.4917672,14.109596 L12.4443787,14.5649293 C12.3992468,15.0282911 12.3518584,15.50771 12.2164627,16.019243 C11.8655624,17.2200841 10.9211778,18 9.85042404,18 C9.81657514,17.9988531 9.78385452,17.9977061 9.75000562,17.9988531 C9.15652143,17.9988531 8.51226388,17.6375685 8.14782396,17.3244552 L8.14782396,17.3244552 L4.3770556,14.2002039 C4.03743822,13.9192048 3.98666486,13.4134064 4.26309761,13.0681789 C4.54065865,12.7240984 5.0382376,12.6713394 5.37785498,12.9523385 L5.37785498,12.9523385 L9.15877802,16.0869122 C9.39572038,16.2887728 9.70713033,16.4137887 9.79062431,16.3874092 C10.181015,16.4160826 10.5477116,16.0754428 10.6932619,15.5799669 C10.7891671,15.2186823 10.8275292,14.8229897 10.8681479,14.4066522 C10.883944,14.2414936 10.8997402,14.0786288 10.9200495,13.9123232 C11.0836526,12.5784376 11.0836526,5.42041545 10.9200495,4.08997069 L10.9200495,4.08997069 L10.8692762,3.61972728 C10.8241443,3.19192048 10.7778841,2.75149739 10.6864921,2.39021282 C10.5477116,1.92341022 10.1753736,1.56900726 9.831243,1.61144386 C9.6834361,1.6160316 9.31786789,1.76169237 9.0933368,1.9555244 L9.0933368,1.9555244 L5.37898328,5.04536766 C5.23681786,5.16350198 5.06080354,5.22773034 4.87689114,5.22773034 L4.87689114,5.22773034 L2.77036076,5.22773034 C2.10579386,5.22773034 1.78987072,5.80119791 1.71653142,6.33796355 C1.5393888,7.79113037 1.5382605,10.3029183 1.71653142,11.5966611 C1.77745945,12.0359373 1.47507587,12.4430993 1.04180985,12.5061807 C0.611928713,12.5589397 0.207998409,12.2595897 0.148198671,11.8191666 C-0.069562638,10.237543 -0.0278156513,7.55027399 0.147070374,6.12692749 C0.350163823,4.64508729 1.4276874,3.61858035 2.77036076,3.61858035 L2.77036076,3.61858035 L4.59481691,3.61858035 L8.07899785,0.720275264 C8.49759601,0.357843762 9.26145304,0.00458774054 9.82334492,-2.30926389e-14 Z M15.2221329,2.96390977 C15.5820597,2.71158404 16.0739971,2.79989805 16.324479,3.16462342 C17.4053875,4.74510004 18,6.81531796 18,9.00022939 C18,11.1828469 17.4053875,13.2553587 16.324479,14.8346884 C16.1699024,15.0594877 15.9239336,15.178769 15.6734517,15.178769 C15.5177467,15.178769 15.3597852,15.1317446 15.2221329,15.0342551 C14.8633345,14.7819294 14.7753274,14.2795718 15.024681,13.9148464 C15.921677,12.6027526 16.4169994,10.8571174 16.4169994,9.00022939 C16.4169994,7.14219447 15.921677,5.39655919 15.024681,4.08561234 C14.7753274,3.71859309 14.8633345,3.21852937 15.2221329,2.96390977 Z"></path>
        </g>
    </g>
</svg>