<?xml version="1.0" encoding="UTF-8"?>
<svg width="24px" height="24px" viewBox="0 0 24 24" version="1.1" xmlns="http://www.w3.org/2000/svg" xmlns:xlink="http://www.w3.org/1999/xlink">
    <title>Iconly/Broken/Volume Up</title>
    <g id="Iconly/Broken/Volume-Up" stroke="none" stroke-width="1" fill="none" fill-rule="evenodd">
        <g id="Volume-Up" transform="translate(1.000000, 2.500000)" fill="#000000" fill-rule="nonzero">
            <path d="M20.921727,12.3358472 L21.0256324,12.3501056 C21.4425271,12.4444793 21.7076237,12.8749155 21.6163249,13.3111062 C21.2060301,15.2941052 20.4569396,17.1412981 19.4515524,18.6547303 C19.3008543,18.8791556 19.0599574,19 18.8168605,19 C18.6639624,19 18.5099644,18.9528131 18.3757661,18.8549867 C18.0259705,18.600638 17.9401716,18.0976952 18.1832685,17.7305584 C19.0742572,16.390912 19.7397487,14.7439755 20.1071441,12.9681383 C20.1984429,12.5342494 20.6087377,12.2637882 21.0256324,12.3501056 Z M9.57917785,0.467763935 C10.6131647,0.486178319 11.5624526,1.22390458 11.9067483,2.43119763 C12.0343466,2.93644229 12.084946,3.44283785 12.1344454,3.93196993 L12.1344454,3.93196993 L12.1806448,4.37391514 C12.3588425,5.85742395 12.3588425,13.1426146 12.1806448,14.6284252 L12.1806448,14.6284252 L12.1344454,15.0853321 C12.0904459,15.5514462 12.0442465,16.0313711 11.9122482,16.5446721 C11.5701525,17.7496633 10.6494642,18.5334255 9.60557752,18.5334255 C9.57147795,18.5322746 9.53957835,18.5311237 9.50657877,18.5322746 C8.92798613,18.5322746 8.29989411,18.1697415 7.94459862,17.855546 L7.94459862,17.855546 L4.26844534,14.7193463 C3.93734955,14.437376 3.88785018,13.9298295 4.15734676,13.5834089 C4.42684333,13.2381392 4.91303715,13.1851979 5.24303296,13.4671681 L5.24303296,13.4671681 L8.93128609,16.6125751 C9.16228315,16.8151333 9.46477931,16.9405813 9.54617827,16.9152616 C9.92677343,16.9428831 10.2853689,16.6010661 10.4272671,16.1038778 C10.5196659,15.7413446 10.5570654,15.3442844 10.5977649,14.9253572 C10.6131647,14.7596277 10.6285645,14.5962001 10.6472643,14.4304706 C10.8078622,13.0919751 10.8078622,5.90806351 10.6483643,4.57186977 L10.6483643,4.57186977 L10.5988649,4.10115208 C10.5548655,3.67186675 10.509766,3.22877064 10.4195672,2.86738835 C10.2853689,2.39782156 9.9212735,2.04219377 9.58577777,2.08477703 C9.44277958,2.08938063 9.08638411,2.2355448 8.86638691,2.43004673 L8.86638691,2.43004673 L5.24523293,5.53171954 C5.10663469,5.65026213 4.93503687,5.71471248 4.75573915,5.71471248 L4.75573915,5.71471248 L2.70096526,5.71471248 C2.0530735,5.71471248 1.7461774,6.29016198 1.67357832,6.82878271 C1.50088052,8.28697174 1.50088052,10.8074406 1.67357832,12.1068055 C1.73297757,12.5475998 1.43818131,12.956169 1.01688667,13.0183175 C0.596692006,13.0724098 0.202897011,12.7708742 0.144597752,12.328929 C-0.0676995505,10.7418393 -0.0270000677,8.04528295 0.142397779,6.61701729 C0.341495249,5.12890489 1.39308189,4.09885028 2.70096526,4.09885028 L2.70096526,4.09885028 L4.48074265,4.09885028 L7.87749948,1.18937761 C8.28669428,0.825693524 9.03138481,0.472367531 9.57917785,0.467763935 Z M14.843051,3.44295294 C15.1928465,3.18860426 15.6735404,3.27837438 15.9177373,3.64320937 C16.9715239,5.22914819 17.5523165,7.30767178 17.5523165,9.50013438 C17.5523165,11.6914461 16.9715239,13.7711206 15.9177373,15.3559085 C15.7670392,15.5814847 15.5272423,15.7011782 15.2830454,15.7011782 C15.1312473,15.7011782 14.9772492,15.6539913 14.843051,15.5561649 C14.4921554,15.3029671 14.4063565,14.7988734 14.6494534,14.4317366 C15.5250423,13.1151081 16.0079362,11.3645908 16.0079362,9.50013438 C16.0079362,7.635678 15.5250423,5.88285882 14.6494534,4.56738126 C14.4063565,4.20024448 14.4921554,3.69730162 14.843051,3.44295294 Z M18.3755461,0.142865147 C18.7264416,-0.109181734 19.2082355,-0.0194116121 19.4513324,0.34657427 C21.0947115,2.81755442 22,6.069995 22,9.49967402 C22,9.94622283 21.6535044,10.3076051 21.2278098,10.3076051 C20.8010152,10.3076051 20.4556196,9.94622283 20.4556196,9.49967402 C20.4556196,6.39569942 19.6482299,3.47356685 18.1830485,1.26844437 C17.9399516,0.901307588 18.0268505,0.398364725 18.3755461,0.142865147 Z"></path>
        </g>
    </g>
</svg>