<?xml version="1.0" encoding="UTF-8"?>
<svg width="24px" height="24px" viewBox="0 0 24 24" version="1.1" xmlns="http://www.w3.org/2000/svg" xmlns:xlink="http://www.w3.org/1999/xlink">
    <title>Iconly/Broken/Volume Off</title>
    <g id="Iconly/Broken/Volume-Off" stroke="none" stroke-width="1" fill="none" fill-rule="evenodd">
        <g id="Volume-Off" transform="translate(2.500000, 2.500000)" fill="#000000" fill-rule="nonzero">
            <path d="M17.6288504,0.235246272 C17.9427452,-0.078415424 18.4506841,-0.078415424 18.7645789,0.235246272 C19.0784737,0.550052719 19.0784737,1.05946679 18.7645789,1.37427323 L18.7645789,1.37427323 L1.42388865,18.7641814 C1.26751197,18.9210122 1.06205355,19 0.856595138,19 C0.651136723,19 0.445678308,18.9210122 0.288160189,18.7641814 C-0.024593176,18.4493749 -0.024593176,17.9399608 0.288160189,17.6251544 L0.288160189,17.6251544 L11.1922949,6.69164031 C11.1808805,5.38204549 11.153486,5.17942461 11.1078286,4.86118391 L11.1078286,4.86118391 L11.0199381,4.1205302 C10.9742807,3.69124868 10.9274818,3.24823016 10.8350255,2.88877843 C10.6969118,2.43087814 10.3544811,2.10920319 9.98693883,2.10920319 L9.98693883,2.10920319 L9.96639298,2.10920319 C9.81686491,2.11492695 9.44703977,2.26145504 9.21875264,2.45377316 L9.21875264,2.45377316 L5.45315646,5.54460009 C5.30933557,5.66250941 5.13013018,5.72661545 4.9452176,5.72661545 L4.9452176,5.72661545 L2.80845008,5.72661545 C2.13500306,5.72661545 1.81540108,6.30013556 1.74006632,6.8381684 C1.56086093,8.28971231 1.55971949,10.8024401 1.74006632,12.0971532 C1.80170385,12.5378822 1.4957991,12.9454135 1.05634638,13.0060853 C1.018679,13.011809 0.981011623,13.0140985 0.944485683,13.0140985 C0.549548951,13.0140985 0.205976823,12.7221871 0.150046477,12.3203796 C-0.0702506016,10.7394788 -0.028017483,8.05045941 0.147763606,6.62753427 C0.354363457,5.14279259 1.44671736,4.1159512 2.80845008,4.1159512 L2.80845008,4.1159512 L4.65871726,4.1159512 L8.19146056,1.21629764 C8.61835749,0.854556409 9.36599784,0.522578702 9.96296868,0.498538937 C11.0313524,0.514565447 12.0221186,1.25178491 12.3805294,2.45491791 C12.5117945,2.95860822 12.5654419,3.46229854 12.6168065,3.94996234 L12.6168065,3.94996234 L12.6989899,4.63337852 C12.7218186,4.79478837 12.7400816,4.93444796 12.7549203,5.12447658 L12.7549203,5.12447658 Z M12.003399,11.05108 C12.4474175,11.0579485 12.8012625,11.423124 12.7944139,11.868432 C12.776151,13.1597108 12.7339178,14.0560506 12.6654317,14.61011 L12.6654317,14.61011 L12.61635,15.0668655 C12.5706925,15.5293448 12.5238937,16.0089953 12.3869214,16.5206989 C12.0285106,17.7226872 11.0719875,18.5022624 9.98762369,18.5022624 C9.95223918,18.5022624 9.91685468,18.5022624 9.88147017,18.5011176 C9.2833579,18.5011176 8.63045671,18.1405212 8.26063156,17.8268595 L8.26063156,17.8268595 L6.8589486,16.680964 C6.51537647,16.4005001 6.46287043,15.8933755 6.7436636,15.5488055 C7.02445676,15.2053803 7.52897132,15.1538665 7.87368488,15.4331857 L7.87368488,15.4331857 L9.28564077,16.5882392 C9.52305938,16.7885706 9.82439839,16.8904534 9.92027898,16.8904534 C9.92826903,16.8938876 9.93625908,16.8915981 9.94539057,16.8915981 C10.355166,16.8915981 10.6964552,16.5676337 10.842559,16.0834041 C10.9372981,15.7205182 10.9772484,15.3244344 11.0183401,14.9077451 C11.0343202,14.7440458 11.0514417,14.5792017 11.0708461,14.4143576 C11.1313422,13.9221148 11.1712924,13.0589727 11.1895554,11.8443922 C11.1952626,11.4013737 11.5285618,11.0545142 12.003399,11.05108 Z"></path>
        </g>
    </g>
</svg>