<?xml version="1.0" encoding="UTF-8"?>
<svg width="24px" height="24px" viewBox="0 0 24 24" version="1.1" xmlns="http://www.w3.org/2000/svg" xmlns:xlink="http://www.w3.org/1999/xlink">
    <title>Iconly/Light-Outline/Wallet</title>
    <defs>
        <polygon id="path-1" points="0 0.8271 20.6386 0.8271 20.6386 20 0 20"></polygon>
    </defs>
    <g id="Iconly/Light-Outline/Wallet" stroke="none" stroke-width="1" fill="none" fill-rule="evenodd">
        <g id="Wallet" transform="translate(2.000000, 2.000000)">
            <path d="M19.8887,13.8956 L15.8407,13.8956 C13.9437,13.8956 12.3997,12.3526 12.3987,10.4566 C12.3987,8.5586 13.9427,7.0146 15.8407,7.0136 L19.8887,7.0136 C20.3027,7.0136 20.6387,7.3496 20.6387,7.7636 C20.6387,8.1776 20.3027,8.5136 19.8887,8.5136 L15.8407,8.5136 C14.7697,8.5146 13.8987,9.3856 13.8987,10.4556 C13.8987,11.5246 14.7707,12.3956 15.8407,12.3956 L19.8887,12.3956 C20.3027,12.3956 20.6387,12.7316 20.6387,13.1456 C20.6387,13.5596 20.3027,13.8956 19.8887,13.8956" id="Fill-1" fill="#000000"></path>
            <path d="M16.2983,11.1436 L15.9863,11.1436 C15.5723,11.1436 15.2363,10.8076 15.2363,10.3936 C15.2363,9.9796 15.5723,9.6436 15.9863,9.6436 L16.2983,9.6436 C16.7123,9.6436 17.0483,9.9796 17.0483,10.3936 C17.0483,10.8076 16.7123,11.1436 16.2983,11.1436" id="Fill-3" fill="#000000"></path>
            <g id="Group-7" transform="translate(0.000000, 0.172900)">
                <mask id="mask-2" fill="white">
                    <use xlink:href="#path-1"></use>
                </mask>
                <g id="Clip-6"></g>
                <path d="M5.9976,2.3271 C3.5176,2.3271 1.4996,4.3451 1.4996,6.8251 L1.4996,14.0021 C1.4996,16.4821 3.5176,18.5001 5.9976,18.5001 L14.6416,18.5001 C17.1216,18.5001 19.1386,16.4821 19.1386,14.0021 L19.1386,6.8251 C19.1386,4.3451 17.1216,2.3271 14.6416,2.3271 L5.9976,2.3271 Z M14.6416,20.0001 L5.9976,20.0001 C2.6906,20.0001 -0.0004,17.3091 -0.0004,14.0021 L-0.0004,6.8251 C-0.0004,3.5171 2.6906,0.8271 5.9976,0.8271 L14.6416,0.8271 C17.9486,0.8271 20.6386,3.5171 20.6386,6.8251 L20.6386,14.0021 C20.6386,17.3091 17.9486,20.0001 14.6416,20.0001 L14.6416,20.0001 Z" id="Fill-5" fill="#000000" mask="url(#mask-2)"></path>
            </g>
            <path d="M10.6846,7.0381 L5.2856,7.0381 C4.8716,7.0381 4.5356,6.7021 4.5356,6.2881 C4.5356,5.8741 4.8716,5.5381 5.2856,5.5381 L10.6846,5.5381 C11.0986,5.5381 11.4346,5.8741 11.4346,6.2881 C11.4346,6.7021 11.0986,7.0381 10.6846,7.0381" id="Fill-8" fill="#000000"></path>
        </g>
    </g>
</svg>