<?xml version="1.0" encoding="UTF-8"?>
<svg width="24px" height="24px" viewBox="0 0 24 24" version="1.1" xmlns="http://www.w3.org/2000/svg" xmlns:xlink="http://www.w3.org/1999/xlink">
    <title>Iconly/Broken/Work</title>
    <g id="Iconly/Broken/Work" stroke="none" stroke-width="1" fill="none" fill-rule="evenodd">
        <g id="Work" transform="translate(2.000000, 2.000000)" fill="#000000" fill-rule="nonzero">
            <path d="M19.215,12.7253 C19.628,12.7253 19.963,13.0603 19.963,13.4733 C19.963,13.4953 19.822,15.2623 19.79,15.8063 C19.733,16.7443 19.369,17.7013 18.816,18.3673 C18.046,19.2953 17.065,19.7293 15.731,19.7323 L15.731,19.7323 L15.0633734,19.7329118 C15.0103092,19.7329448 14.9548894,19.7329776 14.8972675,19.7330101 L12.1366112,19.7339843 C12.0482259,19.734004 11.9594792,19.7340229 11.8705244,19.7340409 L9.53,19.7343 C9.116,19.7343 8.78,19.3983 8.78,18.9843 C8.78,18.5703 9.116,18.2343 9.531,18.2343 L9.531,18.2343 L11.9012289,18.2340409 C11.9898849,18.2340229 12.0782216,18.234004 12.1661003,18.2339843 L14.8922401,18.2330101 C14.9491575,18.2329776 15.0039529,18.2329448 15.0564876,18.2329118 L15.728,18.2323 C16.63,18.2303 17.172,17.9993 17.661,17.4093 C18.008,16.9923 18.256,16.3273 18.293,15.7163 C18.325,15.1643 18.479,13.4153 18.479,13.4153 C18.509,13.0313 18.822,12.7253 19.215,12.7253 Z M0.7752,12.7251 C1.1682,12.7251 1.4802,13.0311 1.5112,13.4161 C1.5112,13.4161 1.6652,15.1651 1.6982,15.7161 C1.7352,16.3271 1.9822,16.9921 2.3292,17.4081 C2.8192,18.0001 3.3612,18.2301 4.2622,18.2321 L4.2622,18.2321 L4.703325,18.232975 C4.75148125,18.2330063 4.80227031,18.2330297 4.85553008,18.2330473 L5.3972,18.2331 C5.8112,18.2331 6.1502,18.5691 6.1502,18.9831 C6.1502,19.3971 5.8102,19.7331 5.3952,19.7331 L5.3952,19.7331 L4.85177227,19.7330473 C4.79878594,19.7330297 4.74835625,19.7330063 4.700575,19.732975 L4.2602,19.7321 C2.9252,19.7291 1.9442,19.2951 1.1742,18.3661 C0.6222,17.7011 0.2572,16.7441 0.2012,15.8061 C0.1682,15.2621 0.0272,13.4951 0.0272,13.4731 C0.0272,13.0601 0.3622,12.7251 0.7752,12.7251 Z M9.9948,12.6334 C10.4088,12.6334 10.7448,12.9694 10.7448,13.3834 L10.7448,13.3834 L10.7448,14.6774 C10.7448,15.0914 10.4088,15.4274 9.9948,15.4274 C9.5808,15.4274 9.2448,15.0914 9.2448,14.6774 L9.2448,14.6774 L9.2448,13.3834 C9.2448,12.9694 9.5808,12.6334 9.9948,12.6334 Z M11.286,7.531753e-13 C12.789,7.531753e-13 14.034,1.127 14.22,2.581 L14.22,2.581 L16.183,2.581 C18.282,2.581 19.99,4.289 19.99,6.388 L19.99,6.388 L19.99,9.855 C19.99,10.107 19.864,10.341 19.654,10.481 C17.592,11.845 15.144,12.755 12.576,13.11 C12.541,13.115 12.507,13.117 12.472,13.117 C12.134,13.117 11.831,12.887 11.746,12.551 C11.544,11.756 10.822,11.199 9.99,11.199 C9.149,11.199 8.434,11.744 8.211,12.555 C8.111,12.919 7.763,13.156 7.384,13.1 C4.833,12.745 2.396,11.84 0.337,10.481 C0.126,10.342 2.84217094e-14,10.107 2.84217094e-14,9.855 L2.84217094e-14,9.855 L2.84217094e-14,6.388 C2.84217094e-14,4.289 1.712,2.581 3.817,2.581 L3.817,2.581 L5.77,2.58 C5.956,1.126 7.201,7.531753e-13 8.704,7.531753e-13 L8.704,7.531753e-13 Z M11.286,1.5 L8.704,1.5 C7.9,1.5 7.245,2.154 7.245,2.958 L7.245,2.958 L7.246,3.328 C7.246,3.527 7.167,3.717 7.027,3.859 C6.886,4 6.696,4.079 6.496,4.079 L6.496,4.079 L3.818,4.081 C2.539,4.081 1.5,5.116 1.5,6.388 L1.5,6.388 L1.5,9.445 C3.141,10.463 5.029,11.174 7.011,11.523 C7.574,10.423 8.719,9.699 9.99,9.699 C11.271,9.699 12.411,10.425 12.959,11.532 C14.953,11.181 16.847,10.466 18.49,9.445 L18.49,9.445 L18.49,6.388 C18.49,5.116 17.455,4.081 16.183,4.081 L16.183,4.081 L9.995,4.081 C9.581,4.081 9.245,3.745 9.245,3.331 C9.245,2.917 9.581,2.581 9.995,2.581 L9.995,2.581 L12.695,2.581 C12.528,1.959 11.959,1.5 11.286,1.5 L11.286,1.5 Z"></path>
        </g>
    </g>
</svg>