<?xml version="1.0" encoding="UTF-8"?>
<svg width="24px" height="24px" viewBox="0 0 24 24" version="1.1" xmlns="http://www.w3.org/2000/svg" xmlns:xlink="http://www.w3.org/1999/xlink">
    <title>Iconly/Light-Outline/Work</title>
    <defs>
        <polygon id="path-1" points="0.0002 0.8398 19.99 0.8398 19.99 11.1508 0.0002 11.1508"></polygon>
        <polygon id="path-3" points="0.7451 0.26 9.2451 0.26 9.2451 4.3359 0.7451 4.3359"></polygon>
    </defs>
    <g id="Iconly/Light-Outline/Work" stroke="none" stroke-width="1" fill="none" fill-rule="evenodd">
        <g id="Work" transform="translate(2.000000, 1.000000)">
            <path d="M9.9951,16.4267 C9.5811,16.4267 9.2451,16.0907 9.2451,15.6767 L9.2451,13.1397 C9.2451,12.7257 9.5811,12.3897 9.9951,12.3897 C10.4091,12.3897 10.7451,12.7257 10.7451,13.1397 L10.7451,15.6767 C10.7451,16.0907 10.4091,16.4267 9.9951,16.4267" id="Fill-1" fill="#000000"></path>
            <g id="Group-5" transform="translate(0.000000, 2.740200)">
                <mask id="mask-2" fill="white">
                    <use xlink:href="#path-1"></use>
                </mask>
                <g id="Clip-4"></g>
                <path d="M1.5002,7.6528 C3.8762,8.9438 6.8722,9.6508 9.9902,9.6508 C13.1142,9.6508 16.1132,8.9438 18.4902,7.6528 L18.4902,4.6508 C18.4902,3.3758 17.4592,2.3398 16.1902,2.3398 L3.8102,2.3398 C2.5362,2.3398 1.5002,3.3718 1.5002,4.6408 L1.5002,7.6528 Z M9.9902,11.1508 C6.4452,11.1508 3.0282,10.2928 0.3712,8.7368 C0.1412,8.6028 0.0002,8.3568 0.0002,8.0898 L0.0002,4.6408 C0.0002,2.5448 1.7092,0.8398 3.8102,0.8398 L16.1902,0.8398 C18.2862,0.8398 19.9902,2.5488 19.9902,4.6508 L19.9902,8.0898 C19.9902,8.3568 19.8482,8.6028 19.6192,8.7368 C16.9622,10.2928 13.5422,11.1508 9.9902,11.1508 L9.9902,11.1508 Z" id="Fill-3" fill="#000000" mask="url(#mask-2)"></path>
            </g>
            <g id="Group-8" transform="translate(5.000000, 0.740200)">
                <mask id="mask-4" fill="white">
                    <use xlink:href="#path-3"></use>
                </mask>
                <g id="Clip-7"></g>
                <path d="M8.4951,4.3359 C8.0811,4.3359 7.7451,3.9999 7.7451,3.5859 L7.7451,3.2199 C7.7451,2.4149 7.0901,1.7599 6.2851,1.7599 L3.7051,1.7599 C2.9001,1.7599 2.2451,2.4149 2.2451,3.2199 L2.2451,3.5859 C2.2451,3.9999 1.9091,4.3359 1.4951,4.3359 C1.0811,4.3359 0.7451,3.9999 0.7451,3.5859 L0.7451,3.2199 C0.7451,1.5879 2.0731,0.2599 3.7051,0.2599 L6.2851,0.2599 C7.9171,0.2599 9.2451,1.5879 9.2451,3.2199 L9.2451,3.5859 C9.2451,3.9999 8.9091,4.3359 8.4951,4.3359" id="Fill-6" fill="#000000" mask="url(#mask-4)"></path>
            </g>
            <path d="M15.7949,20.7402 L4.1949,20.7402 C2.1199,20.7402 0.3729,19.1192 0.2159,17.0492 L0.0259,14.5402 C-0.0051,14.1272 0.3049,13.7662 0.7179,13.7352 C1.1329,13.7202 1.4909,14.0132 1.5229,14.4272 L1.7119,16.9352 C1.8099,18.2272 2.8999,19.2402 4.1949,19.2402 L15.7949,19.2402 C17.0899,19.2402 18.1809,18.2272 18.2779,16.9352 L18.4679,14.4272 C18.4999,14.0132 18.8669,13.7192 19.2729,13.7352 C19.6859,13.7662 19.9949,14.1272 19.9639,14.5402 L19.7739,17.0492 C19.6169,19.1192 17.8699,20.7402 15.7949,20.7402" id="Fill-9" fill="#000000"></path>
        </g>
    </g>
</svg>