<?xml version="1.0" encoding="utf-8"?>
<!-- Generator: Adobe Illustrator 22.1.0, SVG Export Plug-In . SVG Version: 6.00 Build 0)  -->
<svg version="1.1" id="Layer_1" xmlns="http://www.w3.org/2000/svg" xmlns:xlink="http://www.w3.org/1999/xlink" x="0px" y="0px"
	 viewBox="0 0 32 32" style="enable-background:new 0 0 32 32;" xml:space="preserve">
<title>youtube</title>
<path d="M31.3,8.3c-0.4-1.3-1.4-2.4-2.8-2.8C26,4.8,16,4.8,16,4.8S6,4.8,3.5,5.5C2.1,5.9,1.1,6.9,0.7,8.3C0.2,10.8,0,13.4,0,16
	c0,2.6,0.2,5.2,0.7,7.7c0.4,1.3,1.4,2.4,2.8,2.8C6,27.2,16,27.2,16,27.2s10,0,12.5-0.7c1.4-0.4,2.4-1.4,2.8-2.8
	c0.5-2.5,0.7-5.1,0.7-7.7C32,13.4,31.8,10.8,31.3,8.3z M12.8,20.8v-9.6l8.3,4.8L12.8,20.8z"/>
</svg>
